<?xml version="1.0" encoding="utf-8"?>
<!-- Generator: Adobe Illustrator 16.0.3, SVG Export Plug-In . SVG Version: 6.00 Build 0)  -->
<!DOCTYPE svg PUBLIC "-//W3C//DTD SVG 1.1//EN" "http://www.w3.org/Graphics/SVG/1.1/DTD/svg11.dtd">
<svg version="1.1" id="Layer_2" xmlns="http://www.w3.org/2000/svg" xmlns:xlink="http://www.w3.org/1999/xlink" x="0px" y="0px"
	 width="274.158px" height="185.956px" viewBox="0 0 274.158 185.956" enable-background="new 0 0 274.158 185.956"
	 xml:space="preserve">
<g>
	<defs>
		<path id="SVGID_1_" d="M56.116,95.302c-0.249-0.055-0.456-0.166-0.593-0.333c-0.012-0.003-0.027-0.005-0.038-0.006
			c-0.286-0.062-0.416-0.325-0.37-0.599c0.044-0.271,0.371-0.324,0.517-0.186c0.128,0.014,0.255,0.103,0.281,0.255h0.001
			c0.306,0.058,0.502,0.234,0.583,0.535c0.056,0.207-0.127,0.341-0.305,0.341C56.166,95.31,56.142,95.307,56.116,95.302
			 M52.189,91.3c0.419,0.28,0.915,0.392,1.322,0.699c0.189,0.145,0.347,0.353,0.489,0.543c0.328,0.445,0.719,0.958,0.741,1.53
			c0.005,0.152-0.162,0.29-0.309,0.273c-0.318-0.035-0.547-0.146-0.814-0.315c-0.082-0.016-0.166-0.053-0.248-0.119
			c-0.008-0.007-0.017-0.016-0.027-0.022c-0.229-0.09-0.444-0.093-0.727-0.083c-0.459,0.019-0.563-0.141-0.78-0.495
			c-0.217-0.357-0.846-0.267-1.17-0.529c-0.294-0.239-0.355-0.489-0.273-0.853c0.038-0.172,0.306-0.268,0.44-0.146
			c0.236,0.21,1.005,0.312,0.867-0.196c-0.058-0.219,0.126-0.346,0.303-0.334C52.062,91.248,52.125,91.259,52.189,91.3
			 M48.832,91.868c-0.231-0.05-0.418-0.191-0.525-0.403c-0.065-0.127-0.087-0.252-0.217-0.302c-0.35-0.136-0.163-0.688,0.188-0.554
			c0.221,0.087,0.38,0.233,0.482,0.447c0.077,0.166,0.078,0.222,0.262,0.26c0.156,0.033,0.229,0.233,0.182,0.37
			c-0.046,0.133-0.158,0.191-0.282,0.191C48.893,91.877,48.862,91.874,48.832,91.868 M45.395,86.376
			c-0.17-0.043-0.321-0.25-0.204-0.456c0.781-1.381,2.527,0.237,3.229,0.876c0.575,0.523,1.207,0.757,1.444,1.556
			c0.27,0.911,1.251,1.432,1.431,2.375c0.036,0.178-0.111,0.369-0.302,0.349c-0.813-0.091-2.14-0.585-2.287-1.512
			c-0.114-0.706-0.74-1.336-1.181-1.892c-0.039-0.049-0.077-0.099-0.119-0.148c-0.03-0.034-0.059-0.067-0.082-0.103
			c-0.425-0.516-0.966-1.056-1.663-0.951c-0.017,0.002-0.033,0.004-0.049,0.004C45.52,86.474,45.445,86.433,45.395,86.376
			 M10.267,92.439c0,19.882,16.117,36,35.997,36c13.871,0,25.903-7.852,31.913-19.348c0.059-0.318,0.115-0.64,0.147-0.963
			c0.174-1.755,1.058-3.24,1.439-4.949c0.206-0.922,0.167-1.763,0.508-2.681c0.341-0.916,0.714-1.813,1.09-2.714
			c0.254-0.61,0.527-1.239,0.732-1.879c0.109-1.142,0.169-2.296,0.169-3.467c0-7.306-2.181-14.099-5.92-19.774
			c-0.047-0.014-0.095-0.017-0.134-0.061c-0.058-0.062-0.114-0.126-0.17-0.188c-0.027-0.015-0.052-0.034-0.074-0.059
			c-0.115-0.133-0.224-0.271-0.332-0.408c-0.153-0.183-0.301-0.367-0.447-0.557c-0.059-0.074-0.075-0.155-0.061-0.23
			c-0.022-0.006-0.047-0.013-0.067-0.019c-0.238-0.054-0.227-0.293-0.102-0.439c-0.292-0.386-0.588-0.768-0.896-1.14
			c-0.033,0.02-0.055,0.055-0.097,0.062c-0.182,0.09-0.481,0.268-0.715,0.453c-0.017,0.263-0.146,0.512-0.336,0.705
			c0.042,0.433,0.124,0.851-0.152,1.239c-0.092,0.127-0.252,0.153-0.379,0.085c-0.121,0.078-0.283,0.064-0.388-0.049
			c-0.161-0.174-0.446-0.249-0.629-0.42c-0.269-0.25-0.5-0.532-0.743-0.807c-0.238-0.271-0.479-0.533-0.652-0.854
			c-0.201-0.37-0.326-0.794-0.543-1.152c-0.474-0.791-0.654-1.822-1.184-2.543c-0.573-0.78-1.014-1.686-1.631-2.431l-2.793-1.856
			c-0.157,0.122-0.109,0.296,0.2,0.691c0.134,0.171,0.315,0.326,0.515,0.469c0.094,0.055,0.187,0.108,0.274,0.158
			c0.244,0.138,0.486,0.286,0.721,0.446c0.8,0.486,1.551,1.103,2.032,1.919c0.348,0.594,0.646,1.822-0.237,2.161
			c-0.492,0.188-0.996,0.079-1.474-0.115c0.035,0.063,0.065,0.128,0.103,0.192c0.174,0.304-0.259,0.541-0.481,0.319
			c-0.06-0.061-0.119-0.122-0.177-0.183c-0.082,0.005-0.166-0.017-0.232-0.082c-1.021-1.018-1.706-2.104-2.829-2.904
			c-0.168-0.098-0.343-0.192-0.532-0.277c-0.043,0.173-0.214,0.426-0.428,0.327c-0.433-0.199-0.973-0.359-1.353-0.673
			c-0.199-0.104-0.386-0.225-0.535-0.381c-0.06-0.063-0.087-0.138-0.097-0.222c-0.307,0.003-0.613-0.013-0.921-0.03
			c-0.54-0.029-1.083-0.06-1.624,0.016c-0.211,0.032-0.659,0.047-0.49,0.438c0.054,0.127,0.11,0.252,0.169,0.376
			c0.205,0.427,0.635,0.54,0.949,0.871c0.689,0.728,1.284,1.417,1.34,2.445c0.015,0.274,0.029,0.543,0.103,0.811
			c0.007,0.023,0.016,0.048,0.026,0.07c0.02-0.035,0.038-0.082,0.051-0.151c0.057-0.318,0.164-0.509,0.463-0.641
			c0.166-0.071,0.331-0.032,0.482,0.008c0.255,0.065,0.476,0.132,0.612-0.315c0.109-0.358-0.094-0.725,0.191-1.03
			c0.394-0.424,0.439-1.297,1.17-1.231c0.143,0.014,0.321,0.131,0.501,0.285c0.39,0.132,0.948,0.833,1.247,1.07
			c0.535,0.426,1.083,0.799,1.178,1.536c0.009,0.063,0.022,0.117,0.037,0.166c0.204-0.018,0.45-0.112,0.679-0.14
			c0.149-0.018,0.321,0.061,0.344,0.228c0.002,0.015,0.007,0.03,0.008,0.045c0.019-0.003,0.039-0.006,0.057-0.008
			c0.149-0.019,0.321,0.062,0.345,0.227c0.12,0.889,0.743,1.785,1.165,2.564c0.437,0.804,1.29,1.269,1.714,2.085
			c0.193,0.371,0.4,0.822,0.349,1.252c-0.025,0.197-0.072,0.367-0.14,0.554c-0.143,0.393-0.001,0.574,0.279,0.804
			c0.651,0.535,0.769,1.229,0.793,2.041c0.003,0.119-0.114,0.257-0.234,0.269c-0.495,0.045-0.948-0.204-1.369-0.51
			c-0.435-0.242-0.834-0.608-1.207-0.876c-0.092-0.059-0.185-0.117-0.272-0.183c-0.47-0.289-1.073-0.629-0.839-1.273
			c0.093-0.26,0.255-0.475,0.422-0.693c0.026-0.03,0.077-0.087,0.126-0.146c-0.358-0.029-0.629-0.145-1.006-0.346
			c-0.577-0.307-1.175-0.555-1.796-0.757c-0.035-0.012-0.071-0.02-0.108-0.028c0.068,0.041,0.134,0.087,0.192,0.148
			c0.008,0.01,0.015,0.021,0.025,0.032c0.142,0.047,0.274,0.116,0.383,0.231c0.434,0.467-0.018,0.83,0.167,1.318
			c0.034,0.091,0.08,0.165,0.134,0.231c0.18,0.075,0.358,0.155,0.535,0.237c0.09,0.044,0.199,0.121,0.305,0.219
			c0.034,0.016,0.069,0.03,0.104,0.048c0.441,0.206,1.282,1.22,0.44,1.503c-0.452,0.151-1.05,0.097-1.518,0.07
			c-0.543-0.029-1.053-0.122-1.559-0.332c-0.077-0.033-0.147-0.102-0.184-0.184c-0.075-0.027-0.15-0.05-0.225-0.082
			c-0.131-0.053-0.256-0.221-0.182-0.369c0.008-0.019,0.016-0.034,0.026-0.05c-0.146,0.021-0.287,0.045-0.421,0.058
			c-0.271,0.027-0.543,0.025-0.811,0.07c-0.327,0.057-0.708,0.087-0.399,0.463c0.115,0.139,0.087,0.378-0.09,0.452
			c-0.405,0.168-0.777,0.043-1.19-0.015c-0.512-0.072-1.068,0.08-1.555,0.234c-0.341,0.109-0.653,0.293-0.924,0.528
			c-0.182,0.422-0.44,0.813-0.755,1.122c-0.062,0.169-0.119,0.338-0.198,0.495c-0.222,0.442-0.506,0.548-0.984,0.521
			c-0.639-0.035-1.205-0.072-1.84,0.047c-0.629,0.119-1.507,0.217-2.011,0.653c-0.455,0.396-0.557,0.998-0.612,1.57
			c-0.077,0.781-0.135,2.723-1.257,2.83c-0.241,0.022-0.404-0.09-0.518-0.267c-0.684-0.057-0.654-1.324-0.642-1.788
			c0.013-0.564,0.167-1.063,0.241-1.62c0.003-0.04,0.068-0.416,0.065-0.694c-0.074,0-0.147-0.013-0.224-0.047
			c-0.103-0.045-0.225-0.127-0.304-0.231c-0.034-0.008-0.069-0.017-0.106-0.033c-0.163-0.074-0.376-0.24-0.391-0.441
			c-0.026-0.404-0.27-0.566-0.591-0.769c-0.099-0.062-0.264-0.203-0.452-0.341c-0.265-0.136-0.509-0.173-0.62,0.09
			c-0.127,0.305-0.311,0.829-0.745,0.76c-0.239-0.035-0.405-0.145-0.535-0.294c-0.378-0.112-0.547-0.426-0.722-0.792
			c-0.1-0.206-0.192-0.39-0.326-0.537c-0.309-0.106-0.623-0.185-0.948-0.22c-0.633-0.068-1.309-0.089-1.92,0.118
			c-0.007,0.002-0.014,0.004-0.02,0.005c-0.005,0.002-0.01,0.004-0.015,0.005c-0.072,0.026-0.141,0.024-0.201,0.002
			c-0.458,0.022-0.451,0.558-0.714,0.864c-0.257,0.298-0.548,0.425-0.879,0.629c-1.253,0.777-1.835,3.887-0.625,5.001
			c0.013,0.006,0.025,0.014,0.039,0.019c0.518,0.207,1.23,0.564,1.81,0.423c0.123-0.07,0.249-0.135,0.376-0.189
			c0.025-0.021,0.05-0.04,0.073-0.063c0.452-0.448,0.722-0.54,1.358-0.385c0.351,0.087,0.996,0.2,1.308,0.524
			c0.291,0.125,0.537,0.307,0.584,0.593c0.117,0.718-0.572,1.063-1.053,1.439c-0.361,0.281-0.634,0.652-0.965,0.963
			c-0.317,0.299-0.71,0.478-1.033,0.756c0.137,0.045,0.276,0.088,0.411,0.138c0.333,0.128,0.659,0.304,0.958,0.495
			c0.066,0.044,0.131,0.087,0.194,0.135c0.074,0.042,0.144,0.087,0.216,0.13c0.618,0.399,1.103,0.881,1.319,1.6
			c0.01,0.033,0.011,0.063,0.011,0.092c0.107,0.347,0.013,0.665-0.296,0.901c-0.506,0.386-0.949,0.618-1.165,1.277
			c-0.194,0.595-0.148,1.403,0.161,1.964c0.03,0.053,0.062,0.098,0.095,0.14c0.308,0.082,0.665,0.03,1.009,0.172
			c0.164,0.069,0.295,0.159,0.403,0.263c0.002,0.001,0.004,0.001,0.007,0.001c0.776,0.321,0.806,1.113,1.26,1.713
			c0.005,0.005,0.009,0.006,0.014,0.011c0.571,0.066,1.171-0.951,1.788-0.979c0.243-0.01,0.48,0.016,0.715,0.042
			c0.312,0.033,0.622,0.068,0.943,0.017c0.383-0.063,0.829-0.16,1.214-0.054c0.185,0.051,0.336,0.147,0.444,0.276
			c0.375,0.118,0.606,0.438,0.582,0.807c0.188,0.048,0.329,0.146,0.456,0.279c0.376,0.116,0.562,0.443,0.833,0.841
			c0.398,0.591,0.81,0.797,1.293,1.3c0.084,0.087,0.156,0.182,0.23,0.267c0.027,0.007,0.055,0.012,0.087,0.013
			c0.137,0.007,0.259,0,0.376-0.006c0.195-0.012,0.373-0.021,0.57,0.03c0.092-0.03,0.197-0.01,0.276,0.097
			c0.01,0.013,0.02,0.028,0.028,0.042c0.032,0.026,0.052,0.059,0.064,0.09c0.006,0.011,0.013,0.022,0.02,0.03
			c0.006,0.002,0.013,0.003,0.021,0.005c0.093-0.03,0.199-0.008,0.277,0.097c0.01,0.016,0.019,0.028,0.029,0.043
			c0.03,0.027,0.051,0.058,0.063,0.09c0.588,0.842,0.976,1.793,1.546,2.646c0.39,0.583,0.401,1.253,0.716,1.855
			c0.083,0.162,0.199,0.296,0.331,0.409c0.546,0.279,1.226,0.412,1.711,0.732c0.06,0.038,0.112,0.08,0.159,0.123
			c0.087,0.044,0.172,0.089,0.25,0.141c0.537,0.352,0.5,0.83,0.673,1.4c0.11,0.367,0.23,0.716,0.262,1.099
			c0.04,0.514-0.047,1.031-0.021,1.548c0.02,0.423,0.032,0.844,0.354,1.132c0.172,0.094,0.347,0.191,0.492,0.311
			c0.216,0.12,0.432,0.247,0.569,0.419c0.204,0.258,0.278,0.707,0.484,0.948c0.329,0.122,0.695,0.127,0.999,0.339
			c0.061,0.044,0.114,0.091,0.164,0.141c0.085,0.032,0.167,0.07,0.244,0.125c0.669,0.469,0.623,1.361,1.319,1.793
			c0.147,0.093,0.155,0.25,0.087,0.368c0.013,0.05,0.015,0.103-0.002,0.162c-0.296,1.016-1.302,2.048-2.28,2.437
			c-1.541,0.614-2.856,1.737-4.219,2.664c-0.681,0.461-1.384,0.855-2.109,1.241c-0.548,0.292-1.09,0.628-1.688,0.811
			c-0.744,0.23-1.517,0.229-2.29,0.228c-0.742,0-1.486-0.002-2.208,0.199c-0.787,0.217-1.531,0.57-2.321,0.774
			c-0.713,0.18-1.438,0.316-2.153,0.487c-0.609,0.147-1.369,0.317-1.991,0.131c-0.441-0.133-0.901-0.408-1.367-0.215
			c-0.249,0.104-0.503,0.252-0.771,0.305c-0.668,0.134-1.35-0.019-1.997-0.189c-0.366-0.095-0.721-0.14-1.097-0.132
			c-0.267,0.007-0.59,0.072-0.83-0.087c-0.079-0.051-0.26,0.009-0.442,0.069c-0.155,0.05-0.312,0.102-0.407,0.084
			c-0.301-0.055-0.833-0.344-1.098-0.168c-0.516,0.343-1.033,0.168-1.581-0.028c-0.089-0.032-0.139-0.089-0.166-0.155
			c-0.423-0.077-0.832-0.263-1.228-0.423c-0.112-0.047-0.197-0.119-0.258-0.203c-0.05-0.021-0.103-0.043-0.15-0.063
			c-0.117-0.047-0.204-0.12-0.266-0.207c-0.038-0.02-0.077-0.035-0.115-0.051c-0.249-0.11-0.433-0.343-0.338-0.624
			c0.196-0.569,0.886-0.497,1.221-0.913c0.314-0.394,0.644-0.649,1.126-0.813c0.762-0.259,1.304-0.628,1.906-1.161
			c0.509-0.453,1.012-0.918,1.489-1.402c0.454-0.464,0.949-0.925,1.25-1.508c0.269-0.518,0.603-1.436,0.291-2.004
			c-0.34-0.62-0.966-1.073-1.367-1.665c-0.283-0.418-0.582-0.902-0.607-1.421c-0.026-0.576,0.125-1.145,0.112-1.726
			c-0.017-0.643-0.059-1.282-0.104-1.924c-0.222-0.614-0.376-1.253-0.463-1.89c-0.15-0.416-0.281-0.836-0.277-1.278
			c0.003-0.366,0.098-0.768,0.391-1.018c0.237-0.206,0.78-0.192,0.799-0.515c0.003-0.053,0.013-0.096,0.035-0.132
			c0.003-0.02-0.002-0.035,0.005-0.056c0.403-1.13,1.085-2.098,2.215-2.584c0.28-0.121,0.536-0.243,0.839-0.293
			c0.275-0.045,0.558-0.038,0.812-0.167c0.677-0.341,0.261-1.229,0.607-1.852c0.003-0.007-0.791-0.013-0.791-0.013v-0.024
			c0-0.302,0.963-1.163,0.764-1.583c-0.232,0.019,0.112,0.269-0.197,0.331c-0.385,0.075-0.455-0.053-0.617-0.257
			c-0.538-0.101-0.508-0.81-1.066-1.168c-0.453-0.291-0.679-0.604-0.723-1.157c-0.035-0.438-0.162-0.632-0.494-0.916
			c-0.126-0.107-0.246-0.314-0.269-0.485c-0.078-0.643-0.001-1.268-0.152-1.914c-0.127-0.536-0.269-1.065-0.346-1.61
			c-0.122-0.175-0.189-0.352-0.214-0.526c-0.367-0.445-0.837-0.806-1.131-1.309c-0.321-0.549-0.473-1.176-0.789-1.726
			c-0.062-0.106-0.132-0.196-0.207-0.278c-0.126-0.063-0.236-0.135-0.323-0.222c-0.024-0.01-0.045-0.022-0.067-0.035
			c-0.267-0.106-0.547-0.196-0.828-0.32c-0.177-0.078-0.337-0.183-0.481-0.303c-0.487-0.238-0.841-0.651-1.067-1.142
			c-0.271-0.585-0.547-1.126-0.883-1.676c-0.327-0.539-0.533-1.174-0.744-1.766c-0.17-0.477-0.304-1.027-0.175-1.532
			c0.17-0.681,0.6-1.275,0.767-1.964c0.192-0.789,0.087-1.594,0.154-2.397c0.028-0.353,0.058-0.712,0.102-1.07
			c-0.019,0.039-0.032,0.074-0.052,0.111c-0.363,0.7-0.338,1.384-0.543,2.119c-0.032,0.109-0.111,0.167-0.194,0.186
			c-0.003,0.012-0.02,0.021-0.025,0.03c-0.129,0.301-0.589,0.189-0.6-0.077c-0.191,0.017-0.373-0.139-0.274-0.366
			c0.255-0.594-0.888-0.953-0.781-1.532c0.054-0.294-1.144-0.554-0.244-0.802v-0.003c-0.899-0.144,0.453-0.306,0.518-0.5
			c0.022-0.058,0.27-0.127,0.291-0.185c-0.018-0.107,0.137-0.216,0.129-0.335c-0.047-0.59,0.543-0.564,0.769-0.964
			c0.335-0.593,0.382-1.357,0.664-1.987c0.137-0.303,0.336-0.65,0.555-0.903c0.072-0.083,0.271-0.236,0.381-0.396
			c-0.028-0.154-0.043-0.31-0.057-0.463c-0.19-0.276-0.175-0.623-0.083-0.951c0.277-0.979,0.959-1.969,1.671-2.687
			c0.893-0.898,2.019-1.64,3.206-2.086c0.607-0.227,1.289-0.439,1.785-0.874c0.498-0.436,0.689-1.077,1.14-1.553
			c0.674-0.714,1.447-1.14,2.3-1.581c0.082-0.042,0.894-0.463,0.827-0.572c-0.001-0.001-0.005-0.003-0.006-0.008
			c-0.435-0.122-1.048-0.04-1.361-0.002c-0.196,0.024-0.315-0.122-0.336-0.273c-0.024,0.003-0.05,0.007-0.073,0.01
			c-0.355,0.042-0.477-0.479-0.157-0.562c0.053-0.068,0.133-0.11,0.229-0.102c1.473-0.027,2.938-0.136,4.408-0.223
			c1.245-0.072,2.709-0.266,3.886,0.271c0.195,0.09,0.367,0.219,0.557,0.321c0.317,0.172,0.669,0.165,1.006,0.269
			c0.26,0.079,0.46,0.199,0.632,0.35c0.358,0.162,0.594,0.418,0.828,0.738c-0.005-0.037-0.015-0.072-0.017-0.111
			c-0.012-0.322,0.124-0.647,0.428-0.817c0.795-0.443,2.532,0.338,3.349,0.513c0.701,0.152,1.384,0.321,2.065,0.506
			c-4.281-1.795-8.983-2.788-13.917-2.788C26.383,56.442,10.267,72.557,10.267,92.439"/>
	</defs>
	<clipPath id="SVGID_2_">
		<use xlink:href="#SVGID_1_"  overflow="visible"/>
	</clipPath>
	
		<linearGradient id="SVGID_3_" gradientUnits="userSpaceOnUse" x1="-3183.1704" y1="962.8208" x2="-3182.1704" y2="962.8208" gradientTransform="matrix(71.9968 0 0 -71.9968 229188.4375 69412.4375)">
		<stop  offset="0" style="stop-color:#DCF1FC"/>
		<stop  offset="1" style="stop-color:#24B4E8"/>
	</linearGradient>
	<rect x="10.267" y="56.442" clip-path="url(#SVGID_2_)" fill="url(#SVGID_3_)" width="71.994" height="71.997"/>
</g>
<g>
	<defs>
		<path id="SVGID_4_" d="M95.562,92.439c0,47.108,38.188,85.298,85.295,85.298c47.107,0,85.297-38.189,85.297-85.298
			c0-47.107-38.189-85.296-85.297-85.296C133.75,7.143,95.562,45.332,95.562,92.439"/>
	</defs>
	<clipPath id="SVGID_5_">
		<use xlink:href="#SVGID_4_"  overflow="visible"/>
	</clipPath>
	
		<linearGradient id="SVGID_6_" gradientUnits="userSpaceOnUse" x1="-3187.1372" y1="959.4233" x2="-3186.1372" y2="959.4233" gradientTransform="matrix(170.5917 0 0 -170.5917 543794.6875 163762.2344)">
		<stop  offset="0" style="stop-color:#DCF1FC"/>
		<stop  offset="1" style="stop-color:#24B4E8"/>
	</linearGradient>
	<rect x="95.562" y="7.144" clip-path="url(#SVGID_5_)" fill="url(#SVGID_6_)" width="170.592" height="170.593"/>
</g>
</svg>
