<?xml version="1.0" encoding="utf-8"?>
<!-- Generator: Adobe Illustrator 16.0.3, SVG Export Plug-In . SVG Version: 6.00 Build 0)  -->
<!DOCTYPE svg PUBLIC "-//W3C//DTD SVG 1.1//EN" "http://www.w3.org/Graphics/SVG/1.1/DTD/svg11.dtd">
<svg version="1.1" id="Layer_2" xmlns="http://www.w3.org/2000/svg" xmlns:xlink="http://www.w3.org/1999/xlink" x="0px" y="0px"
	 width="239.888px" height="141.011px" viewBox="0 0 239.888 141.011" enable-background="new 0 0 239.888 141.011"
	 xml:space="preserve">
<g>
	<defs>
		<path id="SVGID_1_" d="M106.054,72.379c0,35.319,28.62,63.936,63.936,63.936c35.314,0,63.938-28.617,63.938-63.936
			c0-35.309-28.623-63.936-63.938-63.936C134.673,8.443,106.054,37.07,106.054,72.379"/>
	</defs>
	<clipPath id="SVGID_2_">
		<use xlink:href="#SVGID_1_"  overflow="visible"/>
	</clipPath>
	
		<linearGradient id="SVGID_3_" gradientUnits="userSpaceOnUse" x1="-3219.1045" y1="938.3286" x2="-3218.1045" y2="938.3286" gradientTransform="matrix(127.872 0 0 -127.872 411739.375 120058.3125)">
		<stop  offset="0" style="stop-color:#DCF1FC"/>
		<stop  offset="1" style="stop-color:#24B4E8"/>
	</linearGradient>
	<rect x="106.053" y="8.443" clip-path="url(#SVGID_2_)" fill="url(#SVGID_3_)" width="127.873" height="127.872"/>
</g>
<g>
	<defs>
		<path id="SVGID_4_" d="M56.314,75.598c-0.281-0.063-0.513-0.186-0.668-0.375c-0.015-0.002-0.029-0.004-0.044-0.006
			c-0.319-0.068-0.467-0.363-0.414-0.674c0.05-0.305,0.418-0.365,0.58-0.207c0.145,0.014,0.289,0.113,0.316,0.285l0,0
			c0.344,0.064,0.565,0.264,0.657,0.602c0.063,0.232-0.144,0.385-0.344,0.385C56.37,75.608,56.341,75.604,56.314,75.598
			 M51.897,71.099c0.473,0.314,1.031,0.439,1.484,0.785c0.215,0.164,0.394,0.398,0.553,0.612c0.369,0.499,0.809,1.077,0.832,1.719
			c0.007,0.172-0.182,0.326-0.346,0.309c-0.359-0.041-0.617-0.162-0.918-0.355c-0.09-0.016-0.184-0.059-0.277-0.135
			c-0.008-0.006-0.018-0.018-0.028-0.025c-0.259-0.1-0.5-0.105-0.817-0.092c-0.519,0.021-0.636-0.156-0.879-0.557
			c-0.244-0.402-0.949-0.301-1.315-0.598c-0.331-0.266-0.399-0.548-0.308-0.957c0.043-0.193,0.344-0.299,0.494-0.166
			c0.266,0.236,1.131,0.352,0.977-0.219c-0.065-0.245,0.141-0.389,0.34-0.376C51.755,71.039,51.826,71.052,51.897,71.099
			 M48.124,71.737c-0.261-0.058-0.47-0.216-0.592-0.453c-0.072-0.144-0.098-0.286-0.245-0.341c-0.393-0.152-0.182-0.772,0.214-0.621
			c0.248,0.096,0.426,0.262,0.541,0.503c0.086,0.185,0.088,0.247,0.295,0.292c0.174,0.037,0.256,0.261,0.203,0.416
			c-0.051,0.148-0.178,0.215-0.316,0.215C48.191,71.748,48.157,71.744,48.124,71.737 M44.259,65.561
			c-0.192-0.048-0.361-0.28-0.23-0.511c0.877-1.553,2.843,0.268,3.63,0.984c0.647,0.589,1.358,0.853,1.624,1.75
			c0.305,1.024,1.408,1.609,1.609,2.671c0.039,0.199-0.125,0.415-0.34,0.391c-0.914-0.102-2.405-0.658-2.57-1.699
			c-0.128-0.796-0.833-1.5-1.328-2.128c-0.043-0.054-0.088-0.11-0.133-0.167c-0.035-0.036-0.067-0.075-0.094-0.115
			c-0.478-0.578-1.086-1.187-1.871-1.069c-0.021,0.003-0.041,0.005-0.06,0.005C44.396,65.672,44.314,65.626,44.259,65.561
			 M4.761,72.379c0,22.354,18.121,40.477,40.476,40.477c15.597,0,29.123-8.828,35.882-21.752c0.064-0.361,0.129-0.723,0.164-1.082
			c0.196-1.975,1.189-3.645,1.618-5.564c0.231-1.041,0.188-1.984,0.571-3.016c0.385-1.029,0.803-2.039,1.226-3.053
			c0.286-0.686,0.593-1.393,0.824-2.111c0.122-1.285,0.19-2.584,0.19-3.899c0-8.213-2.455-15.852-6.66-22.232
			c-0.051-0.017-0.104-0.021-0.149-0.069c-0.063-0.069-0.127-0.14-0.192-0.212c-0.029-0.018-0.057-0.039-0.082-0.065
			c-0.129-0.148-0.252-0.305-0.373-0.46c-0.17-0.206-0.338-0.413-0.502-0.625c-0.065-0.085-0.084-0.176-0.067-0.259
			c-0.027-0.007-0.052-0.015-0.078-0.021c-0.267-0.062-0.254-0.33-0.112-0.496c-0.328-0.434-0.662-0.862-1.007-1.28
			c-0.036,0.021-0.063,0.062-0.108,0.067c-0.205,0.103-0.541,0.302-0.806,0.511c-0.019,0.296-0.165,0.577-0.378,0.794
			c0.047,0.486,0.139,0.956-0.17,1.392c-0.104,0.145-0.284,0.173-0.426,0.096c-0.135,0.089-0.318,0.073-0.436-0.054
			c-0.182-0.195-0.503-0.281-0.707-0.471c-0.303-0.284-0.563-0.601-0.837-0.909c-0.268-0.305-0.54-0.6-0.731-0.96
			c-0.227-0.418-0.368-0.892-0.612-1.298c-0.532-0.888-0.733-2.046-1.331-2.859c-0.643-0.877-1.141-1.892-1.833-2.73l-3.142-2.087
			c-0.176,0.135-0.123,0.331,0.225,0.776c0.152,0.192,0.355,0.368,0.58,0.526c0.105,0.063,0.211,0.122,0.311,0.179
			c0.273,0.154,0.545,0.321,0.807,0.502c0.902,0.546,1.744,1.238,2.285,2.157c0.392,0.667,0.728,2.048-0.264,2.429
			c-0.554,0.212-1.121,0.089-1.658-0.129c0.037,0.072,0.074,0.146,0.115,0.218c0.195,0.342-0.292,0.606-0.543,0.357
			c-0.066-0.067-0.134-0.137-0.197-0.204c-0.094,0.005-0.187-0.018-0.261-0.093c-1.149-1.144-1.919-2.365-3.182-3.266
			c-0.188-0.109-0.386-0.217-0.599-0.313c-0.049,0.197-0.24,0.479-0.481,0.371c-0.485-0.224-1.093-0.406-1.519-0.759
			c-0.225-0.117-0.436-0.252-0.603-0.428c-0.067-0.07-0.097-0.155-0.108-0.248c-0.342,0.002-0.683-0.016-1.022-0.034
			c-0.614-0.035-1.228-0.07-1.841,0.017c-0.237,0.035-0.738,0.052-0.551,0.493c0.062,0.144,0.125,0.284,0.191,0.423
			c0.229,0.479,0.712,0.607,1.066,0.979c0.773,0.818,1.443,1.594,1.506,2.748c0.017,0.31,0.033,0.612,0.115,0.913
			c0.007,0.025,0.019,0.053,0.029,0.078c0.022-0.038,0.043-0.092,0.057-0.17c0.064-0.357,0.185-0.574,0.521-0.721
			c0.187-0.08,0.371-0.035,0.543,0.01c0.288,0.074,0.535,0.149,0.688-0.355c0.123-0.401-0.104-0.814,0.215-1.158
			c0.443-0.477,0.494-1.457,1.316-1.384c0.162,0.014,0.358,0.146,0.564,0.322c0.436,0.147,1.064,0.935,1.4,1.2
			c0.602,0.48,1.219,0.899,1.326,1.729c0.008,0.071,0.022,0.132,0.041,0.186c0.229-0.02,0.504-0.126,0.762-0.156
			c0.169-0.021,0.361,0.069,0.387,0.256c0.003,0.018,0.008,0.033,0.011,0.051c0.021-0.003,0.042-0.008,0.062-0.009
			c0.17-0.021,0.361,0.068,0.389,0.256c0.137,0.998,0.837,2.006,1.313,2.882c0.487,0.903,1.449,1.427,1.927,2.345
			c0.216,0.416,0.45,0.923,0.39,1.407c-0.027,0.221-0.079,0.413-0.156,0.624c-0.162,0.438,0,0.645,0.316,0.903
			c0.73,0.603,0.861,1.382,0.889,2.296c0.004,0.132-0.128,0.286-0.262,0.299c-0.557,0.052-1.066-0.229-1.54-0.573
			c-0.489-0.273-0.937-0.685-1.358-0.985c-0.103-0.064-0.205-0.132-0.305-0.204c-0.529-0.324-1.206-0.707-0.943-1.432
			c0.106-0.291,0.287-0.533,0.477-0.779c0.025-0.034,0.085-0.098,0.139-0.167c-0.402-0.031-0.703-0.16-1.131-0.386
			c-0.648-0.346-1.32-0.624-2.018-0.851c-0.039-0.014-0.081-0.023-0.123-0.032c0.078,0.045,0.15,0.097,0.216,0.167
			c0.01,0.011,0.019,0.023,0.028,0.034c0.16,0.053,0.309,0.134,0.432,0.264c0.486,0.523-0.02,0.929,0.188,1.479
			c0.037,0.102,0.09,0.187,0.149,0.263c0.202,0.083,0.403,0.173,0.603,0.267c0.102,0.047,0.224,0.135,0.344,0.244
			c0.037,0.02,0.076,0.035,0.115,0.052c0.496,0.232,1.442,1.374,0.494,1.691c-0.506,0.171-1.18,0.109-1.705,0.081
			c-0.612-0.035-1.185-0.139-1.752-0.375c-0.086-0.037-0.168-0.115-0.205-0.207c-0.086-0.03-0.17-0.057-0.256-0.092
			c-0.146-0.061-0.287-0.247-0.203-0.416c0.008-0.019,0.019-0.037,0.028-0.056c-0.161,0.025-0.323,0.053-0.473,0.065
			c-0.306,0.03-0.61,0.028-0.911,0.08c-0.37,0.063-0.797,0.097-0.448,0.52c0.128,0.155,0.095,0.427-0.104,0.509
			c-0.453,0.19-0.871,0.049-1.338-0.018c-0.573-0.082-1.2,0.089-1.746,0.265c-0.383,0.121-0.734,0.329-1.038,0.594
			c-0.207,0.474-0.498,0.916-0.851,1.262c-0.07,0.19-0.135,0.379-0.224,0.556c-0.249,0.498-0.567,0.617-1.106,0.587
			c-0.717-0.039-1.354-0.082-2.068,0.053c-0.705,0.134-1.693,0.242-2.26,0.734c-0.512,0.443-0.627,1.122-0.69,1.766
			c-0.085,0.879-0.149,3.062-1.413,3.181c-0.27,0.027-0.454-0.099-0.581-0.299c-0.769-0.064-0.735-1.489-0.722-2.011
			c0.015-0.636,0.189-1.193,0.271-1.82c0.004-0.045,0.075-0.468,0.072-0.782c-0.084,0-0.165-0.014-0.252-0.052
			c-0.113-0.052-0.251-0.145-0.341-0.261c-0.039-0.009-0.077-0.019-0.119-0.037c-0.185-0.083-0.423-0.271-0.438-0.496
			c-0.033-0.455-0.308-0.64-0.666-0.864c-0.11-0.07-0.297-0.227-0.508-0.385c-0.298-0.152-0.574-0.192-0.697,0.102
			c-0.143,0.344-0.35,0.934-0.84,0.856c-0.267-0.042-0.453-0.164-0.6-0.333c-0.424-0.125-0.615-0.479-0.813-0.889
			c-0.111-0.23-0.215-0.438-0.367-0.604c-0.346-0.12-0.7-0.209-1.065-0.247c-0.712-0.079-1.47-0.101-2.159,0.132
			c-0.007,0.001-0.013,0.005-0.021,0.006c-0.006,0.002-0.01,0.005-0.016,0.006c-0.082,0.028-0.158,0.024-0.227,0.002
			c-0.518,0.024-0.507,0.627-0.803,0.971c-0.289,0.336-0.616,0.478-0.989,0.707c-1.409,0.874-2.063,4.373-0.702,5.624
			c0.016,0.005,0.028,0.014,0.042,0.019c0.583,0.234,1.384,0.638,2.036,0.477c0.139-0.078,0.279-0.15,0.424-0.212
			c0.027-0.023,0.055-0.044,0.082-0.072c0.508-0.503,0.813-0.605,1.523-0.431c0.396,0.098,1.123,0.225,1.475,0.59
			c0.327,0.142,0.602,0.346,0.656,0.667c0.13,0.807-0.645,1.194-1.186,1.618c-0.406,0.315-0.711,0.732-1.084,1.083
			c-0.358,0.336-0.798,0.535-1.16,0.849c0.153,0.05,0.311,0.099,0.463,0.155c0.371,0.142,0.738,0.341,1.074,0.557
			c0.075,0.048,0.147,0.099,0.219,0.15c0.082,0.047,0.162,0.097,0.242,0.146c0.695,0.45,1.24,0.992,1.482,1.799
			c0.012,0.037,0.014,0.07,0.014,0.104c0.121,0.389,0.018,0.747-0.332,1.012c-0.57,0.436-1.068,0.694-1.311,1.436
			c-0.219,0.67-0.167,1.578,0.182,2.207c0.032,0.061,0.069,0.111,0.107,0.158c0.344,0.092,0.747,0.033,1.133,0.193
			c0.186,0.078,0.331,0.18,0.455,0.297c0.001,0,0.003,0.002,0.005,0.002c0.874,0.361,0.908,1.252,1.419,1.924
			c0.006,0.006,0.008,0.008,0.016,0.014c0.644,0.074,1.316-1.07,2.011-1.104c0.269-0.01,0.532,0.02,0.797,0.047
			c0.353,0.039,0.704,0.08,1.065,0.02c0.433-0.07,0.934-0.182,1.367-0.061c0.207,0.057,0.377,0.168,0.497,0.311
			c0.423,0.135,0.683,0.494,0.654,0.908c0.212,0.053,0.373,0.164,0.513,0.314c0.424,0.129,0.633,0.498,0.936,0.945
			c0.449,0.664,0.912,0.896,1.457,1.459c0.093,0.098,0.174,0.205,0.259,0.301c0.03,0.008,0.063,0.014,0.097,0.016
			c0.154,0.01,0.292,0,0.424-0.006c0.219-0.014,0.418-0.027,0.641,0.031c0.104-0.033,0.222-0.01,0.311,0.111
			c0.01,0.014,0.02,0.029,0.032,0.045c0.035,0.031,0.06,0.066,0.071,0.102c0.008,0.014,0.016,0.025,0.022,0.035
			c0.009,0,0.015,0.002,0.023,0.004c0.104-0.033,0.222-0.01,0.311,0.111c0.011,0.014,0.021,0.029,0.033,0.047
			c0.034,0.029,0.058,0.066,0.069,0.102c0.662,0.945,1.099,2.016,1.738,2.975c0.438,0.654,0.45,1.41,0.806,2.084
			c0.095,0.184,0.224,0.334,0.372,0.463c0.615,0.311,1.379,0.463,1.924,0.822c0.068,0.043,0.126,0.09,0.177,0.139
			c0.099,0.047,0.196,0.1,0.285,0.158c0.601,0.395,0.562,0.934,0.755,1.574c0.124,0.41,0.26,0.805,0.294,1.234
			c0.045,0.578-0.053,1.16-0.024,1.74c0.021,0.477,0.037,0.951,0.399,1.273c0.192,0.104,0.392,0.217,0.556,0.35
			c0.239,0.135,0.483,0.279,0.638,0.473c0.227,0.289,0.313,0.795,0.543,1.064c0.37,0.137,0.784,0.141,1.125,0.383
			c0.069,0.047,0.129,0.1,0.186,0.156c0.095,0.035,0.187,0.08,0.274,0.141c0.75,0.525,0.699,1.531,1.48,2.016
			c0.17,0.104,0.176,0.281,0.098,0.412c0.016,0.057,0.018,0.117,0,0.186c-0.334,1.139-1.465,2.303-2.563,2.738
			c-1.733,0.689-3.212,1.953-4.745,2.994c-0.765,0.52-1.554,0.963-2.369,1.396c-0.619,0.33-1.228,0.705-1.899,0.912
			c-0.837,0.258-1.704,0.258-2.577,0.256c-0.833-0.002-1.668-0.002-2.48,0.221c-0.885,0.246-1.722,0.645-2.609,0.871
			c-0.801,0.205-1.618,0.359-2.422,0.551c-0.686,0.164-1.539,0.355-2.238,0.145c-0.496-0.146-1.014-0.457-1.536-0.24
			c-0.28,0.119-0.565,0.285-0.866,0.344c-0.752,0.15-1.519-0.021-2.246-0.211c-0.412-0.109-0.81-0.162-1.232-0.15
			c-0.301,0.008-0.664,0.082-0.934-0.098c-0.088-0.059-0.291,0.01-0.496,0.076c-0.176,0.059-0.353,0.115-0.461,0.094
			c-0.336-0.059-0.935-0.385-1.23-0.188c-0.583,0.387-1.163,0.188-1.777-0.033c-0.1-0.035-0.158-0.098-0.188-0.174
			c-0.474-0.086-0.935-0.293-1.38-0.475c-0.127-0.053-0.221-0.133-0.291-0.229c-0.057-0.023-0.112-0.047-0.17-0.07
			c-0.129-0.053-0.227-0.135-0.297-0.232c-0.043-0.021-0.086-0.039-0.131-0.059c-0.279-0.121-0.486-0.385-0.379-0.699
			c0.221-0.641,0.996-0.561,1.37-1.029c0.354-0.441,0.726-0.729,1.267-0.912c0.858-0.291,1.469-0.707,2.146-1.307
			c0.571-0.508,1.138-1.031,1.675-1.576c0.51-0.52,1.066-1.039,1.404-1.695c0.302-0.584,0.678-1.615,0.327-2.254
			c-0.382-0.697-1.087-1.205-1.536-1.873c-0.319-0.467-0.655-1.014-0.684-1.596c-0.029-0.648,0.141-1.287,0.125-1.941
			c-0.017-0.721-0.064-1.441-0.115-2.164c-0.25-0.688-0.424-1.406-0.521-2.123c-0.169-0.467-0.316-0.938-0.311-1.436
			c0.004-0.414,0.111-0.863,0.438-1.146c0.268-0.23,0.879-0.217,0.899-0.578c0.004-0.059,0.017-0.107,0.041-0.15
			c0.003-0.02-0.002-0.039,0.005-0.061c0.453-1.27,1.22-2.359,2.49-2.906c0.313-0.135,0.602-0.271,0.943-0.328
			c0.311-0.051,0.627-0.043,0.914-0.188c0.76-0.383,0.291-1.383,0.682-2.084c0.002-0.006-0.889-0.012-0.889-0.012v-0.029
			c0-0.34,1.082-1.307,0.858-1.779c-0.261,0.023,0.127,0.305-0.224,0.373c-0.431,0.084-0.51-0.061-0.69-0.289
			c-0.606-0.115-0.574-0.91-1.201-1.314c-0.509-0.326-0.763-0.678-0.812-1.301c-0.038-0.492-0.182-0.711-0.555-1.029
			c-0.143-0.121-0.277-0.354-0.302-0.545c-0.088-0.725-0.003-1.426-0.172-2.152c-0.142-0.604-0.301-1.198-0.388-1.812
			c-0.137-0.196-0.215-0.396-0.242-0.592c-0.413-0.499-0.941-0.906-1.271-1.473c-0.359-0.616-0.531-1.321-0.889-1.938
			c-0.068-0.12-0.146-0.222-0.232-0.313c-0.14-0.069-0.264-0.151-0.36-0.249c-0.028-0.011-0.052-0.025-0.078-0.04
			c-0.298-0.119-0.616-0.222-0.931-0.36c-0.199-0.088-0.379-0.204-0.541-0.339c-0.547-0.269-0.945-0.734-1.199-1.284
			c-0.305-0.658-0.616-1.268-0.993-1.886c-0.37-0.604-0.601-1.318-0.837-1.983c-0.191-0.537-0.342-1.155-0.198-1.723
			c0.192-0.767,0.677-1.436,0.863-2.208c0.217-0.889,0.098-1.792,0.173-2.695c0.032-0.398,0.066-0.802,0.114-1.203
			c-0.021,0.042-0.035,0.082-0.058,0.124c-0.408,0.787-0.381,1.556-0.611,2.381c-0.036,0.126-0.123,0.189-0.217,0.209
			c-0.006,0.015-0.021,0.022-0.028,0.034c-0.146,0.339-0.662,0.214-0.677-0.086c-0.213,0.02-0.416-0.157-0.307-0.411
			c0.287-0.668-0.998-1.071-0.879-1.725c0.063-0.329-1.285-0.621-0.273-0.899v-0.003c-1.012-0.162,0.51-0.345,0.582-0.562
			c0.023-0.067,0.304-0.145,0.326-0.209c-0.018-0.12,0.155-0.244,0.146-0.377c-0.055-0.661,0.611-0.635,0.865-1.085
			c0.375-0.663,0.428-1.525,0.744-2.233c0.154-0.34,0.379-0.731,0.625-1.016c0.082-0.094,0.304-0.267,0.43-0.445
			c-0.032-0.172-0.051-0.347-0.064-0.521c-0.216-0.309-0.197-0.7-0.095-1.067c0.312-1.101,1.08-2.217,1.878-3.021
			c1.005-1.013,2.271-1.846,3.605-2.347c0.683-0.256,1.449-0.495,2.008-0.983c0.56-0.489,0.777-1.21,1.281-1.747
			c0.756-0.8,1.629-1.279,2.584-1.775c0.095-0.047,1.008-0.521,0.934-0.643c-0.003-0.003-0.007-0.005-0.008-0.008
			c-0.49-0.139-1.178-0.047-1.53-0.004c-0.22,0.027-0.356-0.137-0.377-0.307c-0.028,0.003-0.058,0.006-0.084,0.01
			c-0.399,0.048-0.535-0.538-0.177-0.632c0.06-0.075,0.152-0.124,0.261-0.114c1.653-0.032,3.304-0.152,4.956-0.249
			c1.4-0.082,3.046-0.299,4.367,0.303c0.22,0.103,0.414,0.247,0.627,0.361c0.357,0.194,0.752,0.187,1.131,0.302
			c0.293,0.089,0.518,0.225,0.711,0.396c0.4,0.182,0.667,0.468,0.932,0.829c-0.008-0.04-0.02-0.082-0.02-0.127
			c-0.016-0.361,0.139-0.728,0.48-0.919c0.894-0.497,2.848,0.381,3.767,0.578c0.786,0.171,1.556,0.36,2.319,0.569
			c-4.813-2.02-10.099-3.138-15.646-3.138C22.882,31.903,4.761,50.025,4.761,72.379"/>
	</defs>
	<clipPath id="SVGID_5_">
		<use xlink:href="#SVGID_4_"  overflow="visible"/>
	</clipPath>
	
		<linearGradient id="SVGID_6_" gradientUnits="userSpaceOnUse" x1="-3224.2319" y1="939.2612" x2="-3223.2319" y2="939.2612" gradientTransform="matrix(80.951 0 0 -80.951 261009.5469 76106.5)">
		<stop  offset="0" style="stop-color:#DCF1FC"/>
		<stop  offset="1" style="stop-color:#24B4E8"/>
	</linearGradient>
	<rect x="4.761" y="31.903" clip-path="url(#SVGID_5_)" fill="url(#SVGID_6_)" width="80.951" height="80.953"/>
</g>
</svg>
