<?xml version="1.0" encoding="utf-8"?>
<!-- Generator: Adobe Illustrator 16.0.3, SVG Export Plug-In . SVG Version: 6.00 Build 0)  -->
<!DOCTYPE svg PUBLIC "-//W3C//DTD SVG 1.1//EN" "http://www.w3.org/Graphics/SVG/1.1/DTD/svg11.dtd">
<svg version="1.1" id="Layer_1" xmlns="http://www.w3.org/2000/svg" xmlns:xlink="http://www.w3.org/1999/xlink" x="0px" y="0px"
	 width="216px" height="108px" viewBox="0 0 216 108" enable-background="new 0 0 216 108" xml:space="preserve">
<g>
	<defs>
		<path id="SVGID_1_" d="M11.008,55.243c0,23.04,18.677,41.715,41.714,41.715c23.04,0,41.713-18.675,41.713-41.715
			c0-23.039-18.673-41.714-41.713-41.714C29.686,13.529,11.008,32.204,11.008,55.243"/>
	</defs>
	<clipPath id="SVGID_2_">
		<use xlink:href="#SVGID_1_"  overflow="visible"/>
	</clipPath>
	<rect x="9.489" y="21.83" clip-path="url(#SVGID_2_)" fill="#00ADEE" width="86.467" height="76.051"/>
</g>
<g>
	<circle fill="none" stroke="#D0D2D3" stroke-miterlimit="10" cx="52.722" cy="55.243" r="41.715"/>
	<g opacity="0.5">
		<g>
			<defs>
				<rect id="SVGID_3_" x="11.717" y="15.722" width="81.36" height="76.608"/>
			</defs>
			<clipPath id="SVGID_4_">
				<use xlink:href="#SVGID_3_"  overflow="visible"/>
			</clipPath>
			<path clip-path="url(#SVGID_4_)" fill="#E6E7E8" d="M65.568,17.369c0.122,0.049,0.534,0.196,0.661,0.28
				c0.201,0.127,0.333,0.33,0.533,0.459c0.243,0.156,0.5,0.299,0.732,0.471c0.01,0.005,0.021,0.013,0.032,0.02
				c-0.011,0.005-0.021,0.008-0.028,0.012h-0.01h-0.002h-0.002h-0.001h-0.002h-0.002h-0.001c-0.007,0.003-0.019,0.004-0.025,0.006
				c0.012,0.01,1.755,1.104,2.341,1.255c0.015,0.003,0.387,0.162,0.47,0.284c-0.007,0.008-0.014,0.016-0.017,0.023
				c-0.009-0.003-0.824-0.172-0.956-0.286c-0.122-0.104-0.333-0.187-0.382-0.191c0.089,0.088,0.218,0.111,0.305,0.202
				c-0.02,0-0.05-0.004-0.066-0.014c-0.16-0.078-0.307-0.181-0.47-0.264c-0.228-0.113-0.544-0.047-0.683-0.337
				c0.015-0.013,0.028-0.03,0.04-0.044c-0.204-0.228-0.545-0.229-0.74-0.468c0.005-0.005,0.015-0.013,0.017-0.02
				c0.018,0.002,0.04,0.004,0.057,0.007c-0.17-0.188-0.426-0.214-0.636-0.33c0.008-0.005,0.021-0.009,0.03-0.009
				c-0.026-0.036-0.026-0.036-0.215-0.146c0.018-0.003,0.043,0,0.06,0.004c-0.204-0.162-0.469-0.206-0.693-0.334
				c0.004-0.006,0.009-0.016,0.01-0.025c-0.026-0.023-0.026-0.023-0.101-0.065c0.026-0.007,0.026-0.007,0.086,0.006
				c-0.011-0.013-0.011-0.013-0.387-0.212c0.008-0.004,0.018-0.004,0.027-0.004c-0.024-0.022-0.05-0.038-0.075-0.059
				c0.008-0.001,0.021-0.001,0.029-0.005c-0.009-0.011-0.033-0.047-0.096-0.114c0.074-0.004,0.146,0.022,0.216,0.035
				c-0.013-0.02-0.036-0.041-0.054-0.054l-0.007-0.016v0.001c-0.15-0.094-0.327-0.122-0.472-0.226c0,0,0.004-0.001,0.005-0.003
				C65.136,17.221,65.201,17.238,65.568,17.369"/>
			<path clip-path="url(#SVGID_4_)" fill="#E6E7E8" d="M72.225,39.234c-0.06,0.103-0.243,0.024-0.268,0.172
				c-0.004,0.027-0.004,0.027,0.163,0.438c0.04,0.095,0.086,0.279,0.005,0.305c-0.034,0.012-0.083,0.012-0.292-0.094
				c-0.133-0.069-0.196-0.072-0.23-0.072h0h-0.003h-0.003h-0.002h-0.005h-0.003h-0.003c-0.193-0.018-0.193-0.018-0.308-0.113
				c-0.11-0.093-0.143-0.239-0.234-0.347c-0.046-0.054-0.128-0.106-0.183-0.148c-0.155-0.111-0.22-0.155-0.299-0.192
				c-0.17-0.079-0.376-0.062-0.525-0.192c-0.215-0.191-0.097-0.343-0.037-0.402c0.162-0.151,0.167-0.156,0.314-0.168
				c0.078,0.002,0.236,0.003,0.457,0.076c0.026,0.009,0.058,0.022,0.081,0.031c0.124,0.052,0.234,0.138,0.356,0.188
				c0.191,0.079,0.394,0.123,0.585,0.202C72.283,39.129,72.237,39.205,72.225,39.234"/>
			<path clip-path="url(#SVGID_4_)" fill="#E6E7E8" d="M57.429,30.888c-0.034,0.065-0.136,0.065-0.149,0.156
				c-0.004,0.058-0.004,0.058,0.103,0.249c-0.113,0.035-0.238,0.004-0.344,0.081c0,0-0.121,0.123-0.006,0.172
				c0.077,0.033,0.175-0.017,0.244,0.052c-0.007,0.047-0.01,0.06-0.084,0.099l-0.602,0.274l-1.029,0.086
				c-0.115,0.008-0.213-0.081-0.332-0.05c-0.148,0.037-0.22,0.243-0.411,0.19c-0.003-0.013-0.005-0.025-0.008-0.035
				c-0.09,0.091-0.243,0.165-0.391,0.186c-0.493-0.007-0.871,0.134-1.013,0.196c-0.001-0.042,0.014-0.102,0.042-0.134
				c0.115-0.141,0.322-0.077,0.443-0.204c0.086-0.087-0.035-0.177,0.006-0.265c0.029-0.057,0.053-0.148,0.068-0.22
				c0.072,0.076,0.125,0.134,0.186,0.14c0.1,0.009,0.15-0.09,0.238-0.102h0.003c0.014,0,0.017,0,0.017-0.002h0.001h0.003h0.001
				h0.003c0.056-0.006,0.056-0.006,0.109-0.041c0.002-0.013,0.004-0.03,0.006-0.038c-0.09-0.086-0.146-0.107-0.356-0.084
				c-0.226,0.026-0.395-0.105-0.398-0.107c-0.018-0.019-0.035-0.052-0.04-0.078c-0.02-0.086,0.068-0.15,0.055-0.234
				c-0.015-0.073-0.083-0.104-0.123-0.152c-0.002-0.006-0.184-0.31,0.123-0.309c0.222,0.004,0.222,0.004,0.25-0.004
				c0.046-0.016,0.048-0.072,0.05-0.122c0.003-0.029,0.016-0.071,0.071-0.093c0.145-0.062,0.299,0.029,0.449-0.021
				c0.02-0.006,0.05-0.026,0.057-0.048c0.176-0.371-0.285-0.507-0.373-0.789l0.02-0.019h0.002h0.002h0
				c-0.292-0.012-0.438,0.011-0.701,0.058c-0.18-0.215-0.18-0.215-0.189-0.268c0.192-0.093,0.181-0.188,0.086-0.233
				c-0.161-0.082-0.341,0.083-0.499-0.041c0.022-0.104,0.144-0.164,0.131-0.284c-0.101,0.007-0.121,0.01-0.483,0.211
				c0.015-0.187,0.146-0.316,0.215-0.478c-0.073-0.116-0.294-0.064-0.301-0.245c0.073-0.06,0.073-0.06,0.08-0.08
				c-0.063-0.027-0.149-0.001-0.192-0.078c-0.045-0.076,0.031-0.126,0.064-0.144c0.008-0.003,0.151-0.073,0.313,0.019
				c0.015-0.011,0.036-0.024,0.05-0.034c0.065-0.467,0.065-0.467,0.151-0.453c0.143,0.027,0.146,0.018,0.234-0.182
				c0.299,0.048,0.435,0.067,0.669-0.27c0.128-0.193,0.174-0.218,0.268-0.239c0.039,0,0.357,0.019,0.045,0.303
				c-0.242,0.22-0.242,0.22-0.078,0.409c0,0.003-0.304,0.129-0.392,0.291c0.009,0.012,0.019,0.025,0.024,0.038
				c0.028,0.001,0.061,0.006,0.089,0.008h0.016c0.125-0.017,0.222-0.115,0.352-0.125c0.09-0.007,0.49,0.069,0.491,0.069
				c0.313,0.169,0.064,0.53,0.062,0.535c-0.401,0.51-0.538,0.681,0.013,0.624c0.249-0.026,0.249-0.026,0.282-0.006
				c0.043,0.029,0.009,0.086,0.043,0.118c0.025,0.018,0.065,0.031,0.096,0.036c0.028,0.009,0.073,0.009,0.099,0.031
				c0.017,0.016,0.041,0.034,0.06,0.053c0.081,0.086,0.025,0.217,0.109,0.303c0.076,0.083,0.217,0.008,0.288,0.111
				c0.088,0.128,0.247,0.128,0.358,0.217c0.005,0.005,0.303,0.415,0.285,0.447c-0.01,0.016-0.06,0.046-0.124,0.086
				c0.127,0.119,0.169,0.158,0.457,0.164C57.375,30.606,57.425,30.841,57.429,30.888"/>
			<path clip-path="url(#SVGID_4_)" fill="#E6E7E8" d="M52.729,27.605c-0.006,0.054-0.046,0.104-0.066,0.127
				c-0.064,0.076-0.138,0.111-0.21,0.147c-0.129,0.069-0.164,0.091-0.184,0.142c-0.035,0.065-0.028,0.14-0.06,0.208
				c-0.02,0.049-0.04,0.06-0.07,0.071c-0.008-0.091-0.038-0.177-0.042-0.271c-0.004-0.039-0.006-0.096,0.021-0.146
				c0.032-0.063,0.105-0.082,0.14-0.14c0.024-0.043,0.031-0.064,0.047-0.142c0.005-0.023,0.005-0.054,0.021-0.068
				s0.044-0.023,0.068-0.03c0.062-0.023,0.126-0.034,0.195-0.056C52.646,27.472,52.735,27.517,52.729,27.605"/>
			<path clip-path="url(#SVGID_4_)" fill="#E6E7E8" d="M53.343,29.922c-0.069,0.075-0.172,0.085-0.243,0.149
				c-0.057,0.046-0.058,0.131-0.127,0.172c-0.023,0.016-0.068,0.026-0.144-0.011c-0.021,0.089-0.023,0.143,0.129,0.274
				c0.124,0.106,0.119,0.144,0.115,0.168c0,0.02-0.005,0.044-0.011,0.062c-0.027,0.084-0.098,0.146-0.13,0.231
				c-0.032,0.105,0.076,0.241-0.057,0.331c-0.064,0.044-0.147,0.044-0.456,0.044c-0.292-0.005-0.344,0.099-0.384,0.244
				c-0.012,0.03-0.058,0.052-0.058,0.052c-0.119,0.043-0.25,0.03-0.369,0.077c-0.094,0.04-0.151,0.14-0.26,0.158
				c-0.196,0.037-0.596-0.183-0.597-0.184c-0.031-0.027-0.04-0.103-0.021-0.138c0.012-0.026,0.038-0.056,0.057-0.08
				c0.064-0.083,0.155-0.141,0.222-0.224c0.032-0.039,0.037-0.097,0.073-0.139c0.036-0.047,0.125-0.019,0.144-0.094
				c0.022-0.071-0.063-0.086-0.081-0.136c-0.023-0.047,0-0.101-0.03-0.147c-0.025-0.05-0.087-0.068-0.109-0.12
				c-0.015-0.025-0.004-0.051,0.007-0.08c0.028-0.1,0.018-0.112-0.082-0.192c-0.071-0.055-0.175-0.139-0.175-0.177
				c0-0.018,0.004-0.039,0.004-0.054c0.085-0.054,0.105-0.067,0.238-0.08h0.005c0.122-0.003,0.244,0.034,0.369,0.025
				c0.122-0.011,0.184-0.052,0.205-0.07c0.057-0.049,0.03-0.104-0.018-0.189c-0.038-0.065-0.025-0.078-0.008-0.094
				c0.066-0.066,0.17-0.054,0.243-0.104c0.044-0.035,0.04-0.1,0.088-0.128c0.087-0.048,0.132-0.053,0.366-0.068
				c0.259,0.107,0.522-0.11,0.78,0.013c0.01,0.003,0.02,0.004,0.026,0.013c0.006,0.006,0.012,0.016,0.017,0.021
				c0.043,0.058-0.016,0.128,0.027,0.181c0.01,0.013,0.031,0.013,0.051,0.02c0.113,0.031,0.192,0.155,0.202,0.168
				C53.366,29.845,53.364,29.899,53.343,29.922"/>
			<path clip-path="url(#SVGID_4_)" fill="#E6E7E8" d="M73.96,40.778c-1.284,0.146-1.604-0.169-1.532-0.287
				c0.017-0.024,0.044-0.049,0.068-0.065c0.621,0.028,0.621,0.028,0.701,0.049l0.587,0.145c0.147,0.054,0.147,0.054,0.245,0.154
				C74.009,40.775,73.978,40.778,73.96,40.778"/>
			<path clip-path="url(#SVGID_4_)" fill="#E6E7E8" d="M67.452,40.128c-0.003,0.017-0.012,0.038-0.017,0.057
				c-0.055,0.026-0.055,0.027-0.114,0.001c-0.081-0.039-0.159-0.089-0.242-0.124c-0.164-0.064-0.34-0.096-0.497-0.174
				c-0.205-0.104-0.368-0.275-0.584-0.362c-0.147-0.063-0.315-0.043-0.458-0.124c-0.061-0.037-0.101-0.121-0.081-0.157
				c0.027-0.068,0.255-0.081,0.377-0.087c0.296-0.014,0.587,0.029,0.882,0.006h0.01h0.002h0.005h0.002h0.001h0.007h0.004
				c0.189-0.005,0.302,0.021,0.397,0.148C67.204,39.392,67.469,39.965,67.452,40.128"/>
			<path clip-path="url(#SVGID_4_)" fill="#E6E7E8" d="M63.067,36.586c0.041,0.204,0.052,0.419,0.089,0.626
				c-0.286,0.188-0.603-0.414-0.557-0.557c0.031-0.113,0.162-0.049,0.219-0.116c0.073-0.08-0.02-0.188,0.047-0.268
				c0.013-0.02,0.047-0.033,0.066-0.037h0.013C62.974,36.282,63.024,36.37,63.067,36.586"/>
			<path clip-path="url(#SVGID_4_)" fill="#E6E7E8" d="M63.616,38.1c0.041,0.366-0.174,0.847-0.773,0.719
				c-0.043-0.117-0.052-0.163-0.004-0.314c0.027-0.084,0.053-0.172,0.037-0.243c-0.044-0.215-0.288-0.292-0.344-0.498
				c-0.01-0.023-0.017-0.061-0.01-0.088c0.016-0.088,0.016-0.088,0.583-0.221C63.499,37.604,63.594,37.924,63.616,38.1"/>
			<path clip-path="url(#SVGID_4_)" fill="#E6E7E8" d="M59.811,38.641c-0.006,0.039-0.042,0.108-0.208,0.1
				c-0.062-0.003-0.399-0.07-0.444-0.128c-0.044-0.053-0.003-0.235,0.204-0.257c0.127-0.003,0.31,0.042,0.312,0.042
				C59.676,38.397,59.822,38.53,59.811,38.641"/>
			<path clip-path="url(#SVGID_4_)" fill="#E6E7E8" d="M60.399,38.395c-0.141,0.04-0.511-0.024-0.418-0.175
				c0.003-0.007,0.007-0.011,0.011-0.014c0.112,0,0.383,0.049,0.42,0.186C60.408,38.393,60.404,38.395,60.399,38.395"/>
			<path clip-path="url(#SVGID_4_)" fill="#E6E7E8" d="M70.137,20.835c0.029,0.03,0.035,0.041,0.035,0.052
				c-0.026,0.036-0.065,0.002-0.095,0.016c-0.01,0.007-0.01,0.014-0.01,0.033C70.071,20.984,70.052,21,70.05,21
				c-0.012,0.008-0.027,0.018-0.064,0.004c-0.044-0.018-0.076-0.042-0.119-0.068c-0.042-0.031-0.079-0.06-0.121-0.094
				c-0.028-0.022-0.069-0.046-0.101-0.069c-0.165-0.109-0.181-0.122-0.203-0.146c0-0.003,0.003-0.008,0.016-0.014h0.006
				c0.028-0.005,0.051,0.006,0.078-0.002c0.02-0.003,0.033-0.013,0.051-0.013C69.758,20.605,70.069,20.765,70.137,20.835"/>
			<path clip-path="url(#SVGID_4_)" fill="#E6E7E8" d="M57.249,16.254c0.076,0.033,0.084,0.045,0.09,0.063
				c-0.019,0.062-0.019,0.062-0.009,0.069c0.061,0.052,0.163,0.011,0.211,0.094c-0.083,0.046-0.166-0.01-0.247,0.008
				c-0.001,0.005-0.004,0.008-0.009,0.011c0.027,0.076-0.155,0.046-0.158,0.046c-0.198-0.043-0.238-0.048-0.273-0.043v0.017
				c0.009,0.012,0.022,0.02,0.035,0.026c-0.032-0.004-0.066-0.01-0.097-0.02c-0.04-0.01-0.436-0.059-0.436-0.059
				c0,0.008,0.009,0.017,0.013,0.022c-0.007,0.004-0.022,0.005-0.296-0.081c-0.038-0.014-0.074-0.033-0.115-0.039
				c-0.051-0.005-0.104,0.021-0.158,0.004c-0.003,0-0.356-0.17-0.361-0.182c0.044-0.02,0.081,0.019,0.123,0.019h0.01
				c0.036-0.003,0.036-0.003,0.045-0.013c-0.009-0.011-0.02-0.024-0.029-0.035c0,0,0.078-0.039,0.228,0.018
				c0.037,0.012,0.091,0.024,0.121,0.03c0.065,0.011,0.13-0.014,0.197,0c0.059,0.015,0.118,0.038,0.184,0.046h0.009
				c-0.091-0.062-0.091-0.062-0.099-0.075c-0.105-0.025-0.123-0.053-0.127-0.061c0.004-0.008,0.023-0.012,0.033-0.012
				c0.135,0,0.239,0.101,0.367,0.124c0.003-0.004,0.003-0.005,0.01-0.008c-0.006-0.004-0.007-0.008-0.007-0.011
				c-0.038-0.01-0.062-0.015-0.102-0.031c0.005-0.002,0.011-0.002,0.016-0.005c0-0.006,0-0.011-0.002-0.015
				c-0.014-0.013-0.03-0.025-0.047-0.042c0,0,0.002-0.004,0.002-0.008c0.031,0.004,0.037,0.005,0.17,0.039
				c0.227,0.063,0.227,0.06,0.246,0.034c0.003,0,0.01-0.001,0.015-0.001c0.038,0,0.07,0.023,0.108,0.024
				c0.038,0,0.07-0.03,0.112-0.024C57.108,16.195,57.192,16.228,57.249,16.254"/>
			<path clip-path="url(#SVGID_4_)" fill="#E6E7E8" d="M58.294,17.013c0.007,0.006,0.007,0.018,0.011,0.027
				c-0.014,0.02-0.029,0.042-0.033,0.065c0.041,0.036,0.062,0.045,0.19,0.1c-0.149,0.049-0.149,0.049-0.162,0.063v0.024
				c-0.372-0.148-0.377-0.149-0.417-0.089c-0.042,0.069-0.213-0.023-0.243-0.086c-0.019-0.042-0.019-0.042-0.123-0.093
				c0.008-0.001,0.024-0.004,0.031-0.008c0.005-0.006,0.005-0.016,0.006-0.023c-0.092-0.073-0.208-0.06-0.315-0.092
				c-0.095-0.034-0.17-0.106-0.273-0.131c-0.005-0.004-0.124-0.029-0.272,0.017c0.071,0.082,0.178,0.107,0.257,0.177
				c0,0.007-0.001,0.017-0.003,0.024c-0.03,0.005-0.06,0.01-0.089,0.015c-0.003,0.008-0.006,0.015-0.009,0.021
				c0.152,0.119,0.152,0.119,0.182,0.162c-0.008,0.016-0.022,0.039-0.033,0.052c0.017,0.035,0.018,0.039,0.135,0.101
				c-0.073,0.016-0.073,0.016-0.098,0.046c0.047,0.078,0.139,0.104,0.192,0.17c-0.041,0.129-0.929-0.254-0.937-0.262h-0.019h-0.016
				c-0.005,0-0.013,0.003-0.018,0.003h-0.016h-0.016c-0.006,0-0.011,0-0.017,0.002c-0.006,0-0.011,0-0.018,0
				c-0.005,0-0.01,0.002-0.018,0.002c-0.182-0.027-0.182-0.027-0.228-0.087c0.05-0.023,0.117,0.012,0.159-0.048
				c-0.033-0.166-0.248,0.009-0.348-0.086v-0.025c0.032-0.029,0.055-0.052,0.116-0.061h0.002h0.001c0.056,0,0.106-0.029,0.159-0.022
				c-0.005-0.02-0.015-0.043-0.021-0.063c0.065-0.026,0.134-0.006,0.197-0.029c0.004-0.009,0.008-0.019,0.011-0.024
				c-0.007-0.002-0.014-0.015-0.02-0.015c-0.078-0.014-0.155,0.031-0.229,0.005c-0.057-0.019-0.088-0.097-0.162-0.063
				c-0.171-0.097-0.171-0.097-0.244-0.088c0.024,0.043,0.069,0.067,0.1,0.103c-0.011-0.005-0.031-0.009-0.041-0.009
				c0.009,0.064,0.09,0.064,0.103,0.119c-0.072,0.044-0.072,0.044-0.057,0.105c-0.008,0.005-0.017,0.015-0.025,0.018
				c-0.14-0.012-0.257-0.102-0.388-0.151c0.029,0.056,0.029,0.061,0.021,0.104c-0.078,0.042-0.643-0.198-0.646-0.2
				c0-0.008-0.001-0.016-0.001-0.021c0.046-0.017,0.094-0.015,0.142-0.029c0.004-0.007,0.008-0.018,0.012-0.024
				c-0.039-0.029-0.088-0.039-0.121-0.073c-0.325-0.172-0.325-0.172-0.337-0.214c0.046-0.009,0.114,0.036,0.138-0.024
				c0.452-0.023,0.452-0.023,0.474-0.032c0.01,0.043-0.024,0.093,0.018,0.13c0.002,0,0.088,0.049,0.128,0
				c-0.003-0.029-0.013-0.056-0.024-0.084c0.261-0.033,0.452,0.176,0.694,0.201c-0.005-0.005-0.008-0.014-0.011-0.021
				c-0.172-0.021-0.52-0.241-0.524-0.244c0.004-0.009,0.004-0.018,0.007-0.024c0.006-0.005,0.013-0.009,0.02-0.013
				c0-0.01,0.004-0.021,0.004-0.029c0.614,0.199,0.614,0.199,0.691,0.231c0.001-0.01,0.007-0.016,0.011-0.023
				c-0.003-0.005-0.006-0.014-0.006-0.021c0.035-0.025,0.05-0.021,0.179,0.031c0.141,0.058,0.226,0.08,0.249,0.088
				c0,0,0.348,0.051,0.375,0.053c0.145,0.008,0.274,0.079,0.416,0.112c0.142,0.034,0.271,0.105,0.417,0.12
				c0-0.005,0-0.015,0.002-0.019c0.02-0.014,0.069-0.047,0.346,0.072c-0.008,0.001-0.02,0.004-0.026,0.01
				c-0.002,0.007-0.003,0.017-0.004,0.023C58.015,17.004,58.176,16.865,58.294,17.013"/>
			<path clip-path="url(#SVGID_4_)" fill="#E6E7E8" d="M60.539,15.994c0.146,0.034,0.264,0.079,0.264,0.079
				c-0.073,0.015-0.507-0.094-0.562-0.111c0.028,0,0.061,0.011,0.088,0.013c-0.004-0.004-0.013-0.007-0.218-0.056
				c-0.071-0.015-0.141-0.019-0.204-0.047h0.013c-0.002-0.001-0.002-0.005-0.004-0.005C60.208,15.923,60.386,15.96,60.539,15.994"/>
			<path clip-path="url(#SVGID_4_)" fill="#E6E7E8" d="M60.76,16.093c0.134,0.032,0.277,0.087,0.277,0.087s0,0.001-0.003,0.001
				c-0.071-0.003-0.141-0.026-0.214-0.032l0,0.001c0,0,0,0.006,0,0.009c-0.009,0.003-0.034,0-0.1-0.017h0.002
				c-0.002-0.002-0.006-0.008-0.012-0.008c-0.024-0.007-0.052-0.015-0.075-0.021c-0.031-0.007-0.065-0.007-0.088-0.03
				c0.003-0.001,0.009,0,0.014,0c-0.021-0.023-0.054-0.013-0.082-0.03c0.005-0.004,0.012-0.003,0.015-0.003
				C60.615,16.057,60.696,16.074,60.76,16.093"/>
			<path clip-path="url(#SVGID_4_)" fill="#E6E7E8" d="M60.487,16.18c0.006,0.004,0.019,0.011,0.024,0.014
				c-0.002,0.002-0.003,0.006-0.003,0.009c-0.063,0.016-0.212-0.024-0.333-0.059c-0.027-0.009-0.16-0.043-0.197-0.049
				c0.032,0.026,0.069,0.032,0.106,0.05c-0.276,0.031-0.51-0.141-0.772-0.175c0.044,0.034,0.1,0.034,0.143,0.064
				c-0.017,0.007-0.03,0.019-0.05,0.023c-0.044-0.009-0.234-0.048-0.283-0.069c0.023-0.015,0.049-0.004,0.071-0.011
				c-0.024-0.018-0.061-0.023-0.091-0.042l0.004-0.002h0.002c0.15,0.007,0.292,0.072,0.446,0.057
				c-0.12-0.028-0.206-0.044-0.255-0.053c0-0.01-0.003-0.02-0.033-0.031c-0.058-0.022-0.122-0.03-0.182-0.054
				c0.005,0,0.005,0,0.005,0c0.004-0.001,0.692,0.132,0.766,0.171v0.008c-0.014,0.007-0.017,0.009-0.044,0.009h-0.001
				c0.115,0.028,0.23,0.065,0.35,0.09c0.073,0.018,0.089,0.012,0.098,0.012C60.317,16.131,60.482,16.18,60.487,16.18"/>
			<path clip-path="url(#SVGID_4_)" fill="#E6E7E8" d="M59.641,15.828c0.027,0.008,0.058,0.008,0.086,0.024
				c-0.063-0.003-0.125-0.016-0.187-0.022c0.427,0.077,0.659,0.124,0.692,0.138c-0.022,0.008-0.042,0-0.063,0
				c0.006,0.008,0.006,0.008,0.11,0.036c0.014,0,0.024,0.005,0.036,0.008c-0.001,0-0.004,0.006-0.004,0.008
				c-0.035,0-0.476-0.056-0.525-0.07c0.002-0.006,0.006-0.008,0.01-0.011c-0.09-0.037-0.197-0.008-0.282-0.064
				c0.016-0.002,0.029,0.002,0.048,0c-0.087-0.024-0.181-0.025-0.269-0.061c0.031,0,0.061,0.006,0.094,0.009
				c-0.079-0.047-0.182-0.01-0.257-0.059h0.006l0.005-0.001c0.044,0.001,0.086,0.013,0.131,0.016
				c-0.006-0.005-0.014-0.007-0.019-0.008C59.379,15.79,59.509,15.801,59.641,15.828"/>
			<path clip-path="url(#SVGID_4_)" fill="#E6E7E8" d="M93.043,58.187c-0.023,0.362-0.055,0.488-0.059,0.52
				c-0.041-0.092,0.075-2.383,0.077-2.405C93.073,57.13,93.083,57.589,93.043,58.187"/>
			<path clip-path="url(#SVGID_4_)" fill="#E6E7E8" d="M69.578,18.967c0.026,0.011,0.049,0.021,0.069,0.038
				c-0.004,0-0.24-0.079-0.57-0.227c0.013,0.004,0.024,0.006,0.036,0.006c-0.033-0.015-0.077-0.035-0.107-0.051
				c-0.026-0.017-0.057-0.026-0.074-0.051h0.004C68.937,18.683,69.453,18.903,69.578,18.967"/>
			<path clip-path="url(#SVGID_4_)" fill="#E6E7E8" d="M71.515,20.129c0.391,0.285,0.772,0.583,1.16,0.869
				c0.204,0.066,0.409,0.125,0.619,0.169C72.553,20.736,71.973,20.397,71.515,20.129"/>
			<path clip-path="url(#SVGID_4_)" fill="#E6E7E8" d="M74.035,21.353c-0.389-0.245-0.473-0.289-0.641-0.369
				C73.624,21.115,73.838,21.239,74.035,21.353"/>
			<path clip-path="url(#SVGID_4_)" fill="#E6E7E8" d="M71.515,20.129c-0.548-0.4-1.115-0.774-1.739-1.049
				C69.834,19.142,69.847,19.156,71.515,20.129"/>
			<path clip-path="url(#SVGID_4_)" fill="#E6E7E8" d="M70.279,19.249c0.126,0.064,0.444,0.227,0.754,0.386
				c-0.199-0.111-0.321-0.18-0.321-0.18C70.583,19.392,70.409,19.311,70.279,19.249"/>
			<path clip-path="url(#SVGID_4_)" fill="#E6E7E8" d="M69.588,18.944c0.473,0.232,0.473,0.232,3.681,2.008
				c0.078,0.01,0.081,0.01,0.081,0.01c0.017,0.007-1.496-0.86-2.038-1.168C70.729,19.529,70.172,19.208,69.588,18.944"/>
			<path clip-path="url(#SVGID_4_)" fill="#E6E7E8" d="M71.651,19.95c-0.131-0.064-0.372-0.189-0.618-0.315
				c0.08,0.047,0.174,0.1,0.279,0.158c0.063,0.028,0.124,0.061,0.187,0.087L71.651,19.95z"/>
			<path clip-path="url(#SVGID_4_)" fill="#E6E7E8" d="M92.878,51.246c-0.173-1.333-0.465-3.104-0.741-4.419
				c-1.127-4.192-1.127-4.192-1.921-6.157c-1.725-3.851-1.725-3.851-2.821-5.687c-2.248-3.451-2.248-3.451-3.632-5.128
				c-2.77-3.088-2.77-3.088-4.356-4.498c-3.227-2.646-3.227-2.646-4.99-3.782c-0.115-0.065-0.245-0.141-0.382-0.223
				c0.179,0.113,0.422,0.268,0.776,0.489c-0.375-0.214-0.733-0.456-1.104-0.675c0.4,0.363,0.875,0.623,1.313,0.936l0.155,0.127
				h-0.01c0.047,0.045,0.108,0.105,0.154,0.152c-1.005-0.255-1.839-0.792-2.643-1.383c-0.711-0.234-1.382-0.572-2.086-0.824
				c0.5,0.379,1.148,0.484,1.629,0.897c-0.304-0.039-0.304-0.039-0.616-0.279c0.035,0.06,0.083,0.144,0.121,0.203
				c-0.1,0.081-0.25,0.166-0.371,0.211c-0.123-0.094-0.277-0.224-0.399-0.319c-0.021,0.059-0.046,0.14-0.069,0.198
				c-0.069,0.017-0.165,0.03-0.232,0.047c0.056,0.116,0.183,0.257,0.292,0.323c-0.063,0.002-0.148,0.005-0.212,0.006
				c0.013,0.135,0.083,0.31,0.167,0.419c-0.063,0.034-0.142,0.078-0.202,0.112c-0.497-0.293-0.497-0.293-0.585-0.354
				c0.009-0.065,0.018-0.152,0.026-0.218c-0.358-0.27-0.808-0.27-1.207-0.415c0.563,0.484,1.251,0.807,1.776,1.344
				c-0.516-0.104-0.516-0.104-0.697-0.11c-0.039,0.125-0.089,0.292-0.124,0.417c0.172,0.147,0.359,0.274,0.537,0.413
				c-0.029,0.06-0.063,0.137-0.086,0.197c-0.315-0.061-0.315-0.061-0.931-0.339c0.023,0.063,0.023,0.063,0.711,0.536
				c-0.058,0.046-0.131,0.103-0.193,0.145c-1.706-0.572-2.994-1.571-3.132-1.681c0.503,0.155,2.187,0.641,2.748,0.39
				c-0.081-0.67-0.094-0.808-5.69-2.308c-0.05,0.031-0.122,0.076-0.177,0.106c-0.139-0.044-0.321-0.133-0.434-0.228
				c-0.001,0.064-0.003,0.154-0.006,0.22c-0.13,0.008-0.311,0.049-0.433,0.107c-0.107-0.087-0.288-0.155-0.427-0.155
				c-0.031,0.056-0.073,0.131-0.104,0.187c0.031,0.068,0.071,0.164,0.1,0.233c-0.117-0.086-0.275-0.202-0.39-0.289
				c0.02,0.061,0.052,0.139,0.069,0.194c-0.124,0.024-0.296,0.015-0.415-0.021c-0.027,0.062-0.057,0.146-0.08,0.209
				c-0.134-0.044-0.305-0.103-0.437-0.147c-0.095,0.072-0.255,0.131-0.377,0.14c0.055,0.116,0.152,0.269,0.228,0.372
				c-0.128-0.054-0.296-0.123-0.42-0.174c-0.03,0.061-0.069,0.14-0.097,0.199c0.039,0.058,0.095,0.134,0.134,0.188
				c-0.121-0.011-0.287-0.074-0.388-0.148c-0.062,0.014-0.146,0.033-0.209,0.048c-0.116,0.272-0.116,0.272-0.552,0.698
				c0.215,0.016,0.215,0.016,0.77-0.363c0.081,0.018,0.184,0.039,0.264,0.055c-0.049,0.111-0.177,0.239-0.286,0.295
				c0.022,0.069,0.049,0.164,0.069,0.235c-0.289,0.368-0.352,0.773-0.454,1.449c-0.063,0.005-0.146,0.008-0.208,0.01
				c0.06,0.034,0.138,0.08,0.196,0.113c-0.524,0.53-0.524,0.53-0.535,0.608c-0.131-0.01-0.305-0.041-0.431-0.078
				c-0.025,0.133-0.113,0.3-0.2,0.402c0.028,0.075,0.068,0.171,0.096,0.24c-0.116-0.048-0.272-0.105-0.394-0.138
				c-0.024,0.068-0.052,0.158-0.077,0.226c-0.069,0.014-0.161,0.031-0.233,0.047c-0.065,0.128-0.065,0.128-0.495,0.376
				c0.102,0.342,0.125,0.36,0.348,0.53c-0.02,0.063-0.042,0.146-0.062,0.21c0.121,0.048,0.296,0.089,0.429,0.104
				c-0.01,0.066-0.022,0.155-0.034,0.221c0.116,0.139,0.118,0.139,0.122,0.139h0.006c0.003,0,0.007-0.001,0.013-0.001h0.007h0.008
				h0.009c0.004,0,0.006,0,0.009-0.003h0.008c-0.02,0.063-0.043,0.148-0.06,0.212c0.06,0.045,0.143,0.104,0.2,0.149
				c-0.025,0.065-0.062,0.153-0.089,0.222c0.868,1.235,2.662-1.008,3.176,0.411c0.709,0.32,0.982,1.771,1.942,1.257
				c0.006-0.13,0.049-0.31,0.117-0.419c0.827-0.076,0.827-0.076,0.858-0.1c-0.155-0.397-0.413-0.738-0.598-1.125
				c0.034-0.063,0.083-0.147,0.116-0.212c0.041-0.091,0.041-0.091,0.043-0.091h0.004h0.001h0h0.005h0.004H64.1
				c0.061-0.014,0.146-0.035,0.209-0.048l0.091-0.062c-0.018-0.063-0.042-0.147-0.055-0.213c0.06-0.016,0.144-0.037,0.206-0.053
				c0.01-0.063,0.024-0.146,0.032-0.209c-0.526-0.479-0.839-0.483-1.005-0.485c-0.62-0.8-0.448-0.931,0.281-1.485
				c-0.044-0.062-0.103-0.143-0.144-0.199c0.125-0.06,0.293-0.137,0.416-0.203c0.027-0.111,0.027-0.111-0.261-0.762
				c0.093-0.075,0.194-0.218,0.23-0.336c0.114,0.054,0.272,0.109,0.395,0.133c0.029-0.055,0.069-0.13,0.101-0.185
				c0.439,0.137,0.522,0.185,0.891,0.614c-0.061-0.032-0.145-0.073-0.206-0.104c0.002,0.072,0.005,0.171,0.005,0.244
				c-0.054,0.038-0.129,0.088-0.182,0.125c0.032,0.063,0.071,0.152,0.107,0.216c-0.139,0.053-0.315,0.169-0.397,0.295
				c0.064,0.041,0.15,0.096,0.21,0.136c-0.128,0.044-0.298,0.118-0.417,0.19c0.257,0.431,0.917,0.609,0.795,1.275
				c0.357,0.301,0.832,0.309,1.23,0.5h0.001h0.002h0.001h0.001c0.47-0.22,1.01-0.546,1.01-0.546
				c0.008-0.001,1.001,0.113,1.117,0.221c-0.027,0.13-0.056,0.303-0.068,0.434c-0.593,0.077-1.202-0.087-1.786,0.096
				c0.01,0.078,0.018,0.183,0.021,0.261c0.503,0.398,0.503,0.398,0.9,0.861c-0.015,0.062-0.039,0.146-0.054,0.207
				c-0.075,0.013-0.18,0.032-0.255,0.046c-0.443-0.351-0.443-0.351-0.848-0.225c-0.029,0.063-0.07,0.152-0.099,0.216
				c0.159,0.377,0.138,0.797,0.294,1.175c-0.146,0.065-0.346,0.139-0.5,0.161c-0.001,0.096-0.005,0.22-0.006,0.318
				c-0.604-0.291-0.653-0.257-0.888-0.093c-0.761-0.162-1.503,0.436-2.268,0.063c-0.253,0.12-0.521,0.206-0.769,0.337
				c-0.571-0.188-0.571-0.188-1.015-0.383c0.14-0.068,0.14-0.068,1.293-0.133c-0.079-0.496-0.179-1.115-1.001-0.752
				c0.069,0.176,0.069,0.176,0.453,0.605c-0.33,0.07-0.575-0.166-0.867-0.231c0.005-0.069,0.009-0.158,0.01-0.228
				c0.071-0.05,0.161-0.116,0.23-0.167c-0.102-0.092-0.231-0.22-0.325-0.315c0.026-0.07,0.056-0.165,0.084-0.234
				c-0.066-0.115-0.175-0.257-0.265-0.355c-0.697,0.595-0.697,0.595-0.394,1.714c0.466,0.259,0.286,0.636,0.224,0.759
				c-1.832,0.388-1.832,0.388-2.276,0.741c0.166,0.962-2.09,2.095-2.113,2.103c-0.17,0.018-0.17,0.018-0.174,0.018
				c-0.203-0.062-0.377-0.206-0.606-0.188c0.132,0.222,0.292,0.43,0.401,0.666c-0.134-0.001-0.312,0.006-0.444,0.015
				c-0.192,0.017-0.193,0.017-0.193,0.017h0h-0.003h-0.001h-0.002h-0.002c-0.617-0.19-0.617-0.19-1.354,0.052
				c0.049,0.041,0.118,0.094,0.166,0.136c-0.056,0.033-0.128,0.077-0.182,0.11c0.062,0.01,0.142,0.023,0.204,0.033
				c-0.053,0.037-0.125,0.084-0.178,0.122c4.396,1.544,2.121,2.602,2.023,2.645c-1.341,0.6-2.787-0.66-4.114,0.235
				c-0.118,0.079-0.252,0.253-0.265,0.395c-0.084,0.782,0.339,1.569-0.022,2.351c0.034,0.057,0.079,0.13,0.114,0.187
				c0.069,0.009,0.163,0.024,0.228,0.034c0.166,0.251,0.197,0.295,0.103,0.915c0.227,0.1,0.227,0.1,1.118-0.145
				c0.123-0.014,0.123-0.014,0.125-0.014h0.003h0h0.001c0.126,0.034,0.126,0.034,0.984,0.81c0.293-0.154,0.499-0.429,0.796-0.58
				c0.06,0.022,0.06,0.022,1.358-0.056c0.45-0.524,1.294-1.326,1.296-1.328c-0.09-0.098-0.219-0.216-0.322-0.294
				c-0.007-0.498,0.588-0.701,0.583-1.198c0.01,0.001,1.147-0.097,1.382-0.655c-0.24-0.322-0.227-0.361-0.139-0.667
				c0.155-0.083,0.155-0.083,1.671,0.073c0.718,0.077,0.833-0.847,1.476-0.889c0.009,0,0.771-0.027,1.162,0.522
				c-0.028,0.073-0.068,0.167-0.096,0.239c0.8,0.705,1.906,0.776,2.777,1.334l0.175,0.046h0.003h0.001h0.003h0.003l0.019-0.002
				c0.511,0.243,1.032,0.843,1.037,0.848c-0.107,0.412-0.169,0.422-0.419,0.469c0.015,0.049,0.033,0.109,0.049,0.156
				c0.705,0.173,0.705,0.173,0.655-1.355c0.273-0.137,0.367-0.181,0.844,0.152c0.04-0.044,0.099-0.107,0.143-0.152
				c-1.227-1.331-5.166-0.895-4.255-3.245c0.067-0.003,0.153-0.004,0.218-0.005l4.394,2.348c-0.104,0.081-0.273,0.163-0.406,0.195
				c-0.094,0.379-0.094,0.379,0.7,0.661c0.02,0.068,0.047,0.157,0.067,0.225c1.082,0.562,2.931,0.831,2.939,0.831
				c-0.305-0.459-0.931-0.54-1.222-1.019c0.016-0.064,0.042-0.147,0.059-0.213c0.258-0.04,0.312-0.048,0.619,0.105
				c0.018-0.063,0.042-0.146,0.061-0.208c-0.052-0.049-0.123-0.117-0.176-0.168c0.818-0.339,1.766,0.263,2.54-0.355
				c0.024-0.112,0.024-0.112,0.023-0.112c-0.652-0.097-0.759-0.31-0.917-0.635c0.104-0.075,0.276-0.124,0.398-0.128
				c-0.017-0.063-0.041-0.148-0.055-0.214c-0.131-0.07-0.299-0.176-0.42-0.265c0.074-0.017,0.17-0.039,0.244-0.06
				c-0.018-0.143-0.043-0.338-0.064-0.483c0.066-0.029,0.155-0.066,0.225-0.098c-0.013-0.101-0.027-0.242-0.037-0.346
				c0.043-0.478,0.407-0.937,0.412-0.94c0.34,0.093,0.626,0.331,0.99,0.359h0.073c-0.035,0.053-0.079,0.129-0.113,0.182
				c0.018,0.067,0.043,0.153,0.06,0.217c0.105,0.014,1.047,0.643,1.319,0.245c0.157-0.052,0.157-0.052,0.16-0.052h0.005
				c0.063-0.016,0.147-0.032,0.212-0.043c-0.011-0.062-0.026-0.143-0.04-0.208c-0.679-0.136-0.679-0.136-0.833-0.26
				c-0.006-0.635,0.847-0.881,1.186-0.782c0.026,0.833,0.026,0.833,0.055,0.906c-0.072,0.098-0.123,0.269-0.123,0.391
				c1.889,1.014,2.246,1.275,2.31,1.33c-0.217-0.004-0.432-0.053-0.653-0.021c-0.006,0.313-0.006,0.313,1.015,0.423
				c-0.065,0.791-1.257,0.825-2.066,0.276c-0.504-0.346-0.903-0.612-3.338,0.395c-0.255,0.64-0.936,0.273-1.376,0.495
				c0.084,0.266,1.279,2.625,2.89,2.617c0.089-0.113,0.166-0.302,0.181-0.446c0.049-0.037,0.121-0.089,0.169-0.126
				c0.777,0.339,1.632-0.493,2.391,0.149c-0.083,3.568-0.083,3.568-1.247,3.074c0.251,0.932,1.174,1.364,1.599,2.166
				c0.057-0.031,0.128-0.072,0.183-0.103c-0.078-0.333-0.086-0.403-0.104-0.683c4.443,5.762,5.151,8.421,5.173,9.492
				c0.206,0.193,0.367,0.437,0.608,0.596c0.416-0.486,0.416-0.486,1.034-0.518c0.385-0.448,0.385-0.448,0.448-0.478
				c0.033-0.132,0.064-0.303,0.073-0.434c0.284-0.163,0.604-0.025,0.894-0.119c0.105-0.245,0.105-0.245,0.653-0.995
				c0.271,0.004,0.271,0.004,0.572-0.564c0.063-0.016,0.145-0.037,0.209-0.053c0.029-0.159,0.071-0.37,0.101-0.529
				c0.063-0.02,0.139-0.046,0.2-0.068c0.051-0.221,0.067-0.445,0.097-0.673c0.06,0.019,0.145,0.04,0.207,0.054
				c-0.098-1.66-0.098-1.66-0.808-2.898c-0.06-0.014-0.143-0.034-0.205-0.048c-0.151-0.242-0.151-0.242-0.341-0.963
				c-0.197,0.135-0.197,0.135-0.442,0.984c-0.064,0.021-0.146,0.043-0.208,0.062c-0.05-0.038-0.119-0.086-0.167-0.125
				c-0.062,0.031-0.135,0.076-0.195,0.104c-0.006,0.071-0.011,0.167-0.018,0.239c-0.065-0.032-0.153-0.075-0.216-0.107
				c-0.091-0.319-0.129-0.655-0.252-0.967c-0.097,0.098-0.216,0.233-0.3,0.348c-0.315-0.788-0.544-1.354-1.607-2.43
				c1.387-0.292,1.986,2.419,3.25,1.34c0.062,0.028,0.142,0.065,0.206,0.089c0.515,1.376,1.786,1.097,1.8,1.095
				c0.682-0.16,0.682-0.16,1.231,1.408c0.057,0.02,0.136,0.049,0.194,0.068c0.283,1.09,0.283,1.09,0.444,1.333
				c0.094-0.278,0.094-0.278,0.065-0.749c0.006,0.017,0.61,1.742,1.039,8.5C93.198,56.212,92.972,52.101,92.878,51.246
				 M68.968,25.846c0.009-0.008,0.012-0.018,0.013-0.026C68.98,25.828,68.977,25.838,68.968,25.846"/>
			<path clip-path="url(#SVGID_4_)" fill="#E6E7E8" d="M84.849,70.375c-0.105,0.267-0.159,0.267-0.196,0.269
				c-0.025-0.059-0.025-0.059-0.048-0.269c-0.089,0.233-0.099,0.491-0.193,0.726l-0.436,0.822c-0.2,0.298-0.344,0.515-0.482,0.837
				c-0.116,0.273-0.359,0.465-0.509,0.721c-0.291,0.51-0.443,1.095-0.806,1.567c-0.049,0.063-0.579,0.594-0.582,0.595
				c-0.019,0.014-0.051,0.03-0.073,0.038c-0.113,0.043-0.229-0.008-0.342,0.022c-0.116,0.033-0.147,0.185-0.277,0.202
				c-0.107-0.093-0.107-0.093-0.01-0.955c0.021-0.19,0.167-0.336,0.193-0.522c0.021-0.142-0.008-0.282,0.021-0.42
				c0.006-0.022,0.011-0.049,0.018-0.068c0.188-0.479,0.667-0.736,0.887-1.187c0.21-0.426,0.085-0.927,0.317-1.347
				c0.359-0.645,0.505-0.663,0.572-0.673h0.003h0.012h0.004h0.001h0.001c0.124-0.019,0.663-0.392,0.669-0.395
				c0.047-0.037,0.463-0.373,0.653-0.657c0.007,0.013,0.01,0.026,0.015,0.039c0.013,0.004,0.033,0.008,0.046,0.01
				c0.387-0.575,0.387-0.575,0.451-0.767c0.117-0.356,0.154-0.425,0.276-0.48c-0.078,0.271-0.034,0.468-0.012,0.541
				C85.093,69.262,84.915,70.214,84.849,70.375"/>
			<path clip-path="url(#SVGID_4_)" fill="#E6E7E8" d="M87.508,55.663c0.078-0.368,0.005-0.681-0.029-0.837
				c-0.064-0.034-0.147-0.084-0.212-0.119c-0.341,0.234-0.602,0.578-1.009,0.714h-0.002h-0.003H86.25h-0.001
				c-0.5-0.071-0.981,0.446-1.491,0.05c-0.52-0.396-0.29-1.093-0.63-1.563c-0.369-0.503-1.02-0.681-1.381-1.191
				c-0.036-0.054-0.075-0.128-0.11-0.187c-1.025-1.877-2.337-4.899-2.339-4.914c-0.515-1.896-2.427-2.931-2.97-4.812
				c-0.527,0.018-0.975,0.378-1.515,0.356c-0.33-0.265-0.804-0.111-1.141-0.372c-1.076,0.313-1.894-0.526-2.872-0.646
				c-0.207,0.041-0.207,0.041-0.868,0.354c0.005,0.133-0.039,0.313-0.105,0.424c0.039,0.051,0.093,0.118,0.137,0.166
				c-0.014,0.129-0.034,0.298-0.052,0.424c-0.101,0.057-0.206,0.194-0.24,0.309l-6.214-2.009c0.006-0.064,0.021-0.148,0.029-0.211
				c0.116-0.09,0.262-0.221,0.37-0.322c-0.021-0.023-0.048-0.056-0.067-0.081l0.246-0.245c-0.15-0.259-0.175-0.298-0.535-0.406
				c0.155-0.184,0.155-0.184,0.328-0.597c-0.065-0.018-0.158-0.043-0.227-0.059c-0.044,0.042-0.101,0.1-0.148,0.145
				c-0.186-0.052-0.299-0.231-0.49-0.275c-0.118,0.036-0.489,0.133-1.827,0.234h-0.002H62.13v0.002h-0.002h-0.002H62.12
				c-0.454,0.156-0.454,0.156-0.634,0.133c-0.042,0.054-0.098,0.123-0.143,0.174c-0.292-0.003-0.292-0.003-0.704-0.19
				c-0.082-0.011-0.084-0.011-0.088-0.011c-0.79,0.2-1.593,0.348-2.376,0.583c-0.082,0.009-0.084,0.009-0.084,0.009
				c-0.013,0.016-1.757,1.531-3.788,0.538c-2.777,2.049-2.454,3.138-2.331,3.549c-0.085,0.103-0.16,0.268-0.179,0.396
				c-0.861,0.536-1.656,1.162-2.503,1.71c-0.009,0.066-0.015,0.154-0.023,0.222c-0.094,0.076-0.176,0.238-0.191,0.36
				c-0.302,0.21-0.345,0.646-0.698,0.812c-0.305,1.122-0.378,1.387-1.281,2.353c0.3,0.228,0.529,0.541,0.874,0.713
				c-0.023,0.139-0.056,0.32-0.087,0.456c0.173,0.247,0.223,0.567,0.465,0.774c-0.289,0.64-0.714,1.209-0.934,1.881
				c0.422,0.607,0.341,1.562,1.262,1.823c0.178,0.553,0.832,0.749,0.996,1.314c0.314,0.158,0.748,0.371,0.689,1.107
				c0.521,0.285,1.125,0.388,1.637,0.701c0.519,0.451,1.381,0.352,1.72,1.081c0.042-0.034,0.098-0.08,0.14-0.113
				c0.128,0.023,0.299,0.064,0.431,0.096c0.013-0.01,1.553-0.985,3.064-0.619c0.381,0.092,0.381,0.092,3.023-0.853
				c2.249,0.022,2.249,0.022,2.784,0.889c0.579,0.096,1.106-0.217,1.672-0.221c0.11,0.182,0.255,0.424,0.365,0.607
				c0.091-0.077,0.256-0.136,0.377-0.135c1.011,1.229-1.219,2.952,0.367,3.936c0.106-0.002,0.109-0.002,0.109-0.002h0.001h0.003
				h0.002h0.002c0.001,0,0.001-0.001,0.001-0.001c0.414,0.663,1.084,1.158,1.28,1.958C67.427,66.371,68,67.997,68,68
				c-0.068,0.948-0.068,0.948-0.675,1.485l-0.163,0.069H67.16c-0.169,0.458-0.459,0.866-0.512,1.366
				c-0.056,0.026-0.13,0.069-0.186,0.099c0.003,0.056,0.003,0.056-0.081,1.318c0.818,0.692,1.444,3.589,1.076,4.284
				c0.208,0.507,0.368,1.029,0.566,1.539l-0.005,0.135c0.525,0.854,0.5,1.01,0.441,1.389c-0.121,0.067-0.294,0.137-0.426,0.155
				c-0.004,0.568,0.102,0.641,0.688,1.038c0.486-0.148,0.99-0.233,1.461-0.434c0.504,0.027,0.504,0.027,1.907-0.317
				c4.228-3.437,4.228-3.437,4.073-3.897c0.223-0.367,0.283-0.469,0.874-0.626c0.725-0.298,0.752-0.308,1.243-1.613
				c-0.305-0.6-0.522-1.034,0.688-1.67c-0.002-0.026-0.002-0.065-0.002-0.092c0.469-0.279,0.866-0.663,1.331-0.948
				c0.857-0.393,0.857-0.393,1.745-3.69c-0.326-0.195-0.376-0.687-0.157-1.472l0.057-0.141c-0.043-0.17-0.043-0.17,0.056-0.866
				c-0.046,0.04-0.108,0.098-0.155,0.14c-0.081-0.484,1.38-2.541,1.396-2.556c0.068-0.017,0.072-0.017,0.072-0.017h0.002h0.005
				c1.13-1.505,1.13-1.505,1.238-1.589c0.322-0.856,1.117-1.331,1.635-2.029C86.595,58.521,87.502,55.687,87.508,55.663"/>
			<path clip-path="url(#SVGID_4_)" fill="#E6E7E8" d="M49.755,16.105c-0.218,0.204-0.674,0.503-1.632,0.762
				c0.008,0.021,0.019,0.054,0.028,0.077h0.014c0,0,0.004,0,0.004-0.002h0.002c-0.047,0.028-0.11,0.062-0.164,0.081
				c0.025,0.019,0.045,0.04,0.065,0.058v0.084c-0.241,0.045-0.241,0.045-0.558,0.263c0.14,0.082,0.317,0.019,0.448,0.115
				c-0.015,0.027-0.039,0.063-0.053,0.09c-0.083,0.021-0.168-0.003-0.255,0.007c0.008,0.021,0.024,0.055,0.035,0.074
				c0.117-0.007,0.231-0.037,0.35-0.04c0.099,0.109,0.099,0.109-0.183,0.646c-0.073-0.094-0.075-0.097-0.1-0.337
				c-0.222-0.068-0.538,0.078-0.704,0.172c0.017,0.023,0.039,0.056,0.056,0.08c0.51,0.052,0.51,0.052,0.57,0.13
				c-0.006,0.058-0.027,0.136-0.057,0.189c0.021,0.015,0.047,0.035,0.066,0.053c0.181-0.024,0.215-0.028,0.345,0.095
				c-0.013,0.033-0.032,0.08-0.045,0.115c-0.222-0.154-0.491-0.069-0.724-0.15c-0.023,0.016-0.051,0.042-0.069,0.06
				c0.015,0.021,0.038,0.049,0.054,0.071c0.177,0.007,0.344,0.102,0.526,0.076c-0.01,0.021-0.252,0.518-1.213,0.332
				c0,0.024,0.001,0.061,0.001,0.087c0.111,0.074,0.111,0.074,0.442,0.085c-0.002,0.13-0.49,0.525-0.882,0.185
				c-0.043,0.03-0.087,0.089-0.105,0.135c-0.034-0.054-0.067-0.136-0.085-0.2c-0.029-0.007-0.074-0.014-0.104-0.021
				c-0.042,0.037-0.091,0.087-0.123,0.13h-0.088c-0.025-0.043-0.079-0.091-0.124-0.111c0.012,0.047,0.05,0.108,0.087,0.142
				c-0.031,0.061-0.031,0.061-0.205,0.151c0.309,0.396,0.71-0.054,1.066-0.021c0.034,0.144,0.034,0.144-0.537,0.234
				c0.299,0.257,0.299,0.257,0.277,0.352c-0.349,0.041-0.565-0.472-0.965-0.236c0.012,0.022,0.027,0.055,0.037,0.079
				c0.025,0,0.059,0.004,0.085,0.004h0.004h0.001h0.002h0.003h0.001c0.05-0.023,0.12-0.047,0.175-0.053
				c0.592,0.796,0.917,1.234-0.026,1.051c-0.401-0.079-0.491-0.589-0.901-0.65c-0.025,0.025-0.062,0.052-0.086,0.075
				c0.346,0.368,0.346,0.368,0.317,0.431c-0.228-0.168-0.307-0.211-0.454-0.211c0.016,0.127,0.022,0.169,0.269,0.274
				c-0.175,0.273-0.438-0.177-0.682-0.115c0.026,0.054,0.062,0.13,0.087,0.188c-0.147-0.005-0.241-0.002-0.398,0.042
				c0.157,0.054,0.157,0.054,0.25,0.064c0.011-0.006,0.234-0.191,0.391,0.013c-0.222,0.128-0.493,0.124-0.708,0.253l0.906-0.167
				c0.368-0.356,1.491-0.065,1.5-0.062l-2.758,1.146c-0.247,0.068-0.526-0.077-0.743,0.142c-0.182,0.175-0.182,0.175-0.542-0.182
				c-0.237,0.726-1.206,1.029-1.217,1.032c0.002,0.027,0.009,0.06,0.011,0.083c-0.126,0.114-1.576,0.797-1.636,0.77
				c0.055-0.181,0.229-0.276,0.303-0.447c-0.174,0.118-0.297,0.296-0.483,0.397c-0.194,0.104-0.428-0.019-0.616,0.119
				c0.014,0.131,0.014,0.131-0.614,0.339c0.015,0.096,0.096,0.16,0.119,0.252c-0.122,0.188-0.282,0.352-0.375,0.56
				c-0.141,0.053-0.141,0.053-0.25,0.084h-0.003h-0.002c-0.015,0.36-0.832,0.424-0.839,0.424c-0.022,0.027-0.05,0.066-0.069,0.093
				c0.002,0.017,0.002,0.017,0.153,0.237c-0.041,0.203-0.041,0.203-0.782,1.161c-0.016,0.011-0.018,0.011-0.018,0.011h-0.004h-0.001
				v0.001c-0.182,0.087-0.193,0.354-0.415,0.405c-0.133-0.192-0.133-0.192-0.158-0.221c-0.049,0.012-0.11,0.05-0.146,0.089
				c-0.079-0.096-0.095-0.108-0.237-0.102c-0.159-0.312-0.499-0.13-0.724-0.267c-0.05,0.015-0.119,0.031-0.17,0.044
				c-0.099-0.107-0.135-0.585-0.085-0.687c-0.031-0.038-0.05-0.111-0.041-0.16c-0.157-0.131-0.149-0.143,0.048-0.438
				c-0.052-0.011-0.119-0.013-0.172-0.011c-0.018-0.016-0.042-0.038-0.06-0.057v-0.08c0.05-0.022,0.117-0.058,0.167-0.086
				c-0.096-0.116-0.096-0.116,0.079-0.426c-0.026,0.016-0.062,0.033-0.088,0.046V25.51c0.147-0.146,0.172-0.146,0.582-0.152
				c0.019-0.022,0.045-0.055,0.061-0.079c-0.015-0.017-0.041-0.04-0.057-0.058c-0.408,0.069-0.408,0.069-0.513,0.119
				c-0.003-0.026-0.011-0.06-0.013-0.084c0.17-0.155,0.17-0.155,0.201-0.219c-0.066-0.144-0.066-0.144-0.037-0.271
				c-0.025,0.002-0.055,0.008-0.081,0.013c-0.054-0.077-0.081-0.115,0.02-0.214c-0.005-0.185-0.005-0.185,0.053-0.267l0.053-0.016
				h0.003h0.002c0.053-0.228,0.431-0.336,0.433-0.336c0.015-0.003,0.015-0.003,0.018-0.003h0.004h0.002h0.003
				c0.001,0,0.001-0.005,0.002-0.005h0.002h0.005h0.005l0,0h0.001h0.004h0.002h0.004h0.001h0.002h0.004
				c0.048-0.011,0.116-0.034,0.16-0.061c-0.171-0.015-0.326,0.07-0.49,0.085c0.09-0.093,0.09-0.093,0.888-0.405
				c-0.185-0.055-0.185-0.055-0.591,0.18c0.042-0.454,0.583-0.276,0.853-0.454c-0.109-0.002-0.218-0.021-0.324-0.031
				c0.12-0.254,0.342-0.089,0.407,0.034c0.056,0.006,0.132,0.01,0.19,0.01c0.03-0.125,0.03-0.125-0.359-0.396
				c0.086-0.018,0.169-0.008,0.254-0.02c0.005,0.026,0.014,0.061,0.021,0.085c0.098,0.016,0.397,0.058,0.817-0.544
				c-0.025-0.006-0.055-0.016-0.078-0.025c0.038-0.133,0.038-0.133,0.359-0.26c-0.023-0.01-0.054-0.026-0.08-0.037
				c-0.024,0.009-0.059,0.024-0.083,0.035c-0.079,0.021-0.081,0.021-0.081,0.021l-0.18-0.04c0-0.029,0.001-0.068,0.001-0.1
				c-0.131-0.018-0.144-0.013-0.247,0.024c0.002,0.051,0.002,0.119-0.004,0.174l0.055,0.032c0.022,0.009,0.057,0.02,0.08,0.027
				c-0.059,0.12-0.162,0.318-0.694,0.326c-0.006-0.027-0.011-0.063-0.02-0.088c-0.053-0.005-0.127,0.011-0.177,0.033l-0.025,0.004
				c0.182-0.454,1.186-1.041,1.347-0.689c0.201,0.022,0.293-0.065,0.339-0.114c-0.018-0.037-0.018-0.037,0.319-0.516
				c-0.02-0.063-0.02-0.063-0.023-0.063c-0.101,0.042-0.101,0.042-0.208,0.19c-0.054,0.011-0.125,0.02-0.18,0.022
				c0.006-0.055,0.051-0.122,0.09-0.158c0-0.032,0-0.032-0.002-0.032c0.007-0.057,0.046-0.127,0.083-0.169h-0.103
				c-0.022,0.237-0.557,0.45-0.626,0.461c-0.038-0.028-0.101-0.059-0.152-0.068c0.066-0.075,0.066-0.075,0.416-0.26
				c-0.006-0.027-0.014-0.063-0.021-0.091c0.511-0.429,0.699-1.159,1.36-1.443c-0.026-0.017-0.061-0.033-0.084-0.049
				c0.124-0.195,0.365-0.394,0.41-0.431c-0.044,0.027-0.113,0.046-0.169,0.055c-0.011-0.027-0.025-0.058-0.033-0.084
				c0.022-0.017,0.048-0.038,0.063-0.058c-0.043-0.02-0.099-0.06-0.133-0.095c-0.014,0-0.017,0.001-0.017,0.001
				c-0.187,0.051-0.594,0.198-0.598,0.2c-0.004-0.025-0.009-0.058-0.013-0.087c-0.227,0.055-0.524,0.136-0.527,0.136
				c0.016-0.048,0.016-0.048,0.691-0.376c-0.182,0.032-0.369,0.037-0.546,0.089c0.046-0.037,0.109-0.086,0.162-0.117
				c0.039-0.019,0.04-0.021,0.04-0.021h0.002h0.004l0.001-0.001h0.005h0.001h0.002h0.004h0.001v-0.003h0.002h0.004h0.002
				c0.054-0.014,0.124-0.036,0.176-0.058c-0.052-0.005-0.122,0.002-0.171,0.018c0.346-0.278,0.802-0.123,1.169-0.31
				c0-0.003,0.003-0.007,0.006-0.011c-0.478,0.111-0.478,0.111-0.582,0.115c0.15-0.171,0.15-0.171,0.166-0.225
				c0.879-0.459,1.887-0.553,2.787-0.954c-0.02-0.008-0.053-0.018-0.075-0.026c0.104-0.086,0.104-0.086,1.154-0.407
				c-0.043,0.033-0.104,0.073-0.15,0.099c0.186-0.047,0.354-0.157,0.545-0.2c-0.018,0.019-0.043,0.047-0.062,0.067
				c0.334-0.075,0.628-0.257,0.959-0.339l0.079-0.015c0.022-0.005,0.06-0.014,0.082-0.019c-0.08,0.098-0.08,0.098-0.237,0.198
				c0.535-0.222,0.535-0.222,1.258-0.418c-0.209,0.146-0.459,0.202-0.686,0.303c0.316-0.099,0.608-0.253,0.931-0.334
				c-0.171,0.126-0.36,0.242-0.361,0.242c0.287-0.077,0.526-0.283,0.834-0.304c0,0.051-0.021,0.119-0.044,0.161
				c0.212,0.077,0.271-0.17,0.419-0.23c0.05,0.085,0.065,0.114,0.215,0.085c-0.002-0.021-0.003-0.055-0.005-0.079
				c0.196-0.07,0.408,0.019,0.605-0.058c-0.061-0.036-0.061-0.036-0.427-0.033c0.26-0.193,0.583-0.063,0.858-0.164
				c-0.055,0.033-0.129,0.073-0.186,0.098c0.373-0.066,0.735-0.191,1.111-0.244c0.117,0.019,0.235-0.016,0.348-0.012l0.08,0.003
				c0.063-0.005,0.146-0.007,0.21-0.008c0.02,0.02,0.04,0.044,0.06,0.068c-0.013,0.026-0.033,0.063-0.049,0.092
				c0.197-0.034,0.25-0.029,0.375-0.006c-0.542,0.53-1.271,0.155-1.88,0.379c0.421,0.003,0.826-0.129,1.243-0.138
				c-0.131,0.063-0.131,0.063-0.484,0.174c0.304-0.041,0.574-0.21,0.884-0.228c0.002,0.024,0.01,0.058,0.012,0.083
				c-0.156,0.219-0.427,0.239-0.642,0.36c0.221-0.056,1.136-0.414,1.14-0.414c-0.011,0.024-0.028,0.052-0.039,0.075
				c0.405,0.08,0.787-0.127,1.188-0.091C49.767,16.083,49.763,16.096,49.755,16.105"/>
			<path clip-path="url(#SVGID_4_)" fill="#E6E7E8" d="M48.848,24.096c-0.134-0.013-0.189,0.041-0.247,0.098
				c-0.038,0.033-0.825,0.427-0.827,0.427c-0.085,0.022-0.181,0.002-0.259,0.052c-0.187,0.119-0.187,0.119-0.27,0.133
				c-0.126,0.021-0.292-0.1-0.376,0.059c-0.088,0.164-0.088,0.164-0.218,0.184c-0.231,0.037-0.419-0.12-0.638-0.135
				c-0.09-0.004-0.175,0.016-0.265,0.021c0.002-0.018,0.005-0.052-0.019-0.072c-0.009-0.003-0.018-0.013-0.029-0.017
				c-0.275-0.18-0.542,0.193-0.821,0.026c-0.001-0.001-0.298-0.185,0.242-0.308c0.267-0.062,0.233-0.178-0.146-0.189h-0.012
				c-0.003,0-0.007,0-0.01,0.002c-0.006,0.003-0.011,0.003-0.015,0.003H44.92h-0.018h-0.017c-0.007,0.002-0.012,0.003-0.021,0.003
				h-0.022c-0.221,0.025-0.436,0.031-0.35-0.099c0.049-0.084,0.152-0.073,0.252-0.065c0.333,0.025,0.555-0.27,0.557-0.272
				c-0.048-0.114-0.312-0.077-0.41-0.065c-0.428,0.062-0.432,0.062-0.481,0.045c-0.026-0.043-0.013-0.219,0.151-0.246
				c0.179-0.022,0.196-0.046,0.33-0.211h0.01c0.069-0.016,0.11-0.08,0.18-0.094h0.002h0.001h0.005c0,0,0-0.002,0.002-0.002h0.002
				c0.065-0.002,0.097-0.002,0.157,0.057c0.037,0.034,0.037,0.034,0.063,0.043c0.051,0.017,0.063-0.059,0.113-0.045
				c0.102,0.017,0.17,0.104,0.271,0.124c-0.119,0.113-0.055,0.331,0.009,0.331c0.081,0,0.153-0.049,0.233-0.064
				c0.031-0.065-0.008-0.143,0.027-0.203c0.04-0.081,0.125-0.125,0.143-0.134c0.139-0.067,0.208,0.091,0.327,0.095
				c0.022-0.137,0.283-0.217,0.41-0.052c0.137,0.183,0.137,0.183,0.183,0.211c0.027-0.134-0.006-0.235-0.099-0.313
				c0.239-0.013,0.481,0.005,0.72-0.026c0.011-0.181,0.011-0.181,0.046-0.218c0.103,0.06,0.183,0.064,0.335-0.048
				c0.092,0.133,0.188,0.14,0.423,0.093c0.014,0.169,0.017,0.19-0.042,0.253c0.073,0.048,0.174,0.029,0.239,0.096
				c0.049,0.046,0.012,0.107,0.028,0.163c0.111-0.033,0.111-0.033,0.179,0.362H48.848z"/>
			<path clip-path="url(#SVGID_4_)" fill="#E6E7E8" d="M37.875,67.961c-0.142,1.507-0.142,1.507-1.168,3.422
				c-0.102,0.028-0.237,0.056-0.341,0.069c-0.04,0.099-0.105,0.228-0.159,0.316c0.146,0.159,0.198,0.463,0.248,0.676
				c0.291,0.78,0.161,1.626,0.382,2.415c-0.04,0.037-0.099,0.087-0.143,0.121c-0.013,0.315-0.038,0.392-0.289,0.665
				c0.06,0.106,0.113,0.271,0.108,0.391c-0.087,0.059-0.189,0.174-0.227,0.274c0.499,0.817-1.439,0.401-1.534,1.324
				c-0.11-0.025-0.254-0.079-0.354-0.131c-0.177,0.153-0.316,0.344-0.497,0.497c0.027,0.046,0.059,0.104,0.085,0.151
				c-0.029,0.048-0.062,0.11-0.089,0.158c-0.053,0.003-0.126,0.009-0.18,0.015c0.004,0.109-0.008,0.256,0.012,0.364
				c0.064,0.384,0.47,0.577,0.543,0.958c0.092,0.486-0.225,0.948-0.087,1.438c-0.091,0.208-0.091,0.208,0.026,0.5
				c-0.04,0.028-0.097,0.073-0.135,0.106H34.07h-0.001h-0.002h-0.001h-0.004h-0.001c-0.331,0.513-0.2,1.394-0.197,1.4
				c-0.036,0.043-0.083,0.104-0.121,0.153c-0.559-0.022-1.091-0.207-1.65-0.245c0.209,0.266,0.597,0.228,0.818,0.477
				c-0.006,0.05-0.016,0.12-0.023,0.169c0.207,0.19,0.488,0.199,0.727,0.301c0.054,0.184,0.098,0.365,0.151,0.548
				c-0.556,0.808-0.556,0.808-1.193,0.784c0.136,0.307,0.387,0.543,0.541,0.845c0.023,0.045,0.054,0.105,0.078,0.152
				c-0.18,0.149-0.26,0.22-0.8-0.169v0.198c0.335,0.265,0.771,0.366,1.09,0.656c-0.08,0.368-0.08,0.368,0.552,1.054
				c-0.059,0.005-0.137,0.009-0.195,0.015c-0.109,0.444,0.195,0.58,0.461,0.697l0.038,0.006v-0.003
				c1.049,0.658,1.049,0.658,1.128,0.876c0.038,0.157,0.038,0.157,0.604,0.724c-0.001,0.053-0.005,0.126-0.007,0.18
				c0.007,0.005,0.739,0.451,1.011,0.53c-0.058,0.007-0.131,0.021-0.19,0.033c0.195,0.159,0.195,0.159,2.442,0.801
				c-0.095,0.042-0.23,0.079-0.33,0.092c-0.029,0.045-0.066,0.104-0.098,0.151c0.022,0.028,0.051,0.063,0.073,0.091
				c0.105,0.035,0.24,0.084,0.341,0.124c-1.347-0.035-2.366-1.079-3.686-1.195c-0.027-0.048-0.061-0.118-0.085-0.167
				c-0.054,0.002-0.123,0.004-0.175,0.004c-0.021-0.051-0.055-0.12-0.077-0.174c-0.413-0.094-0.689-0.47-1.113-0.53
				c-0.227-0.34-0.622-0.47-0.927-0.714c0.05-0.018,0.118-0.04,0.168-0.057c-0.347-0.352-0.911-0.405-1.199-0.847l0.047-0.07h0.002
				c-0.043-0.141-0.18-0.563-2.961-2.947c-0.018-0.016-0.036-0.036-0.051-0.053c-2.44-2.42-3.333-5.801-5.285-8.522
				c-1.4-1.957-1.4-1.957-1.691-2.053c-0.779-0.26-3.734-3.138-5.159-5.401c-0.017-0.026-1.322-3.235-0.583-4.234l-0.384-3.584
				c0.007-0.344,0.493-2.285,0.497-2.303c0.097-0.026,0.236-0.033,0.331-0.009c0.272-0.308,0.325-0.781,0.751-0.967
				c0.097,0.234,0.097,0.234-0.008,0.552c0.024,0.019,0.056,0.046,0.08,0.063c-0.006,0.374,0.048,1.345,0.049,1.347
				c0.057,0.022,0.129,0.053,0.186,0.075c0.235-0.459-0.277-0.923,0.011-1.383c0.173-0.036,0.173-0.036,0.66-0.252
				c0.391,0.172,0.601,0.732,1.156,0.555c0.102-0.015,0.102-0.017,0.102-0.017h0.002h0.003h0.003h0.001h0.008v-0.002
				c0.053,0.009,0.123,0.015,0.175,0.021c0.023,0.056,0.057,0.128,0.081,0.182l0.083,0.057c0.38-0.146,0.628-0.483,0.976-0.672
				c0.047,0.02,0.11,0.045,0.16,0.064c-0.059,0.113-0.073,0.297-0.05,0.422c0.379,0.149,1.003,0.267,1.007,0.267
				c-0.058,0.138-0.125,0.324-0.167,0.467c0.035,0.041,0.083,0.097,0.119,0.138c0.301-0.151,0.301-0.151,1.854,1.005
				c0.544,0.404,1.12-0.168,1.668,0.055c0.541,0.22,0.929,0.668,1.422,0.96c0.548,0.321,0.548,1.001,0.933,1.425h0.029
				c0.053,0.006,0.124,0.016,0.179,0.023c0.031,0.041,0.07,0.101,0.1,0.144c-0.106,0.467-0.496,0.769-0.676,1.191
				c0.043,0.026,0.103,0.063,0.148,0.087c1.168-0.368,1.814-0.57,1.314,0.234c-0.074,0.119-0.124,0.146-0.446,0.322
				c0.443,0.108,0.443,0.108,0.8-0.747c0.396-0.069,0.748,0.158,1.135,0.179h0.004l0.036-0.005c0.651,0.145,1.017,0.657,1.017,0.657
				c-0.019,0.052-0.047,0.122-0.067,0.176c0.03,0.039,0.069,0.093,0.104,0.134c0.008-0.055,0.022-0.132,0.034-0.188
				c1.72-0.744,4.498,0.655,5.919,1.887C37.871,67.939,37.877,67.952,37.875,67.961"/>
			<path clip-path="url(#SVGID_4_)" fill="#E6E7E8" d="M39.191,90.533c0.017,0.019,0.043,0.047,0.045,0.07
				c0,0.034-0.03,0.056-0.035,0.083c-0.006,0.045,0.022,0.093,0.003,0.136c-0.029,0.063-0.153,0.049-0.153,0.049
				c-0.037-0.007-0.069-0.027-0.111-0.074c-0.099-0.1-0.119-0.113-0.21-0.162c0.049,0.177-0.18,0.164-0.183,0.164
				s-0.13-0.07-0.157-0.118c-0.136-0.22-0.136-0.22-0.069-0.256c0.026-0.014,0.129-0.053,0.337,0.057c0-0.003,0.043-0.1,0.198-0.127
				C38.936,90.349,39.103,90.438,39.191,90.533"/>
			<path clip-path="url(#SVGID_4_)" fill="#E6E7E8" d="M28.436,32.384l-0.901,1.2l-0.055,0.008h-0.005h-0.002h-0.001h-0.004
				c-0.065-0.008-0.158-0.045-0.22-0.026c-0.739,0.225-1.001,1.245-1.932,1.146c-0.887-0.097-1.932,0.113-1.96,0.126
				c-0.914,0.481-1.434,1.37-2.149,2.055c0.905-0.532,1.43-1.69,2.687-1.646c0.039,0.061,0.094,0.136,0.132,0.193
				c-0.196,0.516-0.597,0.899-0.887,1.355c0.046,0.047,0.107,0.105,0.151,0.151c-0.004,0.066-0.011,0.152-0.013,0.219
				c0.507,0.206,0.507,0.206,1.638-0.604c0.084,0.65,0.084,0.65-0.043,0.821l-0.037,0.011h-0.003H24.83
				c-0.767,0.06-1.214,0.748-1.9,0.969c-0.047,0.126-0.047,0.126-0.614,0.555c-0.051-0.029-0.121-0.074-0.174-0.103
				c0.037-0.341,0.299-0.855,0.861-0.888c0.027-0.066,0.054-0.153,0.079-0.219c-0.174-0.106-0.174-0.106-0.176-0.106
				c0,0-0.003,0-0.003,0.002H22.9h-0.005h-0.002h-0.004h-0.004v0.003c-0.112,0.053-0.112,0.053-1.175,0.788l-0.146,0.049h-0.003
				H21.56c-0.723,0.236-1.392,1.375-1.421,1.565c0.066,0.014,0.157,0.029,0.224,0.039c-0.018,0.07-0.036,0.159-0.051,0.227
				c-1.366,0.577-1.366,0.577-2.038,1.784c-0.043-0.144-0.073-0.35-0.053-0.498c-0.178,0.401-0.137,0.875-0.41,1.247
				c-0.065-0.167-0.127-0.404-0.147-0.581c-0.044,0.058-0.105,0.139-0.151,0.197c-0.006-0.06-0.012-0.145-0.016-0.203
				c-0.046,0.068-0.046,0.068,0.008,0.88c-0.097,0.077-0.197,0.219-0.244,0.332c0.037,0.056,0.089,0.127,0.125,0.18
				c-0.048,0.148-0.133,0.335-0.222,0.462c0.05,0.046,0.117,0.106,0.166,0.152c-0.049,0.05-0.11,0.112-0.159,0.164
				c0.004,0.065,0.008,0.152,0.012,0.218c-0.065,0.016-0.148,0.033-0.214,0.051c0.007,0.066,0.02,0.158,0.024,0.228
				c-1.621,1.447-1.621,1.447-2.009,6.267c-0.064-0.021-0.152-0.043-0.216-0.061c-0.259-0.938-0.079-1.904-0.161-2.854
				c-0.059-0.016-0.138-0.041-0.199-0.059c-0.032,0.057-0.073,0.129-0.101,0.188c-0.063-0.033-0.149-0.078-0.213-0.112
				c-0.012-0.063-0.027-0.146-0.039-0.211c-0.128,0.011-0.297,0.002-0.422-0.016c-0.26,0.314-0.178,0.74-0.336,1.092
				c-0.168-0.189-0.168-0.189-0.269-0.579c-0.337,0.268-0.456,0.619-0.659,1.275c-0.165,0.966-0.439,2.83-0.409,4.461
				c0.012,0.143,0.023,0.336,0.026,0.481v0.071c0.044,0.384,0.044,0.384,0.156,0.866c0.092-0.096,0.227-0.214,0.336-0.289
				l0.098-0.126h0.003c0.259-1.533,0.259-1.533,0.469-1.815c0.059-0.008,0.141-0.018,0.204-0.023
				c0.103,0.271,0.103,0.271,0.059,0.93v0.052c-0.185,0.39-0.13,0.819-0.226,1.223c0.008,0.466-0.053,0.932-0.052,1.398
				c0.119-0.079,0.242-0.229,0.298-0.358c0.063-0.014,0.148-0.032,0.211-0.043h0.019c0.067,0.033,0.157,0.079,0.227,0.109
				c0.013,0.074,0.037,0.169,0.054,0.24c0.058,0.023,0.139,0.049,0.201,0.07c0.536,1.255,0.065,2.677,0.658,3.922
				c0.064,0.018,0.153,0.041,0.219,0.057c0.244-0.166,0.427-0.416,0.726-0.502c0.271,0.24,0.271,0.24,0.459,1.477h-0.003h-0.003
				v0.001c-0.003-0.005-0.442-0.502-0.431-0.805c-0.124,0.053-0.277,0.14-0.384,0.223c0.059,0.137,0.091,0.35,0.054,0.488
				c-0.06,0.035-0.144,0.079-0.198,0.114c-1.326-1.789-1.663-2.395-1.817-3.251c-0.434-0.043-0.434-0.043-1.08-1.742
				c-0.07,0.107-0.14,0.266-0.17,0.392c-0.116-0.132-0.358-0.402-0.358-1.564c0.049-1.273,0.097-2.972,0.214-4.244
				c0.607-4.25,0.607-4.25,1.168-6.344c1.259-4.033,1.259-4.033,2.124-5.979c1.842-3.733,1.842-3.733,2.994-5.526
				c2.36-3.368,2.408-3.432,3.789-4.983c1.261-1.314,3-3.011,4.356-4.23c0.54-0.421,1.064-0.859,1.613-1.271l-0.047,0.051
				c-0.427,0.346-1.862,1.525-1.862,1.526c2.94-2.322,4.56-3.599,5.931-4.217c-4.211,2.975-4.211,2.975-4.537,3.262
				c0.206-0.146,0.405-0.3,0.617-0.435c-0.382,0.406-0.871,0.691-1.226,1.129c0.272-0.159,0.49-0.39,0.74-0.583
				c-0.045,0.048-0.105,0.112-0.154,0.158c0.537-0.36,0.924-0.938,1.596-1.104c-0.032,0.236-0.062,0.437-2.178,2.014l-0.055,0.021
				h-0.002c0.033-0.067,0.075-0.155,0.104-0.224c-0.144,0.144-0.144,0.144-0.503,0.528c0.009-0.063,0.017-0.146,0.021-0.206
				c-0.217,0.096-0.217,0.096-0.761,0.562c-0.005-0.061-0.02-0.141-0.029-0.205c-0.496,0.445-0.93,0.958-1.459,1.369l-0.084,0.058
				h-0.001c0.02-0.061,0.044-0.144,0.064-0.204c-2.337,2.348-2.337,2.348-3.713,4.313c0.117-0.054,0.258-0.154,0.352-0.242
				c-0.094,0.399-0.106,0.451-0.344,0.817l0.004,0.058c0.002,0,0.004,0,0.004,0c0.002,0,0.002-0.002,0.003-0.002h0.003
				c0.003,0,0.003,0,0.003-0.002h0.003h0h0.004c0,0.063,0,0.147-0.002,0.212c0.051,0.038,0.116,0.092,0.163,0.131
				c0.061-0.03,0.137-0.066,0.195-0.096c0.037,0.057,0.086,0.13,0.123,0.185l-1.234,2.469c0.059-0.022,0.139-0.053,0.197-0.073
				c0,0.069,0,0.164,0.003,0.235c0.09-0.123,0.215-0.284,0.311-0.404l0.042,0.093c0.662-0.965,1.068-2.116,1.071-2.123
				c0.545-0.268,0.821-0.401,1.564-1.357c0.278-0.46,0.312-1.034,0.669-1.46c0.793-0.656,1.094-1.744,1.998-2.306
				c0.009,0.063,0.021,0.148,0.029,0.214l0.008,0.041h0.002c0.063-0.024,0.151-0.06,0.217-0.085l0.077-0.021h0.004h0.001
				c0.062-0.027,0.146-0.064,0.21-0.094c0.237,0.3,0.217,0.342,0.116,0.614c0.108,0.058,0.281,0.085,0.402,0.071
				c-0.196,0.437-1.054,1.4-1.061,1.407c0.079-0.013,0.176-0.031,0.251-0.046c0.052,0.041,0.115,0.094,0.164,0.131
				c-0.062,0.148-0.15,0.342-0.223,0.482c0.197-0.25,0.487-0.381,0.73-0.574c-0.008,0.074-0.017,0.168-0.024,0.241
				c0.603-0.728,0.603-0.728,1.279-1.37c0.015,0.066,0.038,0.156,0.054,0.226c-0.41,0.563,0.234,1.496-0.615,1.896
				c-0.017,0.423-0.023,0.582,0.315,1.104c0.063-0.014,0.146-0.029,0.21-0.044c0.037,0.047,0.094,0.109,0.135,0.158
				c0.062-0.001,0.144-0.003,0.204-0.003c-0.022,0.059-0.058,0.137-0.086,0.195c-0.671,0.197-0.671,0.197-0.947,0.58
				c0.165-0.12,0.34-0.247,1.033-0.465C28.17,32.068,28.36,32.182,28.436,32.384"/>
			<path clip-path="url(#SVGID_4_)" fill="#E6E7E8" d="M24.32,36.957c-0.303,0.276-0.862,0.222-0.83-0.083
				c0.01-0.084,0.056-0.153,0.105-0.223c0.016,0.048,0.038,0.118,0.089,0.136c0.006,0.003,0.016,0.003,0.022,0.003
				c0.046,0.011,0.09-0.003,0.136-0.011c0.193-0.022,0.346,0.113,0.525,0.131C24.354,36.926,24.336,36.945,24.32,36.957"/>
			<path clip-path="url(#SVGID_4_)" fill="#E6E7E8" d="M25.038,35.294c-0.03,0.044-0.099,0.054-0.123,0.055h-0.002
				c-0.124,0.007-0.182-0.026-0.236-0.125c-0.019-0.034-0.05-0.032-0.081-0.026c-0.098,0.016-0.098,0.016-0.113,0.009
				c0,0-0.002-0.004-0.006-0.004c-0.001-0.005-0.008-0.007-0.008-0.013c-0.011-0.014-0.023-0.035-0.034-0.052
				c-0.021-0.026-0.054-0.053-0.082-0.073c-0.122-0.102-0.128-0.125-0.134-0.223c0.092-0.016,0.189-0.033,0.287-0.043h0.005
				c0.093-0.014,0.109-0.006,0.153,0.059c0.043,0.063,0.053,0.063,0.115,0.065h0.003c0.005,0,0.01,0,0.013-0.002h0.007
				C24.948,34.932,25.112,35.194,25.038,35.294"/>
			<path clip-path="url(#SVGID_4_)" fill="#E6E7E8" d="M16.672,54.018c0.005,0-0.04-0.177-0.09-0.228
				c-0.02-0.02-0.048-0.046-0.069-0.063c-0.087-0.074-0.208-0.079-0.294-0.153c-0.127-0.106-0.192-0.266-0.322-0.367
				c-0.053-0.044-0.1,0.048-0.149,0.006c-0.15-0.117-0.067-0.34-0.208-0.461c-0.122-0.104-0.286,0.052-0.404-0.067
				c-0.025-0.018-0.025-0.018-0.071-0.14c-0.03-0.078-0.064-0.107-0.09-0.117c-0.079-0.036-0.154,0.023-0.231,0.02
				c-0.101-0.005-0.101-0.132-0.188-0.155c-0.029-0.008-0.064-0.003-0.078,0.002c-0.458,0.11-0.468,0.112-0.731,0.887
				c-0.02,0.206-0.02,0.206-0.013,0.222c0.076-0.039,0.083-0.045,0.328-0.433c0.084-0.136,0.128-0.201,0.138-0.206
				c0.05-0.023,0.101,0.034,0.127,0.061c0.03,0.032,0.04,0.043,0.063,0.058c0.059,0.031,0.124-0.091,0.153-0.022
				c0.068,0.145,0.068,0.145,0.084,0.146c0.077,0.019,0.164-0.005,0.231,0.048c0.063,0.05,0.038,0.133,0.072,0.194
				c0.065,0.132,0.21,0.02,0.294,0.098c0.102,0.097,0.078,0.266,0.192,0.357c0.045,0.036,0.092,0.024,0.116,0.015
				c0.029-0.013,0.029-0.013,0.091-0.003c0.082,0.188-0.053,0.347-0.074,0.523c0.295,0.065,0.309,0.069,0.438-0.016
				C16.121,54.131,16.275,54.049,16.672,54.018"/>
			<path clip-path="url(#SVGID_4_)" fill="#E6E7E8" d="M16.002,55.271c-0.016,0.097-0.203,0.15-0.435,0.13
				c-0.03-0.004-0.086-0.016-0.107-0.028c-0.003-0.003-0.009-0.009-0.013-0.015c-0.056-0.053-0.125-0.091-0.166-0.153
				c-0.054-0.072,0.001-0.128,0.044-0.172h0.087c0.21-0.014,0.335-0.011,0.459,0.033C15.91,55.08,16.023,55.133,16.002,55.271"/>
			<path clip-path="url(#SVGID_4_)" fill="#E6E7E8" d="M19.037,55.014c-0.001,0.007-0.271,0.336-0.736-0.056
				c-0.099-0.081-0.121-0.086-0.166-0.092v0.001h-0.002h-0.001h-0.002c-0.267,0.076-0.267,0.076-0.288,0.071
				c-0.05-0.009-0.066-0.093-0.13-0.065c-0.057,0.023-0.093,0.11-0.123,0.172c-0.063,0.14-0.243,0.067-0.272-0.071
				c0-0.016-0.002-0.031-0.009-0.049c-0.038-0.152-0.364,0.025-0.41,0.058c-0.004,0.001-0.415,0.243-0.281-0.355
				c0.183,0.089,0.183,0.089,0.204,0.052c0.042-0.064,0.049-0.143,0.098-0.204c0.051-0.063,0.097-0.086,0.178-0.133
				c-0.057-0.206-0.057-0.206-0.025-0.268c0.004-0.001,0.123-0.178,0.244-0.123c0.051,0.019,0.089,0.06,0.229,0.206
				c-0.035-0.316-0.035-0.316,0.085-0.336c0.132-0.008,0.241,0.044,0.241,0.044c0.094,0.063,0.139,0.175,0.242,0.225
				c0.196,0.09,0.231,0.108,0.343,0.197c0.033,0.026,0.105,0.121,0.134,0.16c0.139,0.176,0.222,0.252,0.393,0.258
				c-0.002,0.106-0.004,0.167,0.023,0.21C19.047,54.983,19.046,54.992,19.037,55.014"/>
			<path clip-path="url(#SVGID_4_)" fill="#E6E7E8" d="M25.442,26.822c-0.046,0.041-0.161,0.086-0.199,0.088
				c-0.002-0.002-0.005-0.009-0.005-0.011c0.019-0.03,0.047-0.054,0.058-0.088c-0.008-0.014-0.008-0.014-0.095-0.021
				c0.153-0.16,0.042-0.183,0.036-0.185c-0.003-0.002-0.034-0.006-0.113,0.053l-0.482,0.375c-0.205,0.216-0.265,0.211-0.275,0.209
				c0.002-0.027,0.03-0.061,0.089-0.111c0.037-0.036,0.037-0.036,0.227-0.276c-0.041,0.015-0.086,0.008-0.124,0.032
				c-0.057,0.04-0.104,0.098-0.17,0.128c0.014-0.04,0.032-0.084,0.394-0.352c0.055-0.041,0.104-0.09,0.154-0.138
				c0.234-0.216,0.458-0.446,0.692-0.662c0.082-0.075,0.436-0.388,0.457-0.394c0.003,0.013,0.003,0.021-0.164,0.267
				c-0.009,0.011-0.017,0.025-0.024,0.035c0.031,0.004,0.051-0.02,0.079-0.032c0,0.008-0.048,0.148-0.201,0.321
				c0.199-0.163,0.265-0.201,0.398-0.248l0.007-0.001c0.002,0.002,0.003,0.005,0.003,0.01c-0.116,0.129-0.27,0.22-0.379,0.352
				c-0.044,0.046-0.023,0.116-0.064,0.161c-0.031,0.033-0.067,0.06-0.101,0.09c-0.113,0.093-0.125,0.111-0.132,0.142
				c0.002,0.003,0.012,0.008,0.014,0.011c0.063-0.016,0.117-0.063,0.185-0.075c0.003,0.002,0.003,0.007,0.003,0.009
				C25.699,26.532,25.463,26.808,25.442,26.822"/>
			<path clip-path="url(#SVGID_4_)" fill="#E6E7E8" d="M24.803,27.29c-0.019,0.017-0.194,0.158-0.194,0.158
				c-0.02,0.016-0.051,0.015-0.071,0.031c-0.056,0.039-0.1,0.096-0.155,0.134c-0.056,0.041-0.08,0.046-0.095,0.046
				c-0.058-0.005-0.058-0.005-0.067,0c-0.041,0.018-0.069,0.056-0.115,0.069c-0.002-0.005-0.002-0.008-0.005-0.01
				c0.061-0.088,0.211-0.219,0.211-0.221c0.006-0.003,0.365-0.304,0.398-0.313h0.013c0.02,0.004,0.026,0.03,0.046,0.033
				c0.027,0.001,0.048-0.022,0.074-0.009c0.019,0.014-0.006,0.044-0.016,0.054C24.819,27.27,24.811,27.281,24.803,27.29"/>
			<path clip-path="url(#SVGID_4_)" fill="#E6E7E8" d="M24.73,27.798c0.097-0.102,0.236-0.317,0.238-0.378
				c-0.006,0-0.01,0-0.015,0.003c-0.055,0.028-0.109,0.069-0.21,0.19c-0.034,0.042-0.065,0.086-0.099,0.128
				c-0.036,0.047-0.069,0.093-0.108,0.137C24.452,27.967,24.601,27.932,24.73,27.798"/>
			<path clip-path="url(#SVGID_4_)" fill="#E6E7E8" d="M33.828,20.076c-0.554,0.303-0.617,0.294-0.705,0.284
				c0-0.024,0-0.024,0.145-0.137c-0.036,0.009-0.036,0.009-0.175,0.086c-0.138,0.074-0.202,0.108-0.329,0.152
				c-0.041,0.016-0.088-0.011-0.132,0.002c-0.048,0.011-0.088,0.035-0.135,0.05c0.019-0.028,0.06-0.058,0.212-0.17
				c-0.089,0.023-0.162,0.097-0.256,0.107c0.005-0.027,0.007-0.039,0.232-0.165c0.45-0.259,0.915-0.492,1.359-0.759
				c-0.047,0.019-0.096,0.042-0.145,0.063c0.037-0.024,0.078-0.042,0.115-0.065c-0.014,0.005-0.028,0.012-0.047,0.023
				c0.075-0.047,0.149-0.083,0.224-0.123c-0.004,0.001-0.008,0.003-0.011,0.003c0.083-0.044,0.464-0.233,0.613-0.302
				c-0.009,0.007-0.019,0.012-0.028,0.017c0.008-0.003,0.018-0.005,0.023-0.005c-0.108,0.069-0.222,0.118-0.337,0.181
				c0.007-0.001,0.019-0.006,0.023-0.009h0.006c0.023,0,0.03,0.003,0.106-0.036c-0.255,0.136-0.517,0.258-0.759,0.414
				c0.005,0,0.016-0.002,0.023-0.004c-0.075,0.101-0.203,0.112-0.299,0.18c0.036,0.002,0.065-0.021,0.101-0.029
				c-0.017,0.013-0.029,0.021-0.044,0.031c0.03-0.002,0.054-0.019,0.083-0.027c-0.014,0.01-0.029,0.02-0.045,0.028
				c0.018,0.008,0.022,0.008,0.219-0.077c0.179-0.077,0.201-0.082,0.223-0.089c-0.008,0.009-0.02,0.019-0.031,0.026
				c0.088-0.044,0.177-0.083,0.267-0.127c-0.042,0.024-0.083,0.047-0.12,0.073c0.112-0.002,0.195-0.095,0.304-0.12
				c-0.013,0.073-0.096,0.066-0.129,0.12c0.006,0,0.013,0.005,0.016,0.008C34.36,19.739,33.835,20.073,33.828,20.076"/>
			<path clip-path="url(#SVGID_4_)" fill="#E6E7E8" d="M33.172,19.952c-0.207,0.114-0.415,0.229-0.625,0.342
				c0.011-0.005,0.023-0.014,0.034-0.019l1.681-0.891C33.764,19.637,33.363,19.851,33.172,19.952"/>
			<path clip-path="url(#SVGID_4_)" fill="#E6E7E8" d="M37.814,17.897c-0.449,0.176-0.897,0.344-1.34,0.525
				c0.082-0.037,0.166-0.074,0.249-0.11c-0.185,0.072-0.362,0.159-0.548,0.232c0.011-0.008,0.026-0.019,0.034-0.024
				c-0.041,0.012-0.077,0.027-0.117,0.042c0.446-0.253,0.938-0.403,1.405-0.61c-0.014,0.004-0.043,0.011-0.236,0.085
				c0,0,0.184-0.077,0.501-0.199l0.53-0.199c-0.026,0.008-0.048,0.016-0.069,0.026c0.01-0.004,0.17-0.062,0.198-0.075l0.454-0.162
				c-0.014,0.003-0.03,0.009-0.046,0.016c0.115-0.044,0.227-0.083,0.34-0.122l0.391-0.131c-0.011,0.004-0.021,0.008-0.033,0.012
				c0.105-0.033,0.211-0.069,0.315-0.104l0.22-0.071c-0.301,0.099-0.853,0.285-1.124,0.392c0.01-0.003,0.027-0.008,0.038-0.013
				c-0.128,0.066-0.268,0.102-0.401,0.152c0.137-0.038,0.269-0.095,0.405-0.14C38.592,17.578,38.202,17.738,37.814,17.897"/>
			<path clip-path="url(#SVGID_4_)" fill="#E6E7E8" d="M43.417,16.363c0.015-0.006,0.037-0.012,0.049-0.016
				c-0.092-0.008-0.092-0.008-0.261,0.029c0.117-0.042,0.235-0.078,0.352-0.122c-0.056,0.01-0.106,0.023-0.157,0.034
				c0.012-0.005,0.035-0.017,0.051-0.024c-0.036,0.003-0.036,0.003-0.468,0.096c0.158-0.047,0.313-0.096,0.476-0.143
				c-0.035,0.005-0.081,0.013-0.115,0.02c0.025-0.011,0.057-0.024,0.075-0.039c-0.119,0.028-0.238,0.066-0.359,0.101l-0.017,0.003
				c0.09-0.029,0.177-0.056,0.266-0.083l0.041-0.009c-0.073,0.014-0.073,0.014-0.773,0.202c0.13-0.047,0.262-0.078,0.394-0.126
				c-0.291-0.002-0.542,0.143-0.812,0.212L42.15,16.5c0.151-0.053,0.309-0.089,0.463-0.145c-0.018-0.002-0.018-0.002-0.335,0.082
				c0.026-0.013,0.064-0.029,0.095-0.042c-0.321,0.072-0.321,0.072-1.142,0.345c0.171-0.073,0.485-0.178,0.487-0.179
				c-0.035,0.006-0.081,0.02-0.116,0.029c0.062-0.019,0.122-0.035,0.181-0.054c-0.117,0.027-0.117,0.027-0.789,0.222
				c0.016-0.006,0.034-0.012,0.049-0.019c-0.005,0.002-0.42,0.104-1.001,0.298c0.125-0.039,0.248-0.077,0.372-0.116
				c-0.159,0.052-0.318,0.096-0.474,0.152c0.086-0.026,0.172-0.051,0.256-0.079c-0.752,0.246-0.506,0.186-0.262,0.106
				c-0.24,0.082-0.6,0.228-0.311,0.132c-0.057,0.025-0.117,0.047-0.17,0.067c0.017,0.001,0.017,0.001,1.362-0.394
				c-0.213,0.081-0.442,0.119-0.657,0.203c0.035,0.003,0.08-0.003,0.114-0.01c-0.106,0.049-0.539,0.183-0.627,0.211
				c0.013-0.012,0.027-0.026,0.038-0.038c-0.108,0.02-0.108,0.02-1.204,0.449c0.055-0.064,0.055-0.064,0.496-0.258
				c-0.045-0.011-0.647,0.173-1.348,0.553c0.027-0.003,0.067-0.011,0.097-0.02c-0.095,0.049-0.647,0.274-0.653,0.275
				c0.287-0.136,0.287-0.136,0.524-0.275c-0.061,0.017-1.003,0.364-1.264,0.512c0.011-0.002,0.03-0.002,0.046-0.006
				c-0.025,0.017-0.059,0.039-0.084,0.054c0.113-0.042,0.225-0.097,0.341-0.138c-0.246,0.118-0.502,0.211-0.742,0.333
				c0.03-0.01,0.073-0.022,0.103-0.033l0.028-0.006l0.002-0.002h0.002h0.001V18.71c0.25-0.061,0.462-0.189,0.693-0.28
				c-0.244,0.115-0.829,0.38-1.012,0.421c0.063-0.053,0.063-0.053,0.414-0.235c-0.172,0.019-1.429,0.631-1.44,0.634
				c0.026-0.017,0.062-0.036,0.09-0.049c-0.096,0.032-0.096,0.032-0.515,0.271c0.067-0.032,0.134-0.064,0.2-0.102
				c-0.025,0.018-0.058,0.041-0.083,0.056c0.142-0.054,0.142-0.054,0.248-0.06l0.024-0.011c-0.024,0.023-0.061,0.052-0.09,0.07
				c0.05-0.015,0.105-0.028,0.397-0.177c-0.031,0.018-0.077,0.043-0.106,0.061c0.019-0.001,0.04-0.008,0.056-0.011
				c-0.034,0.021-0.079,0.044-0.114,0.063c0.014-0.004,0.031-0.007,0.048-0.008c-0.017,0.012-0.034,0.027-0.048,0.035
				c0.104-0.038,0.195-0.096,0.299-0.13c-0.007,0.012-0.007,0.012-0.238,0.151c0.056-0.019,0.109-0.041,0.164-0.066
				c-0.011,0.011-0.028,0.025-0.036,0.034c0.047-0.007,0.047-0.007,0.153-0.044c-0.133,0.069-0.271,0.131-0.396,0.204l1.388-0.675
				c-0.076,0.022-0.076,0.022-0.229,0.091c0.03-0.024,0.074-0.056,0.107-0.073c-0.014-0.003-0.035-0.008-0.05-0.009
				c0.019-0.019,0.041-0.039,0.061-0.057c0.145,0.031,0.145,0.031,1.072-0.431c-0.035,0.024-0.085,0.059-0.126,0.078
				c0.084,0.008,0.42-0.107,0.513-0.157c-0.013-0.004-0.03-0.007-0.043-0.012c0.239-0.152,0.527-0.173,0.779-0.298
				c-0.014-0.009-0.034-0.019-0.042-0.022c0.116-0.087,0.258-0.108,0.384-0.159c-0.005-0.015-0.011-0.032-0.016-0.046
				c0.095-0.042,0.095-0.042,0.175-0.066c-0.011,0.013-0.021,0.027-0.03,0.045c0.174,0.014,0.382-0.077,0.673-0.2
				c-0.019,0.01-0.039,0.027-0.054,0.039l-0.033,0.023c0.273-0.068,0.51-0.222,0.776-0.299c-0.007,0.01-0.022,0.022-0.032,0.033
				l2.067-0.606c-0.061-0.01-0.075-0.012-0.378,0.077c0.018-0.009,0.018-0.009,0.652-0.175l0.038-0.006h0.001
				C42.731,16.534,43.08,16.468,43.417,16.363"/>
			<path clip-path="url(#SVGID_4_)" fill="#E6E7E8" d="M31.858,24.271c-0.406,0.407-0.961,0.604-1.394,0.973
				c0.011,0.009,0.022,0.019,0.033,0.028c-0.133,0.23-0.42,0.245-0.427,0.072c0,0,0.022-0.304,0.116-0.41
				c-0.069,0.009-0.087,0.012-0.15,0.027c0.056-0.063,0.11-0.126,0.165-0.186c-0.011-0.008-0.018-0.023-0.022-0.033
				c-0.018,0.003-0.037,0.003-0.05,0.003c0.164-0.188,0.164-0.188,0.194-0.239c-0.144-0.011-0.559,0.165-0.509,0.351
				c-0.337,0.166-0.337,0.166-0.614,0.556c0.153-0.048,0.153-0.048,0.174-0.042c-0.029,0.205-0.029,0.205-0.016,0.266
				c0.039,0.016,0.039,0.016,0.15-0.018l-0.031,0.383c-0.344,0.524-0.449,0.555-0.623,0.612c-0.033,0.136-0.038,0.158-0.123,0.264
				c-0.198,0.006-0.2-0.219-0.338-0.277c-0.035-0.135,0.078-0.232,0.08-0.356c-0.02-0.01-0.041-0.021-0.058-0.033
				c-0.003,0-0.003,0.003-0.003,0.003h-0.001h-0.002h0c-0.182,0.078-0.182,0.078-0.288,0.665c-0.022,0.119,0.088,0.211,0.057,0.33
				c-0.003,0.029-0.003,0.029-0.2,0.226v-0.039c-0.097-0.094-0.364-0.129-0.367-0.129c-0.188,0.014-0.188,0.014-0.177-0.267
				c-0.071-0.005-0.141-0.005-0.214-0.022c0.012-0.097,0.122-0.174,0.059-0.284c-0.029-0.002-0.069-0.008-0.096-0.016
				c0.018-0.102,0.096-0.178,0.118-0.277c-0.029-0.01-0.064-0.025-0.088-0.038c0.045-0.105,0.245-0.455,0.245-0.455
				c0.11-0.149,0.11-0.149,0.1-0.197c-0.027,0.003-0.062,0.003-0.09-0.003c-0.003-0.01-0.01-0.022-0.01-0.034
				c0.015-0.031,0.042-0.072,0.069-0.101c0.283,0.064,0.514-0.387,0.514-0.393c0.02-0.044,0.097-0.052,0.136-0.078
				c0.199-0.148,0.352-0.35,0.584-0.453c0.069-0.031,0.134-0.063,0.203-0.109c0.02-0.014,0.048-0.034,0.069-0.05
				c0.218-0.172,0.406-0.376,0.61-0.564c-0.011-0.02-0.038-0.046-0.059-0.054c0.011-0.142,0.162-0.206,0.189-0.34
				c-0.033-0.021-0.067-0.033-0.101-0.051c-0.006-0.012-0.006-0.026-0.007-0.037c0.078-0.029,0.122-0.05,0.21-0.194
				c-0.006-0.009-0.014-0.02-0.023-0.026c-0.146,0.069-0.257,0.187-0.393,0.275c0.077-0.224,0.363-0.22,0.461-0.416
				c-0.039,0.001-0.074,0.006-0.111,0.009c0.011-0.078,0.408-0.429,0.41-0.434c0.141-0.122,0.183-0.169,0.222-0.223
				c-0.115,0.015-0.431,0.278-0.502,0.378c-0.067,0.088-0.529,0.32-0.532,0.322v-0.047c0.03-0.014,0.065-0.036,0.089-0.053
				c0.089-0.079,0.093-0.089,0.109-0.153c-0.01-0.008-0.021-0.018-0.031-0.027c-0.018,0.017-0.045,0.034-0.066,0.047
				c-0.005-0.008-0.012-0.021-0.019-0.032c0.007-0.019,0.019-0.047,0.029-0.066c-0.119-0.004-0.202,0.129-0.329,0.095
				c-0.006,0.002-0.007,0.002-0.007,0.002c-0.041,0.014-0.087,0.024-0.131,0.037c0.007-0.043,0.007-0.043,0.103-0.124
				c-0.012,0.004-0.026,0.015-0.034,0.017c-0.04-0.017-0.04-0.017-0.141,0.029c0.114-0.383,0.524-0.362,0.772-0.56
				c-0.036,0.005-0.036,0.005-0.22,0.09c0.05-0.067,1.966-1.434,2.701-1.666l0.006-0.001c-0.062,0.1-1.381,0.868-1.394,0.872
				c-0.005,0-0.412,0.239-0.679,0.537c0.237-0.13,0.42-0.332,0.651-0.474c-0.021,0.018-0.052,0.041-0.07,0.057
				c0.301-0.093,0.495-0.357,0.77-0.496c0.238-0.121,0.471-0.259,0.708-0.389c0.076-0.039,0.115-0.057,0.208-0.077
				c0.016-0.002,0.02-0.002,0.02-0.002h0.001h0.002v-0.002h0.001h0.001h0.002c0.01-0.001,0.027-0.005,0.037-0.005
				c0.017-0.003,0.017-0.003,0.018-0.003c0.151-0.019,0.297-0.06,0.449-0.078c0.002,0.015,0.005,0.032,0.007,0.046
				c-0.158,0.181-0.489,0.494-0.928,0.515c0.002-0.01,0.002-0.01,0.309-0.306c-0.181,0.079-1.251,0.837-1.256,0.843
				c0.205-0.083,0.372-0.239,0.589-0.298c-0.06,0.101-0.168,0.158-0.222,0.261c0.327-0.065,0.474-0.5,0.87-0.437
				c-0.107,0.145-0.281,0.171-0.415,0.268c0.095-0.018,0.186-0.062,0.287-0.062c-0.087,0.262-0.396,0.267-0.535,0.465
				c0.199-0.015,0.333-0.221,0.548-0.194c0,0.014,0.005,0.029,0.007,0.042c-0.207,0.19-0.48,0.266-0.705,0.415
				c0.007,0.011,0.015,0.02,0.021,0.026c0.238-0.061,0.433-0.228,0.671-0.298c-0.264,0.22-0.592,0.342-0.862,0.551
				c0.402,0.085,0.592-0.637,0.998-0.348c-0.105,0.071-0.333,0.219-0.59,0.331c-0.293,0.126-0.345,0.234-0.353,0.276
				c0.09-0.015,0.125-0.02,0.548-0.252c0.216-0.115,0.245-0.094,0.277-0.045c-0.113,0.323-0.476,0.23-0.677,0.407
				c0.121-0.005,0.241-0.031,0.362-0.036c-0.228,0.202-0.288,0.224-0.369,0.198c-0.158-0.061-0.268,0.075-0.279,0.096
				c0.009,0.01,0.023,0.021,0.032,0.031c-0.037,0.063-0.037,0.063-0.277,0.235c-0.003,0.021,0,0.053,0.006,0.075
				c0.186,0.063,0.325-0.11,0.502-0.104c-0.076,0.116-0.209,0.173-0.293,0.282c0.262-0.093,0.375-0.065,0.417-0.056
				c-0.012,0.128-0.128,0.194-0.173,0.306c0.007,0.009,0.014,0.021,0.02,0.028c0.076-0.007,0.146-0.044,0.225-0.047
				c0.008,0.094-0.089,0.162-0.057,0.259c0.096,0.044,0.19-0.03,0.286,0C31.946,24.172,31.94,24.186,31.858,24.271"/>
			<path clip-path="url(#SVGID_4_)" fill="#E6E7E8" d="M27.192,25.895c-0.004,0.006-0.132,0.132-0.378,0.163H26.81
				c-0.07,0.014-0.07,0.014-0.164,0.088c-0.301,0.247-0.33,0.176-0.27,0.099c0.081-0.111,0.151-0.236,0.25-0.331
				c0.018-0.016,0.044-0.034,0.062-0.05c0.088-0.07,0.185-0.13,0.274-0.199c0.053-0.043,0.102-0.093,0.156-0.135
				c0.037-0.024,0.052-0.033,0.077-0.039c0.022,0,0.052,0,0.069,0.047c0.029,0.07,0.037,0.214,0.037,0.214
				C27.301,25.777,27.226,25.863,27.192,25.895"/>
			<path clip-path="url(#SVGID_4_)" fill="#E6E7E8" d="M29.38,23.992c-0.134,0.107-0.173,0.036-0.164-0.028
				c0-0.011,0.004-0.023,0.01-0.035c-0.44,0.373-0.44,0.373-0.59,0.451c-0.066,0.035-0.096,0.04-0.11,0.038
				c-0.001-0.003-0.097-0.04-0.097-0.064c-0.003-0.063,0.271-0.273,0.272-0.277c0.02-0.014,0.048-0.031,0.068-0.046
				c0.079-0.054,0.17-0.104,0.251-0.158c0.037-0.025,0.075-0.07,0.113-0.089c0.04-0.025,0.085-0.03,0.12-0.056
				c0.063-0.054,0.096-0.076,0.125-0.085c0.001,0,0.006,0.001,0.007,0.001c0.005,0.008,0.011,0.015-0.026,0.086
				c-0.057,0.113-0.063,0.127-0.046,0.157c0.051,0.009,0.101-0.041,0.155-0.01C29.475,23.888,29.478,23.908,29.38,23.992"/>
			<path clip-path="url(#SVGID_4_)" fill="#E6E7E8" d="M28.708,35.951c-0.117,0.067-0.248,0.101-0.362,0.171
				c-0.037,0.024-0.079,0.075-0.106,0.114c-0.069,0.115-0.138,0.218-0.24,0.235c-0.261,0.047-0.306-0.284-0.53-0.3
				c0.018-0.048,0.046-0.136,0.021-0.186c-0.003-0.002-0.009-0.003-0.016-0.005c-0.054,0.031-0.057,0.034-0.109,0.174
				c-0.054,0.158-0.101,0.27-0.632,0.323c0.401-0.503-0.052-0.474-0.106-0.467c-0.174,0.015-0.321,0.157-0.51,0.104
				c-0.256-0.07-0.256-0.07-0.268-0.064c-0.172,0.072-0.172,0.072-0.179,0.068c-0.022-0.017-0.022-0.017-0.079-0.403
				c0.05-0.022,0.204-0.104,0.37-0.063c0.064-0.151,0.073-0.322,0.166-0.463c0.031-0.048,0.081-0.108,0.121-0.152
				c0.046-0.047,0.125-0.034,0.174-0.08c0.065-0.064,0.096-0.155,0.156-0.222c0.107-0.126,0.255-0.211,0.351-0.345
				c0.042-0.058-0.01-0.133,0.041-0.188c0.057-0.063,0.116-0.097,0.324-0.18c0.174-0.069,0.833-0.685,0.842-0.691
				c-0.116,0.265-0.325,0.618-0.645,0.815c0.05,0.09-0.021,0.316-0.144,0.383c0.24,0.014,0.229,0.254,0.345,0.38
				c0.08-0.112,0.203-0.193,0.287-0.132c0.042-0.19,0.274-0.167,0.335-0.067c0.033,0.054,0.033,0.054-0.049,0.23
				c-0.041,0.095,0.086,0.123,0.078,0.204c-0.002,0.048-0.032,0.061-0.066,0.078c0,0.096,0,0.214,0.057,0.297
				c0.097,0.134,0.278,0.36,0.437,0.386C28.75,35.921,28.727,35.94,28.708,35.951"/>
		</g>
	</g>
	<path fill="#73CAED" d="M118.399,70.279c-0.455,0.682-1.365,1.319-2.594,1.319c-1.593,0-3.231-1.274-3.231-3.095
		c0-0.592,0.319-1.273,0.91-2.139l5.097-7.509l-4.779-7.19c-0.364-0.501-0.682-1.093-0.682-1.729c0-1.41,1.137-3.322,3.549-3.322
		c1.046,0,1.911,0.41,2.685,1.684l3.731,6.145l3.596-5.871c1.002-1.684,2.002-1.957,3.049-1.957c1.548,0,3.004,1.365,3.004,2.868
		c0,0.955-0.273,1.638-0.682,2.229l-4.825,7.146l5.143,7.645c0.364,0.501,0.637,1.047,0.637,2.003c0,1.593-1.229,3.095-3.368,3.095
		c-1.363,0-2.184-0.819-3.048-2.185l-3.823-6.098L118.399,70.279z"/>
	<path fill="#73CAED" d="M156.081,53.169c1.956-1.866,4.049-2.913,7.098-2.913c6.828,0,10.56,4.551,10.56,10.057
		c0,7.509-5.144,11.286-11.787,11.286c-9.648,0-12.516-7.509-12.516-14.699c0-13.47,5.233-18.249,13.698-18.249
		c5.416,0,9.102,3.095,9.102,5.871c0,1.638-1.273,2.958-2.866,2.958c-3.005,0-3.14-3.914-6.826-3.914
		c-4.732,0-6.462,4.596-6.462,8.783V53.169z M161.813,66.41c3.277,0,5.279-2.139,5.279-5.643c0-3.868-2.274-5.597-5.279-5.597
		c-2.957,0-5.323,2.002-5.323,5.597C156.49,64.271,158.538,66.41,161.813,66.41"/>
	<path fill="#73CAED" d="M189.438,38.65c7.371,0,12.15,5.324,12.15,16.065c0,8.055-2.549,16.883-12.15,16.883
		s-12.15-8.828-12.15-16.883C177.288,43.975,182.067,38.65,189.438,38.65 M189.438,66.138c3.504,0,5.506-2.867,5.506-11.013
		c0-6.826-1.5-11.014-5.506-11.014c-4.005,0-5.506,4.188-5.506,11.014C183.933,63.271,185.935,66.138,189.438,66.138"/>
</g>
</svg>
