<?xml version="1.0" encoding="utf-8"?>
<!-- Generator: Adobe Illustrator 16.0.3, SVG Export Plug-In . SVG Version: 6.00 Build 0)  -->
<!DOCTYPE svg PUBLIC "-//W3C//DTD SVG 1.1//EN" "http://www.w3.org/Graphics/SVG/1.1/DTD/svg11.dtd">
<svg version="1.1" id="Layer_3" xmlns="http://www.w3.org/2000/svg" xmlns:xlink="http://www.w3.org/1999/xlink" x="0px" y="0px"
	 width="239.888px" height="141.011px" viewBox="0 0 239.888 141.011" enable-background="new 0 0 239.888 141.011"
	 xml:space="preserve">
<g>
	<defs>
		<path id="SVGID_1_" d="M112.27,72.363c0,30.624,24.816,55.44,55.439,55.44s55.439-24.816,55.439-55.44
			c0-30.618-24.816-55.442-55.439-55.442S112.27,41.745,112.27,72.363"/>
	</defs>
	<clipPath id="SVGID_2_">
		<use xlink:href="#SVGID_1_"  overflow="visible"/>
	</clipPath>
	
		<linearGradient id="SVGID_3_" gradientUnits="userSpaceOnUse" x1="-3234.9307" y1="940.396" x2="-3233.9307" y2="940.396" gradientTransform="matrix(110.88 0 0 -110.88 358801.4375 104343.4844)">
		<stop  offset="0" style="stop-color:#DCF1FC"/>
		<stop  offset="1" style="stop-color:#24B4E8"/>
	</linearGradient>
	<rect x="112.269" y="16.921" clip-path="url(#SVGID_2_)" fill="url(#SVGID_3_)" width="110.879" height="110.882"/>
</g>
<g>
	<defs>
		<path id="SVGID_4_" d="M65.034,75.583c-0.28-0.063-0.513-0.188-0.667-0.375c-0.016-0.004-0.031-0.006-0.044-0.006
			c-0.321-0.072-0.468-0.367-0.416-0.674c0.05-0.307,0.418-0.365,0.579-0.209c0.146,0.016,0.289,0.113,0.316,0.287h0.002
			c0.344,0.063,0.565,0.262,0.656,0.602c0.063,0.232-0.143,0.383-0.344,0.383C65.089,75.59,65.061,75.588,65.034,75.583
			 M60.616,71.082c0.473,0.314,1.03,0.44,1.485,0.786c0.215,0.164,0.394,0.397,0.551,0.612c0.371,0.497,0.81,1.075,0.834,1.719
			c0.007,0.17-0.182,0.324-0.346,0.305c-0.358-0.039-0.617-0.162-0.918-0.354c-0.091-0.018-0.186-0.059-0.277-0.135
			c-0.008-0.008-0.02-0.016-0.028-0.023c-0.26-0.104-0.5-0.105-0.817-0.094c-0.519,0.021-0.636-0.158-0.879-0.555
			c-0.244-0.402-0.949-0.301-1.316-0.598c-0.331-0.269-0.399-0.549-0.307-0.958c0.043-0.194,0.344-0.301,0.494-0.167
			c0.266,0.237,1.131,0.353,0.977-0.219c-0.066-0.246,0.14-0.389,0.339-0.374C60.475,71.022,60.546,71.035,60.616,71.082
			 M56.843,71.719c-0.26-0.055-0.469-0.216-0.591-0.453c-0.074-0.144-0.1-0.283-0.246-0.341c-0.393-0.149-0.182-0.771,0.212-0.62
			c0.249,0.098,0.429,0.263,0.542,0.503c0.088,0.187,0.09,0.247,0.295,0.291c0.174,0.038,0.258,0.263,0.205,0.416
			c-0.052,0.149-0.179,0.216-0.318,0.216C56.91,71.73,56.876,71.726,56.843,71.719 M52.979,65.545
			c-0.193-0.049-0.362-0.281-0.231-0.513c0.878-1.551,2.843,0.269,3.632,0.983c0.646,0.591,1.357,0.854,1.623,1.752
			c0.305,1.024,1.407,1.608,1.609,2.67c0.039,0.2-0.125,0.414-0.34,0.393c-0.914-0.103-2.406-0.66-2.571-1.702
			c-0.127-0.794-0.833-1.499-1.327-2.126c-0.044-0.055-0.089-0.11-0.135-0.167c-0.034-0.037-0.064-0.075-0.092-0.115
			c-0.478-0.58-1.086-1.187-1.871-1.069c-0.021,0.003-0.039,0.005-0.058,0.005C53.116,65.655,53.036,65.61,52.979,65.545
			 M13.479,72.363c0,22.352,18.123,40.475,40.477,40.475c15.596,0,29.124-8.828,35.883-21.754c0.064-0.357,0.128-0.719,0.163-1.082
			c0.196-1.973,1.19-3.643,1.619-5.563c0.229-1.039,0.187-1.984,0.571-3.018c0.385-1.029,0.802-2.037,1.226-3.051
			c0.285-0.686,0.593-1.393,0.823-2.113c0.121-1.281,0.189-2.58,0.189-3.895c0-8.216-2.453-15.853-6.658-22.236
			c-0.051-0.015-0.104-0.018-0.148-0.066c-0.064-0.07-0.129-0.141-0.193-0.213c-0.029-0.016-0.057-0.038-0.082-0.066
			c-0.129-0.148-0.25-0.303-0.373-0.459c-0.17-0.204-0.34-0.413-0.502-0.624c-0.066-0.085-0.084-0.175-0.07-0.259
			c-0.024-0.009-0.049-0.016-0.074-0.021c-0.268-0.061-0.254-0.33-0.114-0.495c-0.327-0.433-0.662-0.863-1.006-1.282
			c-0.039,0.023-0.062,0.063-0.108,0.07c-0.205,0.102-0.541,0.301-0.807,0.508c-0.018,0.296-0.165,0.577-0.376,0.796
			c0.045,0.486,0.14,0.954-0.173,1.393c-0.102,0.142-0.283,0.172-0.426,0.094c-0.135,0.088-0.317,0.075-0.436-0.052
			c-0.179-0.196-0.502-0.281-0.707-0.474c-0.301-0.282-0.563-0.6-0.836-0.907c-0.267-0.305-0.54-0.601-0.732-0.961
			c-0.226-0.418-0.367-0.892-0.611-1.298c-0.531-0.887-0.732-2.047-1.33-2.857c-0.645-0.878-1.143-1.895-1.835-2.733l-3.14-2.086
			c-0.176,0.136-0.123,0.331,0.225,0.776c0.15,0.191,0.355,0.369,0.58,0.528c0.105,0.062,0.209,0.121,0.309,0.177
			c0.274,0.153,0.545,0.32,0.809,0.501c0.902,0.549,1.744,1.241,2.285,2.16c0.392,0.667,0.729,2.047-0.266,2.429
			c-0.553,0.21-1.119,0.088-1.658-0.129c0.039,0.072,0.075,0.144,0.117,0.215c0.194,0.343-0.293,0.609-0.542,0.36
			c-0.067-0.069-0.133-0.138-0.2-0.206c-0.092,0.007-0.186-0.019-0.259-0.093c-1.151-1.143-1.919-2.365-3.183-3.266
			c-0.189-0.11-0.385-0.215-0.598-0.312c-0.049,0.194-0.242,0.479-0.481,0.368c-0.489-0.224-1.095-0.403-1.521-0.759
			c-0.226-0.117-0.434-0.252-0.601-0.428c-0.067-0.07-0.099-0.153-0.108-0.247c-0.346,0.003-0.688-0.015-1.031-0.035
			c-0.61-0.033-1.221-0.066-1.834,0.019c-0.234,0.034-0.737,0.052-0.551,0.492c0.063,0.143,0.127,0.283,0.192,0.424
			c0.229,0.478,0.712,0.604,1.065,0.978c0.774,0.817,1.445,1.595,1.508,2.75c0.016,0.309,0.033,0.611,0.115,0.911
			c0.008,0.026,0.018,0.051,0.027,0.08c0.024-0.04,0.045-0.094,0.059-0.171c0.063-0.359,0.186-0.573,0.521-0.721
			c0.186-0.079,0.371-0.034,0.543,0.009c0.286,0.073,0.534,0.146,0.688-0.356c0.121-0.398-0.105-0.812,0.216-1.156
			c0.442-0.477,0.493-1.46,1.315-1.384c0.16,0.013,0.359,0.146,0.563,0.321c0.437,0.147,1.065,0.934,1.399,1.201
			c0.603,0.479,1.22,0.899,1.326,1.729c0.008,0.071,0.023,0.13,0.043,0.186c0.229-0.021,0.504-0.125,0.762-0.157
			c0.168-0.021,0.361,0.07,0.388,0.256c0.002,0.018,0.006,0.033,0.008,0.052c0.022-0.004,0.043-0.007,0.065-0.01
			c0.166-0.021,0.359,0.07,0.387,0.257c0.135,0.996,0.836,2.004,1.311,2.881c0.488,0.905,1.451,1.427,1.928,2.345
			c0.216,0.418,0.449,0.924,0.39,1.406c-0.026,0.224-0.079,0.413-0.155,0.624c-0.162,0.439-0.002,0.646,0.314,0.906
			c0.732,0.6,0.863,1.38,0.891,2.293c0.004,0.133-0.129,0.287-0.263,0.301c-0.558,0.052-1.065-0.23-1.539-0.573
			c-0.487-0.272-0.938-0.686-1.356-0.984c-0.104-0.065-0.209-0.132-0.307-0.204c-0.529-0.328-1.207-0.707-0.943-1.432
			c0.104-0.293,0.287-0.534,0.476-0.781c0.026-0.035,0.085-0.097,0.14-0.166c-0.402-0.031-0.707-0.162-1.132-0.387
			c-0.647-0.347-1.319-0.622-2.017-0.852c-0.041-0.013-0.082-0.022-0.125-0.032c0.08,0.048,0.154,0.1,0.217,0.167
			c0.01,0.013,0.02,0.024,0.027,0.035c0.164,0.055,0.312,0.132,0.433,0.264c0.487,0.524-0.019,0.931,0.187,1.48
			c0.039,0.103,0.092,0.186,0.15,0.261c0.203,0.085,0.402,0.174,0.602,0.268c0.103,0.047,0.225,0.135,0.344,0.246
			c0.039,0.016,0.078,0.033,0.117,0.051c0.496,0.233,1.439,1.374,0.496,1.692c-0.511,0.169-1.183,0.108-1.707,0.079
			c-0.611-0.034-1.185-0.139-1.754-0.376c-0.084-0.034-0.166-0.113-0.205-0.204c-0.084-0.031-0.168-0.058-0.254-0.093
			c-0.146-0.061-0.287-0.248-0.203-0.417c0.01-0.02,0.018-0.036,0.027-0.055c-0.162,0.024-0.322,0.052-0.473,0.065
			c-0.305,0.029-0.61,0.026-0.911,0.081c-0.368,0.063-0.797,0.097-0.448,0.518c0.127,0.157,0.096,0.426-0.104,0.51
			c-0.452,0.188-0.873,0.048-1.338-0.017c-0.574-0.082-1.201,0.088-1.748,0.264c-0.381,0.122-0.733,0.329-1.037,0.593
			c-0.207,0.476-0.498,0.916-0.852,1.262c-0.068,0.189-0.134,0.381-0.222,0.558c-0.249,0.496-0.567,0.617-1.106,0.585
			c-0.718-0.039-1.355-0.082-2.07,0.053c-0.704,0.132-1.69,0.243-2.258,0.734c-0.513,0.445-0.627,1.122-0.689,1.765
			c-0.087,0.879-0.152,3.063-1.414,3.184c-0.271,0.024-0.455-0.102-0.582-0.301c-0.77-0.064-0.734-1.488-0.723-2.012
			c0.016-0.635,0.189-1.192,0.271-1.819c0.006-0.046,0.077-0.468,0.073-0.782c-0.083,0-0.165-0.013-0.252-0.052
			c-0.114-0.051-0.25-0.145-0.341-0.262c-0.038-0.007-0.078-0.018-0.117-0.037c-0.186-0.082-0.424-0.271-0.441-0.495
			c-0.031-0.456-0.306-0.638-0.664-0.864c-0.111-0.071-0.299-0.227-0.51-0.383c-0.297-0.154-0.572-0.192-0.695,0.102
			c-0.144,0.341-0.351,0.933-0.84,0.855c-0.268-0.044-0.453-0.166-0.6-0.332c-0.425-0.128-0.616-0.48-0.813-0.89
			c-0.112-0.232-0.217-0.438-0.369-0.604c-0.346-0.122-0.697-0.209-1.064-0.249c-0.711-0.077-1.47-0.099-2.159,0.132
			c-0.007,0.004-0.013,0.005-0.022,0.009c-0.004,0.001-0.008,0.001-0.016,0.005c-0.08,0.028-0.158,0.025-0.226,0.001
			c-0.517,0.026-0.506,0.627-0.802,0.973c-0.289,0.336-0.617,0.478-0.988,0.707c-1.411,0.873-2.066,4.369-0.704,5.621
			c0.015,0.008,0.028,0.015,0.042,0.021c0.583,0.234,1.385,0.636,2.036,0.475c0.139-0.079,0.28-0.149,0.424-0.212
			c0.026-0.023,0.056-0.044,0.082-0.069c0.508-0.506,0.812-0.607,1.524-0.433c0.396,0.098,1.121,0.225,1.475,0.59
			c0.326,0.142,0.602,0.347,0.652,0.667c0.134,0.807-0.641,1.195-1.182,1.617c-0.406,0.317-0.711,0.733-1.086,1.084
			c-0.357,0.335-0.797,0.537-1.16,0.849c0.154,0.05,0.312,0.1,0.461,0.156c0.375,0.143,0.744,0.339,1.078,0.557
			c0.076,0.049,0.146,0.099,0.219,0.148c0.082,0.049,0.162,0.1,0.24,0.149c0.697,0.448,1.241,0.989,1.484,1.797
			c0.012,0.037,0.014,0.072,0.014,0.104c0.121,0.39,0.014,0.747-0.332,1.014c-0.57,0.432-1.068,0.694-1.312,1.434
			c-0.22,0.668-0.167,1.58,0.182,2.207c0.034,0.061,0.071,0.113,0.107,0.158c0.345,0.094,0.748,0.035,1.133,0.195
			c0.187,0.078,0.332,0.178,0.455,0.295c0.002,0.002,0.003,0.002,0.005,0.002c0.874,0.361,0.908,1.252,1.419,1.924
			c0.005,0.006,0.009,0.008,0.017,0.014c0.641,0.074,1.315-1.07,2.01-1.102c0.271-0.012,0.537,0.018,0.804,0.047
			c0.351,0.039,0.699,0.078,1.06,0.018c0.432-0.068,0.934-0.18,1.365-0.059c0.208,0.057,0.379,0.166,0.498,0.311
			c0.424,0.135,0.682,0.49,0.656,0.906c0.212,0.053,0.371,0.164,0.511,0.314c0.425,0.129,0.634,0.498,0.937,0.945
			c0.449,0.664,0.914,0.898,1.455,1.459c0.095,0.1,0.175,0.205,0.26,0.303C62.773,81.993,62.805,82,62.839,82
			c0.156,0.008,0.294,0.002,0.427-0.008c0.219-0.01,0.418-0.025,0.639,0.035c0.103-0.035,0.222-0.012,0.31,0.109
			c0.011,0.016,0.022,0.029,0.032,0.045c0.035,0.031,0.059,0.066,0.072,0.104c0.007,0.012,0.014,0.021,0.021,0.033
			c0.008,0.002,0.016,0.004,0.023,0.006c0.105-0.033,0.222-0.01,0.311,0.107c0.012,0.018,0.02,0.033,0.032,0.049
			c0.035,0.031,0.06,0.066,0.069,0.102c0.662,0.945,1.101,2.016,1.74,2.975c0.438,0.654,0.45,1.41,0.805,2.086
			c0.096,0.182,0.222,0.332,0.373,0.461c0.615,0.313,1.379,0.463,1.924,0.82c0.066,0.045,0.125,0.09,0.178,0.141
			c0.098,0.049,0.193,0.1,0.281,0.158c0.604,0.395,0.564,0.934,0.757,1.574c0.124,0.41,0.259,0.805,0.294,1.236
			c0.046,0.576-0.053,1.16-0.023,1.738c0.022,0.477,0.035,0.951,0.398,1.271c0.191,0.107,0.391,0.217,0.555,0.352
			c0.241,0.135,0.483,0.277,0.637,0.473c0.229,0.289,0.316,0.795,0.545,1.064c0.373,0.137,0.783,0.143,1.125,0.383
			c0.068,0.047,0.129,0.102,0.186,0.156c0.096,0.037,0.188,0.078,0.274,0.141c0.751,0.525,0.7,1.529,1.481,2.016
			c0.168,0.105,0.174,0.281,0.098,0.414c0.016,0.055,0.017,0.115-0.004,0.182c-0.33,1.143-1.461,2.305-2.56,2.74
			c-1.733,0.691-3.214,1.953-4.743,2.994c-0.768,0.52-1.557,0.963-2.373,1.398c-0.617,0.326-1.226,0.703-1.897,0.91
			c-0.837,0.26-1.705,0.258-2.576,0.256c-0.834,0-1.67,0-2.481,0.223c-0.885,0.246-1.723,0.643-2.609,0.871
			c-0.801,0.205-1.618,0.355-2.422,0.551c-0.688,0.164-1.541,0.355-2.238,0.145c-0.497-0.146-1.014-0.461-1.536-0.24
			c-0.282,0.117-0.567,0.281-0.868,0.342c-0.75,0.15-1.517-0.02-2.246-0.211c-0.41-0.109-0.809-0.16-1.231-0.15
			c-0.302,0.008-0.665,0.08-0.935-0.098c-0.086-0.057-0.289,0.01-0.494,0.078c-0.176,0.057-0.354,0.113-0.461,0.094
			c-0.336-0.061-0.936-0.387-1.23-0.188c-0.584,0.385-1.164,0.188-1.779-0.033c-0.1-0.035-0.156-0.102-0.188-0.176
			c-0.475-0.086-0.936-0.295-1.381-0.475c-0.125-0.053-0.219-0.131-0.291-0.227c-0.055-0.025-0.111-0.049-0.168-0.072
			c-0.131-0.051-0.229-0.135-0.297-0.232c-0.043-0.02-0.088-0.039-0.131-0.057c-0.279-0.123-0.488-0.385-0.38-0.701
			c0.222-0.641,0.996-0.559,1.372-1.027c0.354-0.443,0.725-0.729,1.268-0.912c0.855-0.293,1.465-0.709,2.143-1.309
			c0.572-0.51,1.138-1.029,1.673-1.578c0.513-0.518,1.067-1.039,1.408-1.691c0.3-0.584,0.676-1.615,0.325-2.254
			c-0.381-0.697-1.084-1.207-1.537-1.873c-0.318-0.471-0.654-1.016-0.68-1.598c-0.033-0.648,0.138-1.285,0.123-1.941
			c-0.018-0.719-0.065-1.441-0.115-2.162c-0.252-0.689-0.424-1.408-0.522-2.125c-0.169-0.467-0.315-0.938-0.31-1.436
			c0.003-0.412,0.109-0.861,0.437-1.145c0.269-0.232,0.878-0.217,0.9-0.58c0.003-0.057,0.016-0.105,0.04-0.15
			c0.003-0.02-0.002-0.037,0.005-0.061c0.452-1.271,1.22-2.359,2.489-2.904c0.314-0.137,0.603-0.273,0.943-0.328
			c0.311-0.053,0.629-0.045,0.914-0.189c0.762-0.383,0.293-1.381,0.68-2.082c0.008-0.006-0.887-0.012-0.887-0.012v-0.029
			c0-0.342,1.083-1.307,0.859-1.781c-0.262,0.021,0.127,0.305-0.223,0.375c-0.432,0.084-0.512-0.063-0.691-0.291
			c-0.607-0.113-0.572-0.91-1.2-1.314c-0.51-0.326-0.764-0.678-0.813-1.301c-0.037-0.492-0.182-0.709-0.553-1.029
			c-0.143-0.119-0.279-0.354-0.303-0.543c-0.088-0.725-0.002-1.43-0.171-2.153c-0.144-0.605-0.302-1.2-0.388-1.811
			c-0.137-0.196-0.215-0.397-0.243-0.595c-0.412-0.5-0.941-0.903-1.271-1.471c-0.361-0.616-0.531-1.322-0.888-1.939
			c-0.069-0.119-0.149-0.22-0.233-0.313c-0.142-0.068-0.265-0.15-0.363-0.249c-0.028-0.01-0.049-0.025-0.076-0.038
			c-0.299-0.122-0.615-0.223-0.93-0.363c-0.201-0.087-0.381-0.202-0.541-0.338c-0.547-0.269-0.946-0.732-1.2-1.285
			c-0.306-0.656-0.615-1.265-0.993-1.884c-0.369-0.604-0.6-1.317-0.837-1.985c-0.191-0.536-0.341-1.154-0.198-1.722
			c0.193-0.765,0.676-1.434,0.865-2.21c0.214-0.885,0.097-1.791,0.17-2.694c0.033-0.396,0.066-0.801,0.115-1.202
			c-0.021,0.043-0.035,0.082-0.059,0.125c-0.406,0.786-0.38,1.556-0.609,2.382c-0.035,0.124-0.125,0.188-0.217,0.209
			c-0.006,0.011-0.022,0.021-0.029,0.033c-0.145,0.339-0.663,0.214-0.676-0.085c-0.213,0.018-0.418-0.157-0.308-0.413
			c0.288-0.667-0.997-1.071-0.879-1.724c0.062-0.331-1.285-0.622-0.272-0.898v-0.004c-1.013-0.162,0.508-0.347,0.582-0.562
			c0.024-0.067,0.305-0.144,0.326-0.209c-0.019-0.121,0.155-0.244,0.146-0.378c-0.052-0.662,0.612-0.633,0.864-1.083
			c0.377-0.665,0.43-1.528,0.746-2.235c0.154-0.339,0.379-0.731,0.625-1.016c0.082-0.092,0.303-0.266,0.428-0.445
			c-0.03-0.172-0.049-0.346-0.063-0.519c-0.216-0.312-0.197-0.702-0.094-1.07c0.309-1.098,1.078-2.215,1.877-3.02
			c1.004-1.013,2.271-1.845,3.605-2.347c0.682-0.255,1.449-0.493,2.008-0.983c0.558-0.49,0.777-1.21,1.281-1.745
			c0.758-0.801,1.627-1.28,2.586-1.777c0.092-0.047,1.004-0.521,0.93-0.642c-0.002-0.003-0.006-0.006-0.008-0.01
			c-0.489-0.138-1.178-0.046-1.528-0.003c-0.222,0.027-0.356-0.138-0.38-0.308c-0.028,0.003-0.057,0.008-0.08,0.01
			c-0.4,0.049-0.537-0.536-0.178-0.631c0.059-0.076,0.15-0.123,0.26-0.112c1.654-0.032,3.304-0.154,4.956-0.251
			c1.401-0.082,3.047-0.3,4.366,0.304c0.222,0.101,0.416,0.248,0.627,0.361c0.359,0.193,0.753,0.186,1.133,0.303
			c0.292,0.088,0.516,0.224,0.712,0.393c0.399,0.184,0.665,0.469,0.929,0.83c-0.007-0.042-0.017-0.083-0.018-0.125
			c-0.016-0.364,0.138-0.729,0.479-0.919c0.895-0.5,2.848,0.379,3.769,0.576c0.784,0.171,1.556,0.36,2.319,0.57
			c-4.813-2.02-10.101-3.138-15.646-3.138C31.602,31.887,13.479,50.009,13.479,72.363"/>
	</defs>
	<clipPath id="SVGID_5_">
		<use xlink:href="#SVGID_4_"  overflow="visible"/>
	</clipPath>
	
		<linearGradient id="SVGID_6_" gradientUnits="userSpaceOnUse" x1="-3244.0532" y1="941.7563" x2="-3243.0532" y2="941.7563" gradientTransform="matrix(80.951 0 0 -80.951 262622.8125 76308.5)">
		<stop  offset="0" style="stop-color:#DCF1FC"/>
		<stop  offset="1" style="stop-color:#24B4E8"/>
	</linearGradient>
	<rect x="13.479" y="31.887" clip-path="url(#SVGID_5_)" fill="url(#SVGID_6_)" width="80.95" height="80.952"/>
</g>
</svg>
