<?xml version="1.0" encoding="utf-8"?>
<!-- Generator: Adobe Illustrator 16.0.3, SVG Export Plug-In . SVG Version: 6.00 Build 0)  -->
<!DOCTYPE svg PUBLIC "-//W3C//DTD SVG 1.1//EN" "http://www.w3.org/Graphics/SVG/1.1/DTD/svg11.dtd">
<svg version="1.1" id="Layer_2" xmlns="http://www.w3.org/2000/svg" xmlns:xlink="http://www.w3.org/1999/xlink" x="0px" y="0px"
	 width="94.943px" height="55.056px" viewBox="0 0 94.943 55.056" enable-background="new 0 0 94.943 55.056" xml:space="preserve">
<g>
	<defs>
		<path id="SVGID_1_" d="M75.478,28.196c0,4.191,3.397,7.589,7.59,7.589c4.19,0,7.589-3.398,7.589-7.589
			c0-4.191-3.398-7.589-7.589-7.589C78.875,20.607,75.478,24.005,75.478,28.196"/>
	</defs>
	<clipPath id="SVGID_2_">
		<use xlink:href="#SVGID_1_"  overflow="visible"/>
	</clipPath>
	
		<linearGradient id="SVGID_3_" gradientUnits="userSpaceOnUse" x1="-3729.6294" y1="540.9302" x2="-3728.6294" y2="540.9302" gradientTransform="matrix(15.1783 0 0 -15.1783 56684.957 8238.6094)">
		<stop  offset="0" style="stop-color:#DCF2FD"/>
		<stop  offset="0.1184" style="stop-color:#CEEEFC"/>
		<stop  offset="0.3405" style="stop-color:#AAE2F8"/>
		<stop  offset="0.6427" style="stop-color:#70CEF1"/>
		<stop  offset="1" style="stop-color:#23B5E9"/>
	</linearGradient>
	<rect x="75.477" y="20.607" clip-path="url(#SVGID_2_)" fill="url(#SVGID_3_)" width="15.179" height="15.178"/>
</g>
<g>
	<defs>
		<path id="SVGID_4_" d="M36.353,29.807c-0.14-0.033-0.255-0.094-0.333-0.188c-0.008-0.002-0.015-0.002-0.021-0.004
			c-0.161-0.035-0.234-0.184-0.209-0.338c0.025-0.15,0.209-0.182,0.291-0.104c0.073,0.008,0.144,0.059,0.157,0.145h0.002
			c0.173,0.029,0.282,0.131,0.328,0.301c0.032,0.115-0.072,0.191-0.173,0.191C36.381,29.811,36.367,29.809,36.353,29.807
			 M34.145,27.556c0.235,0.157,0.515,0.221,0.743,0.394c0.107,0.082,0.195,0.199,0.276,0.306c0.184,0.249,0.404,0.539,0.415,0.859
			c0.004,0.086-0.089,0.164-0.172,0.154c-0.18-0.021-0.308-0.082-0.458-0.178c-0.046-0.008-0.094-0.027-0.14-0.066
			c-0.003-0.004-0.009-0.008-0.015-0.012c-0.128-0.053-0.249-0.055-0.408-0.047c-0.259,0.01-0.315-0.081-0.438-0.28
			c-0.123-0.2-0.477-0.148-0.659-0.299c-0.165-0.134-0.2-0.272-0.154-0.478c0.021-0.097,0.173-0.15,0.248-0.083
			c0.132,0.119,0.565,0.177,0.488-0.109c-0.033-0.122,0.071-0.194,0.17-0.188C34.074,27.526,34.11,27.533,34.145,27.556
			 M32.258,27.874c-0.13-0.027-0.234-0.107-0.295-0.226c-0.036-0.073-0.05-0.143-0.122-0.171c-0.198-0.074-0.092-0.387,0.105-0.311
			c0.124,0.048,0.214,0.133,0.27,0.251c0.044,0.094,0.046,0.125,0.149,0.146c0.087,0.019,0.129,0.132,0.102,0.209
			c-0.025,0.073-0.088,0.106-0.158,0.106C32.292,27.88,32.275,27.878,32.258,27.874 M30.325,24.787
			c-0.095-0.023-0.179-0.14-0.114-0.255c0.438-0.776,1.421,0.134,1.815,0.492c0.324,0.293,0.678,0.425,0.812,0.875
			c0.152,0.512,0.704,0.805,0.805,1.335c0.019,0.1-0.063,0.207-0.171,0.195c-0.455-0.052-1.202-0.33-1.285-0.851
			c-0.063-0.396-0.417-0.75-0.664-1.063c-0.022-0.025-0.044-0.055-0.067-0.084c-0.016-0.017-0.033-0.038-0.046-0.057
			c-0.238-0.29-0.542-0.594-0.935-0.535c-0.009,0.002-0.019,0.002-0.027,0.002C30.396,24.842,30.355,24.819,30.325,24.787
			 M10.576,28.196c0,11.175,9.062,20.238,20.238,20.238c7.799,0,14.562-4.412,17.941-10.877c0.033-0.18,0.065-0.359,0.083-0.541
			c0.097-0.986,0.595-1.82,0.808-2.781c0.117-0.52,0.096-0.992,0.287-1.508c0.192-0.516,0.4-1.018,0.613-1.525
			c0.142-0.344,0.297-0.697,0.41-1.055c0.061-0.643,0.096-1.294,0.096-1.951c0-4.107-1.226-7.927-3.329-11.117
			c-0.024-0.008-0.052-0.01-0.075-0.034c-0.032-0.035-0.063-0.069-0.096-0.105c-0.015-0.008-0.028-0.02-0.042-0.032
			c-0.063-0.075-0.124-0.154-0.186-0.23c-0.086-0.104-0.17-0.207-0.251-0.312c-0.032-0.044-0.042-0.088-0.034-0.131
			c-0.013-0.003-0.025-0.008-0.038-0.01c-0.134-0.03-0.126-0.167-0.056-0.249c-0.164-0.217-0.331-0.431-0.503-0.64
			c-0.02,0.012-0.033,0.031-0.054,0.035c-0.104,0.051-0.271,0.148-0.404,0.254c-0.01,0.148-0.083,0.288-0.188,0.397
			c0.023,0.242,0.069,0.479-0.086,0.696c-0.052,0.071-0.142,0.084-0.213,0.046c-0.069,0.044-0.159,0.038-0.218-0.026
			c-0.09-0.099-0.251-0.141-0.354-0.235c-0.15-0.142-0.28-0.299-0.418-0.454c-0.134-0.151-0.27-0.299-0.366-0.479
			c-0.113-0.211-0.184-0.447-0.306-0.65c-0.267-0.444-0.366-1.023-0.665-1.428c-0.322-0.439-0.571-0.949-0.917-1.368l-1.571-1.042
			c-0.086,0.067-0.061,0.165,0.113,0.387c0.075,0.099,0.178,0.185,0.289,0.265c0.054,0.03,0.105,0.062,0.155,0.088
			c0.138,0.079,0.271,0.161,0.405,0.251c0.45,0.273,0.871,0.621,1.143,1.081c0.195,0.333,0.364,1.021-0.132,1.214
			c-0.278,0.104-0.562,0.044-0.832-0.063c0.021,0.034,0.039,0.071,0.06,0.107c0.098,0.17-0.146,0.303-0.271,0.178
			c-0.033-0.032-0.065-0.066-0.101-0.101c-0.046,0.003-0.092-0.011-0.13-0.046c-0.575-0.573-0.958-1.185-1.59-1.633
			c-0.093-0.058-0.193-0.108-0.299-0.156c-0.024,0.097-0.12,0.238-0.241,0.184c-0.243-0.112-0.546-0.204-0.758-0.38
			c-0.113-0.057-0.219-0.126-0.303-0.214c-0.033-0.035-0.048-0.077-0.054-0.123c-0.168,0.002-0.337-0.008-0.505-0.018
			c-0.308-0.017-0.617-0.034-0.925,0.01c-0.119,0.018-0.37,0.024-0.276,0.246c0.03,0.07,0.062,0.141,0.096,0.21
			c0.115,0.241,0.356,0.305,0.532,0.49c0.387,0.408,0.722,0.797,0.753,1.373c0.009,0.155,0.017,0.307,0.059,0.456
			c0.002,0.014,0.008,0.027,0.014,0.04c0.011-0.019,0.021-0.046,0.028-0.084c0.033-0.18,0.092-0.287,0.261-0.359
			c0.092-0.04,0.186-0.019,0.272,0.004c0.143,0.036,0.266,0.071,0.343-0.18c0.061-0.2-0.052-0.405,0.107-0.577
			c0.222-0.239,0.247-0.73,0.659-0.693c0.08,0.007,0.18,0.074,0.281,0.161c0.219,0.074,0.533,0.469,0.701,0.601
			c0.301,0.239,0.61,0.45,0.663,0.864c0.004,0.036,0.012,0.067,0.019,0.094c0.115-0.01,0.253-0.063,0.383-0.079
			c0.085-0.009,0.18,0.035,0.192,0.128c0.002,0.009,0.006,0.017,0.006,0.025c0.011-0.002,0.021-0.003,0.032-0.005
			c0.085-0.008,0.18,0.034,0.194,0.128c0.067,0.5,0.417,1.004,0.655,1.442c0.245,0.451,0.727,0.713,0.963,1.172
			c0.107,0.207,0.226,0.462,0.196,0.703c-0.014,0.11-0.041,0.206-0.079,0.313c-0.081,0.218,0,0.321,0.159,0.452
			c0.364,0.3,0.431,0.69,0.444,1.146c0.002,0.067-0.063,0.145-0.132,0.149c-0.278,0.027-0.532-0.115-0.768-0.287
			c-0.245-0.136-0.469-0.341-0.68-0.492c-0.052-0.03-0.104-0.064-0.153-0.102c-0.264-0.163-0.601-0.353-0.471-0.714
			c0.053-0.148,0.143-0.269,0.237-0.392c0.014-0.017,0.042-0.05,0.071-0.082c-0.201-0.018-0.352-0.083-0.564-0.195
			c-0.326-0.172-0.661-0.311-1.009-0.426c-0.021-0.006-0.04-0.011-0.062-0.015c0.039,0.023,0.075,0.05,0.108,0.084
			c0.005,0.006,0.009,0.012,0.013,0.018c0.08,0.026,0.155,0.064,0.216,0.131c0.244,0.262-0.009,0.465,0.094,0.74
			c0.02,0.051,0.046,0.093,0.075,0.131c0.101,0.042,0.201,0.086,0.301,0.134c0.051,0.022,0.113,0.066,0.172,0.123
			c0.019,0.007,0.038,0.017,0.058,0.024c0.249,0.116,0.722,0.688,0.247,0.847c-0.253,0.084-0.59,0.054-0.854,0.04
			c-0.306-0.018-0.592-0.069-0.875-0.188c-0.044-0.019-0.084-0.058-0.103-0.104c-0.043-0.016-0.085-0.028-0.129-0.047
			c-0.072-0.029-0.143-0.123-0.102-0.207c0.006-0.011,0.009-0.019,0.016-0.027c-0.08,0.011-0.163,0.024-0.237,0.032
			c-0.152,0.016-0.305,0.014-0.456,0.041c-0.184,0.029-0.399,0.047-0.224,0.258c0.064,0.079,0.047,0.213-0.052,0.255
			c-0.226,0.096-0.435,0.025-0.669-0.008c-0.287-0.042-0.599,0.044-0.873,0.132c-0.192,0.062-0.366,0.165-0.519,0.297
			c-0.103,0.238-0.249,0.458-0.425,0.63c-0.035,0.096-0.067,0.19-0.111,0.278c-0.125,0.249-0.284,0.308-0.554,0.293
			c-0.358-0.02-0.678-0.04-1.034,0.026c-0.353,0.067-0.847,0.121-1.13,0.368c-0.255,0.223-0.313,0.562-0.345,0.884
			c-0.042,0.438-0.075,1.529-0.707,1.59c-0.134,0.013-0.226-0.051-0.291-0.15c-0.383-0.032-0.366-0.745-0.36-1.005
			c0.008-0.318,0.094-0.596,0.134-0.91c0.004-0.022,0.04-0.233,0.038-0.391c-0.042,0-0.082-0.008-0.126-0.027
			c-0.058-0.024-0.127-0.073-0.17-0.13c-0.02-0.004-0.039-0.01-0.06-0.019c-0.092-0.04-0.212-0.135-0.22-0.247
			c-0.016-0.229-0.153-0.32-0.332-0.434c-0.055-0.035-0.148-0.113-0.254-0.191c-0.15-0.076-0.288-0.096-0.349,0.052
			c-0.071,0.17-0.174,0.465-0.42,0.427c-0.134-0.021-0.228-0.082-0.3-0.167c-0.213-0.063-0.308-0.239-0.406-0.444
			c-0.056-0.114-0.107-0.218-0.184-0.301c-0.173-0.061-0.349-0.104-0.533-0.124c-0.354-0.04-0.735-0.05-1.078,0.065
			c-0.004,0.002-0.008,0.002-0.011,0.004c-0.004,0.002-0.006,0.002-0.008,0.002c-0.042,0.015-0.081,0.013-0.113,0.002
			c-0.259,0.011-0.255,0.314-0.402,0.484c-0.144,0.169-0.309,0.239-0.495,0.354c-0.704,0.437-1.032,2.186-0.35,2.812
			c0.006,0.004,0.014,0.008,0.021,0.01c0.291,0.117,0.692,0.317,1.017,0.236c0.069-0.037,0.14-0.073,0.213-0.104
			c0.013-0.011,0.026-0.023,0.04-0.036c0.255-0.251,0.406-0.303,0.762-0.215c0.198,0.048,0.562,0.111,0.738,0.295
			c0.162,0.069,0.3,0.173,0.327,0.333c0.065,0.403-0.321,0.598-0.592,0.809c-0.205,0.159-0.355,0.366-0.543,0.542
			c-0.179,0.166-0.398,0.269-0.579,0.424c0.077,0.024,0.155,0.05,0.23,0.078c0.188,0.07,0.371,0.171,0.538,0.277
			c0.038,0.025,0.075,0.05,0.109,0.077c0.042,0.023,0.083,0.048,0.121,0.073c0.35,0.224,0.621,0.496,0.741,0.897
			c0.006,0.02,0.008,0.036,0.008,0.053c0.06,0.194,0.008,0.375-0.167,0.507c-0.285,0.217-0.532,0.347-0.655,0.717
			c-0.109,0.334-0.082,0.791,0.09,1.104c0.017,0.031,0.037,0.057,0.054,0.078c0.174,0.047,0.375,0.02,0.569,0.1
			c0.092,0.037,0.164,0.088,0.226,0.146h0.002c0.438,0.184,0.454,0.627,0.71,0.963c0.002,0.002,0.004,0.004,0.006,0.008
			c0.322,0.035,0.659-0.535,1.008-0.551c0.136-0.006,0.27,0.01,0.402,0.023c0.174,0.018,0.348,0.037,0.528,0.01
			c0.217-0.037,0.466-0.092,0.684-0.031c0.104,0.029,0.188,0.082,0.249,0.154c0.211,0.068,0.341,0.248,0.326,0.455
			c0.107,0.027,0.186,0.082,0.256,0.156c0.213,0.064,0.316,0.25,0.47,0.473c0.224,0.332,0.456,0.449,0.726,0.73
			c0.047,0.049,0.088,0.102,0.13,0.148c0.015,0.004,0.031,0.008,0.048,0.008c0.078,0.008,0.149,0.002,0.214-0.002
			c0.109-0.008,0.209-0.012,0.318,0.016c0.054-0.018,0.111-0.004,0.155,0.057c0.006,0.008,0.012,0.014,0.017,0.023
			c0.018,0.014,0.029,0.031,0.035,0.051c0.006,0.006,0.008,0.01,0.012,0.016c0.003,0.002,0.007,0.002,0.011,0.004
			c0.054-0.018,0.111-0.006,0.157,0.053c0.004,0.008,0.01,0.016,0.015,0.025c0.018,0.014,0.029,0.033,0.037,0.049
			c0.329,0.475,0.548,1.01,0.867,1.488c0.221,0.326,0.228,0.705,0.403,1.043c0.048,0.092,0.113,0.166,0.187,0.23
			c0.307,0.156,0.69,0.232,0.962,0.41c0.032,0.023,0.061,0.047,0.088,0.07c0.05,0.025,0.098,0.049,0.142,0.08
			c0.301,0.197,0.281,0.465,0.377,0.787c0.063,0.205,0.13,0.402,0.148,0.617c0.023,0.289-0.025,0.58-0.012,0.869
			c0.012,0.238,0.018,0.475,0.199,0.637c0.096,0.053,0.196,0.109,0.278,0.176c0.121,0.066,0.241,0.137,0.318,0.236
			c0.115,0.143,0.157,0.395,0.272,0.531c0.186,0.068,0.393,0.07,0.563,0.191c0.034,0.023,0.063,0.051,0.092,0.078
			c0.048,0.018,0.094,0.039,0.138,0.07c0.375,0.264,0.35,0.766,0.739,1.01c0.086,0.051,0.088,0.139,0.05,0.205
			c0.008,0.027,0.01,0.059,0,0.09c-0.167,0.572-0.734,1.154-1.281,1.371c-0.866,0.346-1.607,0.979-2.373,1.498
			c-0.384,0.26-0.778,0.482-1.186,0.699c-0.309,0.164-0.613,0.35-0.948,0.455c-0.418,0.131-0.853,0.129-1.287,0.129
			c-0.418,0-0.836-0.002-1.242,0.109c-0.441,0.123-0.86,0.32-1.306,0.436c-0.4,0.102-0.808,0.178-1.21,0.273
			c-0.343,0.082-0.77,0.18-1.119,0.076c-0.249-0.076-0.506-0.23-0.768-0.121c-0.143,0.057-0.283,0.141-0.436,0.17
			c-0.373,0.074-0.758-0.01-1.122-0.105c-0.205-0.055-0.404-0.08-0.617-0.074c-0.149,0.004-0.331,0.041-0.465-0.049
			c-0.044-0.029-0.146,0.004-0.249,0.039c-0.088,0.027-0.177,0.055-0.229,0.047c-0.169-0.031-0.468-0.195-0.615-0.094
			c-0.291,0.191-0.582,0.094-0.889-0.016c-0.05-0.02-0.078-0.053-0.094-0.09c-0.237-0.043-0.467-0.146-0.691-0.236
			c-0.063-0.027-0.109-0.066-0.144-0.115c-0.028-0.012-0.057-0.023-0.086-0.033c-0.064-0.027-0.112-0.07-0.146-0.117
			c-0.022-0.01-0.044-0.02-0.065-0.029c-0.14-0.061-0.246-0.191-0.189-0.352c0.108-0.318,0.498-0.279,0.686-0.512
			c0.176-0.223,0.362-0.365,0.632-0.457c0.429-0.145,0.733-0.354,1.072-0.654c0.286-0.254,0.569-0.516,0.837-0.787
			c0.255-0.26,0.533-0.521,0.703-0.848c0.152-0.293,0.339-0.809,0.163-1.127c-0.19-0.35-0.542-0.604-0.768-0.938
			c-0.159-0.232-0.328-0.508-0.341-0.799c-0.015-0.324,0.069-0.643,0.062-0.969c-0.007-0.361-0.03-0.723-0.057-1.082
			c-0.125-0.344-0.211-0.703-0.261-1.063c-0.084-0.232-0.157-0.471-0.155-0.717c0.002-0.207,0.056-0.434,0.221-0.574
			c0.132-0.115,0.438-0.107,0.448-0.291c0.001-0.027,0.007-0.051,0.019-0.07c0.002-0.012,0-0.023,0.004-0.031
			c0.226-0.637,0.611-1.18,1.245-1.455c0.157-0.066,0.3-0.135,0.471-0.162c0.155-0.027,0.314-0.023,0.458-0.096
			c0.379-0.191,0.174-0.691,0.369-1.041c0.002-0.002-0.415-0.006-0.415-0.006v-0.016c0-0.17,0.513-0.654,0.4-0.889
			c-0.13,0.01,0.048,0.152-0.126,0.188c-0.215,0.041-0.264-0.031-0.354-0.146c-0.302-0.057-0.289-0.453-0.603-0.656
			c-0.255-0.164-0.383-0.34-0.408-0.65c-0.019-0.246-0.092-0.355-0.278-0.516c-0.071-0.061-0.14-0.178-0.15-0.271
			c-0.044-0.361-0.002-0.713-0.087-1.076c-0.07-0.303-0.151-0.601-0.195-0.906c-0.067-0.098-0.105-0.199-0.12-0.297
			c-0.207-0.249-0.47-0.452-0.636-0.735c-0.18-0.309-0.265-0.66-0.443-0.97c-0.036-0.061-0.075-0.111-0.117-0.157
			c-0.071-0.033-0.132-0.073-0.182-0.124c-0.013-0.006-0.025-0.014-0.038-0.019c-0.149-0.063-0.306-0.111-0.465-0.182
			c-0.1-0.045-0.19-0.103-0.27-0.17c-0.274-0.134-0.474-0.367-0.6-0.641c-0.153-0.33-0.308-0.634-0.496-0.943
			c-0.186-0.302-0.301-0.658-0.42-0.991c-0.095-0.269-0.17-0.578-0.097-0.862c0.096-0.383,0.337-0.716,0.431-1.104
			c0.107-0.444,0.048-0.897,0.086-1.349c0.015-0.199,0.032-0.399,0.057-0.601c-0.009,0.021-0.019,0.04-0.028,0.061
			c-0.205,0.396-0.19,0.78-0.307,1.192c-0.017,0.063-0.061,0.093-0.107,0.104c-0.004,0.006-0.012,0.01-0.015,0.016
			c-0.073,0.171-0.332,0.107-0.337-0.042c-0.108,0.01-0.209-0.078-0.156-0.205c0.146-0.335-0.469-0.536-0.41-0.864
			c0.031-0.164-0.612-0.311-0.107-0.448v-0.002c-0.505-0.08,0.227-0.172,0.263-0.281c0.011-0.032,0.136-0.07,0.149-0.104
			c-0.01-0.062,0.069-0.122,0.063-0.189c-0.025-0.33,0.303-0.315,0.429-0.542c0.19-0.332,0.213-0.763,0.374-1.116
			c0.077-0.172,0.186-0.366,0.31-0.509c0.04-0.046,0.151-0.134,0.215-0.222c-0.018-0.086-0.027-0.174-0.033-0.26
			c-0.107-0.155-0.101-0.352-0.048-0.535c0.155-0.549,0.54-1.107,0.941-1.509c0.501-0.508,1.133-0.923,1.8-1.174
			c0.341-0.129,0.727-0.247,1.004-0.492c0.279-0.244,0.388-0.604,0.641-0.872c0.38-0.4,0.813-0.643,1.293-0.89
			c0.046-0.022,0.502-0.26,0.466-0.32c-0.002-0.002-0.004-0.002-0.004-0.004c-0.245-0.069-0.59-0.023-0.764-0.002
			c-0.111,0.013-0.179-0.069-0.19-0.153c-0.015,0.002-0.029,0.003-0.042,0.003c-0.199,0.025-0.268-0.268-0.088-0.314
			c0.03-0.037,0.075-0.063,0.13-0.057c0.827-0.015,1.651-0.077,2.478-0.125c0.7-0.042,1.523-0.148,2.184,0.152
			c0.109,0.049,0.207,0.122,0.312,0.18c0.18,0.097,0.378,0.094,0.567,0.151c0.146,0.044,0.259,0.11,0.354,0.196
			c0.202,0.093,0.336,0.234,0.466,0.416c-0.002-0.021-0.008-0.042-0.009-0.063c-0.006-0.182,0.07-0.364,0.241-0.46
			c0.446-0.249,1.423,0.189,1.883,0.289c0.392,0.085,0.777,0.178,1.16,0.284c-2.407-1.011-5.051-1.569-7.824-1.569
			C19.638,7.958,10.576,17.02,10.576,28.196"/>
	</defs>
	<clipPath id="SVGID_5_">
		<use xlink:href="#SVGID_4_"  overflow="visible"/>
	</clipPath>
	
		<linearGradient id="SVGID_6_" gradientUnits="userSpaceOnUse" x1="-3751.6099" y1="535.9097" x2="-3750.6099" y2="535.9097" gradientTransform="matrix(40.4755 0 0 -40.4755 151858.8438 21719.4492)">
		<stop  offset="0" style="stop-color:#DCF2FD"/>
		<stop  offset="0.1184" style="stop-color:#CEEEFC"/>
		<stop  offset="0.3405" style="stop-color:#AAE2F8"/>
		<stop  offset="0.6427" style="stop-color:#70CEF1"/>
		<stop  offset="1" style="stop-color:#23B5E9"/>
	</linearGradient>
	<rect x="10.576" y="7.958" clip-path="url(#SVGID_5_)" fill="url(#SVGID_6_)" width="40.476" height="40.476"/>
</g>
</svg>
