<?xml version="1.0" encoding="utf-8"?>
<!-- Generator: Adobe Illustrator 16.0.3, SVG Export Plug-In . SVG Version: 6.00 Build 0)  -->
<!DOCTYPE svg PUBLIC "-//W3C//DTD SVG 1.1//EN" "http://www.w3.org/Graphics/SVG/1.1/DTD/svg11.dtd">
<svg version="1.1" id="Layer_2" xmlns="http://www.w3.org/2000/svg" xmlns:xlink="http://www.w3.org/1999/xlink" x="0px" y="0px"
	 width="139px" height="131px" viewBox="66.5 19 139 131" enable-background="new 66.5 19 139 131" xml:space="preserve">
<g>
	<path fill="#FFFFFF" d="M183.099,110.49c0.261-2.654,1.599-4.896,2.173-7.48c0.313-1.396,0.254-2.666,0.771-4.054
		c0.517-1.384,1.078-2.739,1.646-4.103c0.387-0.922,0.799-1.873,1.108-2.84c0.164-1.725,0.256-3.472,0.256-5.239
		c0-11.044-3.299-21.312-8.952-29.891c-0.068-0.021-0.141-0.026-0.201-0.091c-0.086-0.094-0.17-0.19-0.256-0.286
		c-0.041-0.022-0.08-0.052-0.113-0.088c-0.174-0.2-0.338-0.409-0.502-0.618c-0.229-0.275-0.455-0.555-0.676-0.84
		c-0.087-0.114-0.109-0.236-0.091-0.348c-0.034-0.009-0.069-0.02-0.103-0.027c-0.358-0.083-0.342-0.445-0.151-0.667
		c-0.442-0.582-0.89-1.16-1.354-1.723c-0.049,0.031-0.084,0.086-0.144,0.094c-0.278,0.137-0.729,0.404-1.084,0.684
		c-0.026,0.397-0.222,0.777-0.508,1.069c0.063,0.653,0.187,1.283-0.231,1.871c-0.137,0.193-0.381,0.231-0.572,0.127
		c-0.181,0.119-0.428,0.1-0.586-0.071c-0.241-0.263-0.674-0.376-0.949-0.635c-0.406-0.38-0.756-0.806-1.124-1.221
		c-0.36-0.408-0.726-0.807-0.985-1.29c-0.303-0.563-0.494-1.2-0.822-1.745c-0.715-1.193-0.986-2.752-1.787-3.843
		c-0.867-1.179-1.535-2.545-2.467-3.672l-4.222-2.806c-0.237,0.182-0.166,0.445,0.302,1.044c0.203,0.258,0.479,0.494,0.778,0.708
		c0.144,0.085,0.283,0.165,0.416,0.239c0.369,0.208,0.733,0.432,1.087,0.675c1.213,0.736,2.346,1.667,3.074,2.902
		c0.525,0.896,0.978,2.752-0.357,3.265c-0.744,0.286-1.507,0.12-2.23-0.171c0.053,0.096,0.102,0.192,0.158,0.289
		c0.262,0.46-0.394,0.817-0.729,0.482c-0.091-0.091-0.181-0.183-0.269-0.275c-0.123,0.008-0.25-0.025-0.35-0.125
		c-1.545-1.537-2.579-3.18-4.277-4.389c-0.254-0.149-0.518-0.291-0.804-0.42c-0.065,0.262-0.325,0.644-0.647,0.497
		c-0.655-0.302-1.467-0.545-2.041-1.022c-0.305-0.157-0.586-0.339-0.812-0.574c-0.09-0.094-0.131-0.208-0.146-0.332
		c-1.281,0.007-2.563-0.206-3.848-0.023c-0.318,0.046-0.994,0.069-0.742,0.662c0.082,0.192,0.168,0.38,0.258,0.567
		c0.309,0.645,0.959,0.815,1.434,1.316c1.04,1.099,1.942,2.142,2.025,3.696c0.021,0.415,0.044,0.823,0.154,1.227
		c0.011,0.032,0.023,0.068,0.039,0.106c0.031-0.053,0.059-0.126,0.077-0.23c0.087-0.483,0.249-0.771,0.7-0.968
		c0.67-0.29,1.327,0.616,1.656-0.467c0.163-0.539-0.141-1.093,0.288-1.555c0.596-0.642,0.663-1.96,1.769-1.862
		c0.217,0.019,0.483,0.197,0.758,0.433c0.588,0.198,1.432,1.256,1.883,1.616c0.81,0.643,1.639,1.209,1.781,2.322
		c0.014,0.097,0.033,0.178,0.057,0.249c0.309-0.025,0.68-0.169,1.025-0.21c0.227-0.027,0.484,0.093,0.52,0.344
		c0.004,0.023,0.011,0.047,0.015,0.07c0.028-0.006,0.056-0.011,0.085-0.014c0.227-0.025,0.484,0.093,0.52,0.345
		c0.184,1.341,1.127,2.696,1.763,3.875c0.657,1.215,1.951,1.918,2.592,3.151c0.29,0.56,0.604,1.241,0.525,1.893
		c-0.035,0.298-0.107,0.554-0.212,0.838c-0.215,0.589,0,0.866,0.426,1.215c0.982,0.808,1.161,1.858,1.195,3.084
		c0.006,0.179-0.172,0.387-0.353,0.404c-0.748,0.069-1.435-0.309-2.069-0.771c-0.656-0.366-1.261-0.92-1.824-1.324
		c-0.139-0.087-0.28-0.177-0.412-0.274c-0.711-0.439-1.621-0.949-1.27-1.925c0.144-0.393,0.389-0.718,0.641-1.048
		c0.035-0.046,0.115-0.132,0.188-0.224c-0.54-0.043-0.948-0.217-1.521-0.52c-0.871-0.464-1.775-0.838-2.713-1.144
		c-0.054-0.018-0.108-0.031-0.164-0.043c0.104,0.061,0.201,0.132,0.289,0.225c0.014,0.015,0.024,0.031,0.039,0.046
		c0.215,0.072,0.416,0.18,0.578,0.354c0.656,0.706-0.025,1.252,0.252,1.99c0.051,0.137,0.123,0.25,0.202,0.352
		c0.273,0.113,0.542,0.233,0.81,0.358c0.137,0.064,0.3,0.182,0.462,0.33c0.052,0.024,0.104,0.046,0.155,0.07
		c0.668,0.313,1.938,1.846,0.666,2.273c-0.683,0.229-1.588,0.147-2.293,0.108c-0.823-0.045-1.594-0.185-2.356-0.504
		c-0.114-0.049-0.224-0.154-0.276-0.277c-0.113-0.041-0.229-0.077-0.343-0.124c-0.197-0.082-0.385-0.333-0.272-0.558
		c0.012-0.027,0.023-0.05,0.037-0.076c-0.218,0.033-0.434,0.07-0.636,0.088c-0.409,0.04-0.819,0.037-1.225,0.108
		c-0.494,0.085-1.072,0.132-0.604,0.698c0.173,0.209,0.13,0.572-0.139,0.685c-0.609,0.253-1.172,0.064-1.798-0.024
		c-0.771-0.11-1.615,0.121-2.35,0.354c-0.515,0.165-0.986,0.445-1.396,0.799c-0.278,0.639-0.669,1.232-1.144,1.696
		c-0.092,0.254-0.181,0.51-0.299,0.748c-0.335,0.668-0.765,0.828-1.488,0.788c-0.961-0.053-1.821-0.109-2.781,0.07
		c-0.948,0.179-2.275,0.326-3.038,0.988c-0.687,0.596-0.842,1.508-0.927,2.373c-0.115,1.182-0.203,4.117-1.898,4.276
		c-0.365,0.036-0.611-0.132-0.784-0.402c-1.032-0.086-0.987-2.001-0.97-2.703c0.021-0.855,0.255-1.604,0.363-2.447
		c0.007-0.063,0.104-0.629,0.1-1.052c-0.111,0-0.222-0.017-0.339-0.07c-0.154-0.069-0.337-0.194-0.458-0.35
		c-0.052-0.011-0.105-0.025-0.16-0.05c-0.247-0.11-0.57-0.364-0.591-0.666c-0.043-0.612-0.411-0.858-0.894-1.162
		c-0.15-0.095-0.401-0.306-0.685-0.516c-0.399-0.206-0.771-0.259-0.937,0.137c-0.191,0.458-0.469,1.253-1.127,1.149
		c-0.361-0.057-0.611-0.22-0.809-0.446c-0.57-0.169-0.827-0.644-1.092-1.196c-0.15-0.31-0.289-0.589-0.493-0.811
		c-0.465-0.162-0.941-0.281-1.432-0.334c-0.957-0.105-1.979-0.133-2.903,0.179c-0.01,0.003-0.019,0.006-0.03,0.008
		c-0.007,0.003-0.014,0.004-0.022,0.008c-0.109,0.038-0.212,0.034-0.303,0.002c-0.694,0.033-0.682,0.842-1.079,1.305
		c-0.389,0.453-0.83,0.643-1.328,0.952c-1.898,1.174-2.776,5.876-0.945,7.559c0.019,0.008,0.036,0.02,0.055,0.026
		c0.784,0.315,1.86,0.855,2.738,0.639c0.186-0.105,0.376-0.202,0.57-0.285c0.036-0.03,0.074-0.059,0.11-0.095
		c0.683-0.676,1.092-0.815,2.05-0.579c0.532,0.13,1.507,0.301,1.98,0.791c0.44,0.19,0.81,0.467,0.881,0.898
		c0.176,1.084-0.863,1.607-1.592,2.175c-0.547,0.425-0.956,0.985-1.458,1.457c-0.481,0.45-1.072,0.72-1.561,1.139
		c0.208,0.068,0.418,0.134,0.622,0.212c0.502,0.189,0.996,0.455,1.446,0.746c0.103,0.066,0.199,0.133,0.295,0.202
		c0.11,0.064,0.218,0.131,0.324,0.198c0.936,0.603,1.668,1.332,1.994,2.418c0.015,0.051,0.019,0.095,0.019,0.139
		c0.162,0.523,0.021,1.007-0.447,1.362c-0.769,0.583-1.436,0.933-1.762,1.929c-0.294,0.899-0.224,2.123,0.244,2.968
		c0.045,0.082,0.094,0.149,0.145,0.213c0.464,0.125,1.005,0.045,1.525,0.262c0.249,0.103,0.445,0.238,0.609,0.396
		c0.003,0,0.006,0.002,0.008,0.004c1.177,0.483,1.22,1.682,1.908,2.584c0.006,0.008,0.012,0.012,0.019,0.02
		c0.865,0.1,1.771-1.438,2.704-1.48c0.85-0.039,1.653,0.225,2.505,0.088c0.58-0.095,1.254-0.242,1.836-0.082
		c0.279,0.076,0.508,0.225,0.672,0.418c0.566,0.181,0.916,0.662,0.877,1.22c0.287,0.071,0.5,0.221,0.69,0.422
		c0.569,0.174,0.851,0.67,1.259,1.272c0.604,0.892,1.229,1.205,1.957,1.961c0.125,0.131,0.232,0.275,0.348,0.405
		c0.042,0.009,0.084,0.019,0.13,0.019c0.558,0.031,0.957-0.092,1.431,0.035c0.141-0.043,0.301-0.013,0.418,0.148
		c0.016,0.021,0.029,0.042,0.044,0.063c0.046,0.041,0.077,0.088,0.095,0.138c0.012,0.016,0.021,0.03,0.03,0.047
		c0.011,0.001,0.022,0.002,0.031,0.006c0.142-0.045,0.299-0.014,0.419,0.147c0.016,0.021,0.027,0.043,0.044,0.063
		c0.044,0.041,0.077,0.09,0.095,0.137c0.889,1.271,1.477,2.711,2.336,4c0.59,0.879,0.606,1.895,1.082,2.804
		c0.127,0.245,0.301,0.448,0.502,0.618c0.825,0.422,1.854,0.625,2.586,1.105c0.091,0.061,0.168,0.123,0.238,0.188
		c0.133,0.065,0.262,0.134,0.381,0.213c0.811,0.531,0.756,1.256,1.016,2.117c0.168,0.554,0.35,1.08,0.396,1.66
		c0.062,0.775-0.069,1.56-0.032,2.34c0.029,0.64,0.049,1.275,0.535,1.709c0.26,0.143,0.527,0.293,0.746,0.472
		c0.326,0.181,0.651,0.373,0.858,0.634c0.308,0.389,0.423,1.069,0.731,1.432c0.5,0.184,1.054,0.191,1.512,0.514
		c0.093,0.066,0.173,0.136,0.248,0.211c0.129,0.05,0.253,0.107,0.369,0.189c1.01,0.709,0.941,2.059,1.991,2.709
		c0.229,0.143,0.237,0.379,0.134,0.558c0.02,0.073,0.022,0.155-0.004,0.247c-0.445,1.531-1.969,3.095-3.444,3.683
		c-2.329,0.927-4.319,2.625-6.377,4.022c-1.031,0.701-2.091,1.297-3.189,1.881c-0.829,0.441-1.647,0.945-2.55,1.224
		c-2.199,0.681-4.564,0.024-6.799,0.644c-1.191,0.33-2.314,0.865-3.51,1.17c-1.076,0.274-2.174,0.479-3.256,0.74
		c-0.923,0.222-2.068,0.479-3.009,0.196c-0.667-0.2-1.361-0.618-2.065-0.325c-0.379,0.158-0.761,0.381-1.166,0.461
		c-1.01,0.202-2.041-0.026-3.02-0.285c-0.552-0.146-1.087-0.213-1.657-0.2c-0.404,0.01-0.892,0.11-1.254-0.13
		c-0.218-0.146-0.966,0.287-1.286,0.229c-0.453-0.082-1.257-0.52-1.655-0.254c-0.783,0.52-1.563,0.254-2.391-0.041
		c-0.132-0.048-0.21-0.135-0.251-0.236c-0.638-0.115-1.257-0.395-1.856-0.639c-0.17-0.07-0.298-0.178-0.39-0.307
		c-0.076-0.031-0.153-0.063-0.227-0.094c-0.176-0.071-0.308-0.184-0.4-0.315c-0.059-0.025-0.117-0.052-0.176-0.076
		c-0.375-0.165-0.655-0.515-0.51-0.94c0.295-0.86,1.339-0.754,1.843-1.383c0.476-0.595,0.974-0.979,1.704-1.227
		c1.152-0.391,1.972-0.95,2.881-1.758c0.77-0.684,1.53-1.385,2.252-2.119c0.685-0.697,1.433-1.398,1.889-2.278
		c0.405-0.782,0.911-2.171,0.44-3.03c-0.514-0.938-1.459-1.621-2.067-2.517c-0.427-0.63-0.879-1.364-0.916-2.147
		c-0.042-0.871,0.187-1.729,0.166-2.607c-0.023-0.971-0.087-1.939-0.155-2.908c-0.336-0.928-0.57-1.895-0.701-2.857
		c-0.227-0.629-0.424-1.262-0.419-1.932c0.006-0.554,0.15-1.158,0.591-1.538c0.359-0.31,1.179-0.292,1.208-0.778
		c0.005-0.078,0.022-0.144,0.053-0.199c0.005-0.027-0.001-0.055,0.008-0.083c0.609-1.708,1.641-3.173,3.348-3.908
		c0.423-0.183,0.809-0.365,1.266-0.44c0.418-0.069,0.845-0.058,1.23-0.252c1.023-0.517,0.385-1.859,0.907-2.801
		c0.007-0.009-1.202-0.017-1.202-0.017v-0.04c0-0.457,1.465-1.758,1.163-2.393c-0.35,0.029,0.174,0.409-0.295,0.502
		c-0.58,0.114-0.684-0.082-0.929-0.39c-0.813-0.151-0.768-1.222-1.61-1.765c-0.687-0.441-1.027-0.913-1.093-1.75
		c-0.052-0.662-0.244-0.954-0.746-1.385c-0.19-0.162-0.373-0.476-0.404-0.732c-0.118-0.973-0.004-1.916-0.231-2.891
		c-0.191-0.814-0.405-1.613-0.521-2.438c-0.185-0.262-0.288-0.532-0.325-0.795c-0.557-0.671-1.265-1.218-1.71-1.978
		c-0.484-0.831-0.713-1.778-1.193-2.609c-0.094-0.161-0.2-0.296-0.313-0.421c-0.191-0.093-0.356-0.202-0.487-0.333
		c-0.038-0.016-0.069-0.035-0.105-0.053c-0.4-0.164-0.826-0.3-1.249-0.487c-0.269-0.119-0.511-0.274-0.729-0.456
		c-0.734-0.359-1.27-0.986-1.613-1.726c-0.41-0.884-0.826-1.702-1.335-2.534c-0.496-0.813-0.805-1.772-1.125-2.669
		c-0.257-0.72-0.458-1.552-0.265-2.313c0.258-1.032,0.907-1.928,1.16-2.97c0.29-1.193,0.131-2.41,0.232-3.624
		c0.043-0.533,0.09-1.076,0.153-1.617c-0.025,0.057-0.047,0.11-0.077,0.167c-0.547,1.058-0.509,2.094-0.822,3.202
		c-0.046,0.168-0.166,0.253-0.291,0.282c-0.007,0.016-0.03,0.028-0.038,0.046c-0.196,0.454-0.891,0.285-0.906-0.117
		c-0.29,0.026-0.564-0.211-0.416-0.554c0.388-0.898-1.35-1.439-1.188-2.318c0.082-0.443-1.737-0.834-0.377-1.208v-0.005
		c-1.36-0.218,0.693-0.464,0.792-0.755c0.031-0.09,0.411-0.193,0.442-0.281c-0.026-0.161,0.211-0.327,0.196-0.507
		c-0.069-0.89,0.823-0.852,1.165-1.456c0.506-0.893,0.576-2.052,1.005-3.003c0.207-0.459,0.506-0.985,0.838-1.367
		c0.107-0.125,0.408-0.358,0.577-0.597c-0.044-0.233-0.067-0.467-0.086-0.701c-0.288-0.415-0.265-0.943-0.127-1.437
		c0.418-1.476,1.451-2.978,2.527-4.059c1.349-1.362,3.051-2.481,4.845-3.154c0.917-0.345,1.948-0.666,2.699-1.323
		c0.751-0.658,1.044-1.627,1.722-2.345c1.018-1.077,2.189-1.723,3.476-2.389c0.125-0.065,1.351-0.702,1.252-0.863
		c-0.003-0.006-0.009-0.009-0.011-0.014c-0.657-0.185-1.584-0.063-2.056-0.004c-0.296,0.036-0.479-0.185-0.509-0.414
		c-0.038,0.004-0.076,0.01-0.11,0.014c-0.537,0.065-0.721-0.722-0.238-0.849c0.08-0.102,0.203-0.165,0.35-0.151
		c2.224-0.044,4.441-0.207,6.661-0.337c1.883-0.111,4.096-0.403,5.873,0.409c0.296,0.135,0.557,0.331,0.842,0.484
		c0.483,0.26,1.012,0.25,1.521,0.407c0.393,0.12,0.695,0.3,0.956,0.529c0.539,0.245,0.896,0.63,1.25,1.116
		c-0.009-0.056-0.023-0.112-0.024-0.168c-0.018-0.489,0.186-0.981,0.646-1.238c1.201-0.67,3.828,0.51,5.063,0.779
		c1.057,0.228,2.094,0.481,3.12,0.764c-6.472-2.715-13.578-4.218-21.036-4.218c-30.051,0-54.413,24.362-54.413,54.414
		c0,30.052,24.362,54.413,54.413,54.413c20.969,0,39.154-11.866,48.24-29.243C182.964,111.461,183.051,110.977,183.099,110.49
		 M138.521,85.91c-0.352-0.076-0.632-0.29-0.797-0.609c-0.099-0.194-0.133-0.383-0.328-0.459c-0.529-0.203-0.246-1.038,0.285-0.834
		c0.333,0.129,0.574,0.353,0.727,0.676c0.117,0.249,0.119,0.332,0.397,0.392c0.235,0.051,0.345,0.353,0.274,0.559
		C138.996,85.882,138.755,85.959,138.521,85.91 M138.328,82.428c-0.171-1.07-1.119-2.017-1.785-2.86
		c-0.059-0.073-0.118-0.149-0.18-0.226c-0.045-0.049-0.088-0.099-0.125-0.154c-0.641-0.779-1.459-1.595-2.514-1.436
		c-0.173,0.025-0.31-0.04-0.399-0.143c-0.261-0.065-0.486-0.378-0.311-0.688c1.179-2.087,3.821,0.359,4.882,1.322
		c0.869,0.792,1.824,1.147,2.183,2.355c0.407,1.376,1.891,2.161,2.164,3.588c0.052,0.268-0.171,0.558-0.458,0.527
		C140.556,84.577,138.55,83.827,138.328,82.428 M146.984,89.656c-0.48-0.055-0.827-0.219-1.231-0.477
		c-0.122-0.022-0.249-0.08-0.373-0.181c-0.012-0.011-0.026-0.022-0.039-0.034c-0.347-0.136-0.672-0.141-1.099-0.123
		c-0.696,0.026-0.854-0.213-1.182-0.748c-0.328-0.541-1.277-0.406-1.769-0.803c-0.446-0.361-0.537-0.738-0.413-1.288
		c0.059-0.259,0.462-0.402,0.665-0.222c0.356,0.316,1.519,0.473,1.313-0.296c-0.09-0.33,0.188-0.522,0.455-0.505
		c0.088-0.009,0.185,0.009,0.28,0.073c0.636,0.423,1.386,0.59,1.998,1.055c0.287,0.221,0.526,0.534,0.74,0.823
		c0.497,0.67,1.088,1.447,1.12,2.312C147.46,89.475,147.206,89.682,146.984,89.656 M149.532,91.102
		c-0.378-0.084-0.69-0.25-0.898-0.504c-0.019-0.004-0.039-0.004-0.058-0.008c-0.432-0.094-0.629-0.49-0.561-0.906
		c0.069-0.408,0.563-0.488,0.781-0.279c0.196,0.021,0.389,0.152,0.425,0.385c0.001,0.002,0.003,0.002,0.003,0.002
		c0.463,0.084,0.76,0.354,0.881,0.807C150.203,90.954,149.83,91.169,149.532,91.102"/>
	<path fill="none" stroke="#D0D1D2" stroke-width="1.365" stroke-miterlimit="10" d="M182.877,110.578
		c0.262-2.664,1.604-4.915,2.182-7.508c0.313-1.401,0.254-2.676,0.772-4.069c0.519-1.389,1.082-2.75,1.652-4.118
		c0.387-0.925,0.802-1.879,1.112-2.85c0.164-1.73,0.257-3.484,0.257-5.259c0-11.085-3.313-21.391-8.985-30.003
		c-0.068-0.02-0.143-0.026-0.202-0.091c-0.087-0.094-0.172-0.19-0.258-0.287c-0.041-0.022-0.079-0.052-0.112-0.088
		c-0.175-0.201-0.34-0.41-0.504-0.62c-0.23-0.277-0.457-0.558-0.678-0.843c-0.088-0.115-0.111-0.238-0.092-0.35
		c-0.034-0.009-0.069-0.02-0.104-0.027c-0.358-0.083-0.342-0.447-0.151-0.669c-0.443-0.584-0.893-1.164-1.358-1.73
		c-0.05,0.032-0.084,0.086-0.144,0.094c-0.28,0.138-0.732,0.406-1.09,0.687c-0.025,0.399-0.222,0.78-0.509,1.073
		c0.063,0.656,0.188,1.288-0.231,1.878c-0.139,0.194-0.383,0.232-0.575,0.128c-0.183,0.119-0.429,0.1-0.589-0.072
		c-0.241-0.263-0.676-0.377-0.953-0.637c-0.406-0.382-0.758-0.809-1.127-1.226c-0.362-0.409-0.729-0.809-0.989-1.294
		c-0.304-0.565-0.496-1.205-0.825-1.752c-0.718-1.197-0.99-2.762-1.795-3.857c-0.87-1.184-1.54-2.555-2.476-3.686l-4.237-2.816
		c-0.236,0.182-0.166,0.446,0.305,1.047c0.202,0.259,0.479,0.497,0.78,0.711c0.144,0.085,0.284,0.166,0.417,0.24
		c0.37,0.208,0.736,0.434,1.091,0.678c1.218,0.738,2.354,1.673,3.085,2.913c0.527,0.899,0.982,2.762-0.357,3.276
		c-0.747,0.287-1.514,0.12-2.239-0.172c0.053,0.097,0.103,0.194,0.158,0.291c0.264,0.462-0.394,0.82-0.732,0.483
		c-0.091-0.091-0.18-0.183-0.269-0.276c-0.124,0.008-0.251-0.024-0.352-0.125c-1.551-1.543-2.588-3.192-4.294-4.405
		c-0.254-0.15-0.519-0.292-0.805-0.422c-0.065,0.264-0.327,0.646-0.649,0.499c-0.658-0.303-1.475-0.547-2.051-1.026
		c-0.304-0.157-0.587-0.34-0.814-0.576c-0.09-0.094-0.131-0.209-0.146-0.333c-1.286,0.007-2.571-0.207-3.862-0.023
		c-0.319,0.046-0.998,0.069-0.744,0.664c0.082,0.193,0.168,0.382,0.258,0.57c0.31,0.647,0.963,0.818,1.439,1.321
		c1.045,1.102,1.949,2.15,2.033,3.709c0.021,0.417,0.043,0.826,0.155,1.232c0.01,0.032,0.024,0.068,0.039,0.106
		c0.03-0.053,0.058-0.126,0.077-0.23c0.088-0.485,0.25-0.774,0.703-0.973c0.672-0.29,1.332,0.619,1.662-0.468
		c0.163-0.541-0.143-1.098,0.289-1.561c0.598-0.644,0.666-1.967,1.775-1.869c0.217,0.019,0.484,0.198,0.76,0.434
		c0.59,0.2,1.438,1.262,1.891,1.622c0.813,0.646,1.645,1.214,1.789,2.331c0.012,0.098,0.032,0.179,0.056,0.25
		c0.31-0.024,0.683-0.169,1.028-0.21c0.228-0.028,0.486,0.093,0.522,0.345c0.004,0.023,0.011,0.047,0.015,0.07
		c0.027-0.005,0.057-0.011,0.086-0.014c0.226-0.025,0.485,0.093,0.521,0.346c0.185,1.346,1.131,2.706,1.771,3.889
		c0.658,1.22,1.957,1.926,2.601,3.163c0.291,0.562,0.606,1.246,0.526,1.9c-0.035,0.3-0.107,0.556-0.211,0.842
		c-0.218,0.591-0.002,0.869,0.426,1.219c0.985,0.811,1.166,1.865,1.201,3.096c0.004,0.18-0.174,0.388-0.354,0.405
		c-0.751,0.069-1.438-0.31-2.077-0.774c-0.659-0.367-1.266-0.923-1.831-1.329c-0.139-0.087-0.28-0.177-0.414-0.274
		c-0.714-0.441-1.627-0.953-1.274-1.932c0.145-0.395,0.391-0.721,0.644-1.053c0.036-0.046,0.115-0.132,0.188-0.224
		c-0.541-0.044-0.951-0.218-1.524-0.523c-0.876-0.465-1.784-0.841-2.724-1.148c-0.055-0.018-0.109-0.031-0.166-0.043
		c0.105,0.062,0.203,0.133,0.291,0.226c0.014,0.015,0.024,0.031,0.039,0.046c0.217,0.072,0.416,0.18,0.58,0.355
		c0.658,0.709-0.025,1.257,0.254,1.997c0.052,0.138,0.123,0.252,0.203,0.355c0.272,0.113,0.543,0.233,0.811,0.359
		c0.138,0.064,0.302,0.183,0.465,0.331c0.051,0.024,0.105,0.046,0.157,0.07c0.669,0.314,1.944,1.853,0.667,2.282
		c-0.686,0.229-1.594,0.147-2.303,0.108c-0.825-0.046-1.599-0.186-2.364-0.506c-0.114-0.049-0.226-0.154-0.277-0.278
		c-0.114-0.041-0.229-0.077-0.344-0.124c-0.198-0.082-0.386-0.335-0.274-0.56c0.012-0.028,0.024-0.051,0.038-0.077
		c-0.219,0.033-0.436,0.07-0.638,0.089c-0.411,0.04-0.823,0.037-1.23,0.108c-0.496,0.086-1.076,0.132-0.604,0.7
		c0.173,0.21,0.13,0.575-0.14,0.688c-0.611,0.254-1.176,0.064-1.805-0.024c-0.775-0.111-1.621,0.122-2.357,0.356
		c-0.517,0.166-0.99,0.446-1.401,0.802c-0.278,0.641-0.672,1.237-1.147,1.703c-0.093,0.255-0.182,0.512-0.301,0.75
		c-0.336,0.671-0.767,0.832-1.492,0.791c-0.967-0.053-1.83-0.109-2.793,0.071c-0.951,0.179-2.283,0.326-3.05,0.991
		c-0.688,0.598-0.845,1.513-0.929,2.382c-0.116,1.186-0.205,4.132-1.907,4.292c-0.364,0.036-0.614-0.132-0.786-0.404
		c-1.035-0.086-0.99-2.008-0.974-2.713c0.021-0.858,0.256-1.61,0.365-2.456c0.007-0.062,0.104-0.631,0.1-1.056
		c-0.112,0-0.223-0.016-0.34-0.07c-0.155-0.069-0.339-0.194-0.46-0.352c-0.053-0.01-0.105-0.024-0.16-0.049
		c-0.249-0.111-0.572-0.366-0.594-0.669c-0.042-0.614-0.412-0.861-0.897-1.166c-0.151-0.096-0.403-0.307-0.687-0.518
		c-0.401-0.207-0.773-0.26-0.939,0.137c-0.193,0.461-0.472,1.258-1.132,1.154c-0.362-0.057-0.613-0.221-0.811-0.448
		c-0.573-0.169-0.831-0.647-1.097-1.2c-0.15-0.312-0.289-0.592-0.494-0.814c-0.467-0.164-0.945-0.282-1.438-0.336
		c-0.96-0.105-1.985-0.134-2.914,0.18c-0.009,0.003-0.019,0.006-0.03,0.008c-0.007,0.003-0.013,0.004-0.021,0.008
		c-0.109,0.038-0.213,0.034-0.304,0.002c-0.696,0.033-0.684,0.845-1.083,1.31c-0.39,0.455-0.833,0.646-1.333,0.955
		c-1.904,1.179-2.786,5.898-0.949,7.588c0.02,0.008,0.037,0.019,0.056,0.026c0.787,0.315,1.867,0.857,2.748,0.641
		c0.187-0.106,0.378-0.203,0.572-0.286c0.037-0.03,0.075-0.059,0.11-0.096c0.686-0.678,1.097-0.818,2.058-0.581
		c0.534,0.131,1.513,0.303,1.988,0.795c0.441,0.19,0.813,0.468,0.884,0.9c0.177,1.089-0.866,1.613-1.598,2.184
		c-0.549,0.426-0.96,0.989-1.464,1.462c-0.482,0.452-1.076,0.723-1.566,1.143c0.209,0.068,0.419,0.135,0.624,0.213
		c0.504,0.19,1,0.457,1.452,0.749c0.102,0.066,0.199,0.133,0.296,0.202c0.11,0.065,0.218,0.132,0.325,0.2
		c0.939,0.605,1.674,1.337,2.002,2.427c0.015,0.05,0.019,0.095,0.019,0.139c0.162,0.525,0.02,1.011-0.45,1.367
		c-0.77,0.585-1.44,0.937-1.768,1.937c-0.295,0.902-0.225,2.131,0.245,2.979c0.045,0.083,0.094,0.15,0.144,0.213
		c0.466,0.127,1.009,0.047,1.531,0.264c0.25,0.103,0.447,0.239,0.612,0.398c0.002,0,0.005,0.001,0.008,0.003
		c1.18,0.485,1.223,1.688,1.914,2.595c0.008,0.008,0.013,0.012,0.02,0.018c0.869,0.101,1.777-1.442,2.715-1.484
		c0.852-0.039,1.659,0.225,2.514,0.087c0.582-0.094,1.258-0.243,1.844-0.082c0.279,0.077,0.509,0.226,0.673,0.419
		c0.569,0.182,0.92,0.665,0.882,1.225c0.287,0.072,0.501,0.223,0.691,0.425c0.572,0.174,0.854,0.672,1.264,1.276
		c0.607,0.896,1.232,1.211,1.964,1.969c0.127,0.131,0.235,0.275,0.349,0.406c0.043,0.01,0.086,0.019,0.131,0.02
		c0.561,0.029,0.961-0.094,1.438,0.035c0.141-0.045,0.3-0.014,0.419,0.148c0.015,0.021,0.029,0.043,0.044,0.063
		c0.046,0.042,0.078,0.089,0.096,0.139c0.011,0.016,0.021,0.031,0.029,0.047c0.012,0.002,0.022,0.002,0.032,0.006
		c0.142-0.045,0.3-0.014,0.42,0.148c0.015,0.02,0.027,0.042,0.044,0.063c0.045,0.041,0.078,0.09,0.096,0.138
		c0.892,1.276,1.481,2.72,2.344,4.014c0.592,0.884,0.609,1.902,1.086,2.813c0.129,0.248,0.302,0.451,0.504,0.623
		c0.829,0.422,1.861,0.627,2.596,1.108c0.091,0.06,0.169,0.123,0.24,0.188c0.133,0.065,0.262,0.134,0.381,0.214
		c0.814,0.532,0.759,1.26,1.02,2.124c0.168,0.556,0.352,1.085,0.398,1.667c0.061,0.778-0.07,1.565-0.033,2.348
		c0.03,0.644,0.049,1.281,0.538,1.716c0.261,0.144,0.528,0.293,0.748,0.473c0.328,0.183,0.654,0.375,0.862,0.638
		c0.308,0.39,0.424,1.073,0.734,1.437c0.5,0.185,1.057,0.192,1.517,0.516c0.093,0.066,0.173,0.137,0.25,0.212
		c0.128,0.049,0.253,0.106,0.37,0.19c1.013,0.711,0.945,2.065,1.998,2.72c0.229,0.142,0.238,0.379,0.133,0.558
		c0.021,0.075,0.023,0.157-0.002,0.248c-0.448,1.538-1.977,3.107-3.458,3.697c-2.337,0.93-4.335,2.635-6.401,4.038
		c-1.035,0.702-2.098,1.301-3.199,1.887c-0.834,0.442-1.654,0.95-2.561,1.228c-2.207,0.684-4.581,0.025-6.825,0.646
		c-1.194,0.332-2.321,0.868-3.522,1.174c-1.079,0.276-2.182,0.482-3.268,0.743c-0.926,0.224-2.076,0.481-3.02,0.198
		c-0.669-0.201-1.366-0.621-2.073-0.327c-0.38,0.159-0.763,0.383-1.17,0.464c-1.013,0.202-2.048-0.027-3.031-0.287
		c-0.555-0.146-1.091-0.215-1.663-0.201c-0.406,0.01-0.896,0.111-1.259-0.131c-0.219-0.146-0.97,0.288-1.291,0.229
		c-0.454-0.081-1.261-0.52-1.661-0.254c-0.785,0.522-1.568,0.254-2.399-0.041c-0.133-0.049-0.212-0.135-0.253-0.236
		c-0.64-0.116-1.262-0.396-1.862-0.643c-0.171-0.069-0.299-0.178-0.392-0.307c-0.077-0.031-0.153-0.064-0.228-0.094
		c-0.176-0.073-0.309-0.186-0.402-0.316c-0.058-0.027-0.117-0.053-0.176-0.076c-0.377-0.166-0.658-0.519-0.512-0.945
		c0.296-0.863,1.344-0.756,1.85-1.387c0.478-0.598,0.978-0.984,1.71-1.232c1.156-0.393,1.98-0.953,2.892-1.764
		c0.773-0.687,1.536-1.391,2.261-2.127c0.687-0.7,1.438-1.403,1.895-2.287c0.407-0.786,0.915-2.178,0.442-3.043
		c-0.516-0.939-1.465-1.627-2.075-2.524c-0.429-0.633-0.882-1.37-0.919-2.155c-0.042-0.875,0.187-1.736,0.167-2.617
		c-0.024-0.975-0.088-1.947-0.156-2.92c-0.337-0.931-0.572-1.9-0.703-2.867c-0.228-0.631-0.426-1.267-0.421-1.938
		c0.006-0.557,0.151-1.164,0.593-1.544c0.36-0.313,1.184-0.294,1.212-0.782c0.006-0.077,0.021-0.144,0.054-0.2
		c0.005-0.026-0.002-0.055,0.008-0.082c0.612-1.715,1.647-3.185,3.36-3.924c0.425-0.182,0.812-0.365,1.271-0.44
		c0.42-0.071,0.848-0.06,1.235-0.255c1.026-0.518,0.386-1.866,0.91-2.811c0.007-0.009-1.207-0.017-1.207-0.017v-0.04
		c0-0.459,1.471-1.764,1.168-2.401c-0.351,0.03,0.175,0.41-0.296,0.505c-0.582,0.113-0.688-0.082-0.933-0.392
		c-0.817-0.153-0.77-1.228-1.615-1.772c-0.69-0.442-1.031-0.916-1.098-1.756c-0.052-0.665-0.245-0.958-0.748-1.39
		c-0.192-0.163-0.375-0.478-0.406-0.735c-0.119-0.976-0.004-1.924-0.232-2.902c-0.191-0.816-0.407-1.618-0.523-2.445
		c-0.186-0.264-0.289-0.534-0.326-0.798c-0.559-0.674-1.27-1.223-1.717-1.985c-0.486-0.834-0.715-1.786-1.197-2.619
		c-0.094-0.162-0.201-0.297-0.314-0.423c-0.191-0.093-0.358-0.202-0.489-0.334c-0.038-0.016-0.07-0.036-0.105-0.054
		c-0.402-0.164-0.829-0.3-1.254-0.489c-0.27-0.118-0.513-0.274-0.731-0.457c-0.738-0.361-1.276-0.99-1.62-1.733
		c-0.411-0.887-0.829-1.708-1.339-2.542c-0.499-0.816-0.809-1.779-1.129-2.679c-0.259-0.724-0.461-1.558-0.267-2.322
		c0.26-1.036,0.911-1.936,1.165-2.981c0.291-1.198,0.131-2.42,0.231-3.638c0.044-0.535,0.09-1.08,0.154-1.623
		c-0.026,0.057-0.047,0.11-0.077,0.168c-0.549,1.062-0.511,2.101-0.825,3.214c-0.047,0.168-0.167,0.254-0.292,0.283
		c-0.007,0.016-0.03,0.028-0.039,0.046c-0.196,0.456-0.894,0.286-0.909-0.118c-0.291,0.026-0.567-0.211-0.418-0.555
		c0.389-0.901-1.354-1.445-1.192-2.327c0.082-0.445-1.743-0.837-0.378-1.213v-0.005c-1.365-0.219,0.695-0.465,0.795-0.758
		c0.031-0.09,0.412-0.193,0.443-0.281c-0.026-0.162,0.212-0.329,0.197-0.509c-0.07-0.893,0.826-0.855,1.169-1.461
		c0.508-0.897,0.579-2.061,1.009-3.015c0.207-0.46,0.508-0.989,0.841-1.372c0.108-0.126,0.41-0.36,0.579-0.6
		c-0.044-0.233-0.067-0.468-0.086-0.703c-0.29-0.416-0.266-0.946-0.127-1.442c0.419-1.482,1.455-2.989,2.535-4.074
		c1.355-1.367,3.063-2.491,4.864-3.167c0.92-0.345,1.955-0.668,2.709-1.327c0.754-0.661,1.047-1.633,1.729-2.354
		c1.021-1.081,2.197-1.73,3.488-2.398c0.126-0.065,1.356-0.704,1.256-0.866c-0.002-0.006-0.008-0.009-0.01-0.014
		c-0.66-0.186-1.59-0.063-2.063-0.004c-0.297,0.036-0.48-0.186-0.51-0.415c-0.038,0.004-0.077,0.009-0.111,0.013
		c-0.539,0.066-0.724-0.724-0.239-0.852c0.081-0.102,0.204-0.165,0.351-0.151c2.233-0.044,4.458-0.208,6.687-0.339
		c1.889-0.111,4.111-0.404,5.895,0.411c0.297,0.135,0.558,0.332,0.845,0.486c0.485,0.261,1.016,0.251,1.526,0.409
		c0.395,0.12,0.698,0.301,0.961,0.53c0.539,0.246,0.898,0.633,1.254,1.12c-0.008-0.056-0.023-0.112-0.024-0.168
		c-0.019-0.491,0.187-0.984,0.647-1.242c1.207-0.673,3.844,0.512,5.084,0.781c1.061,0.229,2.1,0.483,3.129,0.767
		c-6.494-2.725-13.627-4.234-21.112-4.234c-30.163,0-54.617,24.453-54.617,54.617c0,30.163,24.454,54.616,54.617,54.616
		c21.047,0,39.299-11.91,48.419-29.353C182.741,111.553,182.829,111.067,182.877,110.578z M138.133,85.906
		c-0.352-0.076-0.633-0.29-0.798-0.611c-0.1-0.194-0.134-0.384-0.331-0.46c-0.531-0.204-0.246-1.042,0.287-0.837
		c0.334,0.13,0.576,0.354,0.729,0.678c0.116,0.25,0.12,0.334,0.398,0.394c0.236,0.05,0.347,0.354,0.276,0.561
		C138.61,85.879,138.368,85.956,138.133,85.906z M137.939,82.412c-0.172-1.074-1.123-2.025-1.791-2.871
		c-0.059-0.074-0.119-0.149-0.18-0.226c-0.047-0.05-0.09-0.1-0.127-0.155c-0.643-0.782-1.465-1.602-2.522-1.442
		c-0.174,0.026-0.312-0.04-0.402-0.144c-0.26-0.065-0.487-0.379-0.311-0.69c1.184-2.095,3.836,0.36,4.899,1.327
		c0.873,0.795,1.832,1.151,2.191,2.364c0.409,1.381,1.898,2.169,2.172,3.601c0.053,0.27-0.171,0.56-0.46,0.529
		C140.176,84.568,138.162,83.816,137.939,82.412z M146.629,89.667c-0.482-0.054-0.832-0.22-1.236-0.479
		c-0.123-0.021-0.25-0.078-0.375-0.18c-0.012-0.011-0.025-0.023-0.039-0.035c-0.348-0.135-0.674-0.142-1.104-0.123
		c-0.697,0.025-0.855-0.213-1.185-0.752c-0.331-0.543-1.282-0.406-1.775-0.806c-0.448-0.362-0.54-0.741-0.415-1.292
		c0.059-0.26,0.465-0.404,0.667-0.223c0.358,0.318,1.525,0.475,1.318-0.297c-0.089-0.331,0.19-0.524,0.457-0.506
		c0.089-0.01,0.187,0.008,0.282,0.072c0.637,0.425,1.391,0.593,2.005,1.06c0.288,0.221,0.528,0.536,0.743,0.825
		c0.498,0.672,1.093,1.453,1.123,2.32C147.105,89.484,146.85,89.693,146.629,89.667z M149.186,91.118
		c-0.379-0.084-0.692-0.251-0.901-0.506c-0.019-0.004-0.04-0.004-0.06-0.009c-0.433-0.094-0.631-0.491-0.561-0.909
		c0.068-0.409,0.564-0.49,0.784-0.281c0.196,0.022,0.39,0.154,0.426,0.388c0.001,0.002,0.002,0.002,0.002,0.002
		c0.466,0.084,0.763,0.354,0.886,0.81C149.858,90.969,149.484,91.186,149.186,91.118z"/>
</g>
</svg>
