<?xml version="1.0" encoding="utf-8"?>
<!-- Generator: Adobe Illustrator 16.0.3, SVG Export Plug-In . SVG Version: 6.00 Build 0)  -->
<!DOCTYPE svg PUBLIC "-//W3C//DTD SVG 1.1//EN" "http://www.w3.org/Graphics/SVG/1.1/DTD/svg11.dtd">
<svg version="1.1" id="Layer_3" xmlns="http://www.w3.org/2000/svg" xmlns:xlink="http://www.w3.org/1999/xlink" x="0px" y="0px"
	 width="94.943px" height="55.056px" viewBox="0 0 94.943 55.056" enable-background="new 0 0 94.943 55.056" xml:space="preserve">
<g>
	<defs>
		<path id="SVGID_1_" d="M85.218,27.489c0,0.42,0.339,0.759,0.759,0.759s0.759-0.339,0.759-0.759c0-0.419-0.339-0.758-0.759-0.758
			S85.218,27.07,85.218,27.489"/>
	</defs>
	<clipPath id="SVGID_2_">
		<use xlink:href="#SVGID_1_"  overflow="visible"/>
	</clipPath>
	
		<linearGradient id="SVGID_3_" gradientUnits="userSpaceOnUse" x1="-3921.7334" y1="524.9263" x2="-3920.7344" y2="524.9263" gradientTransform="matrix(1.5178 0 0 -1.5178 6037.7471 824.2384)">
		<stop  offset="0" style="stop-color:#DCF2FD"/>
		<stop  offset="0.1184" style="stop-color:#CEEEFC"/>
		<stop  offset="0.3405" style="stop-color:#AAE2F8"/>
		<stop  offset="0.6427" style="stop-color:#70CEF1"/>
		<stop  offset="1" style="stop-color:#23B5E9"/>
	</linearGradient>
	<rect x="85.218" y="26.731" clip-path="url(#SVGID_2_)" fill="url(#SVGID_3_)" width="1.517" height="1.517"/>
</g>
<g>
	<defs>
		<path id="SVGID_4_" d="M39.264,29.098c-0.139-0.031-0.256-0.092-0.335-0.188c-0.006,0-0.013,0-0.021-0.002
			c-0.161-0.035-0.234-0.184-0.207-0.338c0.025-0.153,0.209-0.182,0.289-0.105c0.072,0.01,0.146,0.057,0.158,0.144
			c0.174,0.032,0.285,0.132,0.328,0.301c0.032,0.117-0.069,0.192-0.17,0.192C39.292,29.103,39.278,29.101,39.264,29.098
			 M37.056,26.849c0.236,0.158,0.516,0.219,0.743,0.393c0.106,0.082,0.195,0.199,0.274,0.307c0.186,0.247,0.405,0.538,0.417,0.858
			c0.004,0.086-0.092,0.162-0.174,0.155c-0.179-0.021-0.307-0.083-0.459-0.178c-0.045-0.008-0.09-0.029-0.138-0.067
			c-0.005-0.004-0.009-0.008-0.015-0.014c-0.128-0.05-0.251-0.051-0.408-0.046c-0.258,0.01-0.318-0.078-0.439-0.278
			c-0.123-0.201-0.476-0.151-0.657-0.298c-0.167-0.134-0.2-0.274-0.153-0.479c0.021-0.096,0.17-0.15,0.247-0.082
			c0.132,0.118,0.565,0.176,0.488-0.11c-0.034-0.122,0.069-0.195,0.169-0.187C36.982,26.819,37.02,26.825,37.056,26.849
			 M35.169,27.167c-0.13-0.028-0.235-0.107-0.297-0.226c-0.036-0.072-0.049-0.141-0.122-0.17c-0.196-0.077-0.09-0.387,0.107-0.31
			c0.125,0.047,0.213,0.13,0.27,0.251c0.044,0.091,0.044,0.124,0.148,0.145c0.088,0.019,0.128,0.132,0.101,0.209
			c-0.024,0.074-0.088,0.107-0.157,0.107C35.203,27.173,35.186,27.171,35.169,27.167 M33.237,24.08
			c-0.099-0.023-0.183-0.14-0.115-0.257c0.438-0.776,1.421,0.134,1.813,0.492c0.323,0.295,0.68,0.428,0.813,0.878
			c0.152,0.511,0.703,0.802,0.806,1.333c0.02,0.099-0.064,0.208-0.17,0.197c-0.458-0.052-1.205-0.329-1.288-0.85
			c-0.063-0.399-0.415-0.751-0.662-1.063c-0.022-0.029-0.044-0.056-0.066-0.085c-0.018-0.019-0.033-0.038-0.046-0.057
			c-0.24-0.289-0.544-0.594-0.938-0.535c-0.009,0.002-0.018,0.002-0.026,0.002C33.306,24.135,33.264,24.113,33.237,24.08
			 M13.487,27.489c0,11.175,9.06,20.238,20.237,20.238c7.799,0,14.562-4.412,17.942-10.877c0.032-0.178,0.063-0.359,0.082-0.541
			c0.095-0.986,0.594-1.821,0.808-2.783c0.115-0.52,0.094-0.99,0.286-1.507c0.191-0.513,0.402-1.019,0.612-1.524
			c0.145-0.343,0.297-0.697,0.412-1.058c0.061-0.642,0.096-1.291,0.096-1.948c0-4.106-1.228-7.926-3.329-11.117
			c-0.026-0.007-0.054-0.009-0.077-0.034c-0.031-0.035-0.063-0.071-0.095-0.106c-0.014-0.009-0.028-0.019-0.041-0.034
			c-0.065-0.073-0.126-0.151-0.187-0.23c-0.086-0.101-0.17-0.205-0.252-0.31c-0.032-0.044-0.041-0.088-0.034-0.13
			c-0.011-0.004-0.025-0.008-0.038-0.01c-0.132-0.031-0.126-0.167-0.057-0.249c-0.164-0.216-0.33-0.431-0.502-0.64
			c-0.02,0.012-0.031,0.031-0.055,0.035c-0.103,0.05-0.27,0.149-0.402,0.255c-0.01,0.147-0.082,0.287-0.189,0.396
			c0.023,0.243,0.068,0.477-0.086,0.697c-0.053,0.071-0.143,0.084-0.213,0.046c-0.067,0.044-0.158,0.038-0.219-0.027
			c-0.09-0.097-0.25-0.139-0.352-0.235c-0.152-0.142-0.282-0.301-0.418-0.454c-0.134-0.151-0.27-0.301-0.368-0.479
			c-0.11-0.211-0.184-0.446-0.304-0.649c-0.268-0.445-0.368-1.025-0.667-1.431c-0.321-0.439-0.57-0.946-0.915-1.366l-1.571-1.042
			c-0.088,0.067-0.061,0.165,0.113,0.387c0.075,0.096,0.178,0.184,0.289,0.264c0.052,0.031,0.106,0.062,0.153,0.089
			c0.138,0.076,0.273,0.161,0.406,0.251c0.45,0.273,0.871,0.62,1.142,1.08c0.196,0.333,0.364,1.023-0.132,1.214
			c-0.276,0.106-0.562,0.044-0.829-0.065c0.019,0.036,0.038,0.073,0.057,0.109c0.098,0.171-0.146,0.303-0.271,0.178
			c-0.033-0.034-0.066-0.069-0.1-0.101c-0.046,0.002-0.093-0.01-0.13-0.048c-0.574-0.571-0.959-1.182-1.592-1.632
			c-0.093-0.056-0.191-0.107-0.298-0.157c-0.023,0.1-0.121,0.241-0.242,0.186c-0.243-0.113-0.545-0.203-0.758-0.38
			c-0.113-0.059-0.217-0.126-0.301-0.214c-0.035-0.034-0.05-0.077-0.056-0.123c-0.171,0.002-0.339-0.007-0.51-0.017
			c-0.306-0.017-0.613-0.034-0.921,0.008c-0.119,0.017-0.37,0.027-0.276,0.247c0.031,0.071,0.063,0.142,0.097,0.211
			c0.114,0.239,0.355,0.302,0.533,0.49c0.387,0.408,0.723,0.797,0.753,1.373c0.009,0.155,0.016,0.307,0.059,0.456
			c0.003,0.014,0.007,0.027,0.013,0.04c0.011-0.019,0.023-0.046,0.029-0.086c0.031-0.178,0.094-0.285,0.26-0.36
			c0.092-0.04,0.186-0.017,0.271,0.006c0.145,0.036,0.269,0.075,0.346-0.178c0.061-0.201-0.055-0.408,0.106-0.579
			c0.223-0.239,0.247-0.73,0.657-0.693c0.08,0.008,0.18,0.075,0.282,0.161c0.22,0.074,0.532,0.467,0.701,0.601
			c0.3,0.24,0.608,0.45,0.661,0.864c0.007,0.036,0.013,0.065,0.021,0.092c0.115-0.008,0.253-0.061,0.381-0.077
			c0.085-0.011,0.182,0.035,0.194,0.127c0.002,0.009,0.004,0.017,0.006,0.027c0.009-0.002,0.021-0.004,0.03-0.006
			c0.085-0.01,0.18,0.034,0.193,0.128c0.069,0.5,0.42,1.004,0.657,1.441c0.243,0.453,0.724,0.714,0.963,1.172
			c0.108,0.209,0.225,0.463,0.196,0.705c-0.014,0.111-0.041,0.206-0.079,0.312c-0.08,0.22-0.002,0.322,0.157,0.452
			c0.366,0.301,0.433,0.689,0.443,1.147c0.002,0.065-0.063,0.144-0.129,0.15c-0.277,0.024-0.535-0.115-0.771-0.288
			c-0.243-0.136-0.469-0.341-0.678-0.492c-0.052-0.033-0.104-0.065-0.153-0.102c-0.264-0.162-0.604-0.352-0.473-0.716
			c0.054-0.145,0.146-0.266,0.238-0.389c0.015-0.017,0.043-0.049,0.069-0.084c-0.201-0.015-0.353-0.08-0.565-0.193
			c-0.322-0.173-0.66-0.311-1.009-0.426c-0.019-0.005-0.04-0.011-0.061-0.015c0.04,0.023,0.075,0.048,0.108,0.082
			c0.004,0.006,0.008,0.014,0.014,0.018c0.081,0.026,0.154,0.067,0.217,0.132c0.243,0.262-0.012,0.465,0.092,0.741
			c0.02,0.05,0.046,0.092,0.076,0.13c0.102,0.042,0.201,0.086,0.301,0.132c0.051,0.025,0.111,0.069,0.17,0.125
			c0.021,0.008,0.041,0.015,0.061,0.025c0.246,0.117,0.72,0.687,0.246,0.846c-0.254,0.085-0.59,0.054-0.852,0.039
			c-0.307-0.018-0.594-0.069-0.878-0.186c-0.042-0.019-0.082-0.058-0.103-0.103c-0.043-0.016-0.084-0.029-0.127-0.046
			c-0.072-0.031-0.144-0.125-0.102-0.209c0.004-0.01,0.01-0.019,0.014-0.027c-0.08,0.011-0.162,0.025-0.235,0.033
			c-0.154,0.013-0.306,0.013-0.456,0.04c-0.184,0.03-0.399,0.048-0.225,0.258c0.063,0.079,0.049,0.213-0.052,0.255
			c-0.226,0.094-0.437,0.025-0.668-0.008c-0.288-0.042-0.602,0.044-0.876,0.131c-0.188,0.061-0.365,0.166-0.519,0.298
			c-0.102,0.236-0.249,0.458-0.423,0.631c-0.035,0.093-0.067,0.189-0.113,0.277c-0.123,0.249-0.284,0.309-0.555,0.293
			c-0.355-0.019-0.676-0.04-1.033,0.027c-0.353,0.067-0.846,0.121-1.128,0.368c-0.257,0.22-0.314,0.559-0.345,0.881
			c-0.045,0.441-0.078,1.532-0.707,1.592c-0.137,0.013-0.229-0.05-0.291-0.15c-0.386-0.032-0.368-0.745-0.362-1.005
			c0.008-0.318,0.096-0.598,0.136-0.91c0.002-0.023,0.039-0.234,0.037-0.393c-0.041,0-0.083-0.005-0.127-0.025
			c-0.055-0.026-0.124-0.072-0.17-0.13c-0.021-0.004-0.039-0.009-0.061-0.019c-0.092-0.04-0.21-0.136-0.218-0.247
			c-0.017-0.228-0.153-0.32-0.333-0.433c-0.056-0.034-0.15-0.113-0.255-0.192c-0.149-0.076-0.285-0.095-0.349,0.052
			c-0.07,0.171-0.174,0.466-0.42,0.427c-0.131-0.021-0.226-0.082-0.299-0.166c-0.213-0.063-0.308-0.24-0.408-0.445
			c-0.056-0.116-0.106-0.218-0.182-0.302c-0.172-0.06-0.35-0.104-0.531-0.123c-0.357-0.04-0.736-0.05-1.082,0.065
			c-0.002,0.002-0.006,0.002-0.011,0.004c-0.002,0-0.004,0.002-0.008,0.002c-0.04,0.015-0.078,0.013-0.112,0.002
			c-0.259,0.011-0.254,0.312-0.4,0.484c-0.146,0.169-0.311,0.24-0.496,0.355c-0.705,0.437-1.031,2.185-0.352,2.812
			c0.009,0.002,0.015,0.007,0.021,0.009c0.292,0.117,0.691,0.318,1.017,0.238c0.071-0.041,0.143-0.075,0.214-0.106
			c0.013-0.011,0.028-0.023,0.039-0.036c0.256-0.251,0.408-0.303,0.765-0.215c0.198,0.048,0.56,0.112,0.735,0.294
			c0.166,0.07,0.302,0.174,0.327,0.335c0.066,0.402-0.321,0.597-0.591,0.808c-0.203,0.157-0.357,0.366-0.542,0.542
			c-0.179,0.167-0.399,0.268-0.581,0.423c0.077,0.025,0.155,0.05,0.232,0.079c0.186,0.071,0.369,0.17,0.535,0.278
			c0.039,0.025,0.076,0.049,0.111,0.074c0.041,0.025,0.081,0.05,0.121,0.075c0.348,0.224,0.619,0.494,0.741,0.898
			c0.006,0.019,0.006,0.037,0.006,0.052c0.062,0.195,0.01,0.374-0.165,0.508c-0.285,0.216-0.534,0.346-0.654,0.716
			c-0.111,0.335-0.084,0.792,0.09,1.105c0.018,0.028,0.035,0.056,0.054,0.079c0.172,0.046,0.373,0.018,0.567,0.097
			c0.092,0.039,0.164,0.089,0.226,0.147c0.002,0,0.002,0,0.002,0c0.438,0.181,0.456,0.627,0.711,0.962
			c0.003,0.004,0.005,0.006,0.007,0.008c0.322,0.036,0.659-0.534,1.006-0.552c0.135-0.006,0.269,0.01,0.4,0.025
			c0.174,0.019,0.35,0.039,0.531,0.01c0.216-0.037,0.467-0.09,0.683-0.031c0.104,0.027,0.19,0.083,0.249,0.154
			c0.211,0.067,0.341,0.246,0.328,0.455c0.105,0.024,0.186,0.082,0.256,0.156c0.211,0.064,0.317,0.25,0.468,0.473
			c0.225,0.332,0.458,0.449,0.729,0.729c0.046,0.051,0.086,0.104,0.13,0.152c0.015,0.003,0.031,0.007,0.048,0.007
			c0.078,0.006,0.147,0.002,0.214-0.002c0.109-0.007,0.209-0.013,0.318,0.017c0.052-0.019,0.111-0.007,0.154,0.055
			c0.007,0.008,0.011,0.014,0.017,0.021c0.017,0.019,0.028,0.035,0.036,0.052c0.004,0.006,0.008,0.012,0.012,0.018
			c0.004,0.002,0.007,0.002,0.011,0.002c0.052-0.016,0.111-0.004,0.155,0.056c0.006,0.007,0.01,0.015,0.018,0.022
			c0.016,0.016,0.028,0.033,0.034,0.052c0.33,0.474,0.55,1.008,0.87,1.487c0.219,0.326,0.225,0.705,0.4,1.043
			c0.048,0.093,0.113,0.166,0.188,0.229c0.307,0.158,0.689,0.231,0.961,0.412c0.035,0.021,0.063,0.044,0.09,0.069
			c0.049,0.025,0.097,0.05,0.141,0.078c0.303,0.199,0.281,0.467,0.379,0.787c0.063,0.207,0.13,0.402,0.148,0.619
			c0.021,0.287-0.027,0.58-0.015,0.869c0.013,0.238,0.019,0.475,0.2,0.637c0.097,0.053,0.197,0.108,0.277,0.176
			c0.121,0.066,0.244,0.138,0.319,0.236c0.113,0.143,0.157,0.396,0.272,0.531c0.186,0.066,0.391,0.071,0.561,0.189
			c0.035,0.025,0.065,0.053,0.094,0.08c0.047,0.019,0.095,0.039,0.137,0.069c0.376,0.263,0.351,0.767,0.74,1.009
			c0.086,0.053,0.09,0.141,0.051,0.207c0.008,0.029,0.008,0.059-0.002,0.092c-0.166,0.57-0.731,1.15-1.281,1.369
			c-0.866,0.344-1.605,0.977-2.371,1.498c-0.383,0.26-0.777,0.48-1.186,0.699c-0.309,0.162-0.613,0.35-0.95,0.453
			c-0.419,0.131-0.853,0.131-1.287,0.129c-0.418,0-0.835,0-1.241,0.111c-0.443,0.123-0.859,0.32-1.305,0.434
			c-0.4,0.104-0.809,0.18-1.21,0.275c-0.343,0.084-0.771,0.18-1.121,0.074c-0.247-0.074-0.505-0.23-0.769-0.121
			c-0.14,0.061-0.28,0.143-0.433,0.172c-0.375,0.074-0.758-0.01-1.122-0.107c-0.207-0.053-0.404-0.078-0.617-0.074
			c-0.15,0.004-0.33,0.043-0.467-0.047c-0.044-0.029-0.146,0.006-0.249,0.039c-0.086,0.027-0.174,0.057-0.228,0.047
			c-0.17-0.031-0.467-0.193-0.617-0.096c-0.291,0.193-0.58,0.096-0.889-0.016c-0.05-0.018-0.078-0.051-0.095-0.086
			c-0.237-0.045-0.467-0.148-0.688-0.24c-0.063-0.025-0.111-0.064-0.146-0.113c-0.028-0.012-0.056-0.023-0.085-0.033
			c-0.064-0.027-0.115-0.07-0.148-0.117c-0.021-0.012-0.045-0.021-0.065-0.029c-0.14-0.061-0.243-0.191-0.19-0.35
			c0.111-0.32,0.498-0.281,0.687-0.514c0.178-0.223,0.362-0.365,0.634-0.457c0.43-0.146,0.733-0.354,1.07-0.654
			c0.288-0.254,0.57-0.516,0.838-0.789c0.256-0.258,0.534-0.52,0.702-0.846c0.151-0.291,0.34-0.809,0.165-1.128
			c-0.191-0.348-0.544-0.603-0.771-0.937c-0.159-0.233-0.325-0.508-0.339-0.799c-0.017-0.323,0.069-0.643,0.062-0.969
			c-0.009-0.361-0.032-0.722-0.058-1.082c-0.125-0.345-0.213-0.705-0.261-1.063c-0.084-0.234-0.158-0.471-0.157-0.719
			c0.004-0.205,0.057-0.43,0.221-0.57c0.135-0.117,0.438-0.109,0.45-0.291c0.003-0.029,0.007-0.053,0.02-0.073
			c0.002-0.012,0-0.021,0.002-0.03c0.228-0.637,0.61-1.181,1.247-1.455c0.156-0.066,0.301-0.135,0.471-0.164
			c0.155-0.024,0.314-0.021,0.456-0.094c0.381-0.191,0.327-0.691,0.521-1.041c0.002-0.005-0.262-0.007-0.262-0.007v-0.015
			c0-0.17,0.359-0.653,0.248-0.889c-0.13,0.012-0.027,0.15-0.203,0.186c-0.214,0.044-0.3-0.031-0.39-0.145
			c-0.303-0.057-0.31-0.455-0.623-0.656c-0.255-0.166-0.394-0.34-0.417-0.651c-0.02-0.245-0.096-0.354-0.284-0.515
			c-0.071-0.06-0.14-0.176-0.151-0.272c-0.043-0.362-0.004-0.713-0.088-1.075c-0.07-0.302-0.151-0.599-0.195-0.906
			c-0.069-0.097-0.107-0.199-0.12-0.297c-0.207-0.249-0.472-0.452-0.636-0.735c-0.181-0.309-0.267-0.661-0.445-0.969
			c-0.034-0.062-0.074-0.111-0.116-0.157c-0.071-0.035-0.133-0.077-0.181-0.125c-0.016-0.006-0.026-0.013-0.04-0.019
			c-0.147-0.061-0.306-0.111-0.463-0.182c-0.101-0.044-0.19-0.102-0.272-0.169c-0.271-0.134-0.471-0.367-0.6-0.643
			c-0.151-0.328-0.307-0.632-0.496-0.941c-0.184-0.302-0.299-0.66-0.417-0.994c-0.097-0.268-0.173-0.576-0.101-0.86
			c0.097-0.383,0.338-0.718,0.432-1.105c0.109-0.442,0.05-0.896,0.086-1.346c0.017-0.2,0.035-0.401,0.058-0.602
			c-0.01,0.021-0.018,0.04-0.028,0.062c-0.203,0.394-0.19,0.779-0.307,1.191c-0.018,0.061-0.062,0.094-0.107,0.105
			c-0.002,0.006-0.012,0.01-0.014,0.016c-0.072,0.17-0.332,0.107-0.339-0.043c-0.108,0.01-0.209-0.078-0.153-0.206
			c0.144-0.334-0.317-0.535-0.259-0.862c0.031-0.165-0.462-0.311,0.044-0.449v-0.002c-0.506-0.082,0.073-0.172,0.111-0.281
			c0.012-0.033,0.061-0.071,0.073-0.104c-0.013-0.061,0.03-0.122,0.026-0.189c-0.026-0.331,0.281-0.316,0.409-0.542
			c0.188-0.332,0.204-0.762,0.363-1.117c0.076-0.17,0.181-0.366,0.306-0.507c0.04-0.048,0.147-0.135,0.211-0.223
			c-0.015-0.086-0.026-0.174-0.033-0.26c-0.106-0.155-0.099-0.351-0.047-0.535c0.154-0.549,0.537-1.107,0.938-1.511
			c0.502-0.505,1.136-0.921,1.802-1.172c0.342-0.128,0.725-0.247,1.004-0.492c0.279-0.245,0.39-0.605,0.641-0.872
			c0.379-0.402,0.813-0.641,1.293-0.888c0.047-0.025,0.503-0.261,0.465-0.322c0-0.002-0.002-0.002-0.004-0.004
			c-0.243-0.069-0.588-0.025-0.764-0.002c-0.111,0.013-0.179-0.069-0.19-0.153c-0.013,0-0.028,0.002-0.04,0.004
			c-0.201,0.025-0.268-0.268-0.088-0.316c0.029-0.037,0.074-0.062,0.13-0.056c0.826-0.015,1.651-0.077,2.477-0.126
			c0.701-0.041,1.522-0.15,2.184,0.153c0.11,0.05,0.207,0.122,0.313,0.18c0.178,0.098,0.376,0.094,0.565,0.151
			c0.147,0.044,0.259,0.111,0.356,0.198c0.201,0.09,0.334,0.233,0.465,0.413c-0.004-0.019-0.009-0.04-0.009-0.061
			c-0.008-0.182,0.068-0.366,0.239-0.46c0.448-0.251,1.425,0.19,1.885,0.289c0.393,0.085,0.777,0.179,1.159,0.284
			c-2.405-1.009-5.049-1.569-7.823-1.569C22.547,7.251,13.487,16.313,13.487,27.489"/>
	</defs>
	<clipPath id="SVGID_5_">
		<use xlink:href="#SVGID_4_"  overflow="visible"/>
	</clipPath>
	
		<linearGradient id="SVGID_6_" gradientUnits="userSpaceOnUse" x1="-3770.6826" y1="532.6001" x2="-3769.6826" y2="532.6001" gradientTransform="matrix(40.4755 0 0 -40.4755 152633.75 21584.7617)">
		<stop  offset="0" style="stop-color:#DCF2FD"/>
		<stop  offset="0.1184" style="stop-color:#CEEEFC"/>
		<stop  offset="0.3405" style="stop-color:#AAE2F8"/>
		<stop  offset="0.6427" style="stop-color:#70CEF1"/>
		<stop  offset="1" style="stop-color:#23B5E9"/>
	</linearGradient>
	<rect x="13.486" y="7.251" clip-path="url(#SVGID_5_)" fill="url(#SVGID_6_)" width="40.477" height="40.476"/>
</g>
</svg>
