<?xml version="1.0" encoding="utf-8"?>
<!-- Generator: Adobe Illustrator 16.0.3, SVG Export Plug-In . SVG Version: 6.00 Build 0)  -->
<!DOCTYPE svg PUBLIC "-//W3C//DTD SVG 1.1//EN" "http://www.w3.org/Graphics/SVG/1.1/DTD/svg11.dtd">
<svg version="1.1" id="Layer_2" xmlns="http://www.w3.org/2000/svg" xmlns:xlink="http://www.w3.org/1999/xlink" x="0px" y="0px"
	 width="94.943px" height="55.056px" viewBox="0 0 94.943 55.056" enable-background="new 0 0 94.943 55.056" xml:space="preserve">
<g>
	<defs>
		<path id="SVGID_1_" d="M79.894,27.499c0,2.654,2.151,4.804,4.806,4.804c2.655,0,4.808-2.15,4.808-4.804
			c0-2.655-2.152-4.808-4.808-4.808C82.045,22.691,79.894,24.844,79.894,27.499"/>
	</defs>
	<clipPath id="SVGID_2_">
		<use xlink:href="#SVGID_1_"  overflow="visible"/>
	</clipPath>
	
		<linearGradient id="SVGID_3_" gradientUnits="userSpaceOnUse" x1="-3546.6753" y1="550.3638" x2="-3545.6753" y2="550.3638" gradientTransform="matrix(9.6129 0 0 -9.6129 34173.8359 5318.1172)">
		<stop  offset="0" style="stop-color:#DCF2FD"/>
		<stop  offset="0.1184" style="stop-color:#CEEEFC"/>
		<stop  offset="0.3405" style="stop-color:#AAE2F8"/>
		<stop  offset="0.6427" style="stop-color:#70CEF1"/>
		<stop  offset="1" style="stop-color:#23B5E9"/>
	</linearGradient>
	<rect x="79.894" y="22.691" clip-path="url(#SVGID_2_)" fill="url(#SVGID_3_)" width="9.613" height="9.612"/>
</g>
<g>
	<defs>
		<path id="SVGID_4_" d="M37.987,29.108c-0.14-0.031-0.257-0.094-0.333-0.188c-0.008-0.002-0.017-0.002-0.023-0.002
			c-0.159-0.038-0.234-0.184-0.207-0.337c0.025-0.154,0.209-0.182,0.289-0.106c0.073,0.009,0.146,0.059,0.159,0.145
			c0,0.002,0,0.002,0,0.002c0.172,0.031,0.284,0.13,0.328,0.299c0.032,0.115-0.071,0.191-0.172,0.191
			C38.015,29.112,38.001,29.11,37.987,29.108 M35.779,26.859c0.235,0.156,0.515,0.218,0.743,0.391
			c0.105,0.082,0.195,0.199,0.274,0.306c0.185,0.249,0.406,0.538,0.417,0.86c0.004,0.086-0.092,0.163-0.172,0.153
			c-0.18-0.02-0.309-0.08-0.46-0.177c-0.046-0.01-0.092-0.03-0.138-0.066c-0.005-0.004-0.009-0.01-0.015-0.014
			c-0.128-0.05-0.249-0.052-0.408-0.046c-0.259,0.01-0.318-0.079-0.441-0.277c-0.12-0.201-0.475-0.151-0.657-0.299
			c-0.166-0.135-0.199-0.274-0.153-0.479c0.021-0.097,0.173-0.148,0.247-0.082c0.132,0.117,0.565,0.174,0.489-0.111
			c-0.033-0.123,0.069-0.193,0.168-0.188C35.706,26.828,35.742,26.834,35.779,26.859 M33.892,27.177
			c-0.13-0.028-0.236-0.107-0.297-0.226c-0.036-0.073-0.048-0.145-0.121-0.171c-0.197-0.076-0.092-0.388,0.106-0.311
			c0.124,0.048,0.212,0.13,0.27,0.251c0.044,0.092,0.044,0.122,0.147,0.146c0.088,0.02,0.129,0.131,0.104,0.209
			c-0.027,0.075-0.091,0.106-0.161,0.106C33.924,27.182,33.908,27.18,33.892,27.177 M31.959,24.089
			c-0.097-0.024-0.18-0.14-0.115-0.257c0.439-0.775,1.422,0.135,1.814,0.493c0.326,0.295,0.68,0.427,0.812,0.875
			c0.154,0.513,0.705,0.805,0.807,1.335c0.019,0.1-0.063,0.209-0.171,0.195c-0.458-0.05-1.203-0.327-1.287-0.849
			c-0.063-0.397-0.416-0.751-0.663-1.063c-0.021-0.029-0.044-0.057-0.067-0.084c-0.017-0.021-0.032-0.039-0.046-0.059
			c-0.239-0.291-0.544-0.594-0.934-0.534c-0.01,0.001-0.019,0.002-0.028,0.002C32.029,24.145,31.987,24.122,31.959,24.089
			 M12.21,27.499c0,11.175,9.061,20.238,20.238,20.238c7.797,0,14.562-4.416,17.941-10.877c0.033-0.182,0.065-0.361,0.082-0.541
			c0.098-0.988,0.594-1.822,0.81-2.783c0.115-0.52,0.094-0.99,0.285-1.508c0.193-0.516,0.401-1.02,0.612-1.525
			c0.145-0.342,0.298-0.695,0.412-1.057c0.062-0.641,0.097-1.291,0.097-1.947c0-4.109-1.229-7.926-3.33-11.117
			c-0.027-0.008-0.054-0.012-0.075-0.035c-0.033-0.034-0.065-0.07-0.096-0.106c-0.015-0.008-0.03-0.02-0.042-0.033
			c-0.065-0.074-0.126-0.151-0.188-0.229c-0.084-0.102-0.168-0.206-0.251-0.313c-0.032-0.042-0.04-0.088-0.032-0.128
			c-0.013-0.004-0.027-0.008-0.04-0.012c-0.133-0.03-0.127-0.164-0.056-0.247c-0.165-0.216-0.331-0.432-0.504-0.642
			c-0.017,0.012-0.03,0.032-0.053,0.036c-0.104,0.05-0.27,0.15-0.402,0.253c-0.01,0.147-0.083,0.289-0.19,0.398
			c0.023,0.244,0.069,0.477-0.086,0.695c-0.05,0.071-0.142,0.087-0.213,0.049c-0.067,0.044-0.159,0.035-0.218-0.027
			c-0.088-0.098-0.249-0.14-0.353-0.236c-0.151-0.142-0.281-0.301-0.417-0.454c-0.134-0.152-0.27-0.301-0.366-0.48
			c-0.113-0.208-0.184-0.446-0.306-0.649c-0.267-0.441-0.368-1.022-0.665-1.429c-0.324-0.438-0.571-0.946-0.918-1.365l-1.57-1.044
			c-0.088,0.069-0.061,0.166,0.113,0.39c0.074,0.095,0.178,0.183,0.289,0.264c0.054,0.03,0.105,0.061,0.155,0.088
			c0.136,0.077,0.272,0.161,0.404,0.251c0.45,0.274,0.872,0.62,1.142,1.08c0.195,0.333,0.364,1.022-0.132,1.213
			c-0.276,0.107-0.562,0.046-0.83-0.064c0.019,0.037,0.039,0.073,0.06,0.108c0.097,0.172-0.148,0.304-0.272,0.18
			c-0.035-0.034-0.067-0.068-0.1-0.102c-0.046,0.002-0.094-0.009-0.13-0.048c-0.575-0.571-0.96-1.183-1.592-1.632
			c-0.094-0.056-0.191-0.109-0.299-0.157c-0.023,0.098-0.12,0.24-0.239,0.186c-0.245-0.112-0.548-0.203-0.76-0.379
			c-0.113-0.06-0.217-0.127-0.301-0.215c-0.035-0.034-0.05-0.076-0.054-0.122c-0.17,0.002-0.339-0.008-0.509-0.018
			c-0.307-0.018-0.615-0.036-0.923,0.008c-0.119,0.017-0.37,0.024-0.276,0.245c0.03,0.073,0.063,0.144,0.095,0.213
			c0.115,0.239,0.359,0.303,0.535,0.488c0.387,0.409,0.722,0.797,0.753,1.376c0.007,0.154,0.015,0.306,0.057,0.455
			c0.004,0.014,0.01,0.026,0.014,0.041c0.013-0.021,0.022-0.049,0.03-0.087c0.031-0.179,0.092-0.285,0.261-0.36
			c0.092-0.04,0.185-0.018,0.27,0.006c0.143,0.037,0.268,0.075,0.345-0.178c0.061-0.201-0.052-0.408,0.107-0.578
			c0.222-0.24,0.247-0.73,0.657-0.694c0.08,0.008,0.18,0.073,0.283,0.161c0.219,0.075,0.531,0.467,0.699,0.602
			c0.301,0.239,0.609,0.448,0.663,0.863c0.006,0.037,0.013,0.065,0.021,0.092c0.115-0.009,0.253-0.063,0.381-0.077
			c0.085-0.011,0.18,0.033,0.194,0.128c0.002,0.01,0.004,0.017,0.005,0.024c0.01,0,0.021-0.002,0.031-0.004
			c0.084-0.009,0.18,0.035,0.193,0.129c0.069,0.497,0.42,1.001,0.657,1.44c0.244,0.452,0.724,0.714,0.964,1.172
			c0.107,0.209,0.224,0.462,0.195,0.705c-0.013,0.11-0.04,0.205-0.078,0.31c-0.081,0.221,0,0.324,0.157,0.454
			c0.366,0.299,0.433,0.69,0.444,1.146c0.004,0.066-0.063,0.145-0.13,0.15c-0.278,0.025-0.532-0.114-0.771-0.287
			c-0.243-0.136-0.469-0.343-0.678-0.492c-0.052-0.032-0.104-0.065-0.153-0.102c-0.265-0.163-0.604-0.354-0.472-0.717
			c0.052-0.146,0.144-0.266,0.238-0.39c0.013-0.017,0.042-0.049,0.069-0.083c-0.199-0.016-0.352-0.08-0.565-0.193
			c-0.324-0.172-0.661-0.313-1.009-0.425c-0.02-0.008-0.041-0.013-0.062-0.017c0.04,0.021,0.077,0.048,0.109,0.083
			c0.004,0.005,0.008,0.012,0.014,0.018c0.08,0.026,0.155,0.066,0.216,0.132c0.244,0.263-0.009,0.466,0.094,0.739
			c0.019,0.052,0.044,0.094,0.075,0.133c0.102,0.042,0.201,0.086,0.3,0.132c0.05,0.025,0.112,0.069,0.173,0.122
			c0.019,0.01,0.038,0.018,0.057,0.027c0.247,0.114,0.721,0.686,0.247,0.845c-0.252,0.086-0.589,0.055-0.852,0.04
			c-0.306-0.018-0.594-0.069-0.877-0.188c-0.042-0.017-0.082-0.055-0.102-0.101c-0.044-0.015-0.086-0.029-0.128-0.046
			c-0.073-0.031-0.144-0.125-0.101-0.209c0.003-0.009,0.009-0.02,0.013-0.029c-0.081,0.014-0.161,0.027-0.236,0.035
			c-0.153,0.013-0.304,0.013-0.455,0.038c-0.184,0.033-0.399,0.05-0.225,0.261c0.065,0.078,0.048,0.212-0.051,0.254
			c-0.226,0.094-0.437,0.023-0.669-0.009c-0.287-0.04-0.601,0.046-0.873,0.132C39,19.4,38.824,19.504,38.673,19.636
			c-0.104,0.237-0.249,0.458-0.426,0.632c-0.034,0.095-0.067,0.19-0.111,0.278c-0.124,0.249-0.285,0.308-0.553,0.293
			c-0.358-0.019-0.678-0.04-1.036,0.027c-0.353,0.064-0.845,0.12-1.129,0.365c-0.256,0.223-0.314,0.562-0.344,0.883
			c-0.044,0.44-0.077,1.533-0.707,1.592c-0.136,0.012-0.228-0.05-0.291-0.151c-0.385-0.03-0.368-0.742-0.36-1.006
			c0.005-0.315,0.094-0.596,0.134-0.91c0.002-0.022,0.038-0.232,0.036-0.39c-0.04,0-0.082-0.006-0.124-0.025
			c-0.058-0.026-0.127-0.072-0.171-0.131c-0.019-0.005-0.04-0.009-0.059-0.019c-0.092-0.04-0.213-0.137-0.22-0.247
			c-0.016-0.229-0.154-0.32-0.334-0.434c-0.055-0.035-0.149-0.112-0.254-0.19c-0.148-0.077-0.286-0.098-0.347,0.05
			c-0.073,0.17-0.176,0.467-0.42,0.429c-0.134-0.022-0.228-0.083-0.3-0.167c-0.213-0.063-0.309-0.238-0.406-0.443
			c-0.056-0.117-0.108-0.222-0.184-0.304c-0.173-0.059-0.351-0.103-0.533-0.124c-0.356-0.038-0.735-0.05-1.08,0.067
			c-0.004,0-0.008,0.001-0.011,0.003c-0.002,0-0.004,0-0.008,0.002c-0.04,0.015-0.079,0.015-0.113,0.002
			c-0.259,0.013-0.253,0.313-0.4,0.485c-0.146,0.168-0.309,0.239-0.495,0.354c-0.706,0.438-1.032,2.187-0.352,2.813
			c0.008,0.002,0.013,0.006,0.021,0.01c0.291,0.116,0.691,0.318,1.02,0.237c0.069-0.04,0.14-0.077,0.211-0.107
			c0.013-0.012,0.028-0.021,0.042-0.035c0.253-0.253,0.406-0.302,0.762-0.216c0.197,0.05,0.559,0.113,0.736,0.295
			c0.164,0.071,0.302,0.172,0.327,0.333c0.067,0.404-0.32,0.599-0.592,0.811c-0.203,0.156-0.354,0.366-0.542,0.54
			c-0.178,0.169-0.398,0.269-0.58,0.426c0.077,0.025,0.155,0.049,0.232,0.078c0.185,0.07,0.369,0.169,0.538,0.277
			c0.036,0.023,0.073,0.051,0.109,0.075c0.04,0.025,0.08,0.048,0.121,0.074c0.346,0.224,0.62,0.494,0.741,0.899
			c0.006,0.019,0.008,0.035,0.008,0.051c0.059,0.195,0.007,0.374-0.167,0.506c-0.285,0.218-0.534,0.349-0.655,0.718
			c-0.109,0.335-0.084,0.789,0.09,1.105c0.017,0.029,0.034,0.055,0.054,0.08c0.172,0.045,0.373,0.016,0.567,0.096
			c0.091,0.037,0.164,0.09,0.226,0.146c0.001,0.002,0.003,0.002,0.003,0.002c0.438,0.18,0.454,0.627,0.709,0.963
			c0.004,0.004,0.006,0.004,0.008,0.006c0.322,0.037,0.659-0.535,1.005-0.551c0.134-0.004,0.267,0.01,0.397,0.025
			c0.176,0.02,0.352,0.037,0.536,0.006c0.215-0.033,0.466-0.09,0.682-0.029c0.103,0.027,0.19,0.084,0.249,0.156
			c0.211,0.068,0.341,0.246,0.328,0.453c0.105,0.027,0.185,0.082,0.256,0.156c0.211,0.066,0.316,0.25,0.468,0.473
			c0.224,0.334,0.457,0.449,0.727,0.73c0.048,0.049,0.088,0.104,0.131,0.15c0.015,0.006,0.03,0.008,0.048,0.01
			c0.076,0.002,0.145,0,0.21-0.004c0.111-0.008,0.211-0.016,0.322,0.014c0.052-0.014,0.111-0.004,0.155,0.057
			c0.006,0.006,0.012,0.016,0.015,0.023c0.018,0.014,0.031,0.031,0.037,0.051c0.004,0.006,0.007,0.012,0.011,0.018
			c0.004,0,0.008,0.002,0.012,0.002c0.051-0.016,0.111-0.004,0.155,0.055c0.006,0.008,0.01,0.016,0.017,0.023
			c0.015,0.016,0.029,0.033,0.035,0.053c0.331,0.471,0.549,1.006,0.869,1.484c0.219,0.328,0.224,0.705,0.402,1.045
			c0.048,0.09,0.112,0.164,0.186,0.23c0.309,0.156,0.69,0.23,0.962,0.41c0.034,0.021,0.063,0.045,0.09,0.07
			c0.048,0.023,0.096,0.049,0.142,0.078c0.3,0.197,0.279,0.467,0.377,0.787c0.062,0.205,0.13,0.402,0.147,0.619
			c0.023,0.287-0.026,0.578-0.013,0.869c0.011,0.238,0.019,0.475,0.199,0.635c0.098,0.055,0.197,0.111,0.278,0.176
			c0.121,0.066,0.243,0.141,0.32,0.236c0.115,0.145,0.157,0.398,0.272,0.533c0.186,0.066,0.39,0.072,0.561,0.189
			c0.034,0.025,0.065,0.053,0.094,0.078c0.048,0.02,0.094,0.041,0.136,0.072c0.375,0.262,0.35,0.766,0.741,1.006
			c0.084,0.055,0.088,0.141,0.05,0.207c0.008,0.029,0.008,0.059-0.002,0.092c-0.165,0.572-0.732,1.152-1.281,1.371
			c-0.866,0.344-1.606,0.977-2.372,1.496c-0.383,0.26-0.777,0.482-1.185,0.699c-0.309,0.164-0.613,0.352-0.948,0.455
			c-0.42,0.131-0.854,0.131-1.291,0.129c-0.416,0-0.836,0-1.24,0.111c-0.442,0.121-0.86,0.32-1.304,0.434
			c-0.4,0.104-0.808,0.18-1.21,0.277c-0.343,0.082-0.771,0.178-1.121,0.07c-0.247-0.072-0.506-0.229-0.766-0.119
			c-0.142,0.059-0.284,0.141-0.435,0.172c-0.375,0.074-0.758-0.012-1.122-0.107c-0.207-0.053-0.405-0.078-0.617-0.074
			c-0.15,0.004-0.331,0.041-0.467-0.049c-0.045-0.029-0.146,0.006-0.248,0.039c-0.086,0.029-0.176,0.057-0.229,0.045
			c-0.169-0.027-0.468-0.189-0.617-0.092c-0.291,0.191-0.581,0.092-0.889-0.018c-0.048-0.016-0.078-0.049-0.094-0.088
			c-0.237-0.041-0.467-0.145-0.689-0.236c-0.064-0.027-0.111-0.064-0.146-0.113c-0.029-0.014-0.055-0.025-0.084-0.037
			c-0.065-0.025-0.115-0.066-0.15-0.117c-0.021-0.008-0.042-0.018-0.065-0.025c-0.138-0.063-0.243-0.193-0.189-0.352
			c0.111-0.322,0.498-0.279,0.685-0.514c0.179-0.221,0.362-0.365,0.634-0.457c0.429-0.146,0.734-0.354,1.071-0.652
			c0.287-0.256,0.571-0.516,0.839-0.789c0.255-0.26,0.532-0.52,0.703-0.848c0.149-0.291,0.337-0.807,0.163-1.127
			c-0.192-0.35-0.544-0.604-0.768-0.936c-0.159-0.232-0.328-0.508-0.341-0.799c-0.016-0.322,0.069-0.643,0.061-0.971
			c-0.008-0.361-0.032-0.721-0.057-1.08c-0.125-0.346-0.213-0.705-0.261-1.063c-0.084-0.234-0.157-0.471-0.155-0.719
			c0.002-0.207,0.056-0.432,0.218-0.572c0.134-0.115,0.439-0.107,0.45-0.289c0.002-0.029,0.008-0.055,0.02-0.076
			c0.002-0.008,0-0.02,0.003-0.029c0.226-0.635,0.61-1.18,1.245-1.455c0.157-0.066,0.301-0.133,0.472-0.162
			c0.155-0.027,0.314-0.021,0.456-0.094c0.381-0.191,0.308-0.691,0.501-1.043c0.004-0.004-0.283-0.006-0.283-0.006v-0.014
			c0-0.172,0.381-0.654,0.27-0.891c-0.13,0.01-0.017,0.152-0.194,0.188c-0.214,0.041-0.294-0.031-0.385-0.145
			c-0.302-0.057-0.306-0.455-0.62-0.656c-0.255-0.164-0.391-0.34-0.416-0.652c-0.019-0.246-0.096-0.354-0.283-0.516
			c-0.071-0.058-0.14-0.175-0.153-0.271c-0.045-0.362-0.002-0.712-0.087-1.076c-0.071-0.301-0.151-0.6-0.195-0.906
			c-0.069-0.098-0.107-0.197-0.121-0.295c-0.207-0.249-0.471-0.454-0.636-0.735c-0.18-0.309-0.264-0.661-0.444-0.972
			c-0.034-0.059-0.075-0.108-0.117-0.154c-0.069-0.036-0.132-0.077-0.18-0.125c-0.015-0.006-0.027-0.014-0.038-0.021
			c-0.15-0.059-0.309-0.111-0.466-0.18c-0.099-0.044-0.189-0.102-0.27-0.17c-0.274-0.132-0.473-0.366-0.601-0.643
			c-0.151-0.327-0.307-0.632-0.496-0.941c-0.184-0.304-0.299-0.659-0.418-0.992c-0.096-0.269-0.17-0.577-0.099-0.862
			c0.095-0.381,0.337-0.717,0.431-1.104c0.109-0.442,0.049-0.896,0.086-1.349c0.017-0.196,0.034-0.399,0.057-0.601
			c-0.009,0.021-0.017,0.042-0.028,0.063c-0.204,0.393-0.19,0.777-0.305,1.191c-0.017,0.062-0.063,0.094-0.109,0.104
			c-0.002,0.006-0.012,0.012-0.014,0.018c-0.072,0.17-0.331,0.106-0.337-0.042c-0.109,0.009-0.21-0.079-0.155-0.207
			c0.144-0.333-0.339-0.535-0.278-0.862c0.031-0.165-0.482-0.31,0.023-0.45v-0.002c-0.505-0.081,0.094-0.172,0.131-0.279
			c0.013-0.034,0.071-0.073,0.084-0.105c-0.01-0.059,0.036-0.121,0.031-0.188c-0.025-0.331,0.285-0.318,0.413-0.542
			c0.188-0.333,0.203-0.765,0.362-1.117c0.079-0.17,0.184-0.365,0.307-0.509c0.042-0.046,0.149-0.133,0.212-0.221
			c-0.015-0.088-0.026-0.175-0.032-0.263c-0.107-0.153-0.1-0.35-0.048-0.534c0.155-0.548,0.538-1.106,0.938-1.509
			c0.502-0.506,1.136-0.922,1.803-1.173c0.341-0.128,0.724-0.247,1.003-0.492c0.28-0.245,0.389-0.604,0.64-0.873
			c0.38-0.401,0.816-0.64,1.293-0.889c0.048-0.023,0.504-0.261,0.466-0.32c0-0.002-0.002-0.004-0.004-0.006
			c-0.244-0.067-0.588-0.023-0.765,0c-0.109,0.014-0.178-0.069-0.189-0.155c-0.014,0.002-0.027,0.004-0.04,0.006
			c-0.2,0.025-0.269-0.268-0.089-0.315c0.029-0.038,0.075-0.062,0.131-0.057c0.827-0.017,1.651-0.075,2.477-0.126
			c0.701-0.04,1.524-0.148,2.186,0.153c0.109,0.05,0.207,0.123,0.312,0.18c0.18,0.097,0.377,0.093,0.565,0.152
			c0.148,0.044,0.259,0.111,0.356,0.197c0.201,0.09,0.334,0.233,0.466,0.414c-0.004-0.021-0.01-0.041-0.01-0.063
			c-0.006-0.184,0.069-0.366,0.242-0.461c0.446-0.249,1.423,0.189,1.882,0.289c0.393,0.086,0.778,0.18,1.159,0.285
			c-2.406-1.009-5.049-1.568-7.822-1.568C21.271,7.261,12.21,16.32,12.21,27.499"/>
	</defs>
	<clipPath id="SVGID_5_">
		<use xlink:href="#SVGID_4_"  overflow="visible"/>
	</clipPath>
	
		<linearGradient id="SVGID_6_" gradientUnits="userSpaceOnUse" x1="-3712.9937" y1="537.0474" x2="-3711.9937" y2="537.0474" gradientTransform="matrix(40.4755 0 0 -40.4755 150297.4688 21764.7617)">
		<stop  offset="0" style="stop-color:#DCF2FD"/>
		<stop  offset="0.1184" style="stop-color:#CEEEFC"/>
		<stop  offset="0.3405" style="stop-color:#AAE2F8"/>
		<stop  offset="0.6427" style="stop-color:#70CEF1"/>
		<stop  offset="1" style="stop-color:#23B5E9"/>
	</linearGradient>
	<rect x="12.21" y="7.261" clip-path="url(#SVGID_5_)" fill="url(#SVGID_6_)" width="40.477" height="40.476"/>
</g>
</svg>
