<?xml version="1.0" encoding="utf-8"?>
<!-- Generator: Adobe Illustrator 16.0.3, SVG Export Plug-In . SVG Version: 6.00 Build 0)  -->
<!DOCTYPE svg PUBLIC "-//W3C//DTD SVG 1.1//EN" "http://www.w3.org/Graphics/SVG/1.1/DTD/svg11.dtd">
<svg version="1.1" id="Layer_3" xmlns="http://www.w3.org/2000/svg" xmlns:xlink="http://www.w3.org/1999/xlink" x="0px" y="0px"
	 width="176px" height="143px" viewBox="0 0 176 143" enable-background="new 0 0 176 143" xml:space="preserve">
<g>
	<defs>
		<path id="SVGID_1_" d="M3464.834-358.623l-4.9-2.262l-18.695,12.967l13.947,11.609l21.332-15.604l-5.654-3.167
			c0,0,5.203-6.257,5.957-7.236c0.752-0.979,0.752-1.583,0-1.658c-0.006,0-0.012-0.001-0.018-0.001
			C3475.91-363.975,3464.834-358.623,3464.834-358.623"/>
	</defs>
	<clipPath id="SVGID_2_">
		<use xlink:href="#SVGID_1_"  overflow="visible"/>
	</clipPath>
	
		<linearGradient id="SVGID_3_" gradientUnits="userSpaceOnUse" x1="-2421.3315" y1="1081.7158" x2="-2420.3315" y2="1081.7158" gradientTransform="matrix(135.0883 4.2215 4.2215 -135.0883 325862.5 155994.7344)">
		<stop  offset="0" style="stop-color:#CBE0F4"/>
		<stop  offset="1" style="stop-color:#00ADEE"/>
	</linearGradient>
	<polygon clip-path="url(#SVGID_2_)" fill="url(#SVGID_3_)" points="3441.273,-365.11 3478.436,-363.949 3477.535,-335.175 
		3440.375,-336.336 	"/>
</g>
<g>
	<defs>
		<polygon id="SVGID_4_" points="3336.811,-318.466 3339.893,-303.323 3368.168,-304.53 3361.869,-319.778 		"/>
	</defs>
	<clipPath id="SVGID_5_">
		<use xlink:href="#SVGID_4_"  overflow="visible"/>
	</clipPath>
	
		<linearGradient id="SVGID_6_" gradientUnits="userSpaceOnUse" x1="-2421.3315" y1="1081.7178" x2="-2420.3315" y2="1081.7178" gradientTransform="matrix(135.0883 4.2215 4.2215 -135.0883 325861.125 156036.8594)">
		<stop  offset="0" style="stop-color:#CBE0F4"/>
		<stop  offset="1" style="stop-color:#00ADEE"/>
	</linearGradient>
	<polygon clip-path="url(#SVGID_5_)" fill="url(#SVGID_6_)" points="3336.842,-320.758 3368.682,-319.763 3368.137,-302.344 
		3336.297,-303.339 	"/>
</g>
<g>
	<defs>
		<polygon id="SVGID_7_" points="3365.354,-320.61 3370.313,-304.53 3392.793,-312.683 3396.174,-313.91 3387.465,-328.383 		"/>
	</defs>
	<clipPath id="SVGID_8_">
		<use xlink:href="#SVGID_7_"  overflow="visible"/>
	</clipPath>
	
		<linearGradient id="SVGID_9_" gradientUnits="userSpaceOnUse" x1="-2421.3325" y1="1081.7188" x2="-2420.3303" y2="1081.7188" gradientTransform="matrix(135.0883 4.2215 4.2215 -135.0883 325861.3125 156031.1094)">
		<stop  offset="0" style="stop-color:#CBE0F4"/>
		<stop  offset="1" style="stop-color:#00ADEE"/>
	</linearGradient>
	<polygon clip-path="url(#SVGID_8_)" fill="url(#SVGID_9_)" points="3365.383,-329.345 3396.918,-328.359 3396.145,-303.567 
		3364.609,-304.553 	"/>
</g>
<g>
	<defs>
		<path id="SVGID_10_" d="M3406.092-341.783c-4.422,1.206-2.814,4.557,1.34,3.083c3.451-1.226,3.295-3.376,0.607-3.376
			C3407.49-342.076,3406.84-341.987,3406.092-341.783"/>
	</defs>
	<clipPath id="SVGID_11_">
		<use xlink:href="#SVGID_10_"  overflow="visible"/>
	</clipPath>
	
		<linearGradient id="SVGID_12_" gradientUnits="userSpaceOnUse" x1="-2421.3311" y1="1081.7139" x2="-2420.3311" y2="1081.7139" gradientTransform="matrix(135.0883 4.2215 4.2215 -135.0883 325862.125 156006.4844)">
		<stop  offset="0" style="stop-color:#CBE0F4"/>
		<stop  offset="1" style="stop-color:#00ADEE"/>
	</linearGradient>
	<polygon clip-path="url(#SVGID_11_)" fill="url(#SVGID_12_)" points="3401.68,-342.363 3411.033,-342.071 3410.873,-336.939 
		3401.52,-337.231 	"/>
</g>
<g>
	<defs>
		<path id="SVGID_13_" d="M3416.945-327.042c-5.936,2.962-12.863,3.618-17.018,2.345c-4.154-1.272-7.504-3.953-5.494-7.706
			l-4.959,2.279l9.916,15.544l32.43-10.72l-8.979-9.514C3422.842-334.813,3422.9-330.013,3416.945-327.042"/>
	</defs>
	<clipPath id="SVGID_14_">
		<use xlink:href="#SVGID_13_"  overflow="visible"/>
	</clipPath>
	
		<linearGradient id="SVGID_15_" gradientUnits="userSpaceOnUse" x1="-2421.333" y1="1081.7188" x2="-2420.3315" y2="1081.7188" gradientTransform="matrix(135.0883 4.2215 4.2215 -135.0883 325861.625 156021.8594)">
		<stop  offset="0" style="stop-color:#CBE0F4"/>
		<stop  offset="1" style="stop-color:#00ADEE"/>
	</linearGradient>
	<polygon clip-path="url(#SVGID_14_)" fill="url(#SVGID_15_)" points="3389.516,-336.136 3432.453,-334.794 3431.779,-313.258 
		3388.844,-314.6 	"/>
</g>
<g>
	<defs>
		<path id="SVGID_16_" d="M3390.203-327.473c0,0,6.859,12.891,7.086,12.893s-4.496,1.897-4.496,1.897l11.525,18.279l-4.928-20.177
			l-9.916-15.544L3390.203-327.473z"/>
	</defs>
	<clipPath id="SVGID_17_">
		<use xlink:href="#SVGID_16_"  overflow="visible"/>
	</clipPath>
	
		<linearGradient id="SVGID_18_" gradientUnits="userSpaceOnUse" x1="-2421.3335" y1="1081.7178" x2="-2420.3293" y2="1081.7178" gradientTransform="matrix(135.0883 4.2215 4.2215 -135.0883 325861.25 156034.7344)">
		<stop  offset="0" style="stop-color:#CBE0F4"/>
		<stop  offset="1" style="stop-color:#00ADEE"/>
	</linearGradient>
	<polygon clip-path="url(#SVGID_17_)" fill="url(#SVGID_18_)" points="3389.488,-330.587 3405.434,-330.089 3404.305,-293.939 
		3388.359,-294.438 	"/>
</g>
<g>
	<defs>
		<path id="SVGID_19_" d="M3436.898-304.528c0.004,0.002,0.01,0,0.014-0.002c0.01-0.003,0.012-0.005,0.012-0.005
			C3436.922-304.535,3436.912-304.532,3436.898-304.528 M3399.391-314.58v0.67c-0.133,0.402,5.227,20.638,5.227,20.638
			s31.289-10.939,32.281-11.256c-0.064-0.002-0.164-0.188-0.287-0.513l1.688,0.511l4.07,1.783l0.451-3.015l-7.434-3.66
			c-1.52-6.141-3.566-15.878-3.566-15.878L3399.391-314.58z"/>
	</defs>
	<clipPath id="SVGID_20_">
		<use xlink:href="#SVGID_19_"  overflow="visible"/>
	</clipPath>
	
		<linearGradient id="SVGID_21_" gradientUnits="userSpaceOnUse" x1="-2421.3315" y1="1081.7178" x2="-2420.3315" y2="1081.7178" gradientTransform="matrix(135.0883 4.2215 4.2215 -135.0883 325861.125 156037.1094)">
		<stop  offset="0" style="stop-color:#CBE0F4"/>
		<stop  offset="1" style="stop-color:#00ADEE"/>
	</linearGradient>
	<polygon clip-path="url(#SVGID_20_)" fill="url(#SVGID_21_)" points="3399.301,-326.66 3443.82,-325.269 3442.777,-291.913 
		3398.258,-293.304 	"/>
</g>
<g>
	<defs>
		<polygon id="SVGID_22_" points="3420.357,-340.204 3432.41,-327.473 3432.688,-327.567 3453.979,-334.813 3439.73,-346.694 		"/>
	</defs>
	<clipPath id="SVGID_23_">
		<use xlink:href="#SVGID_22_"  overflow="visible"/>
	</clipPath>
	
		<linearGradient id="SVGID_24_" gradientUnits="userSpaceOnUse" x1="-2421.3311" y1="1081.7178" x2="-2420.3311" y2="1081.7178" gradientTransform="matrix(135.0883 4.2215 4.2215 -135.0883 325862.0625 156008.7344)">
		<stop  offset="0" style="stop-color:#CBE0F4"/>
		<stop  offset="1" style="stop-color:#00ADEE"/>
	</linearGradient>
	<polygon clip-path="url(#SVGID_23_)" fill="url(#SVGID_24_)" points="3420.391,-347.744 3454.578,-346.676 3453.945,-326.423 
		3419.756,-327.491 	"/>
</g>
<g>
	<defs>
		<path id="SVGID_25_" d="M3415.23-338.91c1.879,1.407,4.096,2.629,1.584,2.548c-2.514-0.08-3.545,1.729-2.375,3.236
			c1.168,1.508,0.162,3.387-1.143,4.106c-1.309,0.718,3.213,0.281,6.029-2.68c3.443-3.617,1.031-6.583,1.031-6.583
			s-3.387-1.744-5.705-2.387c-0.605-0.168-1.006-0.243-1.24-0.243C3412.557-340.912,3413.871-339.929,3415.23-338.91"/>
	</defs>
	<clipPath id="SVGID_26_">
		<use xlink:href="#SVGID_25_"  overflow="visible"/>
	</clipPath>
	
		<linearGradient id="SVGID_27_" gradientUnits="userSpaceOnUse" x1="-2421.3315" y1="1081.7178" x2="-2420.3315" y2="1081.7178" gradientTransform="matrix(135.0883 4.2215 4.2215 -135.0883 325861.9375 156011.7344)">
		<stop  offset="0" style="stop-color:#CBE0F4"/>
		<stop  offset="1" style="stop-color:#00ADEE"/>
	</linearGradient>
	<polygon clip-path="url(#SVGID_26_)" fill="url(#SVGID_27_)" points="3412,-341.248 3423.162,-340.899 3422.758,-327.965 
		3411.596,-328.314 	"/>
</g>
<g>
	<defs>
		<path id="SVGID_28_" d="M66.882,120.981c0,0,3.988,3.864,6.315,5.118c1.1,0.592,0.312,1.904,3.493,2.979
			c3.555,1.202,10.918,2.14,13.531,2.14h8.406c0,0,6.57-1.389,11.301-3.659c4.73-2.271,9.113-6.577,9.113-6.577H66.882z"/>
	</defs>
	<clipPath id="SVGID_29_">
		<use xlink:href="#SVGID_28_"  overflow="visible"/>
	</clipPath>
	
		<linearGradient id="SVGID_30_" gradientUnits="userSpaceOnUse" x1="-2409.1191" y1="1089.2227" x2="-2408.1191" y2="1089.2227" gradientTransform="matrix(52.108 1.6284 1.6284 -52.108 123827.375 60805.3906)">
		<stop  offset="0" style="stop-color:#CBE0F4"/>
		<stop  offset="1" style="stop-color:#00ADEE"/>
	</linearGradient>
	<polygon clip-path="url(#SVGID_29_)" fill="url(#SVGID_30_)" points="66.933,119.353 119.36,120.991 118.99,132.847 
		66.562,131.208 	"/>
</g>
<g>
	<defs>
		<path id="SVGID_31_" d="M129.98,80.358c-0.244-0.713-0.504-1.421-0.773-2.178c0.975,0.525,1.648,2.407,1.492,4.319
			C130.461,81.786,130.229,81.069,129.98,80.358 M94.1,53.176c3.729,0.207,7.411,0.968,10.932,2.291
			c3.598,1.354,6.961,3.154,10.224,5.406c-0.453,0.175-0.765,0.297-1.292,0.501c3.348-0.384,6.023,0.495,8.111,2.872
			c1.088,1.24,1.711,2.722,1.854,4.38c0.021,0.255,0.047,0.629-0.1,0.76c-1.053,0.94-0.11,1.667,0.144,2.482
			c0.692-0.665-0.864-1.461,0.228-2.112c2.928,5.136,5.565,10.354,6.537,16.245c0.64,3.871,0.482,7.735-0.317,11.559
			c-0.933,4.45-2.206,8.81-4.034,12.985c-2.111,4.825-5.4,8.701-9.652,11.791c-5.447,3.957-11.283,7.06-17.968,8.327
			c-4.305,0.817-8.591,0.586-12.856-0.33c-1.027-0.221-2.052-0.45-3.141-0.688c0.308-0.327,0.578-0.614,0.989-1.05
			c-3.693,2.095-9.31,0.07-10.592-3.737c-0.043,0.312-0.072,0.526-0.107,0.79c-3.256-1.997-6.111-4.397-8.794-7.257
			c1.407,0.091,2.62,0.02,3.65-1.267c-2.515,1.388-4.461,0.666-6.127-1.114c-1.841-1.965-2.496-4.25-1.583-6.883
			c-0.096-0.018-0.191-0.036-0.287-0.053c-0.237,0.908-0.474,1.818-0.69,2.653c-6.318-9.104-7.889-25.738-0.368-39.01
			c0.151,0.224,0.285,0.418,0.43,0.627c0.031-0.058,0.08-0.106,0.072-0.138c-0.942-3.013,1.838-7.091,4.366-8.432
			c1.489-0.79,2.884-0.805,4.301,0.224c0.027-0.095,0.054-0.19,0.082-0.286c-0.69-0.378-1.382-0.754-2.134-1.166
			c4.512-3.851,9.543-6.89,15.403-8.482c-0.03-0.076-0.061-0.153-0.092-0.229c-0.237,0.017-0.474,0.034-0.711,0.05
			c-0.027-0.086-0.053-0.172-0.08-0.258c0.729-0.275,1.459-0.554,2.189-0.831c0.039,0.064,0.078,0.129,0.119,0.193
			c-0.055,0.113-0.11,0.224-0.168,0.344C86.43,53.471,90.259,52.963,94.1,53.176 M91.105,52.595
			c-0.664,0.089-1.326,0.195-1.992,0.264c-2.123,0.216-4.246,0.432-6.372,0.619c-0.969,0.085-1.789,0.4-2.535,1.062
			c-0.552,0.487-1.213,0.932-1.903,1.17c-3.895,1.341-7.459,3.271-10.66,5.858c-1.384,1.119-2.748,2.197-4.388,3.001
			c-2.277,1.116-3.776,3.146-4.338,5.609c-0.32,1.401-0.856,2.651-1.448,3.922c-1.774,3.804-3.408,7.656-3.822,11.902
			c-0.119,1.219-0.318,2.432-0.479,3.647v5.294c0.13,1.044,0.228,2.093,0.395,3.131c1.201,7.456,4.008,14.15,9.236,19.737
			c3.07,3.279,6.379,6.24,10.26,8.53c0.243,0.145,0.506,0.318,0.658,0.548c1.05,1.594,2.554,2.47,4.391,2.814
			c2.759,0.517,5.532,0.96,8.281,1.525c4.606,0.946,9.187,1.019,13.79-0.038c6.501-1.492,12.203-4.597,17.484-8.554
			c4.318-3.235,7.679-7.267,9.65-12.321c1.092-2.804,2.065-5.667,2.877-8.564c1.402-5.003,2.178-10.091,1.32-15.305
			c-0.133-0.805-0.432-1.65-0.307-2.42c0.316-1.956-0.143-3.722-0.967-5.436c-0.168-0.347-0.528-0.604-0.812-0.892
			c-0.263-0.264-0.623-0.465-0.796-0.775c-1.34-2.402-2.648-4.825-3.957-7.246c-0.107-0.198-0.209-0.425-0.225-0.645
			c-0.334-4.297-2.949-7.192-7.207-8.002c-0.444-0.085-0.898-0.281-1.276-0.532c-4.769-3.174-9.796-5.769-15.461-6.937
			c-1.716-0.354-3.444-0.647-5.165-0.969H91.105z"/>
	</defs>
	<clipPath id="SVGID_32_">
		<use xlink:href="#SVGID_31_"  overflow="visible"/>
	</clipPath>
	
		<linearGradient id="SVGID_33_" gradientUnits="userSpaceOnUse" x1="-2415.5845" y1="1084.6846" x2="-2414.585" y2="1084.6846" gradientTransform="matrix(78.702 0 0 -78.702 190164.5469 85459.2656)">
		<stop  offset="0" style="stop-color:#CBEBFB"/>
		<stop  offset="1" style="stop-color:#00ADEE"/>
	</linearGradient>
	<rect x="51.336" y="52.595" clip-path="url(#SVGID_32_)" fill="url(#SVGID_33_)" width="81.033" height="79.653"/>
</g>
<g>
	<defs>
		<path id="SVGID_34_" d="M61.146,71.78c0.017-2.229,2.485-4.78,4.683-4.842c1.131-0.033,1.929,0.75,1.709,1.91
			c-0.202,1.067-0.497,2.167-1.563,2.818c-0.732,0.45-1.399,1.011-2.132,1.461c-0.283,0.173-0.666,0.23-1.009,0.249
			c-0.098,0.005-0.189,0.008-0.278,0.008C61.49,73.385,61.136,72.948,61.146,71.78 M64.895,65.281
			c-0.769,0.222-1.544,0.589-2.188,1.063c-1.542,1.138-2.795,2.511-2.839,3.974c0.008,2.775,1.162,3.94,3.153,3.807
			c2.573-0.172,5.596-3.372,5.616-5.94c0.014-1.828-1.138-3.053-2.743-3.053C65.578,65.132,65.242,65.181,64.895,65.281"/>
	</defs>
	<clipPath id="SVGID_35_">
		<use xlink:href="#SVGID_34_"  overflow="visible"/>
	</clipPath>
	
		<linearGradient id="SVGID_36_" gradientUnits="userSpaceOnUse" x1="-2308.605" y1="1145.9678" x2="-2307.605" y2="1145.9678" gradientTransform="matrix(8.7696 0 0 -8.7696 20305.4531 10119.4004)">
		<stop  offset="0" style="stop-color:#CBEBFB"/>
		<stop  offset="1" style="stop-color:#00ADEE"/>
	</linearGradient>
	<rect x="59.869" y="65.132" clip-path="url(#SVGID_35_)" fill="url(#SVGID_36_)" width="8.783" height="9.127"/>
</g>
<g>
	<defs>
		<path id="SVGID_37_" d="M113.617,84.363c-2.301-0.508-3.723-2.01-3.812-3.884c-0.083-1.792,0.772-2.517,2.573-2.956
			c0.506-0.122,1.049-0.083,1.57-0.153c0.205-0.026,0.397-0.148,0.73-0.279c0.434,0.285,0.965,0.658,1.516,0.994
			c1.67,1.023,2.42,2.685,1.842,4.115c-0.563,1.395-1.965,2.263-3.512,2.263C114.227,84.463,113.923,84.431,113.617,84.363
			 M110.138,77.16c-1.177,1.805-1.315,3.71-0.229,5.566c1.016,1.739,2.725,2.448,4.672,2.489c2.119,0.044,4.101-1.575,4.404-3.476
			c0.492-3.057-2.361-6.415-5.451-6.42C112.07,75.319,110.934,75.938,110.138,77.16"/>
	</defs>
	<clipPath id="SVGID_38_">
		<use xlink:href="#SVGID_37_"  overflow="visible"/>
	</clipPath>
	
		<linearGradient id="SVGID_39_" gradientUnits="userSpaceOnUse" x1="-2322.0444" y1="1138.2715" x2="-2321.0444" y2="1138.2715" gradientTransform="matrix(9.8716 0 0 -9.8716 23031.4492 11316.8486)">
		<stop  offset="0" style="stop-color:#CBEBFB"/>
		<stop  offset="1" style="stop-color:#00ADEE"/>
	</linearGradient>
	<rect x="108.822" y="75.319" clip-path="url(#SVGID_38_)" fill="url(#SVGID_39_)" width="10.654" height="9.94"/>
</g>
<g>
	<defs>
		<path id="SVGID_40_" d="M119.787,64.239c0.781,0.151,1.045,0.555,0.724,1.355c-0.077,0.195,0.087,0.534,0.222,0.757
			c0.532,0.877,1.196,1.731,0.545,2.813c-0.426,0.706-1.666,0.919-2.914,0.493c-1.41-0.481-2.662-1.203-3.434-2.562
			c-0.352-0.619-0.746-1.25-0.316-1.959c0.455-0.747,1.262-0.78,2.024-0.8c0.376-0.009,0.783,0.026,1.124,0.167
			c0.27,0.111,0.523,0.161,0.771,0.161C118.972,64.665,119.383,64.504,119.787,64.239 M114.686,63.36
			c-0.875,1.007-1.129,2.19-0.654,3.45c0.773,2.051,3.318,3.774,5.508,3.789c2.33,0.014,3.951-1.886,3.283-3.973
			c-0.701-2.185-2.221-3.661-4.435-4.273c-0.394-0.11-0.784-0.167-1.165-0.167C116.277,62.187,115.395,62.543,114.686,63.36"/>
	</defs>
	<clipPath id="SVGID_41_">
		<use xlink:href="#SVGID_40_"  overflow="visible"/>
	</clipPath>
	
		<linearGradient id="SVGID_42_" gradientUnits="userSpaceOnUse" x1="-2313.9634" y1="1142.9043" x2="-2312.9634" y2="1142.9043" gradientTransform="matrix(9.1781 0 0 -9.1781 21351.6152 10556.0996)">
		<stop  offset="0" style="stop-color:#CBEBFB"/>
		<stop  offset="1" style="stop-color:#00ADEE"/>
	</linearGradient>
	<rect x="113.557" y="62.187" clip-path="url(#SVGID_41_)" fill="url(#SVGID_42_)" width="9.934" height="8.427"/>
</g>
<g>
	<defs>
		<path id="SVGID_43_" d="M98.42,56.142c0.043-0.055,0.469,0.149,0.689,0.281c0.336,0.2,0.646,0.44,0.836,0.571
			c-0.045,0.234-0.125,0.388-0.078,0.458c0.227,0.337,0.519,0.632,0.73,0.977c0.512,0.834,0.206,1.432-0.76,1.338
			c-1.826-0.178-3.42-0.924-4.727-2.241c-0.397-0.401-0.217-0.737,0.182-0.885c0.477-0.176,1.005-0.27,1.514-0.284
			c0.161-0.004,0.325,0.029,0.488,0.063c0.154,0.032,0.307,0.064,0.457,0.064C97.984,56.484,98.21,56.408,98.42,56.142
			 M94.775,54.761c-1.143,0.542-1.383,1.776-0.652,2.719c1.328,1.718,3.152,2.591,5.214,3.011c1.28,0.261,2.745-0.383,3.153-1.267
			c0.42-0.906-0.08-2.403-1.137-3.289c-1.285-1.077-2.785-1.582-4.49-1.733C96.162,54.381,95.414,54.458,94.775,54.761"/>
	</defs>
	<clipPath id="SVGID_44_">
		<use xlink:href="#SVGID_43_"  overflow="visible"/>
	</clipPath>
	
		<linearGradient id="SVGID_45_" gradientUnits="userSpaceOnUse" x1="-2310.7856" y1="1144.7129" x2="-2309.7861" y2="1144.7129" gradientTransform="matrix(8.9314 0 0 -8.9314 20732.291 10281.3906)">
		<stop  offset="0" style="stop-color:#CBEBFB"/>
		<stop  offset="1" style="stop-color:#00ADEE"/>
	</linearGradient>
	<rect x="93.392" y="54.201" clip-path="url(#SVGID_44_)" fill="url(#SVGID_45_)" width="9.519" height="6.55"/>
</g>
<g>
	<defs>
		<path id="SVGID_46_" d="M80.379,127.559c-1.31-0.119-2.213-0.133-3.077-0.315c-0.325-0.069-0.574-0.53-0.839-0.827
			c-0.166-0.184-0.329-0.382-0.443-0.601c-0.275-0.528-0.622-1.049-0.755-1.615c-0.165-0.688,0.318-1.104,0.944-1.256
			c1.821-0.444,4.698,0.918,5.538,2.59c0.522,1.041-0.346,2.024-1.358,2.024C80.386,127.559,80.382,127.559,80.379,127.559
			 M75.406,122.577c-0.838,0.403-1.279,1.239-1.145,2.166c0.358,2.489,2.329,4.054,5.142,4.139c0.516-0.101,1.048-0.148,1.542-0.312
			c1.475-0.488,2.154-1.942,1.58-3.291c-0.782-1.834-3.139-3.096-5.255-3.096C76.606,122.184,75.966,122.308,75.406,122.577"/>
	</defs>
	<clipPath id="SVGID_47_">
		<use xlink:href="#SVGID_46_"  overflow="visible"/>
	</clipPath>
	
		<linearGradient id="SVGID_48_" gradientUnits="userSpaceOnUse" x1="-2304.6504" y1="1148.2402" x2="-2303.6504" y2="1148.2402" gradientTransform="matrix(8.4907 0 0 -8.4907 19642.418 9874.9424)">
		<stop  offset="0" style="stop-color:#CBEBFB"/>
		<stop  offset="1" style="stop-color:#00ADEE"/>
	</linearGradient>
	<rect x="74.126" y="122.184" clip-path="url(#SVGID_47_)" fill="url(#SVGID_48_)" width="8.972" height="6.698"/>
</g>
<g>
	<defs>
		<path id="SVGID_49_" d="M75.075,104.88c-0.327-0.801-0.751-1.614-0.832-2.451c-0.147-1.524,1.067-2.461,2.56-2.144
			c1.6,0.341,2.958,2.501,2.571,4.089c-0.327,1.338-1.183,1.876-2.528,1.577c-0.302-0.067-0.594-0.176-0.947-0.283
			c0.048,0.198,0.078,0.321,0.107,0.442c-0.058,0.033-0.117,0.066-0.176,0.1C75.574,105.768,75.267,105.349,75.075,104.88
			 M76.407,99.507c-2.328,0.017-3.392,1.764-3.462,3.538c-0.082,2.113,1.857,4.108,3.885,4.101c1.819-0.006,3.357-1.498,3.365-3.262
			c0.008-2.143-1.914-4.378-3.771-4.377C76.419,99.507,76.413,99.507,76.407,99.507"/>
	</defs>
	<clipPath id="SVGID_50_">
		<use xlink:href="#SVGID_49_"  overflow="visible"/>
	</clipPath>
	
		<linearGradient id="SVGID_51_" gradientUnits="userSpaceOnUse" x1="-2283.3916" y1="1160.4199" x2="-2282.3916" y2="1160.4199" gradientTransform="matrix(7.2511 0 0 -7.2511 16630.0137 8517.6289)">
		<stop  offset="0" style="stop-color:#CBEBFB"/>
		<stop  offset="1" style="stop-color:#00ADEE"/>
	</linearGradient>
	<rect x="72.863" y="99.506" clip-path="url(#SVGID_50_)" fill="url(#SVGID_51_)" width="7.34" height="7.647"/>
</g>
<g>
	<defs>
		<path id="SVGID_52_" d="M64.382,115.77c-0.289-0.099-0.607-0.117-0.907-0.188c-0.11-0.025-0.271-0.066-0.305-0.146
			c-0.6-1.404-1.184-2.814-1.772-4.224c0.074-0.033,0.148-0.065,0.221-0.097c0.013-0.177-0.017-0.371,0.047-0.525
			c0.162-0.384,0.288-0.96,0.574-1.064c0.305-0.113,0.88,0.121,1.154,0.389c0.896,0.878,1.746,1.813,2.539,2.788
			c0.277,0.341,0.39,0.85,0.482,1.303c0.253,1.248-0.179,1.939-1.111,1.939C65.037,115.944,64.728,115.886,64.382,115.77
			 M61.295,109.148c-0.529,0.315-0.76,1.126-1.124,1.716l0.225,0.138c-0.005,1.788,1.34,4.446,2.796,5.473
			c0.859,0.604,1.803,0.929,2.788,0.357c1.035-0.6,1.315-1.616,1.176-2.73c-0.27-2.162-1.822-3.459-3.32-4.787
			c-0.417-0.37-0.876-0.524-1.326-0.524C62.084,108.79,61.664,108.928,61.295,109.148"/>
	</defs>
	<clipPath id="SVGID_53_">
		<use xlink:href="#SVGID_52_"  overflow="visible"/>
	</clipPath>
	
		<linearGradient id="SVGID_54_" gradientUnits="userSpaceOnUse" x1="-2278.54" y1="1163.1797" x2="-2277.5405" y2="1163.1797" gradientTransform="matrix(7.0173 0 0 -7.0173 16049.3555 8275.4688)">
		<stop  offset="0" style="stop-color:#CBEBFB"/>
		<stop  offset="1" style="stop-color:#00ADEE"/>
	</linearGradient>
	<rect x="60.171" y="108.79" clip-path="url(#SVGID_53_)" fill="url(#SVGID_54_)" width="7.124" height="8.613"/>
</g>
<g>
	<defs>
		<path id="SVGID_55_" d="M123.412,95.595c-1.567-1.348-1.1-4.789,0.664-5.661c0.384,0.182,0.77,0.261,0.992,0.494
			c0.412,0.433,0.922,0.912,1.045,1.452c0.215,0.926,0.303,1.929,0.188,2.867c-0.111,0.908-0.753,1.407-1.505,1.407
			C124.344,96.154,123.854,95.975,123.412,95.595 M123.111,89.812c-0.899,0.919-1.17,2.066-1.183,3.229
			c0.024,0.399,0.024,0.726,0.067,1.045c0.201,1.452,1.076,2.424,2.398,2.682c1.196,0.231,2.406-0.273,2.969-1.24
			c1.01-1.729,0.326-4.842-1.313-5.984c-0.445-0.31-0.904-0.464-1.352-0.464C124.135,89.078,123.589,89.323,123.111,89.812"/>
	</defs>
	<clipPath id="SVGID_56_">
		<use xlink:href="#SVGID_55_"  overflow="visible"/>
	</clipPath>
	
		<linearGradient id="SVGID_57_" gradientUnits="userSpaceOnUse" x1="-2250.3008" y1="1179.3613" x2="-2249.3008" y2="1179.3613" gradientTransform="matrix(5.9084 0 0 -5.9084 13417.5352 7061.1411)">
		<stop  offset="0" style="stop-color:#CBEBFB"/>
		<stop  offset="1" style="stop-color:#00ADEE"/>
	</linearGradient>
	<rect x="121.845" y="89.078" clip-path="url(#SVGID_56_)" fill="url(#SVGID_57_)" width="6.528" height="7.92"/>
</g>
<g>
	<defs>
		<path id="SVGID_58_" d="M78.817,63.061c-0.626-0.093-0.719-0.494-0.46-1.032c0.614-1.28,2.523-2.195,3.874-1.761
			c0.348,0.111,0.821,0.526,0.836,0.823c0.02,0.381-0.274,0.99-0.596,1.131c-0.827,0.364-1.744,0.525-2.46,0.723
			c0.022,0.001,0.276,0.022,0.53,0.044c0,0.055-0.001,0.11-0.001,0.165C79.965,63.126,79.383,63.145,78.817,63.061 M78.403,60.13
			c-0.938,0.803-1.119,1.617-0.698,2.674c0.389,0.979,1.273,0.882,2.19,0.935c1.33-0.046,2.601-0.501,3.626-1.514
			c1.236-1.225,0.89-2.837-0.734-3.419c-0.412-0.147-0.802-0.214-1.173-0.214C80.389,58.593,79.365,59.306,78.403,60.13"/>
	</defs>
	<clipPath id="SVGID_59_">
		<use xlink:href="#SVGID_58_"  overflow="visible"/>
	</clipPath>
	
		<linearGradient id="SVGID_60_" gradientUnits="userSpaceOnUse" x1="-2273.1396" y1="1166.2891" x2="-2272.1396" y2="1166.2891" gradientTransform="matrix(6.7741 0 0 -6.7741 15476.0566 7961.7881)">
		<stop  offset="0" style="stop-color:#CBEBFB"/>
		<stop  offset="1" style="stop-color:#00ADEE"/>
	</linearGradient>
	<rect x="77.284" y="58.592" clip-path="url(#SVGID_59_)" fill="url(#SVGID_60_)" width="7.473" height="5.19"/>
</g>
<g>
	<defs>
		<path id="SVGID_61_" d="M86.854,98.666c0.036,0.355,0.073,0.712,0.109,1.072c0.707,0.164,1.479,0.203,2.098,0.533
			c0.482,0.256,0.863,0.833,1.086,1.354c0.059,0.141-0.625,0.599-0.972,0.907c-0.042,0.038-0.106,0.051-0.155,0.081
			c-0.611,0.376-0.597,0.824,0.03,1.172c0.288,0.159,0.565,0.339,0.888,0.532c-0.154,0.187-0.246,0.265-0.299,0.364
			c-0.152,0.282-0.289,0.574-0.432,0.862c0.396,0.023,0.803,0.114,1.184,0.047c0.363-0.064,0.688-0.32,1.045-0.444
			c1.754-0.605,2.838,0.201,2.762,2.047c-0.004,0.087-0.021,0.175-0.035,0.262c-0.293,1.7,0.072,3.315,0.637,4.903
			c0.896-0.666,1.372-0.544,1.861,0.498c0.123,0.263,0.229,0.551,0.252,0.836c0.08,0.906,0.115,1.815,0.168,2.74
			c0.938-0.108,1.434-0.829,1.936-1.507c1.188-1.601,2.831-2.431,4.727-2.809c1.141-0.229,1.668,0.315,1.502,1.465
			c-0.131,0.916-0.287,1.83-0.393,2.5c0.637,0.155,1.274,0.131,1.604,0.438c0.377,0.349,0.479,0.993,0.725,1.571
			c0.975-0.156,2.092-0.552,2.91,0.943c0.139-0.732,0.225-1.188,0.311-1.643l-0.174-0.037c-0.059,0.266-0.117,0.529-0.145,0.645
			c-0.885-0.167-1.711-0.322-2.588-0.486c-0.547-0.707-0.658-2.113-2.314-1.645c0.121-0.764,0.215-1.429,0.336-2.088
			c0.26-1.428-0.439-2.183-1.865-1.886c-2.057,0.425-3.916,1.212-5.121,3.095c-0.258,0.403-0.692,0.691-1.18,1.162
			c0.18-3.399-0.486-4.68-2.229-4.615c-0.215-0.449-0.512-0.873-0.614-1.341c-0.11-0.507-0.044-1.053-0.044-1.581
			c-0.002-0.646,0.043-1.295,0.006-1.939c-0.085-1.484-1.061-2.241-2.501-1.919c-0.593,0.133-1.153,0.41-1.739,0.585
			c-0.205,0.063-0.443,0.011-0.566,0.011c0.164-0.527,0.482-1.002,0.357-1.271c-0.168-0.358-0.678-0.559-1.045-0.832
			c1.661-1.518,1.699-1.534,1.566-1.848c-0.592-1.411-1.784-1.847-3.097-1.865c-0.211-0.36-0.376-0.639-0.54-0.919L86.854,98.666z"
			/>
	</defs>
	<clipPath id="SVGID_62_">
		<use xlink:href="#SVGID_61_"  overflow="visible"/>
	</clipPath>
	
		<linearGradient id="SVGID_63_" gradientUnits="userSpaceOnUse" x1="-2384.1636" y1="1102.6865" x2="-2383.1636" y2="1102.6865" gradientTransform="matrix(23.5481 0 0 -23.5481 56229.4844 26075.0547)">
		<stop  offset="0" style="stop-color:#CBEBFB"/>
		<stop  offset="1" style="stop-color:#00ADEE"/>
	</linearGradient>
	<rect x="86.854" y="98.618" clip-path="url(#SVGID_62_)" fill="url(#SVGID_63_)" width="23.546" height="20.418"/>
</g>
<g>
	<defs>
		<path id="SVGID_64_" d="M97.934,126.563c-0.723-0.254-0.863-1.054-0.398-1.681c0.717-0.96,1.748-1.201,2.904-1.295
			c0.582,0.16,1.187,0.27,1.742,0.495c0.643,0.262,0.695,0.771,0.26,1.265c-0.264,0.3-0.613,0.535-0.955,0.745
			c-0.297,0.183-0.748,0.202-0.941,0.443c-0.34,0.427-0.684,0.572-1.023,0.572C98.98,127.107,98.443,126.741,97.934,126.563
			 M98.025,123.586c-1.142,0.722-1.724,1.964-1.43,3.049c0.246,0.916,1.327,1.516,3.154,1.505c1.257-0.08,2.72-0.637,3.643-2.148
			c0.545-0.896,0.321-1.708-0.525-2.29c-0.684-0.472-1.619-0.711-2.543-0.711C99.486,122.99,98.656,123.188,98.025,123.586"/>
	</defs>
	<clipPath id="SVGID_65_">
		<use xlink:href="#SVGID_64_"  overflow="visible"/>
	</clipPath>
	
		<linearGradient id="SVGID_66_" gradientUnits="userSpaceOnUse" x1="-2281.7266" y1="1161.373" x2="-2280.7266" y2="1161.373" gradientTransform="matrix(7.1691 0 0 -7.1691 16454.4688 8451.582)">
		<stop  offset="0" style="stop-color:#CBEBFB"/>
		<stop  offset="1" style="stop-color:#00ADEE"/>
	</linearGradient>
	<rect x="96.302" y="122.99" clip-path="url(#SVGID_65_)" fill="url(#SVGID_66_)" width="7.635" height="5.16"/>
</g>
<g>
	<defs>
		<path id="SVGID_67_" d="M97.756,67.586c-1.303,0.246-2.32,1.349-2.43,2.578c-0.105,1.174,0.545,2.221,1.916,2.78
			c-0.379-0.352-0.588-0.516-0.762-0.71c-0.847-0.945-0.662-2.16,0.514-2.654c0.904-0.379,1.902-0.533,2.865-0.764
			c0.119-0.029,0.293,0.049,0.405,0.13c0.591,0.422,1.198,0.828,1.745,1.303c0.732,0.638,0.715,1.155-0.002,1.847
			c-0.314,0.306-0.663,0.577-1.109,0.962c1.492-0.385,2.174-0.896,2.379-1.773c0.236-1.007-0.213-1.795-0.941-2.413
			c-1.051-0.891-2.23-1.385-3.542-1.385C98.457,67.486,98.111,67.52,97.756,67.586"/>
	</defs>
	<clipPath id="SVGID_68_">
		<use xlink:href="#SVGID_67_"  overflow="visible"/>
	</clipPath>
	
		<linearGradient id="SVGID_69_" gradientUnits="userSpaceOnUse" x1="-2297.46" y1="1152.3594" x2="-2296.46" y2="1152.3594" gradientTransform="matrix(8.0266 0 0 -8.0266 18536.1387 9319.8154)">
		<stop  offset="0" style="stop-color:#CBEBFB"/>
		<stop  offset="1" style="stop-color:#00ADEE"/>
	</linearGradient>
	<rect x="95.221" y="67.486" clip-path="url(#SVGID_68_)" fill="url(#SVGID_69_)" width="8.293" height="5.571"/>
</g>
<g>
	<defs>
		<path id="SVGID_70_" d="M64.177,93.865c-0.773-0.007-1.885-0.957-1.856-1.586c0.045-1.02,0.795-2.224,1.385-2.231
			c0.96-0.011,1.997,1.147,1.99,2.226c-0.005,0.896-0.663,1.592-1.505,1.592C64.186,93.865,64.182,93.865,64.177,93.865
			 M63.528,89.332c-1.384,0.02-2.351,1.208-2.323,2.855c0.025,1.515,1.158,2.675,2.577,2.641c1.476-0.035,2.673-1.302,2.658-2.813
			c-0.016-1.445-1.347-2.684-2.873-2.684C63.554,89.332,63.541,89.332,63.528,89.332"/>
	</defs>
	<clipPath id="SVGID_71_">
		<use xlink:href="#SVGID_70_"  overflow="visible"/>
	</clipPath>
	
		<linearGradient id="SVGID_72_" gradientUnits="userSpaceOnUse" x1="-2227.3232" y1="1192.5381" x2="-2226.3232" y2="1192.5381" gradientTransform="matrix(5.2352 0 0 -5.2352 11721.7012 6335.2793)">
		<stop  offset="0" style="stop-color:#CBEBFB"/>
		<stop  offset="1" style="stop-color:#00ADEE"/>
	</linearGradient>
	<rect x="61.177" y="89.332" clip-path="url(#SVGID_71_)" fill="url(#SVGID_72_)" width="5.278" height="5.53"/>
</g>
<g>
	<defs>
		<path id="SVGID_73_" d="M62.541,83.445c-0.954-0.015-1.563-0.569-1.363-1.48c0.193-0.861,0.04-1.979,1.03-2.333
			c0.604,0.152,0.978,0.291,1.36,0.333c0.887,0.099,1.268,0.5,1.213,1.363c-0.059,0.943-1.297,2.117-2.224,2.117
			C62.552,83.445,62.546,83.445,62.541,83.445 M63.412,78.424c-1.753,0.015-3.214,1.649-3.156,3.534
			c0.039,1.238,1.174,2.263,2.467,2.226c1.352-0.039,2.989-1.942,2.965-3.45c-0.021-1.285-1.024-2.31-2.261-2.31
			C63.422,78.424,63.417,78.424,63.412,78.424"/>
	</defs>
	<clipPath id="SVGID_74_">
		<use xlink:href="#SVGID_73_"  overflow="visible"/>
	</clipPath>
	
		<linearGradient id="SVGID_75_" gradientUnits="userSpaceOnUse" x1="-2234.6816" y1="1188.3223" x2="-2233.6812" y2="1188.3223" gradientTransform="matrix(5.4334 0 0 -5.4334 12202.2646 6538.0024)">
		<stop  offset="0" style="stop-color:#CBEBFB"/>
		<stop  offset="1" style="stop-color:#00ADEE"/>
	</linearGradient>
	<rect x="60.198" y="78.424" clip-path="url(#SVGID_74_)" fill="url(#SVGID_75_)" width="5.514" height="5.798"/>
</g>
<g>
	<defs>
		<path id="SVGID_76_" d="M76.416,82.214c0.363-0.796,1.04-1.24,1.908-1.371c0.853-0.129,1.475,0.313,1.983,0.901
			c0.156,0.178,0.178,0.562,0.119,0.819c-0.211,0.921-1.546,1.932-2.487,1.942c-0.006,0-0.011,0-0.017,0
			C76.8,84.505,75.944,83.247,76.416,82.214 M78.744,79.583c-1.668,0.003-3.089,1.521-3.081,3.295
			c0.006,1.319,1.008,2.252,2.407,2.238c1.608-0.016,3.138-1.576,3.138-3.2c-0.001-1.295-1.098-2.333-2.462-2.333
			C78.746,79.583,78.745,79.583,78.744,79.583"/>
	</defs>
	<clipPath id="SVGID_77_">
		<use xlink:href="#SVGID_76_"  overflow="visible"/>
	</clipPath>
	
		<linearGradient id="SVGID_78_" gradientUnits="userSpaceOnUse" x1="-2238.582" y1="1186.0898" x2="-2237.5806" y2="1186.0898" gradientTransform="matrix(5.5447 0 0 -5.5447 12487.9531 6658.8892)">
		<stop  offset="0" style="stop-color:#CBEBFB"/>
		<stop  offset="1" style="stop-color:#00ADEE"/>
	</linearGradient>
	<rect x="75.655" y="79.583" clip-path="url(#SVGID_77_)" fill="url(#SVGID_78_)" width="5.553" height="5.547"/>
</g>
<g>
	<defs>
		<path id="SVGID_79_" d="M115.837,101.847c-0.841-0.444-1.229-1.4-0.966-2.408c0.252-0.964,0.875-1.524,1.843-1.511
			c0.071,0.029,0.306,0.08,0.485,0.206c1.062,0.75,1.263,2.297,0.533,3.318c-0.324,0.454-0.668,0.647-1.049,0.647
			C116.421,102.1,116.141,102.008,115.837,101.847 M114.211,100.178c-0.027,1.233,1.391,2.478,2.822,2.478
			c1.453,0,2.656-1.279,2.664-2.83c0.006-1.451-1.178-2.72-2.557-2.74c-0.01,0-0.02,0-0.029,0
			C115.678,97.085,114.242,98.61,114.211,100.178"/>
	</defs>
	<clipPath id="SVGID_80_">
		<use xlink:href="#SVGID_79_"  overflow="visible"/>
	</clipPath>
	
		<linearGradient id="SVGID_81_" gradientUnits="userSpaceOnUse" x1="-2236.583" y1="1187.2363" x2="-2235.583" y2="1187.2363" gradientTransform="matrix(5.4871 0 0 -5.4871 12386.6719 6614.4053)">
		<stop  offset="0" style="stop-color:#CBEBFB"/>
		<stop  offset="1" style="stop-color:#00ADEE"/>
	</linearGradient>
	<rect x="114.184" y="97.085" clip-path="url(#SVGID_80_)" fill="url(#SVGID_81_)" width="5.52" height="5.57"/>
</g>
<g>
	<defs>
		<path id="SVGID_82_" d="M119.617,115.887c0.349-0.439,0.66-0.918,1.062-1.3c0.101-0.096,0.306-0.084,0.509-0.074
			c0.092,0.006,0.186,0.01,0.268,0.005c-0.029,0.26,0.037,0.63-0.108,0.759c-0.424,0.376-0.935,0.654-1.409,0.972L119.617,115.887z
			 M120.779,113.689c-1,0.398-1.924,1.775-1.744,2.818c0.07,0.414,0.537,0.758,0.703,0.977c1.135,0.004,2.641-1.05,2.972-1.837
			c0.271-0.646,0.116-1.205-0.321-1.707c-0.263-0.301-0.561-0.416-0.877-0.416C121.275,113.524,121.027,113.59,120.779,113.689"/>
	</defs>
	<clipPath id="SVGID_83_">
		<use xlink:href="#SVGID_82_"  overflow="visible"/>
	</clipPath>
	
		<linearGradient id="SVGID_84_" gradientUnits="userSpaceOnUse" x1="-2153.4707" y1="1234.8516" x2="-2152.4712" y2="1234.8516" gradientTransform="matrix(3.832 0 0 -3.832 8371.0527 4847.4238)">
		<stop  offset="0" style="stop-color:#CBEBFB"/>
		<stop  offset="1" style="stop-color:#00ADEE"/>
	</linearGradient>
	<rect x="118.855" y="113.524" clip-path="url(#SVGID_83_)" fill="url(#SVGID_84_)" width="4.125" height="3.964"/>
</g>
<g>
	<defs>
		<path id="SVGID_85_" d="M77.035,109.058c-0.016-0.563,0.31-0.807,1.079-0.814c0.709-0.005,1.953,1.01,1.761,1.536
			c-0.109,0.294-0.629,0.576-0.991,0.614c-0.067,0.007-0.133,0.011-0.198,0.011C77.799,110.404,77.054,109.763,77.035,109.058
			 M76.099,109.382c-0.003,1.207,1.07,2.214,2.358,2.214c1.217-0.001,2.044-0.65,2.026-1.594c-0.021-1.152-1.238-2.272-2.481-2.282
			c-0.006,0-0.011,0-0.017,0C76.97,107.72,76.1,108.485,76.099,109.382"/>
	</defs>
	<clipPath id="SVGID_86_">
		<use xlink:href="#SVGID_85_"  overflow="visible"/>
	</clipPath>
	
		<linearGradient id="SVGID_87_" gradientUnits="userSpaceOnUse" x1="-2188.2881" y1="1214.9043" x2="-2187.2876" y2="1214.9043" gradientTransform="matrix(4.3862 0 0 -4.3862 9674.4385 5438.5137)">
		<stop  offset="0" style="stop-color:#CBEBFB"/>
		<stop  offset="1" style="stop-color:#00ADEE"/>
	</linearGradient>
	<rect x="76.096" y="107.72" clip-path="url(#SVGID_86_)" fill="url(#SVGID_87_)" width="4.406" height="3.877"/>
</g>
<g>
	<defs>
		<path id="SVGID_88_" d="M119.201,73.5c1.172-0.74,2.797-0.499,3.609,0.515c0.434,0.539,0.021,0.787-0.4,0.964
			c-0.207,0.086-0.432,0.128-0.664,0.128C120.863,75.106,119.861,74.503,119.201,73.5 M119.318,72.215
			c-0.524,0.319-0.744,0.832-0.474,1.434c0.452,1.004,2.101,2.002,3.175,1.806c0.481-0.088,1.049-0.416,1.313-0.812
			c0.371-0.556,0.304-1.329-0.247-1.762c-0.681-0.534-1.495-0.896-2.199-1.302C120.21,71.846,119.727,71.967,119.318,72.215"/>
	</defs>
	<clipPath id="SVGID_89_">
		<use xlink:href="#SVGID_88_"  overflow="visible"/>
	</clipPath>
	
		<linearGradient id="SVGID_90_" gradientUnits="userSpaceOnUse" x1="-2210.6885" y1="1202.0527" x2="-2209.6885" y2="1202.0527" gradientTransform="matrix(4.8363 0 0 -4.8363 10810.2734 5887.1006)">
		<stop  offset="0" style="stop-color:#CBEBFB"/>
		<stop  offset="1" style="stop-color:#00ADEE"/>
	</linearGradient>
	<rect x="118.574" y="71.579" clip-path="url(#SVGID_89_)" fill="url(#SVGID_90_)" width="5.129" height="4.071"/>
</g>
<g>
	<defs>
		<path id="SVGID_91_" d="M122.885,104.392c-0.016-0.993,0.648-1.965,1.359-1.988c0.51-0.017,1.027,0.632,1.048,1.312
			c0.022,0.801-0.677,1.884-1.229,1.905c-0.018,0-0.035,0.001-0.052,0.001C123.354,105.621,122.896,105.124,122.885,104.392
			 M124.537,101.826c-1.075,0.024-2.041,1.226-2.053,2.555c-0.008,0.99,0.604,1.668,1.51,1.677c1.199,0.01,2.459-1.141,2.492-2.271
			c0.031-1.026-0.885-1.961-1.91-1.961C124.563,101.825,124.55,101.825,124.537,101.826"/>
	</defs>
	<clipPath id="SVGID_92_">
		<use xlink:href="#SVGID_91_"  overflow="visible"/>
	</clipPath>
	
		<linearGradient id="SVGID_93_" gradientUnits="userSpaceOnUse" x1="-2165.2764" y1="1228.0879" x2="-2164.2764" y2="1228.0879" gradientTransform="matrix(4.0035 0 0 -4.0035 8791.1943 5020.6069)">
		<stop  offset="0" style="stop-color:#CBEBFB"/>
		<stop  offset="1" style="stop-color:#00ADEE"/>
	</linearGradient>
	<rect x="122.477" y="101.825" clip-path="url(#SVGID_92_)" fill="url(#SVGID_93_)" width="4.041" height="4.242"/>
</g>
<g>
	<defs>
		<path id="SVGID_94_" d="M88.591,120.822c-1.002-0.657-0.947-1.319-0.11-2.444c0.799,0.021,1.6,0.026,2.399,0.067
			c0.228,0.011,0.457,0.099,0.674,0.185c0.681,0.271,1.31,0.657,1.306,1.472c-0.002,0.707-0.789,1.259-1.722,1.345
			c-0.116,0.011-0.233,0.003-0.362,0.087c0.211,0.031,0.42,0.061,0.631,0.091c-0.027,0.08-0.053,0.161-0.08,0.24
			C90.406,121.529,89.387,121.344,88.591,120.822 M88.484,118.372c0.006-0.007,0.01-0.014,0.016-0.021
			c-0.982,0.484-1.252,1.184-0.792,2.042c0.832,1.551,3.514,2.222,4.96,1.237c0.656-0.448,0.925-1.048,0.641-1.823
			c-0.433-1.168-1.849-1.91-3.182-1.91C89.531,117.897,88.951,118.046,88.484,118.372"/>
	</defs>
	<clipPath id="SVGID_95_">
		<use xlink:href="#SVGID_94_"  overflow="visible"/>
	</clipPath>
	
		<linearGradient id="SVGID_96_" gradientUnits="userSpaceOnUse" x1="-2250.9897" y1="1178.9375" x2="-2249.9897" y2="1178.9375" gradientTransform="matrix(5.9312 0 0 -5.9312 13438.6211 7112.8057)">
		<stop  offset="0" style="stop-color:#CBEBFB"/>
		<stop  offset="1" style="stop-color:#00ADEE"/>
	</linearGradient>
	<rect x="87.248" y="117.897" clip-path="url(#SVGID_95_)" fill="url(#SVGID_96_)" width="6.345" height="4.718"/>
</g>
<g>
	<defs>
		<path id="SVGID_97_" d="M56.638,89.465c-0.569-0.447-0.797-1.463-0.483-2.155c0.149-0.332,0.306-0.659,0.497-1.071
			c0.46-0.023,1.037,0.003,1.593-0.091c0.709-0.12,0.895,0.291,0.928,0.827c0.058,0.96-0.33,1.776-1.023,2.415
			c-0.243,0.224-0.516,0.348-0.799,0.348C57.117,89.737,56.875,89.651,56.638,89.465 M56.027,86.497
			c-0.144,0.444-0.258,0.903-0.327,1.363c-0.13,0.861,0.384,1.744,1.163,2.07c0.671,0.281,1.425,0.034,1.933-0.786
			c0.374-0.604,0.589-1.307,0.875-1.964c-0.154-1.193-0.759-1.927-1.823-2.093c-0.087-0.013-0.173-0.02-0.256-0.02
			C56.885,85.068,56.334,85.556,56.027,86.497"/>
	</defs>
	<clipPath id="SVGID_98_">
		<use xlink:href="#SVGID_97_"  overflow="visible"/>
	</clipPath>
	
		<linearGradient id="SVGID_99_" gradientUnits="userSpaceOnUse" x1="-2164.4648" y1="1228.5313" x2="-2163.4648" y2="1228.5313" gradientTransform="matrix(3.9912 0 0 -3.9912 8694.5439 4990.9854)">
		<stop  offset="0" style="stop-color:#CBEBFB"/>
		<stop  offset="1" style="stop-color:#00ADEE"/>
	</linearGradient>
	<rect x="55.57" y="85.068" clip-path="url(#SVGID_98_)" fill="url(#SVGID_99_)" width="4.101" height="5.144"/>
</g>
<g>
	<defs>
		<path id="SVGID_100_" d="M114.824,114.559c-0.029,0.048-0.08,0.084-0.031,0.032c-0.854,0.082-1.605,0.154-2.357,0.227
			c0.008,0.025,0.018,0.05,0.027,0.075c0.777,0.07,1.555,0.143,2.41,0.221c0.502-1.149,0.502-1.149,1.209-1.189
			c0.508,1.643-0.967,2.88-0.961,4.49c0.367-0.101,0.668-0.199,0.974-0.266c0.952-0.213,1.341,0.179,1.103,1.134
			c-0.1,0.396-0.264,0.775-0.412,1.206c0.529-0.178,0.93-0.313,1.437-0.483c-0.366-0.033-0.616-0.055-0.868-0.078
			c0.491-1.922,0.266-2.169-1.861-2.016c0.322-0.886,0.734-1.739,0.92-2.637c0.115-0.563,0.076-1.576-0.219-1.721
			c-0.123-0.061-0.234-0.087-0.336-0.087C115.359,113.467,115.102,114.112,114.824,114.559"/>
	</defs>
	<clipPath id="SVGID_101_">
		<use xlink:href="#SVGID_100_"  overflow="visible"/>
	</clipPath>
	
		<linearGradient id="SVGID_102_" gradientUnits="userSpaceOnUse" x1="-2246.5757" y1="1181.5117" x2="-2245.5762" y2="1181.5117" gradientTransform="matrix(5.7877 0 0 -5.7877 13114.9844 6955.2319)">
		<stop  offset="0" style="stop-color:#CBEBFB"/>
		<stop  offset="1" style="stop-color:#00ADEE"/>
	</linearGradient>
	<rect x="112.435" y="113.467" clip-path="url(#SVGID_101_)" fill="url(#SVGID_102_)" width="5.787" height="7.021"/>
</g>
<g>
	<defs>
		<path id="SVGID_103_" d="M85.074,96.858l0.018,0.014c0.01-0.006,0.02-0.012,0.031-0.018C85.106,96.855,85.09,96.857,85.074,96.858
			 M88.855,89.877c0.693,1.539,0.693,1.539-0.958,2.818c0.472,1.683-0.074,3.355-2.006,3.744c-0.273,0.055-0.514,0.267-0.769,0.415
			c2.872-0.223,3.665-1.732,3.118-4.033c0.502-0.394,1.188-0.676,1.375-1.155c0.183-0.465-0.148-1.132-0.235-1.612
			C90.339,89.667,91.169,89.333,92,89c-0.029-0.069-0.057-0.137-0.086-0.205C90.896,89.155,89.878,89.516,88.855,89.877"/>
	</defs>
	<clipPath id="SVGID_104_">
		<use xlink:href="#SVGID_103_"  overflow="visible"/>
	</clipPath>
	
		<linearGradient id="SVGID_105_" gradientUnits="userSpaceOnUse" x1="-2276.5513" y1="1164.3379" x2="-2275.5513" y2="1164.3379" gradientTransform="matrix(6.9258 0 0 -6.9258 15851.958 8156.7695)">
		<stop  offset="0" style="stop-color:#CBEBFB"/>
		<stop  offset="1" style="stop-color:#00ADEE"/>
	</linearGradient>
	<rect x="85.074" y="88.795" clip-path="url(#SVGID_104_)" fill="url(#SVGID_105_)" width="6.926" height="8.077"/>
</g>
<g>
	<defs>
		<path id="SVGID_106_" d="M112.138,122.156c0.046,0.149,0.091,0.299,0.136,0.446c-0.433,0.156-0.865,0.313-1.297,0.469
			C111.234,122.446,111.592,122.078,112.138,122.156 M110.388,123.185c0.033,0.254,0.44,0.614,0.716,0.65
			c0.883,0.112,2.041-0.713,1.945-1.375c-0.047-0.324-0.438-0.599-0.553-0.744c-0.014,0-0.027,0-0.041,0
			C111.396,121.716,110.304,122.556,110.388,123.185"/>
	</defs>
	<clipPath id="SVGID_107_">
		<use xlink:href="#SVGID_106_"  overflow="visible"/>
	</clipPath>
	
		<linearGradient id="SVGID_108_" gradientUnits="userSpaceOnUse" x1="-2033.8242" y1="1303.3789" x2="-2032.8242" y2="1303.3789" gradientTransform="matrix(2.6718 0 0 -2.6718 5544.2998 3605.1631)">
		<stop  offset="0" style="stop-color:#CBEBFB"/>
		<stop  offset="1" style="stop-color:#00ADEE"/>
	</linearGradient>
	<rect x="110.304" y="121.716" clip-path="url(#SVGID_107_)" fill="url(#SVGID_108_)" width="2.841" height="2.231"/>
</g>
<g>
	<defs>
		<path id="SVGID_109_" d="M56.525,99.709c0.593,0.178,1.196,0.176,1.428,0.467c0.504,0.637,1.005,1.383,1.177,2.157
			c0.526,2.362-0.406,3.27-2.769,2.767c0.652,0.468,1.245,0.792,1.994,0.448c0.738-0.339,1.106-0.938,1.175-1.718
			c0.143-1.623-0.331-3.049-1.26-4.121H56.525z"/>
	</defs>
	<clipPath id="SVGID_110_">
		<use xlink:href="#SVGID_109_"  overflow="visible"/>
	</clipPath>
	
		<linearGradient id="SVGID_111_" gradientUnits="userSpaceOnUse" x1="-2098.4619" y1="1266.335" x2="-2097.4624" y2="1266.335" gradientTransform="matrix(3.1942 0 0 -3.1942 6759.3711 4147.7871)">
		<stop  offset="0" style="stop-color:#CBEBFB"/>
		<stop  offset="1" style="stop-color:#00ADEE"/>
	</linearGradient>
	<rect x="56.361" y="99.709" clip-path="url(#SVGID_110_)" fill="url(#SVGID_111_)" width="3.312" height="6.183"/>
</g>
<g>
	<defs>
		<path id="SVGID_112_" d="M90.074,74.288c-0.262,0.045-0.602,0.193-0.721,0.4c-0.525,0.912-0.982,1.86-1.468,2.804
			c0.089,0.283,0.378,0.717,0.287,1.048c-0.103,0.376-0.546,0.658-0.87,1.011c1.348-0.461,1.7-1.29,1.129-2.239
			c0.5-0.963,0.965-1.854,1.452-2.792c0.22-0.017,0.45-0.01,0.685-0.002c0.688,0.02,1.399,0.04,1.92-0.546
			C91.723,74.068,90.895,74.146,90.074,74.288"/>
	</defs>
	<clipPath id="SVGID_113_">
		<use xlink:href="#SVGID_112_"  overflow="visible"/>
	</clipPath>
	
		<linearGradient id="SVGID_114_" gradientUnits="userSpaceOnUse" x1="-2225.3569" y1="1193.668" x2="-2224.3569" y2="1193.668" gradientTransform="matrix(5.1846 0 0 -5.1846 11624.9883 6265.5103)">
		<stop  offset="0" style="stop-color:#CBEBFB"/>
		<stop  offset="1" style="stop-color:#00ADEE"/>
	</linearGradient>
	<rect x="87.303" y="73.973" clip-path="url(#SVGID_113_)" fill="url(#SVGID_114_)" width="5.186" height="5.578"/>
</g>
<g>
	<defs>
		<path id="SVGID_115_" d="M105.508,124.254c0.372-0.19,0.745-0.38,1.15-0.588c0.058,0.536,0.018,0.761-0.328,0.761
			C106.15,124.427,105.885,124.366,105.508,124.254 M105.209,124.622c0.059,0.282,0.396,0.503,0.509,0.636
			c1.086-0.026,2.118-0.689,1.937-1.161c-0.117-0.312-0.584-0.638-0.932-0.686c-0.049-0.006-0.097-0.01-0.146-0.01
			C105.859,123.401,105.095,124.083,105.209,124.622"/>
	</defs>
	<clipPath id="SVGID_116_">
		<use xlink:href="#SVGID_115_"  overflow="visible"/>
	</clipPath>
	
		<linearGradient id="SVGID_117_" gradientUnits="userSpaceOnUse" x1="-2003.0703" y1="1321.0156" x2="-2002.0703" y2="1321.0156" gradientTransform="matrix(2.4789 0 0 -2.4789 5070.5322 3398.9453)">
		<stop  offset="0" style="stop-color:#CBEBFB"/>
		<stop  offset="1" style="stop-color:#00ADEE"/>
	</linearGradient>
	<rect x="105.095" y="123.401" clip-path="url(#SVGID_116_)" fill="url(#SVGID_117_)" width="2.741" height="1.856"/>
</g>
<g>
	<defs>
		<path id="SVGID_118_" d="M104.765,68.73c-0.569,0.246-0.767,0.771-0.581,1.321c0.18,0.534,0.611,0.822,1.289,0.686
			c-0.355-0.29-0.628-0.512-0.9-0.733c0.037-0.079,0.076-0.157,0.113-0.233c0.305-0.024,0.67-0.157,0.901-0.036
			c0.185,0.096,0.206,0.503,0.31,0.799c0.59-0.44,0.475-0.968,0.182-1.482c-0.188-0.33-0.453-0.456-0.742-0.456
			C105.15,68.595,104.955,68.647,104.765,68.73"/>
	</defs>
	<clipPath id="SVGID_119_">
		<use xlink:href="#SVGID_118_"  overflow="visible"/>
	</clipPath>
	
		<linearGradient id="SVGID_120_" gradientUnits="userSpaceOnUse" x1="-1949.4507" y1="1351.7109" x2="-1948.4512" y2="1351.7109" gradientTransform="matrix(2.2017 0 0 -2.2017 4396.2061 3045.7869)">
		<stop  offset="0" style="stop-color:#CBEBFB"/>
		<stop  offset="1" style="stop-color:#00ADEE"/>
	</linearGradient>
	<rect x="103.998" y="68.595" clip-path="url(#SVGID_119_)" fill="url(#SVGID_120_)" width="2.488" height="2.279"/>
</g>
<g>
	<defs>
		<path id="SVGID_121_" d="M62.229,85.576c-0.007,0.298,0.482,0.883,0.657,0.849c0.378-0.073,0.918-0.424,0.972-0.733
			c0.053-0.307-0.414-0.7-0.802-1.278C62.654,84.944,62.235,85.256,62.229,85.576"/>
	</defs>
	<clipPath id="SVGID_122_">
		<use xlink:href="#SVGID_121_"  overflow="visible"/>
	</clipPath>
	
		<linearGradient id="SVGID_123_" gradientUnits="userSpaceOnUse" x1="-1782.5713" y1="1447.3301" x2="-1781.5713" y2="1447.3301" gradientTransform="matrix(1.6333 0 0 -1.6333 2973.7249 2449.3792)">
		<stop  offset="0" style="stop-color:#CBEBFB"/>
		<stop  offset="1" style="stop-color:#00ADEE"/>
	</linearGradient>
	<rect x="62.222" y="84.413" clip-path="url(#SVGID_122_)" fill="url(#SVGID_123_)" width="1.689" height="2.046"/>
</g>
<g>
	<defs>
		<path id="SVGID_124_" d="M102.91,127.606c-0.541,0.392-1.168,0.661-1.758,0.984c1.42-0.264,2.524-0.983,3.229-2.257
			c0.712-1.282,0.194-2.651-1.212-3.256C104.832,124.928,104.77,126.259,102.91,127.606"/>
	</defs>
	<clipPath id="SVGID_125_">
		<use xlink:href="#SVGID_124_"  overflow="visible"/>
	</clipPath>
	
		<linearGradient id="SVGID_126_" gradientUnits="userSpaceOnUse" x1="-2131.2793" y1="1247.5645" x2="-2130.2793" y2="1247.5645" gradientTransform="matrix(3.5463 0 0 -3.5463 7659.377 4550.1152)">
		<stop  offset="0" style="stop-color:#CBEBFB"/>
		<stop  offset="1" style="stop-color:#00ADEE"/>
	</linearGradient>
	<rect x="101.152" y="123.078" clip-path="url(#SVGID_125_)" fill="url(#SVGID_126_)" width="3.941" height="5.513"/>
</g>
<g>
	<defs>
		<path id="SVGID_127_" d="M88.21,81.418c0.147,0.484-0.2,1.119-0.344,1.747c1.223-0.091,2.23,0.305,2.615,1.689
			c-0.037-1.236-0.64-1.753-2.248-1.981c0.766-1.444,0.293-2.391-1.194-2.646C87.424,80.593,88.063,80.933,88.21,81.418"/>
	</defs>
	<clipPath id="SVGID_128_">
		<use xlink:href="#SVGID_127_"  overflow="visible"/>
	</clipPath>
	
		<linearGradient id="SVGID_129_" gradientUnits="userSpaceOnUse" x1="-2122.1104" y1="1252.8174" x2="-2121.1099" y2="1252.8174" gradientTransform="matrix(3.4404 0 0 -3.4404 7387.918 4392.7158)">
		<stop  offset="0" style="stop-color:#CBEBFB"/>
		<stop  offset="1" style="stop-color:#00ADEE"/>
	</linearGradient>
	<rect x="87.039" y="80.227" clip-path="url(#SVGID_128_)" fill="url(#SVGID_129_)" width="3.442" height="4.628"/>
</g>
<g>
	<defs>
		<path id="SVGID_130_" d="M117.48,96.627c2.635,0.36,2.971,2.152,2.758,4.309c0.836-2.3-0.297-4.35-2.267-4.35
			C117.814,96.586,117.65,96.6,117.48,96.627"/>
	</defs>
	<clipPath id="SVGID_131_">
		<use xlink:href="#SVGID_130_"  overflow="visible"/>
	</clipPath>
	
		<linearGradient id="SVGID_132_" gradientUnits="userSpaceOnUse" x1="-2081.1265" y1="1276.2969" x2="-2080.126" y2="1276.2969" gradientTransform="matrix(3.0351 0 0 -3.0351 6433.8354 3972.4065)">
		<stop  offset="0" style="stop-color:#CBEBFB"/>
		<stop  offset="1" style="stop-color:#00ADEE"/>
	</linearGradient>
	<rect x="117.48" y="96.586" clip-path="url(#SVGID_131_)" fill="url(#SVGID_132_)" width="3.594" height="4.35"/>
</g>
<g>
	<defs>
		<path id="SVGID_133_" d="M125.691,97.548c2.024-0.096,3.229-2.559,2.484-4.84C128.354,94.783,128.076,96.637,125.691,97.548"/>
	</defs>
	<clipPath id="SVGID_134_">
		<use xlink:href="#SVGID_133_"  overflow="visible"/>
	</clipPath>
	
		<linearGradient id="SVGID_135_" gradientUnits="userSpaceOnUse" x1="-2039.0586" y1="1300.3975" x2="-2038.0594" y2="1300.3975" gradientTransform="matrix(2.7076 0 0 -2.7076 5646.7319 3616.1382)">
		<stop  offset="0" style="stop-color:#CBEBFB"/>
		<stop  offset="1" style="stop-color:#00ADEE"/>
	</linearGradient>
	<rect x="125.691" y="92.708" clip-path="url(#SVGID_134_)" fill="url(#SVGID_135_)" width="3.229" height="4.84"/>
</g>
<g>
	<defs>
		<path id="SVGID_136_" d="M102.904,60.464c1.164-1.189,1.022-2.821-0.307-4.074C103.451,57.696,103.635,59.034,102.904,60.464"/>
	</defs>
	<clipPath id="SVGID_137_">
		<use xlink:href="#SVGID_136_"  overflow="visible"/>
	</clipPath>
	
		<linearGradient id="SVGID_138_" gradientUnits="userSpaceOnUse" x1="-1466.1104" y1="1628.6426" x2="-1465.1104" y2="1628.6426" gradientTransform="matrix(1.0965 0 0 -1.0965 1710.2051 1844.2517)">
		<stop  offset="0" style="stop-color:#CBEBFB"/>
		<stop  offset="1" style="stop-color:#00ADEE"/>
	</linearGradient>
	<rect x="102.598" y="56.39" clip-path="url(#SVGID_137_)" fill="url(#SVGID_138_)" width="1.471" height="4.074"/>
</g>
<g>
	<defs>
		<path id="SVGID_139_" d="M114.796,70.915c-0.538-0.642-1.157-1.234-1.595-1.939c-0.434-0.705-0.687-1.522-1.021-2.29
			C112.35,68.54,113.1,70.033,114.796,70.915"/>
	</defs>
	<clipPath id="SVGID_140_">
		<use xlink:href="#SVGID_139_"  overflow="visible"/>
	</clipPath>
	
		<linearGradient id="SVGID_141_" gradientUnits="userSpaceOnUse" x1="-2025.2354" y1="1308.3174" x2="-2024.2358" y2="1308.3174" gradientTransform="matrix(2.6149 0 0 -2.6149 5408.0488 3489.9712)">
		<stop  offset="0" style="stop-color:#CBEBFB"/>
		<stop  offset="1" style="stop-color:#00ADEE"/>
	</linearGradient>
	<rect x="112.181" y="66.686" clip-path="url(#SVGID_140_)" fill="url(#SVGID_141_)" width="2.614" height="4.229"/>
</g>
<g>
	<defs>
		<path id="SVGID_142_" d="M94.449,64.421l0.018-0.016c-0.012-0.008-0.023-0.015-0.033-0.023
			C94.439,64.396,94.443,64.408,94.449,64.421 M91.638,60.983c-0.147,0.476-0.297,0.954-0.381,1.224
			c1.075,0.738,2.127,1.457,3.177,2.175c-0.564-1.271-1.73-1.739-2.8-2.141c0.042-0.443,0.081-0.854,0.12-1.266
			C91.715,60.979,91.677,60.98,91.638,60.983"/>
	</defs>
	<clipPath id="SVGID_143_">
		<use xlink:href="#SVGID_142_"  overflow="visible"/>
	</clipPath>
	
		<linearGradient id="SVGID_144_" gradientUnits="userSpaceOnUse" x1="-2100.0654" y1="1265.4473" x2="-2099.0654" y2="1265.4473" gradientTransform="matrix(3.2098 0 0 -3.2098 6832.0786 4124.5547)">
		<stop  offset="0" style="stop-color:#CBEBFB"/>
		<stop  offset="1" style="stop-color:#00ADEE"/>
	</linearGradient>
	<rect x="91.257" y="60.976" clip-path="url(#SVGID_143_)" fill="url(#SVGID_144_)" width="3.21" height="3.445"/>
</g>
<g>
	<defs>
		<path id="SVGID_145_" d="M62.389,77.813c1.611-0.327,2.842,0.146,3.599,1.678c-0.358-1.267-1.254-1.979-2.337-1.979
			C63.25,77.511,62.823,77.609,62.389,77.813"/>
	</defs>
	<clipPath id="SVGID_146_">
		<use xlink:href="#SVGID_145_"  overflow="visible"/>
	</clipPath>
	
		<linearGradient id="SVGID_147_" gradientUnits="userSpaceOnUse" x1="-2135.7051" y1="1245.0332" x2="-2134.7051" y2="1245.0332" gradientTransform="matrix(3.5999 0 0 -3.5999 7750.623 4560.4302)">
		<stop  offset="0" style="stop-color:#CBEBFB"/>
		<stop  offset="1" style="stop-color:#00ADEE"/>
	</linearGradient>
	<rect x="62.389" y="77.485" clip-path="url(#SVGID_146_)" fill="url(#SVGID_147_)" width="3.599" height="2.005"/>
</g>
<g>
	<defs>
		<path id="SVGID_148_" d="M76.934,79.541c1.989-0.705,2.777-0.62,4.22,0.419c-0.581-0.717-1.536-1.091-2.438-1.091
			C78.026,78.869,77.368,79.088,76.934,79.541"/>
	</defs>
	<clipPath id="SVGID_149_">
		<use xlink:href="#SVGID_148_"  overflow="visible"/>
	</clipPath>
	
		<linearGradient id="SVGID_150_" gradientUnits="userSpaceOnUse" x1="-2178.813" y1="1220.3379" x2="-2177.813" y2="1220.3379" gradientTransform="matrix(4.2201 0 0 -4.2201 9271.7744 5229.3604)">
		<stop  offset="0" style="stop-color:#CBEBFB"/>
		<stop  offset="1" style="stop-color:#00ADEE"/>
	</linearGradient>
	<rect x="76.934" y="78.836" clip-path="url(#SVGID_149_)" fill="url(#SVGID_150_)" width="4.22" height="1.124"/>
</g>
<g>
	<defs>
		<path id="SVGID_151_" d="M119.095,78.245c-0.293-1.262-1.047-2.069-2.046-2.284C117.705,76.693,118.414,77.486,119.095,78.245"/>
	</defs>
	<clipPath id="SVGID_152_">
		<use xlink:href="#SVGID_151_"  overflow="visible"/>
	</clipPath>
	
		<linearGradient id="SVGID_153_" gradientUnits="userSpaceOnUse" x1="-1912.9272" y1="1372.6621" x2="-1911.9272" y2="1372.6621" gradientTransform="matrix(2.0459 0 0 -2.0459 4030.6597 2885.3943)">
		<stop  offset="0" style="stop-color:#CBEBFB"/>
		<stop  offset="1" style="stop-color:#00ADEE"/>
	</linearGradient>
	<rect x="117.049" y="75.961" clip-path="url(#SVGID_152_)" fill="url(#SVGID_153_)" width="2.046" height="2.284"/>
</g>
<g>
	<defs>
		<path id="SVGID_154_" d="M84.888,98.378c0.746,0.109,1.355,0.199,1.966,0.288l0.05-0.048c-0.541-0.213-1.083-0.426-1.731-0.681
			c-0.017-0.18-0.053-0.576-0.091-0.987C85.011,97.472,84.941,97.987,84.888,98.378 M85.082,96.95
			c0.004-0.026,0.008-0.052,0.011-0.078l-0.019-0.014C85.077,96.888,85.08,96.919,85.082,96.95"/>
	</defs>
	<clipPath id="SVGID_155_">
		<use xlink:href="#SVGID_154_"  overflow="visible"/>
	</clipPath>
	
		<linearGradient id="SVGID_156_" gradientUnits="userSpaceOnUse" x1="-1905.3281" y1="1377.0137" x2="-1904.3281" y2="1377.0137" gradientTransform="matrix(2.0162 0 0 -2.0162 3926.3774 2874.0745)">
		<stop  offset="0" style="stop-color:#CBEBFB"/>
		<stop  offset="1" style="stop-color:#00ADEE"/>
	</linearGradient>
	<rect x="84.888" y="96.858" clip-path="url(#SVGID_155_)" fill="url(#SVGID_156_)" width="2.016" height="1.808"/>
</g>
<g>
	<defs>
		<path id="SVGID_157_" d="M93.596,67.176c1.457-0.4,1.813-1.587,0.9-2.698C94.953,65.593,94.619,66.484,93.596,67.176
			 M94.449,64.421c0.017,0.02,0.033,0.038,0.047,0.057c-0.01-0.024-0.02-0.049-0.029-0.072L94.449,64.421z"/>
	</defs>
	<clipPath id="SVGID_158_">
		<use xlink:href="#SVGID_157_"  overflow="visible"/>
	</clipPath>
	
		<linearGradient id="SVGID_159_" gradientUnits="userSpaceOnUse" x1="-1675.6396" y1="1508.6016" x2="-1674.64" y2="1508.6016" gradientTransform="matrix(1.4015 0 0 -1.4015 2441.9712 2180.0674)">
		<stop  offset="0" style="stop-color:#CBEBFB"/>
		<stop  offset="1" style="stop-color:#00ADEE"/>
	</linearGradient>
	<rect x="93.596" y="64.405" clip-path="url(#SVGID_158_)" fill="url(#SVGID_159_)" width="1.813" height="2.771"/>
</g>
<g>
	<defs>
		<path id="SVGID_160_" d="M88.623,59.067c1.344-0.994,1.289-2.768-0.018-3.496C89.699,56.705,89.518,57.802,88.623,59.067"/>
	</defs>
	<clipPath id="SVGID_161_">
		<use xlink:href="#SVGID_160_"  overflow="visible"/>
	</clipPath>
	
		<linearGradient id="SVGID_162_" gradientUnits="userSpaceOnUse" x1="-1376.8413" y1="1679.7832" x2="-1375.8417" y2="1679.7832" gradientTransform="matrix(1.0035 0 0 -1.0035 1470.2363 1742.948)">
		<stop  offset="0" style="stop-color:#CBEBFB"/>
		<stop  offset="1" style="stop-color:#00ADEE"/>
	</linearGradient>
	<rect x="88.605" y="55.571" clip-path="url(#SVGID_161_)" fill="url(#SVGID_162_)" width="1.361" height="3.496"/>
</g>
<g>
	<defs>
		<path id="SVGID_163_" d="M76.963,62.834c0.09-0.742,0.201-1.661,0.3-2.487C76.498,61.065,76.394,62.02,76.963,62.834"/>
	</defs>
	<clipPath id="SVGID_164_">
		<use xlink:href="#SVGID_163_"  overflow="visible"/>
	</clipPath>
	
		<linearGradient id="SVGID_165_" gradientUnits="userSpaceOnUse" x1="-833.207" y1="1991.2344" x2="-832.207" y2="1991.2344" gradientTransform="matrix(0.6616 0 0 -0.6616 627.8729 1379.0441)">
		<stop  offset="0" style="stop-color:#CBEBFB"/>
		<stop  offset="1" style="stop-color:#00ADEE"/>
	</linearGradient>
	<rect x="76.394" y="60.347" clip-path="url(#SVGID_164_)" fill="url(#SVGID_165_)" width="0.869" height="2.487"/>
</g>
<g>
	<defs>
		<path id="SVGID_166_" d="M111.486,75.019h3.568c-0.552-0.277-1.141-0.417-1.742-0.417
			C112.712,74.602,112.097,74.739,111.486,75.019"/>
	</defs>
	<clipPath id="SVGID_167_">
		<use xlink:href="#SVGID_166_"  overflow="visible"/>
	</clipPath>
	
		<linearGradient id="SVGID_168_" gradientUnits="userSpaceOnUse" x1="-2133.1416" y1="1246.498" x2="-2132.1416" y2="1246.498" gradientTransform="matrix(3.5687 0 0 -3.5687 7723.9561 4523.147)">
		<stop  offset="0" style="stop-color:#CBEBFB"/>
		<stop  offset="1" style="stop-color:#00ADEE"/>
	</linearGradient>
	<rect x="111.486" y="74.602" clip-path="url(#SVGID_167_)" fill="url(#SVGID_168_)" width="3.568" height="0.417"/>
</g>
<g>
	<defs>
		<path id="SVGID_169_" d="M97.184,67.222c0.625-0.105,1.25-0.288,1.879-0.298c0.623-0.008,1.252,0.159,2.123,0.285
			c-0.66-0.358-1.275-0.496-1.857-0.496C98.57,66.713,97.865,66.946,97.184,67.222"/>
	</defs>
	<clipPath id="SVGID_170_">
		<use xlink:href="#SVGID_169_"  overflow="visible"/>
	</clipPath>
	
		<linearGradient id="SVGID_171_" gradientUnits="userSpaceOnUse" x1="-2165.1064" y1="1228.1855" x2="-2164.1064" y2="1228.1855" gradientTransform="matrix(4.0009 0 0 -4.0009 8759.6543 4980.8657)">
		<stop  offset="0" style="stop-color:#CBEBFB"/>
		<stop  offset="1" style="stop-color:#00ADEE"/>
	</linearGradient>
	<rect x="97.184" y="66.713" clip-path="url(#SVGID_170_)" fill="url(#SVGID_171_)" width="4.002" height="0.51"/>
</g>
<g>
	<defs>
		<polyline id="SVGID_172_" points="119.792,64.234 119.756,64.233 119.792,64.234 		"/>
	</defs>
	<clipPath id="SVGID_173_">
		<use xlink:href="#SVGID_172_"  overflow="visible"/>
	</clipPath>
	
		<linearGradient id="SVGID_174_" gradientUnits="userSpaceOnUse" x1="27238.2656" y1="18073.4297" x2="27239.2656" y2="18073.4297" gradientTransform="matrix(0.0356 0 0 -0.0356 -849.6194 707.4449)">
		<stop  offset="0" style="stop-color:#CBEBFB"/>
		<stop  offset="1" style="stop-color:#00ADEE"/>
	</linearGradient>
	<rect x="119.756" y="64.233" clip-path="url(#SVGID_173_)" fill="url(#SVGID_174_)" width="0.035" height="0.003"/>
</g>
<g>
	<defs>
		<path id="SVGID_175_" d="M111.656,79.417c0.137,0.215,0.395,0.354,0.603,0.522c0.114-0.171,0.343-0.366,0.313-0.509
			c-0.041-0.201-0.271-0.365-0.521-0.669C111.852,79.08,111.609,79.342,111.656,79.417"/>
	</defs>
	<clipPath id="SVGID_176_">
		<use xlink:href="#SVGID_175_"  overflow="visible"/>
	</clipPath>
	
		<linearGradient id="SVGID_177_" gradientUnits="userSpaceOnUse" x1="-1286.7324" y1="1731.4082" x2="-1285.7316" y2="1731.4082" gradientTransform="matrix(0.9243 0 0 -0.9243 1301.0015 1679.724)">
		<stop  offset="0" style="stop-color:#CBEBFB"/>
		<stop  offset="1" style="stop-color:#00ADEE"/>
	</linearGradient>
	<rect x="111.609" y="78.762" clip-path="url(#SVGID_176_)" fill="url(#SVGID_177_)" width="0.992" height="1.178"/>
</g>
<g>
	<defs>
		<path id="SVGID_178_" d="M115.205,66.136c0.383,0.328,0.636,0.588,0.938,0.766c0.061,0.035,0.307-0.244,0.467-0.378
			c-0.262-0.251-0.506-0.527-0.797-0.737c-0.006-0.003-0.013-0.005-0.021-0.005C115.711,65.781,115.488,65.967,115.205,66.136"/>
	</defs>
	<clipPath id="SVGID_179_">
		<use xlink:href="#SVGID_178_"  overflow="visible"/>
	</clipPath>
	
		<linearGradient id="SVGID_180_" gradientUnits="userSpaceOnUse" x1="-1676.6763" y1="1507.9961" x2="-1675.6753" y2="1507.9961" gradientTransform="matrix(1.4034 0 0 -1.4034 2468.2698 2182.697)">
		<stop  offset="0" style="stop-color:#CBEBFB"/>
		<stop  offset="1" style="stop-color:#00ADEE"/>
	</linearGradient>
	<rect x="115.205" y="65.781" clip-path="url(#SVGID_179_)" fill="url(#SVGID_180_)" width="1.404" height="1.155"/>
</g>
<g>
	<defs>
		<path id="SVGID_181_" d="M77.849,124.11c-0.186,0.065-0.363,0.149-0.543,0.226c0.127,0.173,0.236,0.47,0.386,0.492
			c0.286,0.044,0.649,0.009,0.875-0.145c0.14-0.099,0.088-0.475,0.139-0.846C78.267,123.977,78.055,124.036,77.849,124.11"/>
	</defs>
	<clipPath id="SVGID_182_">
		<use xlink:href="#SVGID_181_"  overflow="visible"/>
	</clipPath>
	
		<linearGradient id="SVGID_183_" gradientUnits="userSpaceOnUse" x1="-1675.2378" y1="1508.8223" x2="-1674.2378" y2="1508.8223" gradientTransform="matrix(1.4007 0 0 -1.4007 2423.8694 2237.8145)">
		<stop  offset="0" style="stop-color:#CBEBFB"/>
		<stop  offset="1" style="stop-color:#00ADEE"/>
	</linearGradient>
	<rect x="77.306" y="123.838" clip-path="url(#SVGID_182_)" fill="url(#SVGID_183_)" width="1.401" height="1.034"/>
</g>
<g>
	<defs>
		<path id="SVGID_184_" d="M118.072,26.551c-4.961,5.608-4.022,7.965-0.086,12.002c3.938,4.038,0.193,12.339-3.56,14.042
			c0,0,4.13-1.365,6.671-4.844c2.725-3.728,0.223-7.179-3.111-11.666c-3.334-4.486,0.643-7.627,3.561-11.44
			c2.918-3.814-4.066-10.544-4.066-10.544S123.033,20.942,118.072,26.551"/>
	</defs>
	<clipPath id="SVGID_185_">
		<use xlink:href="#SVGID_184_"  overflow="visible"/>
	</clipPath>
	
		<linearGradient id="SVGID_186_" gradientUnits="userSpaceOnUse" x1="-2294.2217" y1="1154.2148" x2="-2293.2219" y2="1154.2148" gradientTransform="matrix(7.8338 0 0 -7.8338 18086.832 9075.1943)">
		<stop  offset="0" style="stop-color:#DCF1FC"/>
		<stop  offset="1" style="stop-color:#20B4E8"/>
	</linearGradient>
	<rect x="113.111" y="14.101" clip-path="url(#SVGID_185_)" fill="url(#SVGID_186_)" width="11.354" height="38.494"/>
</g>
<g>
	<defs>
		<path id="SVGID_187_" d="M59.671,23.859c2.644,3.373,6.627,9.87,3.292,14.357c-3.334,4.486-6.965,7.748-4.921,11.89
			c1.936,3.923,6.319,5.465,6.319,5.465c-3.755-1.703-6.899-10.063-2.963-14.102c3.937-4.039,5.088-8.502,1.423-15.031
			c-3.267-5.816,0.86-13.797,0.86-13.797S56.71,20.079,59.671,23.859"/>
	</defs>
	<clipPath id="SVGID_188_">
		<use xlink:href="#SVGID_187_"  overflow="visible"/>
	</clipPath>
	
		<linearGradient id="SVGID_189_" gradientUnits="userSpaceOnUse" x1="-2568.0625" y1="1156.6689" x2="-2567.0625" y2="1156.6689" gradientTransform="matrix(-7.5924 0 0 -7.5924 -19432.7207 8816.0059)">
		<stop  offset="0" style="stop-color:#DCF1FC"/>
		<stop  offset="1" style="stop-color:#20B4E8"/>
	</linearGradient>
	<rect x="55.998" y="12.642" clip-path="url(#SVGID_188_)" fill="url(#SVGID_189_)" width="10.488" height="42.93"/>
</g>
<g>
	<defs>
		<path id="SVGID_190_" d="M88.759,18.245c-2.275,3.249-0.864,7.072,1.136,9.764c2.002,2.692-2.897,7.179-3.041,10.32
			c-0.146,3.141,4.403,6.954,4.403,6.954s-0.896-3.365-2.149-5.608c-1.254-2.244-0.191-3.142,2.149-7.852
			c2.341-4.711-1.907-7.045-2.149-8.823c-0.242-1.779,3.723-5.982,1.928-8.003c-1.303-1.467-2.922-3.763-3.71-4.909
			C88.352,11.693,90.546,15.696,88.759,18.245 M87.325,10.088C87.044,9.648,86.85,9.39,86.85,9.39S87.029,9.657,87.325,10.088"/>
	</defs>
	<clipPath id="SVGID_191_">
		<use xlink:href="#SVGID_190_"  overflow="visible"/>
	</clipPath>
	
		<linearGradient id="SVGID_192_" gradientUnits="userSpaceOnUse" x1="-2222.3442" y1="1195.3936" x2="-2221.3442" y2="1195.3936" gradientTransform="matrix(5.1091 0 0 -5.1091 11440.9697 6134.6885)">
		<stop  offset="0" style="stop-color:#DCF1FC"/>
		<stop  offset="1" style="stop-color:#20B4E8"/>
	</linearGradient>
	<rect x="86.484" y="9.39" clip-path="url(#SVGID_191_)" fill="url(#SVGID_192_)" width="7.114" height="35.894"/>
</g>
</svg>
