<?xml version="1.0" encoding="utf-8"?>
<!-- Generator: Adobe Illustrator 16.0.3, SVG Export Plug-In . SVG Version: 6.00 Build 0)  -->
<!DOCTYPE svg PUBLIC "-//W3C//DTD SVG 1.1//EN" "http://www.w3.org/Graphics/SVG/1.1/DTD/svg11.dtd">
<svg version="1.1" id="Layer_3" xmlns="http://www.w3.org/2000/svg" xmlns:xlink="http://www.w3.org/1999/xlink" x="0px" y="0px"
	 width="94.943px" height="55.056px" viewBox="0 0 94.943 55.056" enable-background="new 0 0 94.943 55.056" xml:space="preserve">
<g>
	<defs>
		<path id="SVGID_1_" d="M73.764,27.851c0,4.611,3.738,8.347,8.35,8.347c4.609,0,8.347-3.736,8.347-8.347
			c0-4.61-3.737-8.348-8.347-8.348C77.502,19.503,73.764,23.24,73.764,27.851"/>
	</defs>
	<clipPath id="SVGID_2_">
		<use xlink:href="#SVGID_1_"  overflow="visible"/>
	</clipPath>
	
		<linearGradient id="SVGID_3_" gradientUnits="userSpaceOnUse" x1="-3686.9478" y1="534.3892" x2="-3685.9478" y2="534.3892" gradientTransform="matrix(16.6961 0 0 -16.6961 61631.5664 8950.0957)">
		<stop  offset="0" style="stop-color:#DCF2FD"/>
		<stop  offset="0.1184" style="stop-color:#CEEEFC"/>
		<stop  offset="0.3405" style="stop-color:#AAE2F8"/>
		<stop  offset="0.6427" style="stop-color:#70CEF1"/>
		<stop  offset="1" style="stop-color:#23B5E9"/>
	</linearGradient>
	<rect x="73.764" y="19.503" clip-path="url(#SVGID_2_)" fill="url(#SVGID_3_)" width="16.696" height="16.695"/>
</g>
<g>
	<defs>
		<path id="SVGID_4_" d="M35.4,29.459c-0.141-0.031-0.256-0.092-0.335-0.186c-0.005-0.002-0.013-0.002-0.021-0.004
			c-0.161-0.035-0.233-0.182-0.209-0.338c0.027-0.152,0.209-0.181,0.292-0.103c0.072,0.008,0.143,0.056,0.157,0.144
			c0.002,0,0.002,0,0.002,0c0.172,0.031,0.281,0.129,0.327,0.301c0.032,0.115-0.071,0.189-0.171,0.189
			C35.428,29.463,35.414,29.463,35.4,29.459 M33.19,27.211c0.238,0.157,0.517,0.218,0.743,0.392c0.108,0.083,0.198,0.2,0.276,0.308
			c0.184,0.249,0.404,0.538,0.416,0.857c0.004,0.086-0.09,0.165-0.173,0.155c-0.178-0.02-0.308-0.082-0.457-0.177
			c-0.046-0.008-0.092-0.029-0.14-0.067c-0.004-0.004-0.01-0.008-0.014-0.011c-0.13-0.052-0.251-0.054-0.41-0.046
			c-0.258,0.009-0.315-0.081-0.438-0.28c-0.123-0.201-0.475-0.15-0.657-0.299c-0.167-0.134-0.201-0.274-0.155-0.479
			c0.023-0.096,0.172-0.148,0.249-0.081c0.132,0.118,0.565,0.176,0.486-0.109c-0.032-0.123,0.071-0.196,0.171-0.188
			C33.119,27.18,33.156,27.186,33.19,27.211 M31.305,27.529c-0.132-0.027-0.234-0.107-0.296-0.227
			c-0.037-0.072-0.05-0.142-0.123-0.171c-0.197-0.076-0.092-0.387,0.107-0.31c0.123,0.048,0.213,0.13,0.27,0.251
			c0.042,0.094,0.044,0.124,0.148,0.146c0.088,0.02,0.128,0.132,0.101,0.208c-0.023,0.074-0.088,0.107-0.157,0.107
			C31.339,27.534,31.322,27.533,31.305,27.529 M29.373,24.441c-0.098-0.023-0.182-0.141-0.117-0.256
			c0.439-0.776,1.421,0.136,1.816,0.493c0.324,0.293,0.68,0.425,0.812,0.875c0.151,0.512,0.703,0.804,0.804,1.335
			c0.02,0.101-0.063,0.207-0.17,0.195c-0.456-0.051-1.203-0.329-1.285-0.85c-0.064-0.398-0.416-0.749-0.663-1.063
			c-0.023-0.027-0.044-0.056-0.067-0.084c-0.017-0.019-0.033-0.037-0.048-0.058c-0.237-0.289-0.542-0.595-0.935-0.534
			c-0.009,0.001-0.018,0.002-0.027,0.002C29.442,24.497,29.401,24.474,29.373,24.441 M9.623,27.851
			c0,11.179,9.06,20.238,20.236,20.238c7.8,0,14.563-4.414,17.942-10.877c0.032-0.178,0.065-0.359,0.084-0.541
			c0.096-0.986,0.594-1.822,0.809-2.781c0.115-0.518,0.094-0.99,0.286-1.51c0.191-0.512,0.4-1.018,0.613-1.523
			c0.144-0.344,0.296-0.697,0.411-1.057c0.062-0.643,0.094-1.292,0.094-1.949c0-4.106-1.226-7.926-3.329-11.116
			c-0.025-0.009-0.051-0.011-0.074-0.035c-0.033-0.034-0.064-0.071-0.097-0.105c-0.015-0.01-0.028-0.019-0.04-0.033
			c-0.066-0.073-0.127-0.152-0.188-0.229c-0.086-0.104-0.169-0.206-0.251-0.313c-0.033-0.044-0.042-0.088-0.035-0.13
			c-0.011-0.004-0.024-0.008-0.038-0.01c-0.132-0.03-0.126-0.166-0.055-0.249c-0.165-0.216-0.332-0.431-0.504-0.639
			c-0.02,0.011-0.031,0.03-0.054,0.034c-0.103,0.052-0.272,0.149-0.404,0.255c-0.009,0.146-0.082,0.289-0.188,0.396
			c0.024,0.244,0.069,0.478-0.086,0.698c-0.052,0.07-0.141,0.084-0.213,0.046c-0.066,0.044-0.158,0.038-0.218-0.027
			c-0.09-0.098-0.251-0.14-0.354-0.235c-0.148-0.143-0.28-0.299-0.418-0.454c-0.134-0.151-0.268-0.3-0.365-0.479
			c-0.114-0.21-0.184-0.445-0.305-0.648c-0.266-0.444-0.368-1.025-0.667-1.429c-0.321-0.44-0.57-0.948-0.917-1.367l-1.569-1.042
			c-0.088,0.066-0.063,0.164,0.111,0.387c0.077,0.095,0.179,0.183,0.29,0.264c0.053,0.031,0.105,0.062,0.155,0.088
			c0.138,0.079,0.274,0.161,0.404,0.251c0.452,0.274,0.873,0.62,1.143,1.08c0.196,0.333,0.364,1.023-0.132,1.216
			c-0.276,0.104-0.562,0.044-0.829-0.064c0.019,0.035,0.038,0.071,0.057,0.108c0.098,0.17-0.145,0.302-0.27,0.178
			c-0.034-0.033-0.067-0.067-0.099-0.103c-0.046,0.002-0.094-0.009-0.131-0.046c-0.574-0.571-0.959-1.183-1.591-1.634
			c-0.094-0.055-0.192-0.106-0.299-0.155c-0.025,0.099-0.121,0.24-0.241,0.185c-0.244-0.111-0.546-0.201-0.759-0.379
			c-0.113-0.06-0.218-0.127-0.303-0.215c-0.032-0.034-0.047-0.076-0.054-0.122c-0.171,0.002-0.341-0.009-0.51-0.018
			c-0.308-0.018-0.615-0.035-0.921,0.007c-0.119,0.018-0.37,0.027-0.276,0.247c0.031,0.071,0.063,0.143,0.096,0.211
			c0.115,0.239,0.355,0.304,0.533,0.49c0.386,0.408,0.723,0.797,0.754,1.374c0.008,0.155,0.016,0.306,0.058,0.457
			c0.003,0.012,0.007,0.025,0.013,0.039c0.011-0.019,0.023-0.046,0.029-0.085c0.032-0.18,0.094-0.287,0.26-0.36
			c0.094-0.04,0.188-0.017,0.274,0.004c0.142,0.037,0.266,0.073,0.343-0.178c0.059-0.201-0.054-0.406,0.107-0.578
			c0.22-0.239,0.247-0.729,0.657-0.693c0.081,0.008,0.18,0.074,0.282,0.16c0.218,0.075,0.532,0.468,0.701,0.603
			c0.301,0.239,0.609,0.45,0.662,0.863c0.004,0.037,0.012,0.065,0.022,0.092c0.114-0.007,0.252-0.062,0.381-0.076
			c0.084-0.012,0.18,0.034,0.193,0.128c0.002,0.008,0.004,0.017,0.006,0.025c0.009-0.002,0.021-0.004,0.03-0.006
			c0.085-0.01,0.181,0.034,0.194,0.129c0.068,0.499,0.42,1.003,0.655,1.439c0.245,0.454,0.726,0.714,0.963,1.174
			c0.11,0.207,0.227,0.462,0.196,0.703c-0.012,0.111-0.039,0.207-0.079,0.313c-0.078,0.219,0,0.321,0.159,0.452
			c0.366,0.301,0.433,0.691,0.445,1.147c0.002,0.067-0.064,0.144-0.13,0.149c-0.28,0.026-0.535-0.115-0.771-0.287
			c-0.246-0.136-0.47-0.341-0.679-0.493c-0.051-0.032-0.105-0.065-0.153-0.101c-0.264-0.163-0.603-0.354-0.473-0.717
			c0.054-0.146,0.146-0.267,0.24-0.389c0.011-0.018,0.042-0.05,0.067-0.085c-0.201-0.015-0.352-0.08-0.563-0.193
			c-0.324-0.172-0.661-0.31-1.01-0.425c-0.019-0.006-0.04-0.012-0.061-0.016c0.038,0.022,0.074,0.05,0.107,0.085
			c0.006,0.005,0.01,0.011,0.015,0.017c0.081,0.027,0.156,0.065,0.215,0.13c0.245,0.264-0.01,0.467,0.094,0.741
			c0.019,0.05,0.046,0.092,0.076,0.131c0.103,0.042,0.201,0.086,0.299,0.135c0.052,0.022,0.113,0.066,0.172,0.121
			c0.02,0.009,0.041,0.017,0.06,0.025c0.247,0.117,0.72,0.688,0.247,0.847c-0.255,0.084-0.592,0.054-0.854,0.04
			c-0.305-0.017-0.592-0.068-0.876-0.188c-0.042-0.02-0.084-0.058-0.103-0.104c-0.042-0.015-0.084-0.028-0.126-0.046
			c-0.075-0.03-0.144-0.125-0.102-0.207c0.004-0.011,0.008-0.019,0.014-0.028c-0.081,0.012-0.161,0.024-0.236,0.032
			c-0.153,0.016-0.307,0.014-0.456,0.04c-0.184,0.031-0.4,0.048-0.224,0.26c0.063,0.077,0.048,0.212-0.052,0.254
			c-0.228,0.096-0.437,0.024-0.67-0.008c-0.286-0.042-0.6,0.045-0.874,0.133c-0.191,0.061-0.365,0.165-0.519,0.297
			c-0.103,0.236-0.249,0.458-0.423,0.63c-0.036,0.094-0.069,0.189-0.113,0.278c-0.124,0.249-0.284,0.308-0.554,0.293
			c-0.356-0.02-0.676-0.04-1.034,0.026c-0.352,0.067-0.846,0.12-1.13,0.367c-0.255,0.221-0.312,0.563-0.345,0.881
			c-0.042,0.441-0.074,1.533-0.704,1.592c-0.136,0.015-0.229-0.05-0.292-0.148c-0.385-0.033-0.367-0.745-0.362-1.006
			c0.008-0.318,0.096-0.598,0.136-0.91c0.002-0.023,0.039-0.233,0.037-0.393c-0.04,0-0.083-0.006-0.127-0.024
			c-0.057-0.025-0.124-0.073-0.17-0.13c-0.019-0.004-0.039-0.011-0.06-0.021c-0.091-0.04-0.21-0.134-0.221-0.247
			c-0.015-0.228-0.15-0.319-0.331-0.433c-0.056-0.034-0.15-0.113-0.255-0.191c-0.148-0.077-0.285-0.096-0.349,0.053
			c-0.07,0.17-0.174,0.465-0.419,0.427c-0.134-0.021-0.226-0.083-0.299-0.167c-0.212-0.063-0.309-0.239-0.408-0.444
			c-0.055-0.115-0.107-0.219-0.182-0.301c-0.174-0.062-0.35-0.105-0.532-0.124c-0.356-0.041-0.738-0.05-1.081,0.064
			c-0.003,0.003-0.007,0.004-0.011,0.004c-0.002,0.002-0.006,0.002-0.008,0.002c-0.04,0.016-0.078,0.014-0.112,0.002
			c-0.258,0.012-0.253,0.313-0.402,0.484c-0.144,0.168-0.308,0.239-0.492,0.354c-0.707,0.437-1.035,2.186-0.353,2.812
			c0.008,0.004,0.014,0.008,0.021,0.011c0.291,0.115,0.691,0.317,1.018,0.236c0.067-0.038,0.139-0.075,0.212-0.104
			c0.013-0.013,0.027-0.023,0.04-0.037c0.255-0.251,0.408-0.302,0.763-0.216c0.199,0.05,0.561,0.112,0.737,0.295
			c0.163,0.07,0.301,0.174,0.328,0.335c0.065,0.401-0.322,0.598-0.592,0.808c-0.203,0.159-0.356,0.366-0.542,0.542
			c-0.18,0.167-0.399,0.27-0.581,0.424c0.077,0.025,0.156,0.051,0.23,0.078c0.188,0.071,0.372,0.171,0.538,0.278
			c0.039,0.024,0.075,0.05,0.111,0.075c0.041,0.024,0.081,0.049,0.119,0.073c0.35,0.225,0.621,0.496,0.744,0.899
			c0.005,0.02,0.007,0.036,0.005,0.051c0.062,0.196,0.008,0.376-0.166,0.508c-0.286,0.217-0.533,0.348-0.656,0.717
			c-0.109,0.336-0.082,0.792,0.092,1.106c0.018,0.029,0.035,0.055,0.054,0.078c0.172,0.045,0.374,0.016,0.567,0.098
			c0.092,0.037,0.165,0.088,0.226,0.146c0.002,0,0.002,0,0.004,0c0.438,0.182,0.452,0.627,0.709,0.963
			c0.001,0.004,0.003,0.004,0.007,0.006c0.322,0.037,0.659-0.533,1.006-0.551c0.134-0.006,0.268,0.01,0.4,0.025
			c0.174,0.02,0.351,0.037,0.531,0.01c0.216-0.037,0.467-0.09,0.683-0.031c0.104,0.029,0.188,0.082,0.249,0.156
			c0.211,0.066,0.341,0.244,0.328,0.453c0.105,0.027,0.186,0.082,0.257,0.156c0.21,0.066,0.316,0.25,0.467,0.475
			c0.224,0.33,0.456,0.447,0.728,0.729c0.046,0.047,0.086,0.102,0.128,0.15c0.016,0.004,0.033,0.008,0.05,0.008
			c0.079,0.004,0.147,0.002,0.215-0.002c0.107-0.008,0.206-0.014,0.317,0.014c0.052-0.016,0.112-0.006,0.155,0.057
			c0.006,0.008,0.01,0.016,0.016,0.023c0.017,0.016,0.029,0.031,0.036,0.049c0.004,0.006,0.008,0.014,0.01,0.018
			c0.006,0.002,0.01,0.002,0.011,0.002c0.054-0.016,0.113-0.004,0.157,0.055c0.006,0.008,0.01,0.016,0.017,0.023
			c0.017,0.016,0.027,0.035,0.036,0.053c0.33,0.473,0.548,1.006,0.868,1.486c0.221,0.328,0.227,0.705,0.402,1.043
			c0.048,0.092,0.113,0.168,0.188,0.23c0.306,0.156,0.689,0.234,0.961,0.412c0.035,0.021,0.063,0.045,0.088,0.068
			c0.05,0.025,0.098,0.049,0.142,0.078c0.303,0.199,0.282,0.469,0.379,0.787c0.063,0.207,0.129,0.402,0.146,0.619
			c0.022,0.289-0.025,0.58-0.011,0.869c0.011,0.24,0.017,0.477,0.199,0.637c0.095,0.053,0.195,0.109,0.277,0.176
			c0.121,0.066,0.242,0.139,0.32,0.234c0.113,0.145,0.157,0.398,0.272,0.533c0.186,0.068,0.391,0.072,0.561,0.191
			c0.035,0.023,0.066,0.051,0.092,0.08c0.048,0.016,0.096,0.037,0.138,0.068c0.376,0.264,0.351,0.766,0.742,1.008
			c0.084,0.053,0.088,0.141,0.047,0.207c0.008,0.027,0.01,0.059,0,0.092c-0.166,0.57-0.731,1.15-1.281,1.371
			c-0.866,0.342-1.606,0.975-2.371,1.496c-0.385,0.26-0.777,0.48-1.186,0.699c-0.31,0.164-0.613,0.352-0.95,0.453
			c-0.419,0.131-0.854,0.131-1.289,0.131c-0.417,0-0.835-0.002-1.239,0.111c-0.443,0.121-0.86,0.32-1.305,0.434
			c-0.4,0.102-0.81,0.18-1.212,0.275c-0.343,0.082-0.768,0.178-1.119,0.074c-0.247-0.074-0.505-0.232-0.768-0.123
			c-0.139,0.059-0.283,0.141-0.434,0.172c-0.375,0.076-0.76-0.01-1.124-0.104c-0.205-0.055-0.403-0.082-0.615-0.078
			c-0.151,0.004-0.333,0.043-0.467-0.047c-0.044-0.029-0.146,0.006-0.249,0.039c-0.086,0.027-0.176,0.057-0.23,0.047
			c-0.166-0.031-0.467-0.193-0.615-0.094c-0.291,0.191-0.58,0.094-0.889-0.018c-0.049-0.018-0.078-0.049-0.093-0.086
			c-0.238-0.045-0.468-0.148-0.69-0.238c-0.063-0.025-0.111-0.066-0.145-0.115c-0.029-0.012-0.058-0.021-0.085-0.033
			c-0.065-0.027-0.114-0.07-0.149-0.117c-0.021-0.01-0.044-0.02-0.065-0.029c-0.14-0.061-0.243-0.191-0.189-0.35
			c0.109-0.32,0.498-0.281,0.686-0.514c0.176-0.223,0.362-0.365,0.634-0.459c0.427-0.143,0.733-0.352,1.071-0.652
			c0.287-0.254,0.568-0.516,0.838-0.787c0.255-0.26,0.533-0.521,0.702-0.85c0.151-0.291,0.339-0.805,0.164-1.125
			c-0.191-0.35-0.544-0.604-0.77-0.938c-0.159-0.232-0.325-0.506-0.341-0.797c-0.015-0.324,0.071-0.645,0.064-0.971
			c-0.01-0.361-0.033-0.723-0.058-1.082c-0.126-0.346-0.212-0.705-0.262-1.063c-0.084-0.234-0.157-0.469-0.156-0.719
			c0.002-0.205,0.056-0.432,0.221-0.57c0.134-0.117,0.438-0.109,0.45-0.291c0-0.029,0.008-0.053,0.019-0.074
			c0.002-0.01-0.002-0.02,0.002-0.029c0.228-0.637,0.611-1.18,1.245-1.453c0.157-0.068,0.301-0.137,0.471-0.166
			c0.155-0.025,0.314-0.021,0.458-0.094c0.381-0.191,0.121-0.691,0.314-1.043c0.002-0.002-0.469-0.006-0.469-0.006v-0.012
			c0-0.17,0.567-0.656,0.456-0.891c-0.131,0.012,0.074,0.15-0.1,0.186c-0.214,0.043-0.249-0.029-0.339-0.143
			c-0.302-0.059-0.281-0.457-0.596-0.658c-0.254-0.164-0.381-0.338-0.406-0.652c-0.019-0.244-0.09-0.354-0.276-0.514
			c-0.07-0.061-0.138-0.176-0.148-0.273c-0.044-0.361-0.002-0.711-0.086-1.073c-0.071-0.304-0.152-0.601-0.194-0.906
			c-0.069-0.098-0.107-0.2-0.12-0.297c-0.207-0.249-0.471-0.452-0.636-0.736c-0.182-0.308-0.266-0.661-0.444-0.969
			c-0.035-0.062-0.075-0.111-0.117-0.157c-0.071-0.034-0.132-0.075-0.18-0.125c-0.016-0.005-0.027-0.013-0.041-0.019
			c-0.147-0.062-0.306-0.111-0.463-0.183c-0.102-0.044-0.192-0.101-0.272-0.168c-0.272-0.134-0.471-0.368-0.6-0.642
			c-0.153-0.329-0.308-0.634-0.496-0.942c-0.185-0.303-0.3-0.661-0.419-0.994c-0.096-0.268-0.171-0.577-0.098-0.859
			c0.096-0.384,0.337-0.718,0.431-1.105c0.107-0.442,0.048-0.896,0.086-1.347c0.017-0.199,0.033-0.4,0.058-0.602
			c-0.01,0.021-0.017,0.04-0.029,0.062c-0.203,0.394-0.19,0.779-0.306,1.19c-0.018,0.063-0.062,0.095-0.108,0.106
			c-0.004,0.005-0.011,0.009-0.015,0.017c-0.073,0.168-0.331,0.105-0.337-0.044c-0.107,0.01-0.209-0.079-0.153-0.207
			c0.143-0.333-0.527-0.533-0.466-0.861c0.031-0.165-0.668-0.311-0.163-0.448v-0.002c-0.505-0.082,0.28-0.172,0.317-0.282
			c0.01-0.032,0.163-0.071,0.176-0.103c-0.011-0.062,0.083-0.123,0.079-0.19c-0.027-0.331,0.308-0.315,0.435-0.542
			c0.188-0.331,0.216-0.762,0.375-1.116c0.077-0.171,0.188-0.366,0.313-0.508c0.04-0.046,0.151-0.134,0.214-0.222
			c-0.015-0.086-0.025-0.175-0.031-0.262c-0.107-0.154-0.099-0.35-0.047-0.533c0.155-0.551,0.54-1.107,0.938-1.512
			c0.504-0.506,1.138-0.922,1.804-1.173c0.341-0.128,0.724-0.247,1.004-0.492c0.28-0.244,0.387-0.604,0.64-0.87
			c0.379-0.401,0.814-0.643,1.293-0.89c0.045-0.024,0.502-0.261,0.465-0.321c-0.002-0.003-0.004-0.003-0.004-0.005
			c-0.245-0.068-0.588-0.022-0.764-0.002c-0.111,0.015-0.178-0.068-0.19-0.152c-0.013,0-0.028,0.004-0.04,0.004
			c-0.201,0.024-0.268-0.269-0.09-0.316c0.031-0.036,0.077-0.061,0.13-0.056c0.828-0.016,1.653-0.076,2.479-0.124
			c0.699-0.042,1.523-0.151,2.183,0.151c0.112,0.05,0.207,0.122,0.314,0.18c0.179,0.098,0.376,0.094,0.566,0.151
			c0.145,0.044,0.258,0.111,0.356,0.197c0.199,0.09,0.333,0.234,0.463,0.416c-0.002-0.021-0.007-0.043-0.007-0.063
			c-0.008-0.183,0.069-0.364,0.239-0.459c0.446-0.251,1.423,0.188,1.883,0.289c0.394,0.084,0.779,0.178,1.161,0.282
			c-2.408-1.009-5.051-1.567-7.825-1.567C18.683,7.613,9.623,16.674,9.623,27.851"/>
	</defs>
	<clipPath id="SVGID_5_">
		<use xlink:href="#SVGID_4_"  overflow="visible"/>
	</clipPath>
	
		<linearGradient id="SVGID_6_" gradientUnits="userSpaceOnUse" x1="-3732.6851" y1="533.5142" x2="-3731.6851" y2="533.5142" gradientTransform="matrix(40.4755 0 0 -40.4755 151091.8906 21622.1055)">
		<stop  offset="0" style="stop-color:#DCF2FD"/>
		<stop  offset="0.1184" style="stop-color:#CEEEFC"/>
		<stop  offset="0.3405" style="stop-color:#AAE2F8"/>
		<stop  offset="0.6427" style="stop-color:#70CEF1"/>
		<stop  offset="1" style="stop-color:#23B5E9"/>
	</linearGradient>
	<rect x="9.623" y="7.613" clip-path="url(#SVGID_5_)" fill="url(#SVGID_6_)" width="40.474" height="40.475"/>
</g>
</svg>
