<?xml version="1.0" encoding="utf-8"?>
<!-- Generator: Adobe Illustrator 16.0.3, SVG Export Plug-In . SVG Version: 6.00 Build 0)  -->
<!DOCTYPE svg PUBLIC "-//W3C//DTD SVG 1.1//EN" "http://www.w3.org/Graphics/SVG/1.1/DTD/svg11.dtd">
<svg version="1.1" id="Layer_3" xmlns="http://www.w3.org/2000/svg" xmlns:xlink="http://www.w3.org/1999/xlink" x="0px" y="0px"
	 width="184.27px" height="141.011px" viewBox="0 0 184.27 141.011" enable-background="new 0 0 184.27 141.011"
	 xml:space="preserve">
<g>
	<defs>
		<path id="SVGID_1_" d="M51.342,71.403c0,33.138,26.854,59.99,59.989,59.99c33.133,0,59.988-26.852,59.988-59.99
			c0-33.128-26.855-59.988-59.988-59.988C78.195,11.415,51.342,38.275,51.342,71.403"/>
	</defs>
	<clipPath id="SVGID_2_">
		<use xlink:href="#SVGID_1_"  overflow="visible"/>
	</clipPath>
	
		<linearGradient id="SVGID_3_" gradientUnits="userSpaceOnUse" x1="-3219.7495" y1="942.228" x2="-3218.7495" y2="942.228" gradientTransform="matrix(119.9767 0 0 -119.9767 386346.25 113116.7578)">
		<stop  offset="0" style="stop-color:#DCF1FC"/>
		<stop  offset="1" style="stop-color:#24B4E8"/>
	</linearGradient>
	<rect x="51.342" y="11.415" clip-path="url(#SVGID_2_)" fill="url(#SVGID_3_)" width="119.976" height="119.978"/>
</g>
<g>
	<defs>
		<path id="SVGID_4_" d="M30.922,75.395c-0.107-0.023-0.197-0.072-0.256-0.145c-0.007-0.002-0.012-0.002-0.018-0.004
			c-0.122-0.025-0.179-0.139-0.159-0.258c0.018-0.117,0.16-0.141,0.222-0.08c0.057,0.006,0.112,0.045,0.122,0.109h0.002
			c0.132,0.025,0.217,0.102,0.252,0.232c0.024,0.09-0.055,0.148-0.132,0.148C30.944,75.399,30.933,75.397,30.922,75.395
			 M29.222,73.663c0.182,0.121,0.396,0.17,0.572,0.303c0.082,0.064,0.15,0.152,0.212,0.236c0.142,0.191,0.311,0.414,0.321,0.662
			c0.001,0.064-0.07,0.125-0.134,0.119c-0.137-0.018-0.237-0.064-0.354-0.139c-0.035-0.006-0.072-0.023-0.107-0.051
			c-0.003-0.004-0.006-0.008-0.011-0.01c-0.099-0.039-0.193-0.041-0.314-0.035c-0.199,0.006-0.244-0.061-0.338-0.215
			c-0.095-0.156-0.366-0.117-0.507-0.23c-0.128-0.102-0.153-0.211-0.118-0.367c0.016-0.076,0.132-0.115,0.189-0.066
			c0.103,0.092,0.436,0.139,0.376-0.084c-0.025-0.092,0.054-0.146,0.131-0.143C29.167,73.639,29.195,73.645,29.222,73.663
			 M27.769,73.909c-0.1-0.021-0.18-0.084-0.227-0.176c-0.028-0.055-0.038-0.109-0.095-0.129c-0.151-0.061-0.07-0.299,0.082-0.24
			c0.095,0.037,0.165,0.102,0.209,0.193c0.033,0.072,0.033,0.096,0.113,0.111c0.067,0.018,0.099,0.102,0.079,0.162
			c-0.021,0.057-0.07,0.082-0.124,0.082C27.794,73.913,27.782,73.911,27.769,73.909 M26.282,71.532
			c-0.075-0.019-0.139-0.108-0.089-0.198c0.338-0.598,1.093,0.103,1.397,0.378c0.249,0.229,0.523,0.329,0.625,0.676
			c0.117,0.394,0.541,0.619,0.62,1.027c0.015,0.076-0.049,0.16-0.132,0.152c-0.351-0.041-0.926-0.254-0.99-0.656
			c-0.048-0.305-0.321-0.577-0.511-0.818c-0.017-0.021-0.034-0.042-0.05-0.064c-0.014-0.015-0.027-0.028-0.037-0.045
			c-0.184-0.222-0.418-0.456-0.72-0.411c-0.008,0.001-0.015,0.002-0.022,0.002C26.335,71.574,26.303,71.557,26.282,71.532
			 M11.077,74.157c0,8.604,6.976,15.578,15.581,15.578c6.004,0,11.21-3.398,13.811-8.371c0.025-0.139,0.05-0.277,0.064-0.416
			c0.075-0.762,0.458-1.404,0.623-2.143c0.089-0.4,0.072-0.766,0.221-1.16c0.147-0.396,0.307-0.785,0.471-1.176
			c0.11-0.264,0.227-0.535,0.316-0.814c0.047-0.492,0.073-0.992,0.073-1.498c0-3.164-0.944-6.103-2.563-8.56
			c-0.02-0.005-0.04-0.006-0.058-0.025c-0.025-0.026-0.049-0.055-0.074-0.082c-0.012-0.006-0.022-0.015-0.032-0.024
			c-0.05-0.059-0.097-0.117-0.143-0.178c-0.066-0.078-0.131-0.159-0.194-0.239c-0.025-0.034-0.032-0.067-0.025-0.102
			c-0.01-0.001-0.02-0.005-0.03-0.006c-0.102-0.024-0.097-0.127-0.044-0.191c-0.127-0.167-0.254-0.333-0.388-0.495
			c-0.013,0.011-0.023,0.025-0.041,0.027c-0.079,0.04-0.208,0.117-0.31,0.197c-0.008,0.114-0.063,0.221-0.145,0.306
			c0.018,0.188,0.053,0.368-0.067,0.535c-0.038,0.055-0.109,0.067-0.164,0.037c-0.052,0.033-0.122,0.028-0.167-0.021
			c-0.07-0.075-0.194-0.108-0.272-0.183c-0.116-0.108-0.216-0.229-0.321-0.349c-0.104-0.117-0.209-0.231-0.283-0.369
			c-0.087-0.161-0.142-0.345-0.235-0.5c-0.204-0.343-0.283-0.787-0.512-1.101c-0.249-0.337-0.439-0.729-0.707-1.053l-1.208-0.802
			c-0.067,0.052-0.047,0.127,0.087,0.299c0.058,0.074,0.137,0.143,0.222,0.202c0.042,0.025,0.082,0.047,0.119,0.069
			c0.106,0.06,0.21,0.124,0.312,0.193c0.346,0.21,0.67,0.477,0.879,0.83c0.151,0.256,0.281,0.788-0.102,0.936
			c-0.212,0.082-0.431,0.034-0.638-0.05c0.015,0.027,0.028,0.056,0.045,0.082c0.075,0.133-0.114,0.234-0.209,0.14
			c-0.027-0.027-0.052-0.055-0.077-0.079c-0.035,0.002-0.072-0.006-0.1-0.036c-0.443-0.44-0.739-0.91-1.225-1.257
			c-0.072-0.042-0.147-0.082-0.229-0.121c-0.019,0.076-0.094,0.186-0.186,0.142c-0.188-0.085-0.421-0.154-0.585-0.29
			c-0.087-0.046-0.167-0.097-0.232-0.166c-0.025-0.026-0.037-0.058-0.042-0.095c-0.134,0.002-0.267-0.005-0.401-0.014
			c-0.234-0.012-0.468-0.025-0.7,0.007c-0.092,0.014-0.285,0.02-0.213,0.191c0.024,0.055,0.049,0.107,0.074,0.161
			c0.089,0.185,0.274,0.234,0.411,0.376c0.298,0.316,0.555,0.613,0.58,1.061c0.005,0.118,0.012,0.233,0.043,0.351
			c0.004,0.008,0.007,0.019,0.012,0.03c0.009-0.015,0.017-0.037,0.022-0.065c0.025-0.139,0.072-0.223,0.2-0.277
			c0.072-0.03,0.144-0.014,0.209,0.003c0.111,0.029,0.206,0.057,0.266-0.137c0.047-0.155-0.042-0.314,0.082-0.446
			c0.171-0.185,0.191-0.563,0.507-0.533c0.061,0.007,0.138,0.057,0.217,0.124c0.167,0.056,0.409,0.361,0.538,0.463
			c0.232,0.186,0.47,0.346,0.512,0.665c0.003,0.028,0.008,0.05,0.015,0.072c0.088-0.009,0.195-0.049,0.294-0.062
			c0.063-0.008,0.138,0.027,0.148,0.1c0,0.007,0.004,0.012,0.004,0.018c0.008,0,0.017-0.001,0.025-0.003
			c0.065-0.007,0.139,0.027,0.149,0.099c0.051,0.385,0.322,0.772,0.504,1.11c0.188,0.347,0.559,0.549,0.742,0.902
			c0.082,0.161,0.173,0.355,0.151,0.542c-0.012,0.085-0.032,0.158-0.06,0.24c-0.062,0.169-0.002,0.247,0.12,0.348
			c0.283,0.23,0.333,0.532,0.343,0.883c0.001,0.051-0.049,0.112-0.101,0.115c-0.214,0.02-0.411-0.087-0.593-0.221
			c-0.187-0.104-0.361-0.263-0.521-0.378c-0.04-0.025-0.081-0.052-0.119-0.078c-0.204-0.125-0.463-0.272-0.363-0.553
			c0.04-0.111,0.111-0.205,0.184-0.3c0.01-0.014,0.032-0.037,0.054-0.063c-0.156-0.013-0.273-0.063-0.435-0.149
			c-0.251-0.133-0.51-0.24-0.777-0.327c-0.017-0.005-0.032-0.009-0.049-0.012c0.03,0.017,0.059,0.037,0.084,0.063
			c0.003,0.006,0.007,0.01,0.012,0.015c0.061,0.02,0.118,0.052,0.165,0.102c0.187,0.2-0.008,0.358,0.072,0.57
			c0.015,0.038,0.035,0.07,0.058,0.1c0.077,0.032,0.154,0.067,0.231,0.103c0.04,0.018,0.087,0.052,0.132,0.095
			c0.015,0.007,0.03,0.014,0.045,0.02c0.191,0.09,0.555,0.529,0.191,0.651c-0.196,0.065-0.455,0.041-0.657,0.031
			c-0.236-0.013-0.456-0.053-0.674-0.146c-0.033-0.013-0.065-0.044-0.08-0.079c-0.032-0.011-0.065-0.021-0.097-0.034
			c-0.057-0.023-0.11-0.098-0.078-0.16c0.003-0.009,0.006-0.016,0.01-0.022c-0.062,0.011-0.124,0.021-0.183,0.025
			c-0.117,0.012-0.234,0.01-0.351,0.03c-0.14,0.024-0.305,0.039-0.172,0.2c0.05,0.061,0.037,0.164-0.04,0.195
			c-0.174,0.074-0.334,0.02-0.515-0.006c-0.22-0.032-0.461,0.035-0.672,0.102c-0.147,0.047-0.282,0.127-0.399,0.229
			c-0.08,0.182-0.192,0.352-0.328,0.484c-0.026,0.073-0.051,0.146-0.085,0.216c-0.097,0.189-0.219,0.236-0.426,0.226
			c-0.276-0.015-0.522-0.032-0.797,0.021c-0.271,0.05-0.65,0.092-0.869,0.281c-0.198,0.171-0.241,0.432-0.266,0.68
			c-0.034,0.339-0.059,1.178-0.543,1.225c-0.106,0.01-0.176-0.039-0.224-0.115c-0.296-0.025-0.283-0.573-0.278-0.773
			c0.005-0.244,0.072-0.46,0.104-0.701c0.001-0.019,0.03-0.18,0.028-0.301c-0.032,0-0.063-0.005-0.097-0.021
			c-0.045-0.02-0.097-0.056-0.132-0.1c-0.015-0.003-0.03-0.008-0.045-0.016c-0.07-0.031-0.164-0.104-0.169-0.189
			c-0.013-0.176-0.118-0.246-0.257-0.333c-0.042-0.027-0.114-0.087-0.196-0.147c-0.113-0.06-0.22-0.074-0.267,0.038
			c-0.055,0.132-0.134,0.36-0.323,0.33c-0.103-0.017-0.175-0.063-0.232-0.129c-0.162-0.049-0.236-0.184-0.313-0.341
			c-0.041-0.09-0.082-0.169-0.14-0.232c-0.134-0.047-0.269-0.081-0.411-0.097c-0.273-0.03-0.565-0.037-0.831,0.051
			c-0.002,0-0.005,0.002-0.008,0.004c-0.002,0-0.004,0-0.007,0.001c-0.03,0.011-0.06,0.011-0.087,0
			c-0.199,0.011-0.194,0.241-0.307,0.375c-0.112,0.129-0.239,0.185-0.382,0.272c-0.543,0.336-0.795,1.682-0.27,2.165
			c0.005,0.001,0.01,0.005,0.016,0.006c0.224,0.091,0.532,0.246,0.784,0.184c0.054-0.029,0.107-0.058,0.162-0.082
			c0.012-0.01,0.022-0.016,0.032-0.027c0.196-0.194,0.313-0.232,0.587-0.165c0.152,0.038,0.431,0.086,0.568,0.227
			c0.126,0.054,0.231,0.134,0.251,0.257c0.052,0.31-0.247,0.46-0.455,0.622c-0.157,0.122-0.274,0.283-0.418,0.418
			c-0.137,0.129-0.307,0.205-0.446,0.327c0.059,0.02,0.119,0.037,0.177,0.061c0.145,0.055,0.286,0.129,0.415,0.213
			c0.028,0.018,0.057,0.039,0.083,0.059c0.032,0.02,0.064,0.037,0.094,0.057c0.267,0.172,0.478,0.381,0.57,0.691
			c0.005,0.014,0.007,0.027,0.007,0.041c0.045,0.148,0.005,0.287-0.129,0.389c-0.219,0.168-0.411,0.268-0.505,0.553
			c-0.083,0.258-0.063,0.607,0.07,0.85c0.014,0.025,0.027,0.043,0.042,0.061c0.132,0.035,0.288,0.014,0.436,0.076
			c0.072,0.029,0.127,0.068,0.174,0.113c0.002,0,0.002,0,0.004,0c0.336,0.139,0.347,0.482,0.544,0.74
			c0.004,0.004,0.004,0.004,0.007,0.006c0.248,0.029,0.507-0.412,0.774-0.424c0.104-0.004,0.206,0.006,0.308,0.018
			c0.135,0.016,0.27,0.031,0.409,0.008c0.167-0.027,0.359-0.07,0.527-0.023c0.078,0.021,0.145,0.063,0.19,0.121
			c0.164,0.051,0.264,0.188,0.252,0.348c0.082,0.021,0.144,0.063,0.198,0.121c0.164,0.051,0.244,0.193,0.361,0.365
			c0.172,0.256,0.351,0.344,0.56,0.561c0.035,0.037,0.066,0.078,0.098,0.115c0.014,0.004,0.025,0.006,0.039,0.006
			c0.058,0.002,0.113,0,0.164-0.002c0.083-0.006,0.16-0.01,0.245,0.012c0.04-0.012,0.085-0.004,0.121,0.043
			c0.003,0.006,0.006,0.012,0.011,0.018c0.014,0.012,0.022,0.025,0.027,0.039c0.003,0.006,0.007,0.008,0.008,0.014
			c0.004,0,0.007,0.002,0.01,0.002c0.041-0.014,0.086-0.004,0.121,0.041c0.003,0.008,0.006,0.012,0.011,0.02
			c0.014,0.012,0.022,0.023,0.027,0.039c0.256,0.363,0.423,0.775,0.669,1.145c0.169,0.252,0.174,0.543,0.311,0.803
			c0.036,0.07,0.085,0.127,0.143,0.178c0.236,0.119,0.53,0.18,0.741,0.316c0.025,0.016,0.048,0.035,0.068,0.053
			c0.037,0.02,0.074,0.039,0.109,0.063c0.232,0.152,0.216,0.359,0.291,0.604c0.047,0.16,0.1,0.313,0.113,0.477
			c0.017,0.223-0.02,0.447-0.01,0.672c0.009,0.182,0.014,0.363,0.154,0.488c0.074,0.041,0.151,0.084,0.214,0.135
			c0.092,0.051,0.186,0.105,0.246,0.182c0.087,0.111,0.12,0.307,0.209,0.41c0.142,0.053,0.301,0.055,0.433,0.146
			c0.026,0.018,0.048,0.039,0.072,0.061c0.035,0.014,0.072,0.031,0.105,0.055c0.289,0.203,0.269,0.59,0.57,0.775
			c0.065,0.041,0.067,0.109,0.037,0.16c0.006,0.02,0.006,0.045,0,0.07c-0.127,0.438-0.563,0.887-0.987,1.055
			c-0.666,0.264-1.236,0.752-1.826,1.152c-0.295,0.199-0.599,0.371-0.913,0.537c-0.237,0.125-0.471,0.271-0.73,0.35
			c-0.323,0.102-0.657,0.102-0.993,0.102c-0.321-0.002-0.642-0.002-0.955,0.084c-0.339,0.094-0.662,0.246-1.004,0.334
			c-0.308,0.08-0.622,0.139-0.931,0.213c-0.264,0.064-0.593,0.137-0.863,0.057c-0.19-0.059-0.389-0.18-0.591-0.092
			c-0.107,0.045-0.218,0.107-0.333,0.131c-0.289,0.057-0.585-0.01-0.866-0.082c-0.157-0.041-0.311-0.063-0.473-0.059
			c-0.117,0.004-0.255,0.031-0.359-0.037c-0.035-0.021-0.114,0.004-0.192,0.031c-0.067,0.021-0.136,0.043-0.176,0.035
			c-0.13-0.025-0.361-0.148-0.474-0.072c-0.224,0.148-0.448,0.072-0.686-0.012c-0.037-0.014-0.06-0.039-0.072-0.068
			c-0.182-0.031-0.359-0.111-0.531-0.184c-0.049-0.02-0.084-0.051-0.111-0.086c-0.021-0.01-0.043-0.02-0.065-0.029
			c-0.05-0.02-0.088-0.051-0.115-0.09c-0.017-0.006-0.034-0.014-0.05-0.021c-0.107-0.047-0.187-0.146-0.146-0.27
			c0.084-0.246,0.383-0.215,0.529-0.395c0.135-0.172,0.277-0.279,0.486-0.352c0.331-0.113,0.565-0.273,0.826-0.504
			c0.22-0.195,0.438-0.395,0.645-0.607c0.195-0.199,0.409-0.398,0.54-0.65c0.117-0.225,0.261-0.623,0.125-0.867
			c-0.145-0.27-0.418-0.465-0.592-0.721c-0.122-0.182-0.25-0.393-0.262-0.615c-0.012-0.252,0.055-0.496,0.048-0.748
			c-0.006-0.277-0.025-0.555-0.043-0.832c-0.097-0.266-0.164-0.543-0.201-0.818c-0.065-0.18-0.122-0.361-0.12-0.553
			c0.002-0.158,0.042-0.332,0.169-0.439c0.102-0.09,0.338-0.084,0.346-0.223c0.002-0.023,0.007-0.043,0.015-0.059
			c0.002-0.008,0-0.016,0.002-0.023c0.175-0.488,0.469-0.908,0.959-1.119c0.12-0.051,0.231-0.105,0.363-0.127
			c0.118-0.02,0.24-0.016,0.351-0.07c0.294-0.148,0.113-0.533,0.262-0.805c0.002,0-0.341-0.002-0.341-0.002v-0.012
			c0-0.133,0.416-0.504,0.329-0.686c-0.098,0.008,0.051,0.117-0.085,0.145c-0.165,0.031-0.195-0.025-0.266-0.113
			c-0.234-0.043-0.22-0.35-0.461-0.504c-0.197-0.127-0.294-0.264-0.312-0.502c-0.015-0.188-0.071-0.273-0.214-0.396
			c-0.056-0.045-0.107-0.137-0.117-0.209c-0.034-0.279,0-0.549-0.066-0.828c-0.055-0.232-0.117-0.461-0.148-0.697
			c-0.054-0.076-0.084-0.152-0.094-0.229c-0.159-0.193-0.363-0.348-0.49-0.566c-0.138-0.239-0.204-0.508-0.341-0.747
			c-0.028-0.046-0.058-0.085-0.09-0.12c-0.055-0.026-0.102-0.059-0.14-0.097c-0.01-0.003-0.019-0.01-0.029-0.016
			c-0.115-0.047-0.237-0.085-0.357-0.139c-0.077-0.033-0.147-0.078-0.209-0.13c-0.211-0.104-0.365-0.283-0.463-0.495
			c-0.117-0.252-0.236-0.486-0.381-0.725c-0.142-0.233-0.231-0.508-0.323-0.765c-0.074-0.206-0.13-0.444-0.075-0.664
			c0.073-0.294,0.259-0.551,0.331-0.849c0.083-0.341,0.038-0.689,0.067-1.038c0.011-0.151,0.025-0.307,0.043-0.463
			c-0.007,0.017-0.013,0.032-0.022,0.049c-0.157,0.303-0.145,0.599-0.235,0.916c-0.014,0.048-0.047,0.073-0.084,0.08
			c-0.002,0.005-0.008,0.008-0.01,0.013c-0.057,0.132-0.256,0.082-0.261-0.032c-0.082,0.008-0.16-0.061-0.118-0.157
			c0.112-0.258-0.383-0.413-0.338-0.664c0.023-0.128-0.495-0.24-0.105-0.346v-0.001c-0.39-0.064,0.195-0.135,0.224-0.219
			c0.01-0.024,0.117-0.055,0.125-0.079c-0.007-0.046,0.06-0.095,0.057-0.146c-0.02-0.254,0.235-0.244,0.333-0.417
			c0.145-0.255,0.165-0.588,0.287-0.86c0.058-0.131,0.146-0.28,0.241-0.391c0.03-0.036,0.115-0.102,0.163-0.171
			c-0.011-0.067-0.018-0.134-0.023-0.201c-0.084-0.118-0.077-0.27-0.037-0.411c0.121-0.423,0.415-0.852,0.724-1.163
			c0.386-0.389,0.873-0.71,1.387-0.902c0.263-0.099,0.559-0.19,0.773-0.377c0.215-0.189,0.299-0.468,0.493-0.673
			c0.292-0.309,0.626-0.492,0.996-0.686c0.035-0.018,0.386-0.2,0.357-0.247c-0.001,0-0.001-0.002-0.003-0.003
			c-0.187-0.052-0.453-0.017-0.588,0c-0.086,0.01-0.137-0.054-0.146-0.119c-0.011,0.002-0.021,0.002-0.031,0.003
			c-0.154,0.02-0.208-0.207-0.069-0.242c0.023-0.029,0.059-0.048,0.1-0.043c0.637-0.014,1.272-0.061,1.907-0.097
			c0.54-0.032,1.174-0.116,1.682,0.117c0.085,0.038,0.16,0.095,0.241,0.138c0.138,0.076,0.29,0.072,0.437,0.117
			c0.112,0.034,0.199,0.086,0.274,0.151c0.154,0.069,0.256,0.18,0.358,0.32c-0.002-0.017-0.007-0.034-0.007-0.049
			c-0.005-0.14,0.053-0.281,0.184-0.354c0.344-0.192,1.096,0.145,1.451,0.222c0.302,0.064,0.598,0.139,0.892,0.219
			c-1.852-0.776-3.888-1.208-6.022-1.208C18.053,58.575,11.077,65.552,11.077,74.157"/>
	</defs>
	<clipPath id="SVGID_5_">
		<use xlink:href="#SVGID_4_"  overflow="visible"/>
	</clipPath>
	
		<linearGradient id="SVGID_6_" gradientUnits="userSpaceOnUse" x1="-3168.3379" y1="957.9302" x2="-3167.3379" y2="957.9302" gradientTransform="matrix(31.1601 0 0 -31.1601 98736.8281 29923.3711)">
		<stop  offset="0" style="stop-color:#DCF1FC"/>
		<stop  offset="1" style="stop-color:#24B4E8"/>
	</linearGradient>
	<rect x="11.077" y="58.575" clip-path="url(#SVGID_5_)" fill="url(#SVGID_6_)" width="31.16" height="31.16"/>
</g>
<g>
	<defs>
		<path id="SVGID_7_" d="M30.489,74.989c-0.02,0.119,0.037,0.232,0.159,0.258c0.006,0.002,0.011,0.002,0.018,0.004
			c0.059,0.072,0.149,0.121,0.256,0.145c0.085,0.02,0.192-0.041,0.165-0.145c-0.035-0.131-0.12-0.207-0.252-0.232h-0.002
			c-0.01-0.064-0.065-0.104-0.122-0.109c-0.022-0.021-0.053-0.033-0.086-0.033C30.565,74.875,30.501,74.913,30.489,74.989
			 M29.142,73.643c-0.077-0.004-0.156,0.051-0.131,0.143c0.059,0.223-0.274,0.176-0.376,0.084c-0.058-0.049-0.174-0.01-0.189,0.066
			c-0.035,0.156-0.01,0.266,0.118,0.367c0.141,0.113,0.412,0.074,0.507,0.23c0.094,0.154,0.139,0.221,0.338,0.215
			c0.121-0.006,0.215-0.004,0.314,0.035c0.005,0.002,0.008,0.006,0.011,0.01c0.035,0.027,0.072,0.045,0.107,0.051
			c0.116,0.074,0.216,0.121,0.354,0.139c0.063,0.006,0.135-0.055,0.134-0.119c-0.01-0.248-0.179-0.471-0.321-0.662
			c-0.062-0.084-0.13-0.172-0.212-0.236c-0.176-0.133-0.39-0.182-0.572-0.303c-0.022-0.014-0.044-0.02-0.066-0.02
			C29.151,73.643,29.147,73.643,29.142,73.643 M27.447,73.604c0.057,0.02,0.067,0.074,0.095,0.129
			c0.047,0.092,0.127,0.154,0.227,0.176c0.067,0.014,0.136-0.008,0.161-0.078c0.02-0.061-0.012-0.145-0.079-0.162
			c-0.08-0.016-0.08-0.039-0.113-0.111c-0.044-0.092-0.114-0.156-0.209-0.193c-0.017-0.006-0.032-0.01-0.047-0.01
			C27.362,73.354,27.313,73.551,27.447,73.604 M26.193,71.334c-0.05,0.09,0.014,0.18,0.089,0.198
			c0.025,0.028,0.065,0.048,0.114,0.04c0.302-0.045,0.536,0.189,0.72,0.411c0.01,0.017,0.023,0.03,0.037,0.045
			c0.016,0.022,0.033,0.044,0.05,0.064c0.19,0.241,0.463,0.513,0.511,0.818c0.064,0.402,0.639,0.615,0.99,0.656
			c0.083,0.008,0.147-0.076,0.132-0.152c-0.079-0.408-0.503-0.633-0.62-1.027c-0.102-0.347-0.376-0.447-0.625-0.676
			c-0.218-0.196-0.668-0.612-1.029-0.612C26.419,71.1,26.289,71.165,26.193,71.334"/>
	</defs>
	<clipPath id="SVGID_8_">
		<use xlink:href="#SVGID_7_"  overflow="visible"/>
	</clipPath>
	
		<linearGradient id="SVGID_9_" gradientUnits="userSpaceOnUse" x1="-2797.5815" y1="1071.1655" x2="-2796.582" y2="1071.1655" gradientTransform="matrix(4.916 0 0 -4.916 13778.998 5339.0752)">
		<stop  offset="0" style="stop-color:#DCF1FC"/>
		<stop  offset="1" style="stop-color:#24B4E8"/>
	</linearGradient>
	<rect x="26.143" y="71.1" clip-path="url(#SVGID_8_)" fill="url(#SVGID_9_)" width="4.971" height="4.315"/>
</g>
</svg>
