<?xml version="1.0" encoding="utf-8"?>
<!-- Generator: Adobe Illustrator 16.0.3, SVG Export Plug-In . SVG Version: 6.00 Build 0)  -->
<!DOCTYPE svg PUBLIC "-//W3C//DTD SVG 1.1//EN" "http://www.w3.org/Graphics/SVG/1.1/DTD/svg11.dtd">
<svg version="1.1" id="Layer_2" xmlns="http://www.w3.org/2000/svg" xmlns:xlink="http://www.w3.org/1999/xlink" x="0px" y="0px"
	 width="180.337px" height="106.74px" viewBox="0 0 180.337 106.74" enable-background="new 0 0 180.337 106.74"
	 xml:space="preserve">
<g>
	<defs>
		<path id="SVGID_1_" d="M134.21,9.773c-15.59,8.882-31.188,17.754-46.75,26.688c-0.714,0.408-1.353,1.271-1.635,2.061
			c-1.023,2.88-0.667,5.809,0.207,8.653c1.603,5.223,4.397,9.563,9.488,12.031c2.215,1.076,4.374,1.051,6.631-0.246
			c12.624-7.266,25.297-14.447,37.951-21.656c2.918-1.663,5.833-3.328,8.819-5.031c-5.57-3.202-13.271-16.374-13.653-23.021
			C134.829,9.468,134.509,9.602,134.21,9.773"/>
	</defs>
	<linearGradient id="SVGID_2_" gradientUnits="userSpaceOnUse" x1="85.2012" y1="34.6138" x2="148.9209" y2="34.6138">
		<stop  offset="0" style="stop-color:#CCE0F4"/>
		<stop  offset="0.0665" style="stop-color:#C3DCF2"/>
		<stop  offset="0.1771" style="stop-color:#A9D2EE"/>
		<stop  offset="0.3182" style="stop-color:#80C2E7"/>
		<stop  offset="0.4825" style="stop-color:#47ACDE"/>
		<stop  offset="0.5889" style="stop-color:#1E9CD7"/>
		<stop  offset="1" style="stop-color:#0075BE"/>
	</linearGradient>
	<use xlink:href="#SVGID_1_"  overflow="visible" fill="url(#SVGID_2_)"/>
	<clipPath id="SVGID_3_">
		<use xlink:href="#SVGID_1_"  overflow="visible"/>
	</clipPath>
	
		<linearGradient id="SVGID_4_" gradientUnits="userSpaceOnUse" x1="-4556.7393" y1="918.6611" x2="-4555.7393" y2="918.6611" gradientTransform="matrix(63.7193 0 0 -63.7193 290437.3125 58571.2305)">
		<stop  offset="0" style="stop-color:#CCE0F4"/>
		<stop  offset="0.0665" style="stop-color:#C3DCF2"/>
		<stop  offset="0.1771" style="stop-color:#A9D2EE"/>
		<stop  offset="0.3182" style="stop-color:#80C2E7"/>
		<stop  offset="0.4825" style="stop-color:#47ACDE"/>
		<stop  offset="0.5889" style="stop-color:#1E9CD7"/>
		<stop  offset="1" style="stop-color:#0075BE"/>
	</linearGradient>
	<rect x="84.8" y="9.252" clip-path="url(#SVGID_3_)" fill="url(#SVGID_4_)" width="64.12" height="51.03"/>
</g>
<g>
	<defs>
		<path id="SVGID_5_" d="M36.678,22.282c8.758,14.951,17.512,29.906,26.273,44.854c4.969,8.479,9.938,16.955,14.943,25.412
			c0.225,0.383,0.885,0.841,1.233,0.764c3.624-0.802,7.226-1.707,11.031-2.632c-0.347-0.603-0.557-0.98-0.78-1.353
			C76.718,68.274,64.034,47.233,51.428,26.146c-0.987-1.651-2.079-2.674-4.026-2.817c-0.947-0.07-1.87-0.439-2.808-0.65
			c-2.842-0.646-5.688-1.277-8.823-1.982C36.17,21.396,36.419,21.842,36.678,22.282"/>
	</defs>
	<linearGradient id="SVGID_6_" gradientUnits="userSpaceOnUse" x1="35.7705" y1="57.0088" x2="90.1582" y2="57.0088">
		<stop  offset="0" style="stop-color:#CCE0F4"/>
		<stop  offset="0.0665" style="stop-color:#C3DCF2"/>
		<stop  offset="0.1771" style="stop-color:#A9D2EE"/>
		<stop  offset="0.3182" style="stop-color:#80C2E7"/>
		<stop  offset="0.4825" style="stop-color:#47ACDE"/>
		<stop  offset="0.5889" style="stop-color:#1E9CD7"/>
		<stop  offset="1" style="stop-color:#0075BE"/>
	</linearGradient>
	<use xlink:href="#SVGID_5_"  overflow="visible" fill="url(#SVGID_6_)"/>
	<clipPath id="SVGID_7_">
		<use xlink:href="#SVGID_5_"  overflow="visible"/>
	</clipPath>
	
		<linearGradient id="SVGID_8_" gradientUnits="userSpaceOnUse" x1="-4551.7979" y1="918.7451" x2="-4550.7979" y2="918.7451" gradientTransform="matrix(54.3879 0 0 -54.3879 247598.375 50025.7266)">
		<stop  offset="0" style="stop-color:#CCE0F4"/>
		<stop  offset="0.0665" style="stop-color:#C3DCF2"/>
		<stop  offset="0.1771" style="stop-color:#A9D2EE"/>
		<stop  offset="0.3182" style="stop-color:#80C2E7"/>
		<stop  offset="0.4825" style="stop-color:#47ACDE"/>
		<stop  offset="0.5889" style="stop-color:#1E9CD7"/>
		<stop  offset="1" style="stop-color:#0075BE"/>
	</linearGradient>
	<rect x="35.771" y="20.696" clip-path="url(#SVGID_7_)" fill="url(#SVGID_8_)" width="54.388" height="72.693"/>
</g>
<g>
	<defs>
		<path id="SVGID_9_" d="M42.782,54.605c-2.379,1.226-3.659,3.216-4.186,5.737c-0.735,3.538-0.216,6.989,1.001,10.334
			c2.307,6.342,6.018,11.601,12.074,14.883c2.309,1.256,4.881,2.157,7.437,0.989c3.012-1.376,5.854-3.121,8.87-4.763
			c-6.105-10.418-12.107-20.66-18.172-31.008C47.39,52.101,45.113,53.404,42.782,54.605"/>
	</defs>
	<linearGradient id="SVGID_10_" gradientUnits="userSpaceOnUse" x1="38.2578" y1="68.9346" x2="67.9785" y2="68.9346">
		<stop  offset="0" style="stop-color:#CCE0F4"/>
		<stop  offset="0.0665" style="stop-color:#C3DCF2"/>
		<stop  offset="0.1771" style="stop-color:#A9D2EE"/>
		<stop  offset="0.3182" style="stop-color:#80C2E7"/>
		<stop  offset="0.4825" style="stop-color:#47ACDE"/>
		<stop  offset="0.5889" style="stop-color:#1E9CD7"/>
		<stop  offset="1" style="stop-color:#0075BE"/>
	</linearGradient>
	<use xlink:href="#SVGID_9_"  overflow="visible" fill="url(#SVGID_10_)"/>
	<clipPath id="SVGID_11_">
		<use xlink:href="#SVGID_9_"  overflow="visible"/>
	</clipPath>
	
		<linearGradient id="SVGID_12_" gradientUnits="userSpaceOnUse" x1="-4523.7949" y1="919.209" x2="-4522.7949" y2="919.209" gradientTransform="matrix(29.721 0 0 -29.721 134490.0938 27389.082)">
		<stop  offset="0" style="stop-color:#CCE0F4"/>
		<stop  offset="0.0665" style="stop-color:#C3DCF2"/>
		<stop  offset="0.1771" style="stop-color:#A9D2EE"/>
		<stop  offset="0.3182" style="stop-color:#80C2E7"/>
		<stop  offset="0.4825" style="stop-color:#47ACDE"/>
		<stop  offset="0.5889" style="stop-color:#1E9CD7"/>
		<stop  offset="1" style="stop-color:#0075BE"/>
	</linearGradient>
	<rect x="37.861" y="50.778" clip-path="url(#SVGID_11_)" fill="url(#SVGID_12_)" width="30.117" height="36.938"/>
</g>
<g>
	<defs>
		<path id="SVGID_13_" d="M76.915,40.299c-0.11,0.423-0.244,0.841-0.326,1.271c-0.947,4.912,0.064,9.513,2.426,13.814
			c3.289,5.99,7.874,10.507,14.745,12.178c3.075,0.747,4.094,0.092,4.897-3.005c0.184-0.704,0.23-1.446,0.342-2.189
			c-10.417,0.501-19.084-15.024-15.044-24.59c-1.116-0.568-2.273-0.951-3.333-0.951C78.985,36.827,77.581,37.741,76.915,40.299"/>
	</defs>
	<linearGradient id="SVGID_14_" gradientUnits="userSpaceOnUse" x1="76.2363" y1="52.3354" x2="98.999" y2="52.3354">
		<stop  offset="0" style="stop-color:#CCE0F4"/>
		<stop  offset="0.0665" style="stop-color:#C3DCF2"/>
		<stop  offset="0.1771" style="stop-color:#A9D2EE"/>
		<stop  offset="0.3182" style="stop-color:#80C2E7"/>
		<stop  offset="0.4825" style="stop-color:#47ACDE"/>
		<stop  offset="0.5889" style="stop-color:#1E9CD7"/>
		<stop  offset="1" style="stop-color:#0075BE"/>
	</linearGradient>
	<use xlink:href="#SVGID_13_"  overflow="visible" fill="url(#SVGID_14_)"/>
	<clipPath id="SVGID_15_">
		<use xlink:href="#SVGID_13_"  overflow="visible"/>
	</clipPath>
	
		<linearGradient id="SVGID_16_" gradientUnits="userSpaceOnUse" x1="-4504.9199" y1="919.5273" x2="-4503.9199" y2="919.5273" gradientTransform="matrix(22.7626 0 0 -22.7626 102619.9766 20983.4141)">
		<stop  offset="0" style="stop-color:#CCE0F4"/>
		<stop  offset="0.0665" style="stop-color:#C3DCF2"/>
		<stop  offset="0.1771" style="stop-color:#A9D2EE"/>
		<stop  offset="0.3182" style="stop-color:#80C2E7"/>
		<stop  offset="0.4825" style="stop-color:#47ACDE"/>
		<stop  offset="0.5889" style="stop-color:#1E9CD7"/>
		<stop  offset="1" style="stop-color:#0075BE"/>
	</linearGradient>
	<rect x="75.642" y="36.827" clip-path="url(#SVGID_15_)" fill="url(#SVGID_16_)" width="23.356" height="31.482"/>
</g>
<g>
	<defs>
		<path id="SVGID_17_" d="M113.454,56.778c0.373,0.603,0.66,1.085,0.965,1.555c3.979,6.102,8.011,12.175,11.903,18.332
			c0.871,1.379,1.689,1.844,3.271,1.371c1.978-0.591,4.022-0.951,6.193-1.447c-5.207-8.054-10.271-15.889-15.377-23.784
			C118.019,54.17,115.784,55.446,113.454,56.778"/>
	</defs>
	<linearGradient id="SVGID_18_" gradientUnits="userSpaceOnUse" x1="113.4541" y1="65.5098" x2="135.7861" y2="65.5098">
		<stop  offset="0" style="stop-color:#CCE0F4"/>
		<stop  offset="0.0665" style="stop-color:#C3DCF2"/>
		<stop  offset="0.1771" style="stop-color:#A9D2EE"/>
		<stop  offset="0.3182" style="stop-color:#80C2E7"/>
		<stop  offset="0.4825" style="stop-color:#47ACDE"/>
		<stop  offset="0.5889" style="stop-color:#1E9CD7"/>
		<stop  offset="1" style="stop-color:#0075BE"/>
	</linearGradient>
	<use xlink:href="#SVGID_17_"  overflow="visible" fill="url(#SVGID_18_)"/>
	<clipPath id="SVGID_19_">
		<use xlink:href="#SVGID_17_"  overflow="visible"/>
	</clipPath>
	
		<linearGradient id="SVGID_20_" gradientUnits="userSpaceOnUse" x1="-4503.3672" y1="919.5576" x2="-4502.3672" y2="919.5576" gradientTransform="matrix(22.3325 0 0 -22.3325 100684.9844 20601.6875)">
		<stop  offset="0" style="stop-color:#CCE0F4"/>
		<stop  offset="0.0665" style="stop-color:#C3DCF2"/>
		<stop  offset="0.1771" style="stop-color:#A9D2EE"/>
		<stop  offset="0.3182" style="stop-color:#80C2E7"/>
		<stop  offset="0.4825" style="stop-color:#47ACDE"/>
		<stop  offset="0.5889" style="stop-color:#1E9CD7"/>
		<stop  offset="1" style="stop-color:#0075BE"/>
	</linearGradient>
	<rect x="113.454" y="52.805" clip-path="url(#SVGID_19_)" fill="url(#SVGID_20_)" width="22.332" height="25.704"/>
</g>
<g>
	<defs>
		<path id="SVGID_21_" d="M65.755,44.112c6.178,10.263,12.269,20.387,18.393,30.561c2.997-1.708,5.83-3.324,8.83-5.037
			C85.942,68.112,80.99,64.063,77.392,58.3c-3.596-5.753-5.17-11.924-2.922-18.974C71.401,41.011,68.632,42.533,65.755,44.112"/>
	</defs>
	<linearGradient id="SVGID_22_" gradientUnits="userSpaceOnUse" x1="65.7549" y1="56.999" x2="92.9775" y2="56.999">
		<stop  offset="0" style="stop-color:#CCE0F4"/>
		<stop  offset="0.0665" style="stop-color:#C3DCF2"/>
		<stop  offset="0.1771" style="stop-color:#A9D2EE"/>
		<stop  offset="0.3182" style="stop-color:#80C2E7"/>
		<stop  offset="0.4825" style="stop-color:#47ACDE"/>
		<stop  offset="0.5889" style="stop-color:#1E9CD7"/>
		<stop  offset="1" style="stop-color:#0075BE"/>
	</linearGradient>
	<use xlink:href="#SVGID_21_"  overflow="visible" fill="url(#SVGID_22_)"/>
	<clipPath id="SVGID_23_">
		<use xlink:href="#SVGID_21_"  overflow="visible"/>
	</clipPath>
	
		<linearGradient id="SVGID_24_" gradientUnits="userSpaceOnUse" x1="-4518.1304" y1="919.3154" x2="-4517.1304" y2="919.3154" gradientTransform="matrix(27.2234 0 0 -27.2234 123064.8203 25083.9141)">
		<stop  offset="0" style="stop-color:#CCE0F4"/>
		<stop  offset="0.0665" style="stop-color:#C3DCF2"/>
		<stop  offset="0.1771" style="stop-color:#A9D2EE"/>
		<stop  offset="0.3182" style="stop-color:#80C2E7"/>
		<stop  offset="0.4825" style="stop-color:#47ACDE"/>
		<stop  offset="0.5889" style="stop-color:#1E9CD7"/>
		<stop  offset="1" style="stop-color:#0075BE"/>
	</linearGradient>
	<rect x="65.755" y="39.326" clip-path="url(#SVGID_23_)" fill="url(#SVGID_24_)" width="27.223" height="35.347"/>
</g>
<g>
	<defs>
		<path id="SVGID_25_" d="M137.874,8.056c-0.039,0.543-0.223,1.123-0.098,1.625c0.465,1.859,0.852,3.768,1.592,5.523
			c2.26,5.377,5.186,10.355,9.54,14.341c0.593,0.543,1.498,0.742,2.261,1.103c0.114-0.876,0.453-1.79,0.307-2.622
			c-1.195-6.871-4.508-12.664-9.355-17.587c-1.069-1.085-2.49-1.825-3.75-2.725C138.206,7.826,138.04,7.941,137.874,8.056"/>
	</defs>
	<linearGradient id="SVGID_26_" gradientUnits="userSpaceOnUse" x1="137.7334" y1="19.1802" x2="151.5117" y2="19.1802">
		<stop  offset="0" style="stop-color:#CCE0F4"/>
		<stop  offset="0.0665" style="stop-color:#C3DCF2"/>
		<stop  offset="0.1771" style="stop-color:#A9D2EE"/>
		<stop  offset="0.3182" style="stop-color:#80C2E7"/>
		<stop  offset="0.4825" style="stop-color:#47ACDE"/>
		<stop  offset="0.5889" style="stop-color:#1E9CD7"/>
		<stop  offset="1" style="stop-color:#0075BE"/>
	</linearGradient>
	<use xlink:href="#SVGID_25_"  overflow="visible" fill="url(#SVGID_26_)"/>
	<clipPath id="SVGID_27_">
		<use xlink:href="#SVGID_25_"  overflow="visible"/>
	</clipPath>
	
		<linearGradient id="SVGID_28_" gradientUnits="userSpaceOnUse" x1="-4452.3486" y1="920.4238" x2="-4451.3486" y2="920.4238" gradientTransform="matrix(13.7781 0 0 -13.7781 61482.4609 12700.834)">
		<stop  offset="0" style="stop-color:#CCE0F4"/>
		<stop  offset="0.0665" style="stop-color:#C3DCF2"/>
		<stop  offset="0.1771" style="stop-color:#A9D2EE"/>
		<stop  offset="0.3182" style="stop-color:#80C2E7"/>
		<stop  offset="0.4825" style="stop-color:#47ACDE"/>
		<stop  offset="0.5889" style="stop-color:#1E9CD7"/>
		<stop  offset="1" style="stop-color:#0075BE"/>
	</linearGradient>
	<rect x="137.651" y="7.713" clip-path="url(#SVGID_27_)" fill="url(#SVGID_28_)" width="13.971" height="22.935"/>
</g>
<g>
	<defs>
		<path id="SVGID_29_" d="M100.68,64.461c0.205,0.616,0.268,1.33,0.63,1.83c5.335,7.357,10.709,14.685,16.07,22.023
			c0.373,0.512,0.701,1.057,1.15,1.735c-0.519,0.025-0.811,0.057-1.102,0.051c-2.239-0.029-3.025,0.869-2.69,3.086
			c0.454,2.991,4.384,6.332,7.419,6.302c1.767-0.017,2.899-1.283,2.303-2.941c-0.504-1.401-1.414-2.676-2.256-3.932
			c-0.58-0.867-1.404-1.565-2.024-2.41c-5.041-6.864-10.06-13.745-15.086-20.62c-1.302-1.783-2.612-3.559-3.918-5.34
			C101.012,64.318,100.845,64.388,100.68,64.461"/>
	</defs>
	<linearGradient id="SVGID_30_" gradientUnits="userSpaceOnUse" x1="100.6797" y1="81.8662" x2="124.6201" y2="81.8662">
		<stop  offset="0" style="stop-color:#CCE0F4"/>
		<stop  offset="0.0665" style="stop-color:#C3DCF2"/>
		<stop  offset="0.1771" style="stop-color:#A9D2EE"/>
		<stop  offset="0.3182" style="stop-color:#80C2E7"/>
		<stop  offset="0.4825" style="stop-color:#47ACDE"/>
		<stop  offset="0.5889" style="stop-color:#1E9CD7"/>
		<stop  offset="1" style="stop-color:#0075BE"/>
	</linearGradient>
	<use xlink:href="#SVGID_29_"  overflow="visible" fill="url(#SVGID_30_)"/>
	<clipPath id="SVGID_31_">
		<use xlink:href="#SVGID_29_"  overflow="visible"/>
	</clipPath>
	
		<linearGradient id="SVGID_32_" gradientUnits="userSpaceOnUse" x1="-4508.8833" y1="919.4697" x2="-4507.8833" y2="919.4697" gradientTransform="matrix(23.9395 0 0 -23.9395 108041.0781 22093.5508)">
		<stop  offset="0" style="stop-color:#CCE0F4"/>
		<stop  offset="0.0665" style="stop-color:#C3DCF2"/>
		<stop  offset="0.1771" style="stop-color:#A9D2EE"/>
		<stop  offset="0.3182" style="stop-color:#80C2E7"/>
		<stop  offset="0.4825" style="stop-color:#47ACDE"/>
		<stop  offset="0.5889" style="stop-color:#1E9CD7"/>
		<stop  offset="1" style="stop-color:#0075BE"/>
	</linearGradient>
	<rect x="100.679" y="64.245" clip-path="url(#SVGID_31_)" fill="url(#SVGID_32_)" width="24.378" height="35.273"/>
</g>
<g>
	<defs>
		<path id="SVGID_33_" d="M94.216,29.258c2.445-1.396,4.738-2.71,7.101-4.061c-0.449-0.729-0.846-1.215-1.076-1.77
			c-1.202-2.896-3.271-4.35-6.474-4.503c-2.238-0.11-4.456-0.7-7.017-1.13C89.322,21.744,91.724,25.429,94.216,29.258"/>
	</defs>
	<linearGradient id="SVGID_34_" gradientUnits="userSpaceOnUse" x1="86.7495" y1="23.5264" x2="101.3164" y2="23.5264">
		<stop  offset="0" style="stop-color:#CCE0F4"/>
		<stop  offset="0.0665" style="stop-color:#C3DCF2"/>
		<stop  offset="0.1771" style="stop-color:#A9D2EE"/>
		<stop  offset="0.3182" style="stop-color:#80C2E7"/>
		<stop  offset="0.4825" style="stop-color:#47ACDE"/>
		<stop  offset="0.5889" style="stop-color:#1E9CD7"/>
		<stop  offset="1" style="stop-color:#0075BE"/>
	</linearGradient>
	<use xlink:href="#SVGID_33_"  overflow="visible" fill="url(#SVGID_34_)"/>
	<clipPath id="SVGID_35_">
		<use xlink:href="#SVGID_33_"  overflow="visible"/>
	</clipPath>
	
		<linearGradient id="SVGID_36_" gradientUnits="userSpaceOnUse" x1="-4459.5508" y1="920.3027" x2="-4458.5508" y2="920.3027" gradientTransform="matrix(14.5657 0 0 -14.5657 65043.0742 13428.3525)">
		<stop  offset="0" style="stop-color:#CCE0F4"/>
		<stop  offset="0.0665" style="stop-color:#C3DCF2"/>
		<stop  offset="0.1771" style="stop-color:#A9D2EE"/>
		<stop  offset="0.3182" style="stop-color:#80C2E7"/>
		<stop  offset="0.4825" style="stop-color:#47ACDE"/>
		<stop  offset="0.5889" style="stop-color:#1E9CD7"/>
		<stop  offset="1" style="stop-color:#0075BE"/>
	</linearGradient>
	<rect x="86.75" y="17.795" clip-path="url(#SVGID_35_)" fill="url(#SVGID_36_)" width="14.567" height="11.463"/>
</g>
<g>
	<defs>
		<path id="SVGID_37_" d="M58.799,6.553c0.228,1.62,0.525,3.439,1.431,4.721c5.259,7.449,10.711,14.762,16.079,22.135
			c0.482,0.66,0.878,0.714,1.461,0.08c-5.001-6.853-9.976-13.667-15.078-20.657c0.685,0.063,1.071,0.112,1.458,0.129
			c1.447,0.063,2.215-0.672,2.215-2.105c0.005-2.459-2.441-5.647-4.853-6.321c-0.272-0.077-0.539-0.113-0.792-0.113
			C59.515,4.422,58.614,5.25,58.799,6.553"/>
	</defs>
	<linearGradient id="SVGID_38_" gradientUnits="userSpaceOnUse" x1="58.7749" y1="19.1787" x2="77.7695" y2="19.1787">
		<stop  offset="0" style="stop-color:#CCE0F4"/>
		<stop  offset="0.0665" style="stop-color:#C3DCF2"/>
		<stop  offset="0.1771" style="stop-color:#A9D2EE"/>
		<stop  offset="0.3182" style="stop-color:#80C2E7"/>
		<stop  offset="0.4825" style="stop-color:#47ACDE"/>
		<stop  offset="0.5889" style="stop-color:#1E9CD7"/>
		<stop  offset="1" style="stop-color:#0075BE"/>
	</linearGradient>
	<use xlink:href="#SVGID_37_"  overflow="visible" fill="url(#SVGID_38_)"/>
	<clipPath id="SVGID_39_">
		<use xlink:href="#SVGID_37_"  overflow="visible"/>
	</clipPath>
	
		<linearGradient id="SVGID_40_" gradientUnits="userSpaceOnUse" x1="-4488.9248" y1="919.8037" x2="-4487.9248" y2="919.8037" gradientTransform="matrix(18.9942 0 0 -18.9942 85322.1797 17490.1641)">
		<stop  offset="0" style="stop-color:#CCE0F4"/>
		<stop  offset="0.0665" style="stop-color:#C3DCF2"/>
		<stop  offset="0.1771" style="stop-color:#A9D2EE"/>
		<stop  offset="0.3182" style="stop-color:#80C2E7"/>
		<stop  offset="0.4825" style="stop-color:#47ACDE"/>
		<stop  offset="0.5889" style="stop-color:#1E9CD7"/>
		<stop  offset="1" style="stop-color:#0075BE"/>
	</linearGradient>
	<rect x="58.614" y="4.422" clip-path="url(#SVGID_39_)" fill="url(#SVGID_40_)" width="19.155" height="29.701"/>
</g>
</svg>
