<?xml version="1.0" encoding="utf-8"?>
<!-- Generator: Adobe Illustrator 16.0.3, SVG Export Plug-In . SVG Version: 6.00 Build 0)  -->
<!DOCTYPE svg PUBLIC "-//W3C//DTD SVG 1.1//EN" "http://www.w3.org/Graphics/SVG/1.1/DTD/svg11.dtd">
<svg version="1.1" id="Layer_3" xmlns="http://www.w3.org/2000/svg" xmlns:xlink="http://www.w3.org/1999/xlink" x="0px" y="0px"
	 width="176px" height="116px" viewBox="0 0 176 116" enable-background="new 0 0 176 116" xml:space="preserve">
<g>
	<defs>
		<path id="SVGID_1_" d="M1840.016,423.847c0,4.487,10.691,8.126,23.881,8.126c13.19,0,23.883-3.639,23.883-8.126
			c0-4.486-10.692-8.126-23.883-8.126C1850.707,415.721,1840.016,419.36,1840.016,423.847"/>
	</defs>
	<clipPath id="SVGID_2_">
		<use xlink:href="#SVGID_1_"  overflow="visible"/>
	</clipPath>
	
		<linearGradient id="SVGID_3_" gradientUnits="userSpaceOnUse" x1="-2809.126" y1="1079.6377" x2="-2808.126" y2="1079.6377" gradientTransform="matrix(47.7635 0 0 -47.7635 136013.7188 51991.1133)">
		<stop  offset="0" style="stop-color:#CBE0F4"/>
		<stop  offset="1" style="stop-color:#00ADEE"/>
	</linearGradient>
	<rect x="1840.015" y="415.721" clip-path="url(#SVGID_2_)" fill="url(#SVGID_3_)" width="47.765" height="16.252"/>
</g>
<g>
	<defs>
		<path id="SVGID_4_" d="M1814.993,399.872c-17.91,6.02-21.005,14.992-10.649,23.223l-11.406,0.752c0,0,13.351,11.05,45.416,13.809
			c-15.234-5.95-14.944-15.816-14.944-15.816l-7.875,0.52c-1.54-5.959,4.446-12.031,18.22-16.66
			c25.42-8.54,67.867-8.994,96.46-1.253c-2.424-0.916-5.037-1.804-7.866-2.648c-17.757-5.306-39.849-8.01-60.557-8.01
			C1843.949,393.786,1827.135,395.793,1814.993,399.872"/>
	</defs>
	<clipPath id="SVGID_5_">
		<use xlink:href="#SVGID_4_"  overflow="visible"/>
	</clipPath>
	
		<linearGradient id="SVGID_6_" gradientUnits="userSpaceOnUse" x1="-2797.959" y1="1077.918" x2="-2796.959" y2="1077.918" gradientTransform="matrix(137.2758 0 0 -137.2758 385884.9375 148387.75)">
		<stop  offset="0" style="stop-color:#CBE0F4"/>
		<stop  offset="1" style="stop-color:#00ADEE"/>
	</linearGradient>
	<rect x="1792.938" y="393.786" clip-path="url(#SVGID_5_)" fill="url(#SVGID_6_)" width="137.275" height="43.869"/>
</g>
<g>
	<defs>
		<path id="SVGID_7_" d="M1908.629,426.024l10.02-0.727c3.129,6.452-2.648,13.202-17.644,18.24
			c-25.42,8.542-67.866,8.996-96.46,1.254c2.426,0.915,5.037,1.803,7.866,2.649c33.057,9.876,81.121,10.737,107.354,1.922
			c19.036-6.396,21.332-16.128,8.535-24.764l10.786-0.778c0,0-13.42-10.964-45.504-13.519
			C1908.855,416.155,1908.629,426.024,1908.629,426.024"/>
	</defs>
	<clipPath id="SVGID_8_">
		<use xlink:href="#SVGID_7_"  overflow="visible"/>
	</clipPath>
	
		<linearGradient id="SVGID_9_" gradientUnits="userSpaceOnUse" x1="-2798.0796" y1="1077.9258" x2="-2797.0796" y2="1077.9258" gradientTransform="matrix(134.5415 0 0 -134.5415 378262.4375 145460.0469)">
		<stop  offset="0" style="stop-color:#CBE0F4"/>
		<stop  offset="1" style="stop-color:#00ADEE"/>
	</linearGradient>
	<rect x="1804.545" y="410.303" clip-path="url(#SVGID_8_)" fill="url(#SVGID_9_)" width="136.553" height="47.876"/>
</g>
<g>
	<defs>
		<polygon id="SVGID_10_" points="12.765,87.734 19.043,83.758 27.833,101.755 21.293,104.685 		"/>
	</defs>
	<clipPath id="SVGID_11_">
		<use xlink:href="#SVGID_10_"  overflow="visible"/>
	</clipPath>
	
		<linearGradient id="SVGID_12_" gradientUnits="userSpaceOnUse" x1="-2846.2896" y1="1085.3613" x2="-2845.2891" y2="1085.3613" gradientTransform="matrix(15.0675 0 0 -15.0675 42899.2227 16447.9102)">
		<stop  offset="0" style="stop-color:#CBEBFB"/>
		<stop  offset="1" style="stop-color:#00ADEE"/>
	</linearGradient>
	<rect x="12.765" y="83.758" clip-path="url(#SVGID_11_)" fill="url(#SVGID_12_)" width="15.068" height="20.928"/>
</g>
<g>
	<defs>
		<polygon id="SVGID_13_" points="20.299,83.06 26.577,79.154 35.768,97.657 29.367,100.779 		"/>
	</defs>
	<clipPath id="SVGID_14_">
		<use xlink:href="#SVGID_13_"  overflow="visible"/>
	</clipPath>
	
		<linearGradient id="SVGID_15_" gradientUnits="userSpaceOnUse" x1="-2844.8838" y1="1085.1455" x2="-2843.8838" y2="1085.1455" gradientTransform="matrix(15.468 0 0 -15.468 44024.8828 16874.9746)">
		<stop  offset="0" style="stop-color:#CBEBFB"/>
		<stop  offset="1" style="stop-color:#00ADEE"/>
	</linearGradient>
	<rect x="20.299" y="79.154" clip-path="url(#SVGID_14_)" fill="url(#SVGID_15_)" width="15.468" height="21.625"/>
</g>
<g>
	<defs>
		<polygon id="SVGID_16_" points="28.314,78.283 32.716,75.248 32.716,78.038 36.204,78.038 44,93.387 37.041,97.012 		"/>
	</defs>
	<clipPath id="SVGID_17_">
		<use xlink:href="#SVGID_16_"  overflow="visible"/>
	</clipPath>
	
		<linearGradient id="SVGID_18_" gradientUnits="userSpaceOnUse" x1="-2844.1509" y1="1085.0342" x2="-2843.1509" y2="1085.0342" gradientTransform="matrix(15.6851 0 0 -15.6851 44639.2109 17105.0195)">
		<stop  offset="0" style="stop-color:#CBEBFB"/>
		<stop  offset="1" style="stop-color:#00ADEE"/>
	</linearGradient>
	<rect x="28.314" y="75.248" clip-path="url(#SVGID_17_)" fill="url(#SVGID_18_)" width="15.686" height="21.764"/>
</g>
<g>
	<defs>
		<path id="SVGID_19_" d="M45.939,92.569l7.008-3.363l-2.233-6.145c0,0-2.233-0.558-6-1.257c-3.767-0.696-5.162-1.812-5.162-1.812
			L45.939,92.569z"/>
	</defs>
	<clipPath id="SVGID_20_">
		<use xlink:href="#SVGID_19_"  overflow="visible"/>
	</clipPath>
	
		<linearGradient id="SVGID_21_" gradientUnits="userSpaceOnUse" x1="-2853.064" y1="1086.4063" x2="-2852.064" y2="1086.4063" gradientTransform="matrix(13.3956 0 0 -13.3956 38258.1719 14639.3779)">
		<stop  offset="0" style="stop-color:#CBEBFB"/>
		<stop  offset="1" style="stop-color:#00ADEE"/>
	</linearGradient>
	<rect x="39.552" y="79.992" clip-path="url(#SVGID_20_)" fill="url(#SVGID_21_)" width="13.396" height="12.577"/>
</g>
<g>
	<defs>
		<path id="SVGID_22_" d="M33.832,76.782H37.6c0,0-0.221-1.664,2.842-4.011c3.317-2.542,12.295-2.688,17.93-2.082
			c1.284,0.139,2.393,0.317,3.224,0.513c5.068,1.202,6.696,3.348,6.696,3.348l2.677-1.674l10.438,2.371l-8.524,5.72l-6.413-1.237
			l-2.645,1.323l9.596,1.867l13.009-8.51l-39.204-7.114L33.832,76.782z"/>
	</defs>
	<clipPath id="SVGID_23_">
		<use xlink:href="#SVGID_22_"  overflow="visible"/>
	</clipPath>
	
		<linearGradient id="SVGID_24_" gradientUnits="userSpaceOnUse" x1="-2807.5522" y1="1079.3965" x2="-2806.5522" y2="1079.3965" gradientTransform="matrix(52.5967 0 0 -52.5967 147701.9219 56847.7656)">
		<stop  offset="0" style="stop-color:#CBEBFB"/>
		<stop  offset="1" style="stop-color:#00ADEE"/>
	</linearGradient>
	<rect x="33.832" y="67.296" clip-path="url(#SVGID_23_)" fill="url(#SVGID_24_)" width="52.597" height="15.624"/>
</g>
<g>
	<defs>
		<polygon id="SVGID_25_" points="47.4,66.598 86.847,73.817 83.289,61.366 46.092,52.263 		"/>
	</defs>
	<clipPath id="SVGID_26_">
		<use xlink:href="#SVGID_25_"  overflow="visible"/>
	</clipPath>
	
		<linearGradient id="SVGID_27_" gradientUnits="userSpaceOnUse" x1="-2812.0713" y1="1080.0908" x2="-2811.0713" y2="1080.0908" gradientTransform="matrix(40.7555 0 0 -40.7555 114653.4063 44082.6875)">
		<stop  offset="0" style="stop-color:#CBEBFB"/>
		<stop  offset="1" style="stop-color:#00ADEE"/>
	</linearGradient>
	<rect x="46.092" y="52.263" clip-path="url(#SVGID_26_)" fill="url(#SVGID_27_)" width="40.755" height="21.554"/>
</g>
<g>
	<defs>
		<path id="SVGID_28_" d="M34.582,57.861c0,0-0.325,2.354-0.432,2.511c-0.104,0.157,2.054-1.361,2.054-1.361l3.662,7.901l-6.034,3.4
			v5.441l12.556-8.893l-2.022-14.179L34.582,57.861z"/>
	</defs>
	<clipPath id="SVGID_29_">
		<use xlink:href="#SVGID_28_"  overflow="visible"/>
	</clipPath>
	
		<linearGradient id="SVGID_30_" gradientUnits="userSpaceOnUse" x1="-2857.1475" y1="1087.0352" x2="-2856.1475" y2="1087.0352" gradientTransform="matrix(12.5562 0 0 -12.5562 35908.8828 13713.2998)">
		<stop  offset="0" style="stop-color:#CBEBFB"/>
		<stop  offset="1" style="stop-color:#00ADEE"/>
	</linearGradient>
	<rect x="33.832" y="52.681" clip-path="url(#SVGID_29_)" fill="url(#SVGID_30_)" width="12.556" height="23.072"/>
</g>
<g>
	<defs>
		<path id="SVGID_31_" d="M33.273,69.842c0.008,0,0.012-0.009,0.012-0.026C33.268,69.833,33.263,69.842,33.273,69.842
			 M30.693,63.431c0,0,2.589,5.948,2.592,6.385c0.325-0.303,5.168-3.218,5.168-3.218l-3.139-6.226L30.693,63.431z"/>
	</defs>
	<clipPath id="SVGID_32_">
		<use xlink:href="#SVGID_31_"  overflow="visible"/>
	</clipPath>
	
		<linearGradient id="SVGID_33_" gradientUnits="userSpaceOnUse" x1="-2897.4189" y1="1093.2383" x2="-2896.4189" y2="1093.2383" gradientTransform="matrix(7.7595 0 0 -7.7595 22513.2051 8548.085)">
		<stop  offset="0" style="stop-color:#CBEBFB"/>
		<stop  offset="1" style="stop-color:#00ADEE"/>
	</linearGradient>
	<rect x="30.693" y="60.372" clip-path="url(#SVGID_32_)" fill="url(#SVGID_33_)" width="7.76" height="9.47"/>
</g>
<g>
	<defs>
		<path id="SVGID_34_" d="M25.934,57.411c-3.439,1.086-9.948,5.376-10.709,7.355c-0.453,1.173-0.185,2.047,1.256,2.53
			c1.298,0.434,7.673-0.541,11.213-3.079c3.541-2.537,5.633-5.31,5.371-6.304c-0.175-0.663-1.641-1.047-3.424-1.047
			C28.45,56.866,27.119,57.037,25.934,57.411"/>
	</defs>
	<clipPath id="SVGID_35_">
		<use xlink:href="#SVGID_34_"  overflow="visible"/>
	</clipPath>
	
		<linearGradient id="SVGID_36_" gradientUnits="userSpaceOnUse" x1="-2837.2871" y1="1083.9668" x2="-2836.2871" y2="1083.9668" gradientTransform="matrix(18.0626 0 0 -18.0626 51263.8047 19641.5547)">
		<stop  offset="0" style="stop-color:#CBEBFB"/>
		<stop  offset="1" style="stop-color:#00ADEE"/>
	</linearGradient>
	<rect x="14.771" y="56.866" clip-path="url(#SVGID_35_)" fill="url(#SVGID_36_)" width="18.555" height="10.864"/>
</g>
<g>
	<defs>
		<path id="SVGID_37_" d="M39.186,76.015c-2.695,4.404,7.272,5.337,11.457,5.755c4.187,0.419,8.844-0.366,10.726-1.099
			c1.883-0.731,6.504-2.002,5.965-4.499c-0.42-1.935-3.662-3.662-11.197-4.394c-1.385-0.135-2.772-0.207-4.132-0.207
			C46.293,71.571,41.129,72.838,39.186,76.015"/>
	</defs>
	<clipPath id="SVGID_38_">
		<use xlink:href="#SVGID_37_"  overflow="visible"/>
	</clipPath>
	
		<linearGradient id="SVGID_39_" gradientUnits="userSpaceOnUse" x1="-2820.5552" y1="1081.3926" x2="-2819.5557" y2="1081.3926" gradientTransform="matrix(28.646 0 0 -28.646 80836.4688 31054.4922)">
		<stop  offset="0" style="stop-color:#CBEBFB"/>
		<stop  offset="1" style="stop-color:#00ADEE"/>
	</linearGradient>
	<rect x="36.49" y="71.571" clip-path="url(#SVGID_38_)" fill="url(#SVGID_39_)" width="31.382" height="10.618"/>
</g>
<g>
	<defs>
		<path id="SVGID_40_" d="M52.578,83.392c0,0,1.203,4.37,1.779,6.149c0.574,1.779,2.03,0.908,2.146-0.028
			c0.151-1.228,1.255-6.121,1.255-6.121H52.578z"/>
	</defs>
	<clipPath id="SVGID_41_">
		<use xlink:href="#SVGID_40_"  overflow="visible"/>
	</clipPath>
	
		<linearGradient id="SVGID_42_" gradientUnits="userSpaceOnUse" x1="-2949.9321" y1="1101.2539" x2="-2948.9321" y2="1101.2539" gradientTransform="matrix(5.1795 0 0 -5.1795 15331.6113 5791.2505)">
		<stop  offset="0" style="stop-color:#CBEBFB"/>
		<stop  offset="1" style="stop-color:#00ADEE"/>
	</linearGradient>
	<rect x="52.578" y="83.392" clip-path="url(#SVGID_41_)" fill="url(#SVGID_42_)" width="5.18" height="7.928"/>
</g>
<g>
	<defs>
		<polygon id="SVGID_43_" points="76.07,46.194 93.335,71.571 106.622,63.697 90.195,37.823 		"/>
	</defs>
	<clipPath id="SVGID_44_">
		<use xlink:href="#SVGID_43_"  overflow="visible"/>
	</clipPath>
	
		<linearGradient id="SVGID_45_" gradientUnits="userSpaceOnUse" x1="-2818.7739" y1="1081.123" x2="-2817.7739" y2="1081.123" gradientTransform="matrix(30.5521 0 0 -30.5521 86195.4688 33085.2695)">
		<stop  offset="0" style="stop-color:#CBEBFB"/>
		<stop  offset="1" style="stop-color:#00ADEE"/>
	</linearGradient>
	<rect x="76.07" y="37.823" clip-path="url(#SVGID_44_)" fill="url(#SVGID_45_)" width="30.552" height="33.748"/>
</g>
<g>
	<defs>
		<polygon id="SVGID_46_" points="91.661,36.568 109.725,62.427 124.033,54.825 105.682,28.616 		"/>
	</defs>
	<clipPath id="SVGID_47_">
		<use xlink:href="#SVGID_46_"  overflow="visible"/>
	</clipPath>
	
		<linearGradient id="SVGID_48_" gradientUnits="userSpaceOnUse" x1="-2817.2686" y1="1080.8916" x2="-2816.2686" y2="1080.8916" gradientTransform="matrix(32.372 0 0 -32.372 91292.3125 35036.1719)">
		<stop  offset="0" style="stop-color:#CBEBFB"/>
		<stop  offset="1" style="stop-color:#00ADEE"/>
	</linearGradient>
	<rect x="91.66" y="28.616" clip-path="url(#SVGID_47_)" fill="url(#SVGID_48_)" width="32.373" height="33.811"/>
</g>
<g>
	<defs>
		<polygon id="SVGID_49_" points="108.193,27.15 126.207,53.237 143.398,44.357 123.129,18.752 		"/>
	</defs>
	<clipPath id="SVGID_50_">
		<use xlink:href="#SVGID_49_"  overflow="visible"/>
	</clipPath>
	
		<linearGradient id="SVGID_51_" gradientUnits="userSpaceOnUse" x1="-2815.2339" y1="1080.5801" x2="-2814.2339" y2="1080.5801" gradientTransform="matrix(35.2062 0 0 -35.2062 99222.0234 38079.1016)">
		<stop  offset="0" style="stop-color:#CBEBFB"/>
		<stop  offset="1" style="stop-color:#00ADEE"/>
	</linearGradient>
	<rect x="108.193" y="18.752" clip-path="url(#SVGID_50_)" fill="url(#SVGID_51_)" width="35.204" height="34.485"/>
</g>
<g>
	<defs>
		<path id="SVGID_52_" d="M125.795,17.21l19.792,25.769L166.2,32.514c0,0-21.941-25.56-22.361-25.664
			c-0.002,0-0.004-0.001-0.007-0.001C143.244,6.85,125.795,17.21,125.795,17.21"/>
	</defs>
	<clipPath id="SVGID_53_">
		<use xlink:href="#SVGID_52_"  overflow="visible"/>
	</clipPath>
	
		<linearGradient id="SVGID_54_" gradientUnits="userSpaceOnUse" x1="-2812.2451" y1="1080.1191" x2="-2811.2451" y2="1080.1191" gradientTransform="matrix(40.4046 0 0 -40.4046 113753.5391 43666.6719)">
		<stop  offset="0" style="stop-color:#CBEBFB"/>
		<stop  offset="1" style="stop-color:#00ADEE"/>
	</linearGradient>
	<rect x="125.795" y="6.849" clip-path="url(#SVGID_53_)" fill="url(#SVGID_54_)" width="40.405" height="36.13"/>
</g>
</svg>
