<?xml version="1.0" encoding="utf-8"?>
<!-- Generator: Adobe Illustrator 16.0.3, SVG Export Plug-In . SVG Version: 6.00 Build 0)  -->
<!DOCTYPE svg PUBLIC "-//W3C//DTD SVG 1.1//EN" "http://www.w3.org/Graphics/SVG/1.1/DTD/svg11.dtd">
<svg version="1.1" id="Layer_1" xmlns="http://www.w3.org/2000/svg" xmlns:xlink="http://www.w3.org/1999/xlink" x="0px" y="0px"
	 width="159.55px" height="87.079px" viewBox="0 0 159.55 87.079" enable-background="new 0 0 159.55 87.079" xml:space="preserve">
<g>
	<defs>
		<path id="SVGID_1_" d="M135.868,13.326l-4.9-2.262l-18.694,12.967l13.946,11.609l21.332-15.604l-5.653-3.167
			c0,0,5.202-6.257,5.956-7.236c0.752-0.979,0.752-1.583,0-1.658c-0.006,0-0.012-0.001-0.018-0.001
			C146.944,7.975,135.868,13.326,135.868,13.326"/>
	</defs>
	<clipPath id="SVGID_2_">
		<use xlink:href="#SVGID_1_"  overflow="visible"/>
	</clipPath>
	
		<linearGradient id="SVGID_3_" gradientUnits="userSpaceOnUse" x1="-2453.9111" y1="908.0166" x2="-2452.9111" y2="908.0166" gradientTransform="matrix(135.0883 4.2215 4.2215 -135.0883 327667.9375 133039.375)">
		<stop  offset="0" style="stop-color:#CBE0F4"/>
		<stop  offset="1" style="stop-color:#00ADEE"/>
	</linearGradient>
	<polygon clip-path="url(#SVGID_2_)" fill="url(#SVGID_3_)" points="112.308,6.839 149.469,8 148.57,36.774 111.409,35.613 	"/>
</g>
<g>
	<defs>
		<polygon id="SVGID_4_" points="7.845,53.483 10.927,68.626 39.202,67.419 32.904,52.171 		"/>
	</defs>
	<clipPath id="SVGID_5_">
		<use xlink:href="#SVGID_4_"  overflow="visible"/>
	</clipPath>
	
		<linearGradient id="SVGID_6_" gradientUnits="userSpaceOnUse" x1="-2453.9111" y1="908.0176" x2="-2452.9111" y2="908.0176" gradientTransform="matrix(135.0883 4.2215 4.2215 -135.0883 327666.5625 133081.5)">
		<stop  offset="0" style="stop-color:#CBE0F4"/>
		<stop  offset="1" style="stop-color:#00ADEE"/>
	</linearGradient>
	<polygon clip-path="url(#SVGID_5_)" fill="url(#SVGID_6_)" points="7.875,51.191 39.715,52.187 39.171,69.605 7.331,68.61 	"/>
</g>
<g>
	<defs>
		<polygon id="SVGID_7_" points="36.387,51.339 41.347,67.419 63.827,59.267 67.208,58.039 58.499,43.566 		"/>
	</defs>
	<clipPath id="SVGID_8_">
		<use xlink:href="#SVGID_7_"  overflow="visible"/>
	</clipPath>
	
		<linearGradient id="SVGID_9_" gradientUnits="userSpaceOnUse" x1="-2453.9111" y1="908.0186" x2="-2452.9111" y2="908.0186" gradientTransform="matrix(135.0883 4.2215 4.2215 -135.0883 327666.75 133075.75)">
		<stop  offset="0" style="stop-color:#CBE0F4"/>
		<stop  offset="1" style="stop-color:#00ADEE"/>
	</linearGradient>
	<polygon clip-path="url(#SVGID_8_)" fill="url(#SVGID_9_)" points="36.417,42.604 67.953,43.59 67.178,68.382 35.643,67.396 	"/>
</g>
<g>
	<defs>
		<path id="SVGID_10_" d="M77.125,30.166c-4.422,1.206-2.813,4.557,1.34,3.083c3.451-1.226,3.296-3.376,0.607-3.376
			C78.525,29.873,77.874,29.962,77.125,30.166"/>
	</defs>
	<clipPath id="SVGID_11_">
		<use xlink:href="#SVGID_10_"  overflow="visible"/>
	</clipPath>
	
		<linearGradient id="SVGID_12_" gradientUnits="userSpaceOnUse" x1="-2453.9077" y1="908.0127" x2="-2452.9148" y2="908.0127" gradientTransform="matrix(135.0883 4.2215 4.2215 -135.0883 327667.5625 133051.125)">
		<stop  offset="0" style="stop-color:#CBE0F4"/>
		<stop  offset="1" style="stop-color:#00ADEE"/>
	</linearGradient>
	<polygon clip-path="url(#SVGID_11_)" fill="url(#SVGID_12_)" points="72.713,29.586 82.068,29.878 81.908,35.01 72.553,34.718 	"/>
</g>
<g>
	<defs>
		<path id="SVGID_13_" d="M87.98,44.907c-5.937,2.962-12.864,3.618-17.019,2.345c-4.154-1.272-7.504-3.953-5.494-7.706l-4.959,2.279
			l9.916,15.544l32.431-10.72l-8.979-9.514C93.875,37.136,93.934,41.937,87.98,44.907"/>
	</defs>
	<clipPath id="SVGID_14_">
		<use xlink:href="#SVGID_13_"  overflow="visible"/>
	</clipPath>
	
		<linearGradient id="SVGID_15_" gradientUnits="userSpaceOnUse" x1="-2453.9121" y1="908.0186" x2="-2452.9106" y2="908.0186" gradientTransform="matrix(135.0883 4.2215 4.2215 -135.0883 327667.0625 133066.5)">
		<stop  offset="0" style="stop-color:#CBE0F4"/>
		<stop  offset="1" style="stop-color:#00ADEE"/>
	</linearGradient>
	<polygon clip-path="url(#SVGID_14_)" fill="url(#SVGID_15_)" points="60.549,35.813 103.487,37.155 102.813,58.691 59.877,57.35 	
		"/>
</g>
<g>
	<defs>
		<path id="SVGID_16_" d="M61.237,44.477c0,0,6.86,12.891,7.086,12.893c0.227,0.002-4.496,1.897-4.496,1.897l11.526,18.279
			l-4.929-20.177l-9.916-15.544L61.237,44.477z"/>
	</defs>
	<clipPath id="SVGID_17_">
		<use xlink:href="#SVGID_16_"  overflow="visible"/>
	</clipPath>
	
		<linearGradient id="SVGID_18_" gradientUnits="userSpaceOnUse" x1="-2453.9111" y1="908.0176" x2="-2452.9111" y2="908.0176" gradientTransform="matrix(135.0883 4.2215 4.2215 -135.0883 327666.6875 133079.375)">
		<stop  offset="0" style="stop-color:#CBE0F4"/>
		<stop  offset="1" style="stop-color:#00ADEE"/>
	</linearGradient>
	<polygon clip-path="url(#SVGID_17_)" fill="url(#SVGID_18_)" points="60.523,41.362 76.467,41.86 75.338,78.01 59.393,77.512 	"/>
</g>
<g>
	<defs>
		<path id="SVGID_19_" d="M107.933,67.421c0.004,0.002,0.009,0,0.014-0.002c0.009-0.003,0.011-0.005,0.011-0.005
			C107.956,67.414,107.947,67.417,107.933,67.421 M70.424,57.369v0.67c-0.133,0.402,5.228,20.638,5.228,20.638
			s31.288-10.939,32.281-11.256c-0.065-0.002-0.164-0.188-0.288-0.513l1.688,0.511l4.07,1.783l0.452-3.015l-7.435-3.66
			c-1.52-6.141-3.565-15.878-3.565-15.878L70.424,57.369z"/>
	</defs>
	<clipPath id="SVGID_20_">
		<use xlink:href="#SVGID_19_"  overflow="visible"/>
	</clipPath>
	
		<linearGradient id="SVGID_21_" gradientUnits="userSpaceOnUse" x1="-2453.9111" y1="908.0186" x2="-2452.9111" y2="908.0186" gradientTransform="matrix(135.0883 4.2215 4.2215 -135.0883 327666.5625 133081.75)">
		<stop  offset="0" style="stop-color:#CBE0F4"/>
		<stop  offset="1" style="stop-color:#00ADEE"/>
	</linearGradient>
	<polygon clip-path="url(#SVGID_20_)" fill="url(#SVGID_21_)" points="70.334,45.289 114.854,46.681 113.812,80.036 69.292,78.646 	
		"/>
</g>
<g>
	<defs>
		<polygon id="SVGID_22_" points="91.391,31.745 103.444,44.477 103.722,44.382 125.012,37.136 110.764,25.255 		"/>
	</defs>
	<clipPath id="SVGID_23_">
		<use xlink:href="#SVGID_22_"  overflow="visible"/>
	</clipPath>
	
		<linearGradient id="SVGID_24_" gradientUnits="userSpaceOnUse" x1="-2453.9126" y1="908.0186" x2="-2452.9106" y2="908.0186" gradientTransform="matrix(135.0883 4.2215 4.2215 -135.0883 327667.5 133053.375)">
		<stop  offset="0" style="stop-color:#CBE0F4"/>
		<stop  offset="1" style="stop-color:#00ADEE"/>
	</linearGradient>
	<polygon clip-path="url(#SVGID_23_)" fill="url(#SVGID_24_)" points="91.424,24.205 125.612,25.273 124.979,45.526 90.791,44.458 	
		"/>
</g>
<g>
	<defs>
		<path id="SVGID_25_" d="M86.265,33.039c1.878,1.407,4.096,2.629,1.583,2.548c-2.514-0.08-3.544,1.729-2.375,3.236
			c1.169,1.508,0.163,3.387-1.143,4.106c-1.308,0.718,3.213,0.281,6.03-2.68c3.442-3.617,1.03-6.583,1.03-6.583
			s-3.387-1.744-5.704-2.387c-0.606-0.168-1.006-0.243-1.241-0.243C83.59,31.037,84.905,32.021,86.265,33.039"/>
	</defs>
	<clipPath id="SVGID_26_">
		<use xlink:href="#SVGID_25_"  overflow="visible"/>
	</clipPath>
	
		<linearGradient id="SVGID_27_" gradientUnits="userSpaceOnUse" x1="-2453.915" y1="908.0176" x2="-2452.9092" y2="908.0176" gradientTransform="matrix(135.0883 4.2215 4.2215 -135.0883 327667.375 133056.375)">
		<stop  offset="0" style="stop-color:#CBE0F4"/>
		<stop  offset="1" style="stop-color:#00ADEE"/>
	</linearGradient>
	<polygon clip-path="url(#SVGID_26_)" fill="url(#SVGID_27_)" points="83.034,30.701 94.196,31.05 93.792,43.984 82.629,43.635 	"/>
</g>
</svg>
