<?xml version="1.0" encoding="utf-8"?>
<!-- Generator: Adobe Illustrator 16.0.3, SVG Export Plug-In . SVG Version: 6.00 Build 0)  -->
<!DOCTYPE svg PUBLIC "-//W3C//DTD SVG 1.1//EN" "http://www.w3.org/Graphics/SVG/1.1/DTD/svg11.dtd">
<svg version="1.1" id="Layer_3" xmlns="http://www.w3.org/2000/svg" xmlns:xlink="http://www.w3.org/1999/xlink" x="0px" y="0px"
	 width="94.943px" height="55.056px" viewBox="0 0 94.943 55.056" enable-background="new 0 0 94.943 55.056" xml:space="preserve">
<g>
	<defs>
		<path id="SVGID_1_" d="M85.111,27.516c0,0.346,0.281,0.624,0.625,0.624c0.346,0,0.625-0.278,0.625-0.624
			c0-0.345-0.279-0.624-0.625-0.624C85.393,26.892,85.111,27.171,85.111,27.516"/>
	</defs>
	<clipPath id="SVGID_2_">
		<use xlink:href="#SVGID_1_"  overflow="visible"/>
	</clipPath>
	
		<linearGradient id="SVGID_3_" gradientUnits="userSpaceOnUse" x1="-5177.7598" y1="675.2183" x2="-5176.7588" y2="675.2183" gradientTransform="matrix(1.25 0 0 -1.25 6557.3115 871.5382)">
		<stop  offset="0" style="stop-color:#DCF2FD"/>
		<stop  offset="0.1184" style="stop-color:#CEEEFC"/>
		<stop  offset="0.3405" style="stop-color:#AAE2F8"/>
		<stop  offset="0.6427" style="stop-color:#70CEF1"/>
		<stop  offset="1" style="stop-color:#23B5E9"/>
	</linearGradient>
	<rect x="85.11" y="26.892" clip-path="url(#SVGID_2_)" fill="url(#SVGID_3_)" width="1.251" height="1.248"/>
</g>
<g>
	<defs>
		<path id="SVGID_4_" d="M39.573,29.108c-0.138-0.031-0.253-0.092-0.329-0.186c-0.008-0.002-0.016-0.002-0.021-0.004
			c-0.16-0.035-0.231-0.18-0.207-0.333c0.025-0.15,0.207-0.178,0.287-0.102c0.072,0.008,0.143,0.056,0.157,0.142
			c0.17,0.031,0.28,0.13,0.324,0.297c0.03,0.113-0.071,0.189-0.171,0.189C39.6,29.112,39.586,29.112,39.573,29.108 M37.391,26.884
			c0.232,0.155,0.508,0.216,0.734,0.388c0.105,0.081,0.193,0.196,0.271,0.302c0.183,0.247,0.4,0.533,0.412,0.851
			c0.004,0.084-0.09,0.161-0.172,0.151c-0.177-0.02-0.304-0.08-0.453-0.174c-0.043-0.011-0.092-0.029-0.138-0.067
			c-0.004-0.004-0.007-0.008-0.013-0.012c-0.129-0.049-0.247-0.051-0.404-0.046c-0.255,0.01-0.314-0.078-0.436-0.275
			c-0.12-0.2-0.469-0.148-0.648-0.295c-0.165-0.133-0.197-0.271-0.15-0.474c0.021-0.096,0.168-0.147,0.242-0.08
			c0.133,0.114,0.559,0.172,0.482-0.109c-0.032-0.123,0.068-0.192,0.169-0.186C37.32,26.853,37.355,26.861,37.391,26.884
			 M35.525,27.198c-0.129-0.027-0.231-0.105-0.293-0.225c-0.037-0.07-0.047-0.14-0.121-0.169c-0.193-0.071-0.09-0.381,0.105-0.306
			c0.123,0.048,0.211,0.13,0.268,0.249c0.043,0.092,0.043,0.122,0.146,0.144c0.086,0.02,0.126,0.131,0.102,0.206
			c-0.025,0.073-0.088,0.106-0.156,0.106C35.561,27.204,35.542,27.202,35.525,27.198 M33.616,24.147
			c-0.095-0.023-0.179-0.139-0.113-0.254c0.433-0.766,1.404,0.133,1.793,0.486c0.32,0.292,0.67,0.422,0.804,0.866
			c0.148,0.506,0.694,0.795,0.795,1.318c0.019,0.1-0.063,0.207-0.168,0.194c-0.451-0.049-1.189-0.325-1.271-0.84
			c-0.063-0.393-0.412-0.742-0.655-1.052c-0.022-0.027-0.044-0.055-0.067-0.082c-0.018-0.019-0.032-0.037-0.045-0.057
			c-0.236-0.286-0.537-0.588-0.924-0.528c-0.01,0.002-0.019,0.002-0.027,0.002C33.686,24.202,33.645,24.18,33.616,24.147
			 M14.1,27.516c0,11.047,8.953,20,20,20c7.707,0,14.389-4.361,17.73-10.75c0.029-0.176,0.063-0.354,0.08-0.533
			c0.096-0.975,0.588-1.801,0.8-2.748c0.114-0.514,0.093-0.98,0.282-1.49s0.396-1.008,0.605-1.51
			c0.141-0.336,0.293-0.688,0.407-1.041c0.06-0.637,0.095-1.279,0.095-1.928c0-4.059-1.213-7.832-3.291-10.986
			c-0.024-0.007-0.052-0.01-0.074-0.032c-0.031-0.035-0.063-0.071-0.094-0.106c-0.016-0.007-0.029-0.019-0.041-0.031
			c-0.064-0.073-0.125-0.15-0.186-0.229c-0.084-0.1-0.166-0.203-0.247-0.308c-0.033-0.043-0.042-0.087-0.035-0.129
			c-0.011-0.002-0.024-0.007-0.038-0.01c-0.13-0.03-0.123-0.162-0.055-0.245c-0.163-0.213-0.326-0.426-0.497-0.633
			c-0.019,0.013-0.032,0.031-0.054,0.035c-0.104,0.05-0.268,0.147-0.398,0.251c-0.009,0.146-0.082,0.285-0.188,0.393
			c0.023,0.239,0.07,0.472-0.084,0.688c-0.049,0.071-0.139,0.084-0.211,0.048c-0.065,0.042-0.156,0.036-0.215-0.026
			c-0.09-0.099-0.246-0.139-0.35-0.234c-0.146-0.139-0.275-0.296-0.412-0.448c-0.132-0.15-0.266-0.297-0.361-0.475
			c-0.111-0.207-0.183-0.44-0.304-0.641c-0.262-0.439-0.362-1.013-0.655-1.412c-0.319-0.434-0.564-0.938-0.908-1.351l-1.551-1.031
			c-0.088,0.067-0.061,0.163,0.111,0.384c0.075,0.096,0.174,0.182,0.286,0.261c0.051,0.03,0.103,0.061,0.153,0.088
			c0.136,0.076,0.268,0.159,0.397,0.247c0.446,0.271,0.862,0.613,1.13,1.067c0.194,0.328,0.36,1.013-0.132,1.2
			c-0.272,0.105-0.553,0.044-0.817-0.063c0.019,0.035,0.037,0.071,0.058,0.105c0.095,0.171-0.146,0.302-0.269,0.179
			c-0.035-0.034-0.065-0.067-0.1-0.103c-0.044,0.004-0.09-0.009-0.128-0.045c-0.567-0.565-0.949-1.169-1.573-1.613
			c-0.092-0.056-0.189-0.107-0.295-0.154c-0.023,0.097-0.119,0.236-0.236,0.183c-0.242-0.111-0.541-0.201-0.752-0.375
			c-0.11-0.057-0.215-0.124-0.297-0.213c-0.035-0.034-0.048-0.076-0.054-0.12c-0.168,0.002-0.337-0.008-0.503-0.017
			c-0.305-0.019-0.607-0.035-0.913,0.007c-0.116,0.017-0.364,0.024-0.272,0.243c0.031,0.07,0.063,0.14,0.096,0.209
			c0.113,0.237,0.352,0.301,0.527,0.484c0.381,0.404,0.713,0.787,0.744,1.358c0.008,0.153,0.016,0.302,0.057,0.45
			c0.005,0.013,0.009,0.024,0.014,0.038c0.012-0.02,0.021-0.046,0.029-0.082c0.033-0.179,0.092-0.284,0.259-0.356
			c0.091-0.041,0.183-0.018,0.269,0.003c0.139,0.037,0.262,0.073,0.338-0.176c0.062-0.197-0.052-0.402,0.107-0.571
			c0.219-0.234,0.243-0.722,0.648-0.685c0.08,0.007,0.18,0.073,0.279,0.159c0.215,0.073,0.526,0.461,0.693,0.594
			c0.296,0.237,0.602,0.446,0.654,0.854c0.004,0.036,0.012,0.065,0.019,0.093c0.116-0.011,0.251-0.063,0.378-0.077
			c0.082-0.009,0.178,0.035,0.191,0.127c0.002,0.007,0.004,0.015,0.006,0.023c0.01-0.002,0.021-0.003,0.031-0.003
			c0.082-0.01,0.178,0.032,0.19,0.126c0.068,0.492,0.414,0.99,0.648,1.424c0.241,0.445,0.716,0.704,0.952,1.158
			c0.106,0.205,0.222,0.456,0.193,0.695c-0.014,0.109-0.039,0.203-0.076,0.309c-0.082,0.217-0.002,0.318,0.154,0.446
			c0.362,0.297,0.428,0.685,0.438,1.134c0.002,0.065-0.063,0.143-0.127,0.147c-0.276,0.027-0.527-0.113-0.76-0.283
			c-0.242-0.134-0.465-0.337-0.674-0.487c-0.05-0.029-0.101-0.063-0.148-0.099c-0.262-0.161-0.596-0.349-0.467-0.707
			c0.051-0.146,0.143-0.264,0.234-0.387c0.014-0.018,0.042-0.048,0.068-0.082c-0.198-0.017-0.348-0.079-0.557-0.19
			c-0.322-0.17-0.654-0.308-0.998-0.421c-0.019-0.006-0.039-0.012-0.061-0.016c0.038,0.021,0.074,0.048,0.107,0.083
			c0.002,0.005,0.006,0.011,0.013,0.017c0.079,0.025,0.153,0.065,0.213,0.13c0.241,0.26-0.011,0.46,0.092,0.732
			c0.019,0.05,0.046,0.092,0.075,0.128c0.102,0.042,0.199,0.086,0.296,0.132c0.052,0.023,0.11,0.067,0.171,0.121
			c0.02,0.01,0.038,0.017,0.057,0.027c0.246,0.114,0.713,0.678,0.246,0.835c-0.25,0.084-0.584,0.054-0.843,0.04
			c-0.303-0.018-0.587-0.069-0.866-0.187c-0.041-0.017-0.082-0.057-0.101-0.101c-0.043-0.016-0.085-0.029-0.127-0.046
			c-0.073-0.031-0.142-0.123-0.103-0.205c0.006-0.011,0.01-0.02,0.017-0.029c-0.08,0.014-0.161,0.027-0.233,0.033
			c-0.152,0.015-0.304,0.013-0.451,0.04c-0.182,0.031-0.394,0.048-0.222,0.257c0.063,0.076,0.048,0.21-0.052,0.251
			c-0.225,0.093-0.432,0.024-0.661-0.008c-0.283-0.04-0.593,0.044-0.864,0.13c-0.187,0.059-0.361,0.163-0.511,0.293
			c-0.104,0.234-0.247,0.452-0.421,0.625c-0.033,0.092-0.064,0.185-0.109,0.272c-0.123,0.246-0.281,0.306-0.548,0.29
			c-0.354-0.019-0.669-0.04-1.022,0.027c-0.35,0.065-0.836,0.118-1.115,0.362c-0.253,0.22-0.311,0.555-0.342,0.873
			c-0.041,0.433-0.073,1.513-0.698,1.57c-0.134,0.014-0.224-0.048-0.287-0.147c-0.379-0.031-0.364-0.735-0.356-0.994
			c0.008-0.313,0.092-0.588,0.133-0.898c0.002-0.022,0.039-0.231,0.037-0.387c-0.041,0-0.082-0.006-0.125-0.024
			c-0.057-0.027-0.123-0.073-0.168-0.131c-0.019-0.004-0.039-0.008-0.06-0.018c-0.089-0.042-0.208-0.134-0.216-0.245
			c-0.018-0.224-0.151-0.315-0.329-0.427c-0.056-0.034-0.147-0.113-0.251-0.19c-0.148-0.075-0.284-0.095-0.346,0.051
			c-0.07,0.169-0.172,0.462-0.414,0.424c-0.131-0.022-0.223-0.081-0.297-0.165c-0.211-0.062-0.303-0.238-0.401-0.439
			c-0.056-0.115-0.104-0.216-0.181-0.299c-0.172-0.059-0.346-0.103-0.526-0.122c-0.353-0.038-0.728-0.05-1.065,0.065
			c-0.004,0.002-0.009,0.002-0.013,0.004c-0.002,0-0.006,0.002-0.008,0.002c-0.04,0.015-0.078,0.013-0.113,0.002
			c-0.255,0.011-0.249,0.308-0.396,0.478c-0.143,0.167-0.305,0.238-0.488,0.352c-0.698,0.431-1.02,2.161-0.348,2.776
			c0.008,0.004,0.014,0.009,0.021,0.011c0.287,0.116,0.684,0.313,1.006,0.234c0.069-0.038,0.137-0.073,0.211-0.104
			c0.012-0.012,0.026-0.021,0.039-0.034c0.252-0.249,0.401-0.299,0.754-0.213c0.194,0.048,0.553,0.11,0.728,0.291
			c0.161,0.069,0.298,0.171,0.323,0.33c0.065,0.397-0.317,0.59-0.584,0.798c-0.201,0.157-0.353,0.362-0.537,0.537
			c-0.176,0.164-0.393,0.264-0.573,0.419c0.076,0.024,0.153,0.048,0.229,0.077c0.184,0.07,0.365,0.168,0.53,0.275
			c0.038,0.023,0.073,0.047,0.109,0.072c0.04,0.023,0.079,0.048,0.118,0.073c0.346,0.222,0.613,0.49,0.734,0.889
			c0.006,0.02,0.006,0.034,0.006,0.052c0.06,0.191,0.008,0.369-0.164,0.499c-0.283,0.216-0.527,0.344-0.648,0.709
			c-0.107,0.332-0.082,0.783,0.09,1.093c0.018,0.029,0.035,0.055,0.055,0.076c0.17,0.047,0.368,0.018,0.559,0.098
			c0.092,0.039,0.165,0.088,0.224,0.145c0.002,0,0.002,0,0.002,0c0.433,0.182,0.45,0.619,0.703,0.953
			c0.002,0.002,0.004,0.004,0.006,0.004c0.32,0.037,0.653-0.527,0.994-0.543c0.132-0.004,0.265,0.01,0.394,0.023
			c0.176,0.02,0.348,0.039,0.527,0.01c0.215-0.035,0.463-0.088,0.676-0.031c0.103,0.029,0.187,0.082,0.246,0.156
			c0.209,0.064,0.338,0.242,0.323,0.447c0.104,0.025,0.185,0.08,0.253,0.154c0.209,0.064,0.313,0.246,0.463,0.469
			c0.223,0.328,0.45,0.441,0.719,0.719c0.045,0.049,0.086,0.102,0.129,0.15c0.016,0.002,0.031,0.006,0.047,0.008
			c0.074,0.004,0.144,0,0.21-0.004c0.106-0.006,0.206-0.014,0.317,0.016c0.049-0.016,0.109-0.004,0.153,0.055
			c0.004,0.008,0.009,0.016,0.015,0.023c0.018,0.016,0.029,0.033,0.035,0.049c0.004,0.006,0.008,0.012,0.012,0.02
			c0.004,0,0.008,0,0.012,0c0.051-0.018,0.111-0.004,0.152,0.057c0.006,0.006,0.012,0.012,0.018,0.021
			c0.015,0.014,0.029,0.033,0.035,0.051c0.326,0.467,0.541,0.996,0.857,1.469c0.217,0.324,0.225,0.697,0.398,1.031
			c0.046,0.09,0.111,0.164,0.184,0.227c0.305,0.156,0.682,0.23,0.95,0.406c0.035,0.023,0.063,0.045,0.088,0.068
			c0.05,0.023,0.097,0.051,0.14,0.08c0.299,0.195,0.278,0.461,0.373,0.777c0.063,0.203,0.129,0.396,0.146,0.611
			c0.023,0.285-0.025,0.572-0.012,0.859c0.012,0.236,0.018,0.471,0.197,0.629c0.094,0.051,0.193,0.107,0.273,0.172
			c0.12,0.066,0.24,0.139,0.314,0.234c0.115,0.143,0.158,0.393,0.271,0.527c0.185,0.066,0.388,0.068,0.556,0.186
			c0.034,0.025,0.063,0.051,0.092,0.08c0.045,0.018,0.092,0.037,0.136,0.068c0.37,0.26,0.345,0.756,0.731,0.996
			c0.082,0.051,0.086,0.141,0.049,0.205c0.007,0.025,0.007,0.057-0.002,0.09c-0.164,0.563-0.723,1.137-1.267,1.354
			c-0.854,0.342-1.586,0.965-2.343,1.48c-0.379,0.256-0.768,0.475-1.172,0.689c-0.305,0.162-0.605,0.348-0.938,0.451
			c-0.414,0.127-0.844,0.127-1.272,0.127c-0.412,0-0.826-0.002-1.228,0.109c-0.438,0.119-0.851,0.318-1.289,0.428
			c-0.396,0.102-0.8,0.178-1.197,0.273c-0.338,0.082-0.76,0.176-1.106,0.072c-0.245-0.072-0.499-0.227-0.758-0.119
			c-0.14,0.057-0.28,0.141-0.429,0.168c-0.373,0.074-0.752-0.01-1.109-0.104c-0.203-0.053-0.4-0.078-0.609-0.074
			c-0.148,0.004-0.328,0.039-0.461-0.049c-0.045-0.027-0.146,0.006-0.248,0.039c-0.086,0.029-0.174,0.055-0.226,0.047
			c-0.166-0.031-0.461-0.189-0.606-0.094c-0.289,0.191-0.576,0.094-0.88-0.016c-0.048-0.018-0.077-0.049-0.092-0.086
			c-0.235-0.043-0.463-0.146-0.685-0.234c-0.061-0.027-0.108-0.066-0.142-0.113c-0.028-0.012-0.057-0.021-0.084-0.035
			c-0.065-0.025-0.112-0.066-0.147-0.115c-0.021-0.01-0.043-0.02-0.063-0.027c-0.139-0.063-0.241-0.189-0.187-0.346
			c0.106-0.316,0.492-0.277,0.676-0.51c0.176-0.217,0.357-0.359,0.626-0.451c0.423-0.145,0.726-0.348,1.06-0.645
			c0.283-0.252,0.563-0.51,0.827-0.781c0.253-0.256,0.527-0.512,0.695-0.836c0.149-0.287,0.336-0.797,0.161-1.113
			c-0.188-0.346-0.536-0.596-0.76-0.926c-0.158-0.23-0.322-0.502-0.336-0.789c-0.016-0.318,0.068-0.635,0.062-0.959
			c-0.011-0.355-0.033-0.713-0.058-1.068c-0.125-0.34-0.209-0.695-0.256-1.049c-0.086-0.232-0.158-0.465-0.156-0.711
			c0.002-0.203,0.056-0.426,0.217-0.566c0.132-0.115,0.436-0.107,0.443-0.285c0.002-0.029,0.008-0.053,0.021-0.072
			c0.001-0.012,0-0.021,0.003-0.031c0.225-0.627,0.604-1.166,1.23-1.436c0.154-0.066,0.299-0.135,0.465-0.164
			c0.156-0.023,0.311-0.02,0.451-0.092c0.379-0.188,0.229-0.684,0.42-1.029c0.005-0.004-0.355-0.006-0.355-0.006v-0.01
			c0-0.172,0.454-0.652,0.344-0.885c-0.13,0.012,0.021,0.15-0.152,0.186c-0.213,0.041-0.274-0.031-0.364-0.143
			c-0.298-0.057-0.291-0.451-0.601-0.65c-0.254-0.162-0.383-0.336-0.408-0.643c-0.02-0.244-0.092-0.352-0.276-0.508
			c-0.071-0.06-0.14-0.175-0.149-0.271c-0.043-0.358-0.004-0.705-0.086-1.063c-0.07-0.299-0.149-0.592-0.191-0.894
			c-0.069-0.098-0.107-0.196-0.121-0.293c-0.205-0.248-0.465-0.449-0.628-0.726c-0.179-0.308-0.263-0.655-0.438-0.96
			c-0.035-0.06-0.074-0.109-0.115-0.155c-0.07-0.035-0.131-0.075-0.18-0.123c-0.014-0.005-0.025-0.013-0.039-0.02
			c-0.145-0.059-0.303-0.11-0.457-0.178c-0.1-0.044-0.188-0.102-0.269-0.169c-0.271-0.132-0.468-0.362-0.595-0.634
			c-0.148-0.325-0.301-0.626-0.489-0.93c-0.183-0.3-0.295-0.654-0.414-0.981c-0.093-0.266-0.168-0.571-0.097-0.852
			c0.096-0.378,0.332-0.709,0.427-1.091c0.106-0.438,0.047-0.887,0.084-1.333c0.017-0.195,0.032-0.395,0.058-0.594
			c-0.01,0.021-0.018,0.04-0.029,0.062c-0.2,0.389-0.188,0.77-0.303,1.178c-0.017,0.061-0.061,0.092-0.106,0.104
			c-0.003,0.006-0.011,0.01-0.013,0.016c-0.074,0.168-0.328,0.104-0.334-0.042c-0.105,0.009-0.207-0.077-0.153-0.203
			c0.144-0.332-0.41-0.529-0.351-0.854c0.03-0.161-0.552-0.306-0.052-0.443v-0.002c-0.5-0.08,0.168-0.17,0.205-0.278
			c0.011-0.032,0.106-0.071,0.119-0.103c-0.011-0.061,0.058-0.119,0.051-0.187c-0.026-0.327,0.291-0.312,0.418-0.536
			c0.185-0.328,0.205-0.753,0.364-1.103c0.074-0.169,0.182-0.363,0.304-0.502c0.04-0.046,0.148-0.132,0.212-0.222
			c-0.016-0.084-0.025-0.17-0.033-0.256c-0.105-0.152-0.098-0.347-0.045-0.528c0.151-0.542,0.531-1.095,0.926-1.492
			c0.498-0.5,1.123-0.912,1.781-1.159c0.338-0.126,0.717-0.245,0.992-0.486c0.276-0.242,0.383-0.598,0.635-0.861
			c0.373-0.397,0.803-0.635,1.276-0.877c0.046-0.025,0.497-0.26,0.46-0.318c-0.002-0.002-0.004-0.004-0.004-0.006
			c-0.241-0.067-0.582-0.023-0.756,0c-0.109,0.013-0.178-0.069-0.186-0.153c-0.017,0.002-0.029,0.003-0.041,0.005
			c-0.199,0.023-0.267-0.266-0.088-0.312c0.028-0.036,0.074-0.062,0.129-0.056c0.817-0.016,1.631-0.076,2.447-0.125
			c0.691-0.04,1.506-0.146,2.159,0.151c0.108,0.05,0.204,0.121,0.31,0.179c0.176,0.096,0.371,0.091,0.558,0.149
			c0.146,0.044,0.257,0.109,0.352,0.193c0.199,0.09,0.33,0.231,0.46,0.409c-0.004-0.019-0.008-0.04-0.01-0.061
			c-0.005-0.18,0.07-0.36,0.238-0.454c0.443-0.247,1.408,0.188,1.861,0.285c0.39,0.085,0.769,0.179,1.147,0.282
			C39.452,8.069,36.84,7.516,34.1,7.516C23.053,7.516,14.1,16.47,14.1,27.516"/>
	</defs>
	<clipPath id="SVGID_5_">
		<use xlink:href="#SVGID_4_"  overflow="visible"/>
	</clipPath>
	
		<linearGradient id="SVGID_6_" gradientUnits="userSpaceOnUse" x1="-3808.9526" y1="537.3472" x2="-3807.9526" y2="537.3472" gradientTransform="matrix(40 0 0 -40 152372.2031 21521.3867)">
		<stop  offset="0" style="stop-color:#DCF2FD"/>
		<stop  offset="0.1184" style="stop-color:#CEEEFC"/>
		<stop  offset="0.3405" style="stop-color:#AAE2F8"/>
		<stop  offset="0.6427" style="stop-color:#70CEF1"/>
		<stop  offset="1" style="stop-color:#23B5E9"/>
	</linearGradient>
	<rect x="14.1" y="7.516" clip-path="url(#SVGID_5_)" fill="url(#SVGID_6_)" width="40" height="40"/>
</g>
</svg>
