<?xml version="1.0" encoding="utf-8"?>
<!-- Generator: Adobe Illustrator 16.0.3, SVG Export Plug-In . SVG Version: 6.00 Build 0)  -->
<!DOCTYPE svg PUBLIC "-//W3C//DTD SVG 1.1//EN" "http://www.w3.org/Graphics/SVG/1.1/DTD/svg11.dtd">
<svg version="1.1" id="Layer_1" xmlns="http://www.w3.org/2000/svg" xmlns:xlink="http://www.w3.org/1999/xlink" x="0px" y="0px"
	 width="180.337px" height="106.74px" viewBox="0 0 180.337 106.74" enable-background="new 0 0 180.337 106.74"
	 xml:space="preserve">
<radialGradient id="SVGID_1_" cx="-4537.6592" cy="920.2881" r="1" gradientTransform="matrix(73.0234 -0.2052 -0.1627 -57.9139 331600.75 52428.7266)" gradientUnits="userSpaceOnUse">
	<stop  offset="0" style="stop-color:#CAE0F3"/>
	<stop  offset="0.7191" style="stop-color:#29AAE1"/>
	<stop  offset="1" style="stop-color:#29AAE1"/>
</radialGradient>
<polygon display="none" fill="url(#SVGID_1_)" points="10.94,7.575 173.843,7.118 174.098,97.659 11.194,98.117 "/>
<radialGradient id="SVGID_2_" cx="92.5146" cy="51.9312" r="64.99" gradientUnits="userSpaceOnUse">
	<stop  offset="0" style="stop-color:#CCE0F4"/>
	<stop  offset="0.0434" style="stop-color:#C3DCF2"/>
	<stop  offset="0.1157" style="stop-color:#A9D2EE"/>
	<stop  offset="0.2078" style="stop-color:#80C2E7"/>
	<stop  offset="0.3151" style="stop-color:#47ACDE"/>
	<stop  offset="0.3846" style="stop-color:#1E9CD7"/>
	<stop  offset="1" style="stop-color:#0075BE"/>
</radialGradient>
<path fill="url(#SVGID_2_)" d="M73.972,87.754l-1.078-0.794c-6.178-4.745-10.776-11.62-12.528-19.818
	c-1.907-8.964-0.073-17.865,4.435-25.077l4.95,2.804c-3.853,6.036-5.431,13.525-3.822,21.085c1.383,6.469,4.886,11.924,9.61,15.844
	l1.057,0.827c6.314,4.752,14.557,6.858,22.883,5.076c3.061-0.646,5.889-1.793,8.446-3.301l1.12-0.705
	c9.479-6.206,14.68-17.783,12.184-29.539c-0.344-1.548-0.812-3.022-1.377-4.453l5.653-1.205c0.517,1.441,0.959,2.938,1.283,4.477
	c3.011,14.088-3.237,28.029-14.625,35.492l-1.116,0.705c-3.131,1.879-6.615,3.296-10.385,4.097c-2.377,0.507-4.752,0.751-7.09,0.751
	C86.427,94.019,79.605,91.744,73.972,87.754 M65.532,40.952c4.745-6.973,12.076-12.211,20.963-14.106
	c2.981-0.632,5.952-0.85,8.856-0.7l1.321,0.087c12.488,1.153,23.549,9.21,28.351,21.015l-5.668,1.217
	c-4.285-9.544-13.545-15.908-23.883-16.596l-1.328-0.052c-2.13-0.045-4.294,0.126-6.462,0.591
	c-7.244,1.549-13.223,5.754-17.178,11.367L65.532,40.952z M19.002,7.771c-4.769,1.011-7.809,5.698-6.787,10.47
	c1.015,4.762,5.701,7.802,10.468,6.788c2.337-0.5,4.254-1.884,5.485-3.723L62.835,40.95c-4.776,7.686-6.716,17.141-4.679,26.666
	c1.891,8.891,6.929,16.323,13.69,21.39l1.09,0.787c7.935,5.504,18.029,7.867,28.2,5.691c4.045-0.863,7.798-2.379,11.156-4.414
	l1.116-0.699c12.137-7.969,18.808-22.848,15.604-37.873c-0.331-1.539-0.765-3.031-1.27-4.479l28.289-6.032
	c1.568,3.886,5.751,6.206,10,5.3c4.766-1.015,7.813-5.703,6.781-10.47c-1.008-4.773-5.693-7.813-10.465-6.794
	c-4.771,1.016-7.813,5.704-6.787,10.471c0.018,0.076,0.041,0.154,0.058,0.228l-28.347,6.049
	C122.273,34.06,110.49,25.34,97.154,24.013l-1.322-0.103c-3.216-0.207-6.5,0.018-9.81,0.718c-9.544,2.037-17.406,7.69-22.471,15.213
	l-34.737-19.68c0.801-1.692,1.075-3.64,0.657-5.604c-0.882-4.142-4.541-6.982-8.616-6.982C20.244,7.575,19.624,7.639,19.002,7.771"
	/>
</svg>
