<?xml version="1.0" encoding="utf-8"?>
<!-- Generator: Adobe Illustrator 16.0.3, SVG Export Plug-In . SVG Version: 6.00 Build 0)  -->
<!DOCTYPE svg PUBLIC "-//W3C//DTD SVG 1.1//EN" "http://www.w3.org/Graphics/SVG/1.1/DTD/svg11.dtd">
<svg version="1.1" id="Layer_3" xmlns="http://www.w3.org/2000/svg" xmlns:xlink="http://www.w3.org/1999/xlink" x="0px" y="0px"
	 width="94.943px" height="55.056px" viewBox="0 0 94.943 55.056" enable-background="new 0 0 94.943 55.056" xml:space="preserve">
<g>
	<defs>
		<path id="SVGID_1_" d="M80.711,27.736c0,1.932,1.566,3.5,3.5,3.5c1.936,0,3.501-1.568,3.501-3.5c0-1.933-1.565-3.499-3.501-3.499
			C82.277,24.237,80.711,25.804,80.711,27.736"/>
	</defs>
	<clipPath id="SVGID_2_">
		<use xlink:href="#SVGID_1_"  overflow="visible"/>
	</clipPath>
	
		<linearGradient id="SVGID_3_" gradientUnits="userSpaceOnUse" x1="-4262.6836" y1="566.1694" x2="-4261.6836" y2="566.1694" gradientTransform="matrix(7 0 0 -7 29919.5 3990.9258)">
		<stop  offset="0" style="stop-color:#DCF2FD"/>
		<stop  offset="0.1184" style="stop-color:#CEEEFC"/>
		<stop  offset="0.3405" style="stop-color:#AAE2F8"/>
		<stop  offset="0.6427" style="stop-color:#70CEF1"/>
		<stop  offset="1" style="stop-color:#23B5E9"/>
	</linearGradient>
	<rect x="80.711" y="24.237" clip-path="url(#SVGID_2_)" fill="url(#SVGID_3_)" width="7.001" height="7"/>
</g>
<g>
	<defs>
		<path id="SVGID_4_" d="M38.048,29.329c-0.139-0.033-0.254-0.092-0.331-0.188c-0.006-0.002-0.013-0.002-0.021-0.004
			c-0.158-0.033-0.231-0.18-0.204-0.333c0.024-0.148,0.207-0.18,0.286-0.101c0.072,0.007,0.143,0.055,0.156,0.141h0.002
			c0.168,0.031,0.277,0.13,0.323,0.296c0.031,0.115-0.071,0.191-0.172,0.191C38.074,29.333,38.061,29.331,38.048,29.329
			 M35.865,27.104c0.234,0.155,0.51,0.218,0.734,0.388c0.104,0.083,0.192,0.196,0.271,0.303c0.184,0.247,0.4,0.532,0.411,0.85
			c0.004,0.085-0.091,0.161-0.171,0.152c-0.176-0.02-0.305-0.081-0.451-0.177c-0.047-0.007-0.092-0.028-0.139-0.065
			c-0.004-0.004-0.01-0.007-0.015-0.013c-0.127-0.05-0.245-0.052-0.403-0.044c-0.256,0.009-0.313-0.079-0.435-0.276
			c-0.12-0.198-0.469-0.148-0.649-0.295c-0.164-0.132-0.199-0.271-0.152-0.473c0.021-0.096,0.171-0.148,0.244-0.082
			c0.132,0.116,0.558,0.174,0.484-0.108c-0.033-0.122,0.068-0.192,0.166-0.186C35.794,27.074,35.831,27.079,35.865,27.104
			 M34.001,27.418c-0.13-0.026-0.231-0.105-0.293-0.224c-0.036-0.071-0.048-0.14-0.121-0.168c-0.194-0.075-0.089-0.382,0.106-0.308
			c0.121,0.048,0.211,0.131,0.266,0.249c0.042,0.092,0.044,0.123,0.145,0.145c0.088,0.019,0.129,0.13,0.103,0.205
			c-0.024,0.073-0.086,0.106-0.155,0.106C34.035,27.424,34.018,27.422,34.001,27.418 M32.09,24.367
			c-0.094-0.023-0.178-0.139-0.113-0.253c0.434-0.767,1.404,0.133,1.795,0.486c0.319,0.291,0.67,0.422,0.803,0.866
			c0.148,0.505,0.693,0.795,0.795,1.317c0.02,0.1-0.063,0.205-0.169,0.193c-0.452-0.05-1.188-0.325-1.269-0.839
			c-0.064-0.393-0.412-0.74-0.658-1.052c-0.021-0.026-0.045-0.053-0.065-0.082c-0.017-0.019-0.032-0.038-0.045-0.057
			c-0.236-0.286-0.537-0.587-0.927-0.529c-0.01,0.002-0.021,0.003-0.029,0.003C32.158,24.422,32.119,24.399,32.09,24.367
			 M12.574,27.736c0,11.045,8.953,20,20,20c7.705,0,14.39-4.361,17.729-10.748c0.032-0.18,0.065-0.357,0.082-0.535
			c0.096-0.977,0.59-1.801,0.799-2.75c0.115-0.512,0.094-0.98,0.284-1.488c0.189-0.51,0.396-1.008,0.605-1.51
			c0.14-0.338,0.293-0.688,0.405-1.045c0.062-0.633,0.095-1.275,0.095-1.924c0-4.059-1.214-7.834-3.289-10.986
			c-0.027-0.008-0.054-0.01-0.075-0.035c-0.032-0.034-0.063-0.068-0.093-0.103c-0.017-0.011-0.031-0.02-0.043-0.033
			c-0.063-0.074-0.124-0.151-0.183-0.229c-0.086-0.101-0.17-0.202-0.25-0.308c-0.033-0.042-0.041-0.086-0.033-0.128
			c-0.012-0.004-0.026-0.008-0.037-0.01c-0.133-0.031-0.127-0.163-0.057-0.245c-0.162-0.215-0.326-0.427-0.498-0.634
			c-0.019,0.011-0.031,0.031-0.054,0.033c-0.101,0.053-0.269,0.15-0.397,0.253c-0.01,0.146-0.08,0.286-0.187,0.394
			c0.022,0.239,0.069,0.471-0.084,0.687c-0.052,0.071-0.142,0.085-0.211,0.047c-0.067,0.045-0.157,0.036-0.216-0.024
			c-0.088-0.098-0.247-0.14-0.35-0.234c-0.148-0.14-0.276-0.297-0.414-0.449c-0.131-0.15-0.266-0.296-0.36-0.474
			c-0.112-0.207-0.181-0.44-0.302-0.642c-0.264-0.439-0.363-1.011-0.656-1.412c-0.32-0.435-0.564-0.937-0.908-1.351l-1.551-1.029
			c-0.088,0.066-0.063,0.162,0.111,0.383c0.074,0.094,0.176,0.182,0.285,0.26c0.053,0.031,0.104,0.061,0.152,0.088
			c0.137,0.075,0.271,0.157,0.4,0.247c0.447,0.271,0.863,0.613,1.131,1.067c0.191,0.33,0.357,1.012-0.133,1.199
			c-0.272,0.105-0.553,0.044-0.819-0.062c0.019,0.034,0.038,0.071,0.058,0.105c0.098,0.169-0.144,0.301-0.269,0.178
			c-0.033-0.034-0.065-0.069-0.097-0.101c-0.047,0.002-0.094-0.011-0.129-0.047c-0.569-0.564-0.949-1.168-1.574-1.614
			c-0.092-0.054-0.188-0.105-0.295-0.153c-0.023,0.096-0.117,0.238-0.236,0.182c-0.242-0.11-0.54-0.198-0.751-0.375
			c-0.113-0.058-0.216-0.125-0.3-0.211c-0.031-0.035-0.047-0.077-0.053-0.123c-0.17,0.002-0.341-0.007-0.512-0.017
			c-0.3-0.015-0.602-0.033-0.902,0.01c-0.117,0.018-0.365,0.025-0.271,0.243c0.029,0.071,0.063,0.14,0.094,0.209
			c0.113,0.235,0.352,0.298,0.527,0.482c0.383,0.403,0.714,0.789,0.744,1.359c0.009,0.152,0.016,0.301,0.056,0.45
			c0.004,0.012,0.011,0.025,0.017,0.039c0.01-0.019,0.021-0.046,0.027-0.085c0.031-0.176,0.092-0.283,0.258-0.354
			c0.092-0.04,0.184-0.017,0.268,0.005c0.142,0.035,0.264,0.072,0.341-0.177c0.06-0.2-0.052-0.402,0.106-0.572
			c0.217-0.236,0.244-0.721,0.648-0.685c0.081,0.008,0.178,0.073,0.279,0.159c0.217,0.073,0.527,0.462,0.691,0.594
			c0.297,0.237,0.604,0.444,0.655,0.854c0.004,0.037,0.013,0.064,0.021,0.092c0.113-0.009,0.25-0.063,0.377-0.076
			c0.084-0.012,0.18,0.032,0.19,0.126c0.002,0.008,0.007,0.015,0.007,0.025c0.008-0.002,0.021-0.004,0.029-0.006
			c0.085-0.011,0.18,0.034,0.191,0.126c0.07,0.494,0.414,0.992,0.647,1.426c0.244,0.446,0.72,0.704,0.954,1.158
			c0.105,0.205,0.223,0.456,0.191,0.695c-0.012,0.109-0.039,0.203-0.076,0.309c-0.078,0.216,0,0.317,0.154,0.445
			c0.362,0.298,0.43,0.683,0.441,1.135c0.002,0.064-0.064,0.142-0.13,0.147c-0.274,0.026-0.526-0.113-0.761-0.284
			c-0.241-0.134-0.463-0.337-0.67-0.485c-0.051-0.031-0.104-0.065-0.152-0.101c-0.26-0.163-0.596-0.349-0.465-0.709
			c0.052-0.143,0.142-0.262,0.236-0.385c0.011-0.017,0.039-0.047,0.066-0.082c-0.197-0.015-0.347-0.078-0.559-0.191
			c-0.319-0.171-0.652-0.307-0.997-0.42c-0.019-0.008-0.04-0.011-0.06-0.015c0.039,0.021,0.073,0.048,0.105,0.082
			c0.006,0.006,0.01,0.012,0.016,0.017c0.078,0.025,0.151,0.065,0.213,0.132c0.239,0.258-0.01,0.459,0.092,0.729
			c0.019,0.052,0.043,0.092,0.074,0.131c0.101,0.042,0.199,0.086,0.297,0.132c0.051,0.023,0.111,0.067,0.17,0.12
			c0.02,0.011,0.039,0.019,0.059,0.025c0.245,0.115,0.71,0.68,0.243,0.837c-0.251,0.085-0.582,0.054-0.843,0.039
			c-0.303-0.019-0.584-0.067-0.865-0.185c-0.043-0.019-0.083-0.058-0.102-0.104c-0.043-0.013-0.084-0.026-0.127-0.044
			c-0.072-0.03-0.14-0.122-0.1-0.207c0.004-0.009,0.009-0.017,0.013-0.026c-0.077,0.012-0.157,0.024-0.233,0.032
			c-0.149,0.015-0.301,0.014-0.449,0.04c-0.182,0.031-0.395,0.048-0.223,0.257c0.064,0.077,0.047,0.209-0.049,0.251
			c-0.225,0.095-0.432,0.023-0.662-0.01c-0.283-0.04-0.594,0.044-0.863,0.133c-0.19,0.06-0.362,0.162-0.514,0.293
			c-0.102,0.233-0.246,0.452-0.42,0.622c-0.033,0.094-0.066,0.188-0.111,0.276c-0.123,0.245-0.278,0.304-0.545,0.289
			c-0.354-0.02-0.67-0.04-1.023,0.026c-0.348,0.065-0.835,0.119-1.116,0.362c-0.253,0.218-0.309,0.554-0.341,0.871
			c-0.043,0.435-0.075,1.514-0.697,1.573c-0.135,0.013-0.226-0.048-0.287-0.148c-0.382-0.032-0.365-0.734-0.358-0.994
			c0.008-0.313,0.094-0.59,0.134-0.897c0.002-0.023,0.039-0.232,0.037-0.388c-0.041,0-0.081-0.007-0.125-0.026
			c-0.057-0.025-0.124-0.07-0.168-0.128c-0.02-0.004-0.039-0.01-0.059-0.018c-0.092-0.042-0.209-0.134-0.218-0.245
			c-0.016-0.226-0.151-0.315-0.327-0.428c-0.057-0.034-0.147-0.113-0.254-0.188c-0.145-0.077-0.283-0.097-0.343,0.05
			c-0.069,0.168-0.172,0.459-0.415,0.423c-0.132-0.021-0.225-0.082-0.297-0.165c-0.209-0.063-0.305-0.237-0.4-0.44
			c-0.056-0.112-0.107-0.217-0.183-0.297c-0.17-0.06-0.347-0.104-0.526-0.123c-0.35-0.037-0.726-0.05-1.066,0.065
			c-0.004,0-0.008,0.002-0.012,0.004c0,0-0.004,0.002-0.008,0.002c-0.039,0.014-0.078,0.014-0.111,0.002
			c-0.254,0.012-0.25,0.309-0.396,0.479c-0.143,0.167-0.304,0.234-0.488,0.348c-0.697,0.433-1.021,2.161-0.347,2.78
			c0.009,0.004,0.015,0.007,0.019,0.009c0.291,0.117,0.685,0.313,1.008,0.236c0.07-0.038,0.139-0.075,0.209-0.105
			c0.014-0.012,0.027-0.021,0.041-0.035c0.25-0.249,0.402-0.301,0.755-0.213c0.194,0.048,0.553,0.112,0.728,0.292
			c0.16,0.069,0.297,0.17,0.323,0.329c0.063,0.398-0.317,0.59-0.586,0.799c-0.201,0.157-0.351,0.362-0.536,0.536
			c-0.176,0.165-0.393,0.264-0.572,0.418c0.076,0.024,0.152,0.049,0.228,0.078c0.187,0.069,0.366,0.167,0.532,0.274
			c0.037,0.024,0.072,0.05,0.107,0.074c0.04,0.023,0.08,0.049,0.118,0.073c0.345,0.222,0.615,0.49,0.733,0.888
			c0.007,0.02,0.009,0.035,0.009,0.053c0.059,0.19,0.007,0.37-0.165,0.5c-0.282,0.214-0.529,0.343-0.646,0.709
			c-0.108,0.331-0.084,0.78,0.09,1.09c0.017,0.029,0.033,0.055,0.051,0.078c0.171,0.045,0.369,0.016,0.561,0.098
			c0.094,0.035,0.163,0.086,0.225,0.145h0.002c0.433,0.178,0.449,0.619,0.701,0.949c0.004,0.004,0.006,0.008,0.008,0.01
			c0.318,0.035,0.65-0.529,0.994-0.545c0.131-0.004,0.265,0.01,0.395,0.023c0.172,0.02,0.348,0.037,0.525,0.008
			c0.213-0.033,0.461-0.09,0.676-0.029c0.104,0.029,0.186,0.082,0.246,0.152c0.207,0.068,0.338,0.244,0.322,0.449
			c0.105,0.027,0.185,0.082,0.254,0.154c0.209,0.066,0.313,0.248,0.463,0.469c0.222,0.328,0.451,0.443,0.72,0.721
			c0.046,0.049,0.085,0.102,0.127,0.15c0.017,0.002,0.032,0.006,0.047,0.006c0.077,0.006,0.147,0.002,0.213-0.002
			c0.107-0.006,0.205-0.012,0.313,0.014c0.053-0.014,0.111-0.002,0.154,0.055c0.006,0.01,0.012,0.016,0.018,0.023
			c0.017,0.014,0.027,0.033,0.033,0.051c0.005,0.006,0.009,0.012,0.013,0.018c0.003,0,0.007,0,0.007,0
			c0.057-0.016,0.113-0.004,0.157,0.057c0.006,0.006,0.01,0.014,0.017,0.023c0.016,0.014,0.028,0.031,0.035,0.049
			c0.326,0.469,0.542,0.998,0.857,1.471c0.218,0.324,0.223,0.697,0.397,1.031c0.048,0.09,0.111,0.164,0.185,0.227
			c0.304,0.156,0.681,0.23,0.951,0.406c0.033,0.021,0.062,0.045,0.088,0.07c0.048,0.021,0.097,0.049,0.141,0.078
			c0.296,0.195,0.277,0.461,0.373,0.777c0.061,0.203,0.128,0.396,0.146,0.611c0.021,0.283-0.027,0.572-0.015,0.857
			c0.013,0.236,0.019,0.469,0.197,0.629c0.096,0.053,0.194,0.107,0.274,0.174c0.121,0.066,0.239,0.137,0.315,0.232
			c0.112,0.143,0.155,0.395,0.269,0.527c0.184,0.068,0.389,0.07,0.558,0.189c0.032,0.023,0.063,0.049,0.09,0.074
			c0.048,0.02,0.094,0.041,0.136,0.072c0.371,0.258,0.346,0.756,0.732,0.996c0.084,0.051,0.088,0.137,0.048,0.205
			c0.007,0.027,0.009,0.057,0,0.09c-0.165,0.563-0.726,1.137-1.267,1.352c-0.856,0.342-1.588,0.967-2.344,1.48
			c-0.38,0.258-0.769,0.475-1.173,0.691c-0.305,0.162-0.606,0.348-0.937,0.449c-0.414,0.129-0.844,0.129-1.276,0.129
			c-0.411,0-0.823-0.004-1.224,0.107c-0.437,0.121-0.85,0.318-1.289,0.43c-0.395,0.102-0.801,0.176-1.197,0.271
			c-0.339,0.084-0.76,0.176-1.105,0.074c-0.244-0.074-0.5-0.229-0.76-0.119c-0.138,0.057-0.279,0.139-0.427,0.168
			c-0.372,0.074-0.751-0.01-1.11-0.105c-0.203-0.053-0.399-0.078-0.609-0.072c-0.15,0.004-0.328,0.041-0.463-0.049
			c-0.043-0.027-0.144,0.006-0.244,0.039c-0.086,0.029-0.176,0.057-0.227,0.047c-0.166-0.031-0.462-0.193-0.609-0.096
			c-0.287,0.193-0.574,0.096-0.879-0.014c-0.047-0.018-0.076-0.051-0.092-0.086c-0.233-0.043-0.461-0.146-0.682-0.236
			c-0.064-0.025-0.109-0.064-0.145-0.111c-0.026-0.012-0.055-0.025-0.084-0.035c-0.063-0.025-0.11-0.068-0.146-0.115
			c-0.022-0.01-0.044-0.021-0.065-0.029c-0.138-0.059-0.24-0.189-0.188-0.346c0.109-0.316,0.493-0.277,0.678-0.506
			c0.176-0.223,0.359-0.361,0.627-0.453c0.424-0.145,0.725-0.348,1.059-0.646c0.283-0.25,0.562-0.508,0.828-0.779
			c0.25-0.256,0.526-0.514,0.693-0.836c0.149-0.287,0.336-0.799,0.163-1.115c-0.19-0.342-0.536-0.596-0.761-0.922
			c-0.157-0.232-0.324-0.502-0.337-0.791c-0.015-0.32,0.069-0.637,0.062-0.959c-0.008-0.355-0.033-0.713-0.058-1.068
			c-0.122-0.342-0.209-0.695-0.257-1.051c-0.082-0.23-0.155-0.463-0.153-0.709c0.002-0.203,0.054-0.426,0.216-0.566
			c0.133-0.113,0.434-0.107,0.445-0.287c0.002-0.025,0.007-0.051,0.02-0.072c0.002-0.01,0-0.02,0.002-0.031
			c0.224-0.627,0.603-1.164,1.231-1.438c0.155-0.064,0.296-0.133,0.465-0.158c0.153-0.027,0.31-0.023,0.452-0.094
			c0.375-0.189,0.225-0.684,0.417-1.029c0.002-0.004-0.356-0.008-0.356-0.008v-0.014c0-0.168,0.453-0.645,0.342-0.879
			c-0.129,0.01,0.022,0.15-0.149,0.184c-0.213,0.041-0.274-0.029-0.362-0.143c-0.301-0.055-0.293-0.449-0.603-0.648
			c-0.253-0.162-0.384-0.336-0.407-0.645c-0.02-0.242-0.093-0.35-0.277-0.506c-0.068-0.063-0.138-0.178-0.149-0.271
			c-0.044-0.358-0.002-0.705-0.086-1.063c-0.071-0.298-0.149-0.591-0.191-0.895c-0.067-0.098-0.106-0.194-0.118-0.293
			c-0.205-0.247-0.467-0.447-0.631-0.728c-0.178-0.304-0.261-0.653-0.437-0.958c-0.036-0.06-0.075-0.109-0.117-0.155
			c-0.069-0.034-0.13-0.074-0.179-0.122c-0.012-0.006-0.024-0.014-0.037-0.019c-0.148-0.061-0.303-0.112-0.46-0.182
			c-0.099-0.042-0.188-0.099-0.269-0.166c-0.27-0.132-0.466-0.361-0.592-0.634c-0.15-0.326-0.305-0.626-0.49-0.931
			c-0.184-0.301-0.297-0.653-0.414-0.983c-0.096-0.264-0.168-0.567-0.098-0.85c0.094-0.377,0.333-0.709,0.428-1.09
			c0.105-0.439,0.047-0.888,0.084-1.333c0.016-0.195,0.032-0.396,0.055-0.595c-0.008,0.021-0.016,0.04-0.027,0.063
			c-0.202,0.388-0.188,0.77-0.301,1.176c-0.018,0.062-0.063,0.093-0.108,0.104c-0.002,0.006-0.011,0.011-0.013,0.017
			c-0.073,0.167-0.328,0.106-0.333-0.042c-0.106,0.01-0.209-0.078-0.154-0.203c0.142-0.331-0.411-0.531-0.353-0.852
			c0.029-0.163-0.555-0.31-0.055-0.445v-0.002c-0.5-0.08,0.17-0.17,0.207-0.277c0.012-0.032,0.109-0.07,0.121-0.104
			c-0.011-0.06,0.057-0.12,0.051-0.186c-0.026-0.328,0.291-0.314,0.418-0.537c0.186-0.326,0.207-0.753,0.363-1.103
			c0.077-0.169,0.184-0.362,0.305-0.502c0.041-0.046,0.149-0.132,0.213-0.22c-0.018-0.084-0.027-0.171-0.032-0.257
			c-0.104-0.153-0.099-0.348-0.046-0.528c0.15-0.543,0.529-1.096,0.927-1.493c0.496-0.499,1.123-0.911,1.781-1.158
			c0.337-0.127,0.717-0.246,0.991-0.486c0.276-0.241,0.385-0.598,0.634-0.862c0.375-0.396,0.804-0.634,1.276-0.879
			c0.047-0.023,0.496-0.257,0.461-0.316l-0.004-0.006c-0.242-0.067-0.582-0.023-0.756-0.002c-0.109,0.014-0.176-0.067-0.187-0.151
			c-0.015,0.002-0.029,0.004-0.041,0.007c-0.197,0.022-0.265-0.267-0.089-0.313c0.031-0.039,0.076-0.062,0.13-0.056
			c0.817-0.018,1.634-0.077,2.448-0.124c0.692-0.041,1.506-0.148,2.16,0.148c0.108,0.053,0.205,0.123,0.308,0.181
			c0.178,0.094,0.372,0.092,0.56,0.148c0.143,0.042,0.256,0.11,0.352,0.194c0.197,0.09,0.33,0.231,0.459,0.41
			c-0.002-0.02-0.008-0.041-0.008-0.063c-0.006-0.18,0.068-0.359,0.237-0.454c0.44-0.247,1.406,0.187,1.86,0.286
			c0.388,0.084,0.769,0.176,1.146,0.281c-2.379-0.997-4.992-1.551-7.73-1.551C21.527,7.736,12.574,16.69,12.574,27.736"/>
	</defs>
	<clipPath id="SVGID_5_">
		<use xlink:href="#SVGID_4_"  overflow="visible"/>
	</clipPath>
	
		<linearGradient id="SVGID_6_" gradientUnits="userSpaceOnUse" x1="-3851.9277" y1="538.7222" x2="-3850.9277" y2="538.7222" gradientTransform="matrix(40 0 0 -40 154089.7031 21576.6055)">
		<stop  offset="0" style="stop-color:#DCF2FD"/>
		<stop  offset="0.1184" style="stop-color:#CEEEFC"/>
		<stop  offset="0.3405" style="stop-color:#AAE2F8"/>
		<stop  offset="0.6427" style="stop-color:#70CEF1"/>
		<stop  offset="1" style="stop-color:#23B5E9"/>
	</linearGradient>
	<rect x="12.574" y="7.736" clip-path="url(#SVGID_5_)" fill="url(#SVGID_6_)" width="40" height="40"/>
</g>
</svg>
