<?xml version="1.0" encoding="utf-8"?>
<!-- Generator: Adobe Illustrator 16.0.3, SVG Export Plug-In . SVG Version: 6.00 Build 0)  -->
<!DOCTYPE svg PUBLIC "-//W3C//DTD SVG 1.1//EN" "http://www.w3.org/Graphics/SVG/1.1/DTD/svg11.dtd">
<svg version="1.1" id="Layer_3" xmlns="http://www.w3.org/2000/svg" xmlns:xlink="http://www.w3.org/1999/xlink" x="0px" y="0px"
	 width="264px" height="171px" viewBox="0 0 264 171" enable-background="new 0 0 264 171" xml:space="preserve">
<g>
	<g>
		<defs>
			<polygon id="SVGID_1_" points="232.407,44.927 245.25,47.808 248.252,50.088 234.087,47.507 230.367,44.927 			"/>
		</defs>
		<clipPath id="SVGID_2_">
			<use xlink:href="#SVGID_1_"  overflow="visible"/>
		</clipPath>
		
			<linearGradient id="SVGID_3_" gradientUnits="userSpaceOnUse" x1="-5036.1025" y1="-744.5576" x2="-5035.1025" y2="-744.5576" gradientTransform="matrix(17.8842 0 0 17.8842 90297.0234 13363.3203)">
			<stop  offset="0" style="stop-color:#CBE0F4"/>
			<stop  offset="1" style="stop-color:#00ADEE"/>
		</linearGradient>
		<rect x="230.367" y="44.927" clip-path="url(#SVGID_2_)" fill="url(#SVGID_3_)" width="17.883" height="5.161"/>
	</g>
</g>
<g>
	<g>
		<defs>
			<polygon id="SVGID_4_" points="234.566,48.408 234.566,54.649 249.211,57.41 249.211,51.288 			"/>
		</defs>
		<clipPath id="SVGID_5_">
			<use xlink:href="#SVGID_4_"  overflow="visible"/>
		</clipPath>
		
			<linearGradient id="SVGID_6_" gradientUnits="userSpaceOnUse" x1="-5067.4551" y1="-751.9434" x2="-5066.4551" y2="-751.9434" gradientTransform="matrix(14.6435 0 0 14.6435 74439.8438 11063.9941)">
			<stop  offset="0" style="stop-color:#CBE0F4"/>
			<stop  offset="1" style="stop-color:#00ADEE"/>
		</linearGradient>
		<rect x="234.566" y="48.408" clip-path="url(#SVGID_5_)" fill="url(#SVGID_6_)" width="14.645" height="9.002"/>
	</g>
</g>
<g>
	<g>
		<defs>
			<polygon id="SVGID_7_" points="234.566,56.33 232.407,63.051 247.531,65.572 249.211,59.21 			"/>
		</defs>
		<clipPath id="SVGID_8_">
			<use xlink:href="#SVGID_7_"  overflow="visible"/>
		</clipPath>
		
			<linearGradient id="SVGID_9_" gradientUnits="userSpaceOnUse" x1="-5045.2163" y1="-746.6846" x2="-5044.2163" y2="-746.6846" gradientTransform="matrix(16.804 0 0 16.804 85012.2266 12608.2363)">
			<stop  offset="0" style="stop-color:#CBE0F4"/>
			<stop  offset="1" style="stop-color:#00ADEE"/>
		</linearGradient>
		<rect x="232.407" y="56.33" clip-path="url(#SVGID_8_)" fill="url(#SVGID_9_)" width="16.804" height="9.242"/>
	</g>
</g>
<g>
	<g>
		<defs>
			<path id="SVGID_10_" d="M231.566,64.911c-0.479-0.301-4.563,1.501-4.563,1.501l14.886,2.281l4.922-1.907l-15.004-2.415
				L231.566,64.911z"/>
		</defs>
		<clipPath id="SVGID_11_">
			<use xlink:href="#SVGID_10_"  overflow="visible"/>
		</clipPath>
		
			<linearGradient id="SVGID_12_" gradientUnits="userSpaceOnUse" x1="-5022.3799" y1="-741.2822" x2="-5021.3799" y2="-741.2822" gradientTransform="matrix(19.8047 0 0 19.8047 99693.7109 14747.4014)">
			<stop  offset="0" style="stop-color:#CBE0F4"/>
			<stop  offset="1" style="stop-color:#00ADEE"/>
		</linearGradient>
		<rect x="227.004" y="64.371" clip-path="url(#SVGID_11_)" fill="url(#SVGID_12_)" width="19.807" height="4.322"/>
	</g>
</g>
<g>
	<g>
		<defs>
			<polygon id="SVGID_13_" points="223.283,50.089 222.323,59.45 225.266,65.571 231.209,63.17 233.729,55.01 232.887,48.407 
				228.206,45.527 			"/>
		</defs>
		<clipPath id="SVGID_14_">
			<use xlink:href="#SVGID_13_"  overflow="visible"/>
		</clipPath>
		
			<linearGradient id="SVGID_15_" gradientUnits="userSpaceOnUse" x1="-5116.5996" y1="-763.6094" x2="-5115.5996" y2="-763.6094" gradientTransform="matrix(11.4027 0 0 11.4027 58565.3789 8762.7598)">
			<stop  offset="0" style="stop-color:#CBE0F4"/>
			<stop  offset="1" style="stop-color:#00ADEE"/>
		</linearGradient>
		<rect x="222.323" y="45.527" clip-path="url(#SVGID_14_)" fill="url(#SVGID_15_)" width="11.403" height="20.044"/>
	</g>
</g>
<g>
	<g>
		<defs>
			<polygon id="SVGID_16_" points="75.389,72.022 88.605,79.412 91.247,51.806 78.18,44.338 			"/>
		</defs>
		<clipPath id="SVGID_17_">
			<use xlink:href="#SVGID_16_"  overflow="visible"/>
		</clipPath>
		
			<linearGradient id="SVGID_18_" gradientUnits="userSpaceOnUse" x1="-4905.7832" y1="-707.3232" x2="-4904.7832" y2="-707.3232" gradientTransform="matrix(187.2442 114.1469 -114.1469 187.2442 837868.875 692450.4375)">
			<stop  offset="0" style="stop-color:#CBE0F4"/>
			<stop  offset="1" style="stop-color:#00ADEE"/>
		</linearGradient>
		<polygon clip-path="url(#SVGID_17_)" fill="url(#SVGID_18_)" points="79.686,37.29 106.836,53.841 86.951,86.461 59.8,69.909 		
			"/>
	</g>
</g>
<g>
	<g>
		<defs>
			<polygon id="SVGID_19_" points="93.646,51.265 90.227,79.412 104.27,76.832 105.709,56.306 111.831,55.047 111.831,49.466 			"/>
		</defs>
		<clipPath id="SVGID_20_">
			<use xlink:href="#SVGID_19_"  overflow="visible"/>
		</clipPath>
		
			<linearGradient id="SVGID_21_" gradientUnits="userSpaceOnUse" x1="-4905.7822" y1="-707.3228" x2="-4904.7837" y2="-707.3228" gradientTransform="matrix(187.2442 114.1469 -114.1469 187.2442 837872.75 692444.4375)">
			<stop  offset="0" style="stop-color:#CBE0F4"/>
			<stop  offset="1" style="stop-color:#00ADEE"/>
		</linearGradient>
		<polygon clip-path="url(#SVGID_20_)" fill="url(#SVGID_21_)" points="96.08,39.864 125.139,57.579 105.977,89.014 76.918,71.299 
					"/>
	</g>
</g>
<g>
	<g>
		<defs>
			<polygon id="SVGID_22_" points="82.01,44.312 91.191,49.713 110.57,47.126 101.027,42.804 			"/>
		</defs>
		<clipPath id="SVGID_23_">
			<use xlink:href="#SVGID_22_"  overflow="visible"/>
		</clipPath>
		
			<linearGradient id="SVGID_24_" gradientUnits="userSpaceOnUse" x1="-4905.7832" y1="-707.3208" x2="-4904.7832" y2="-707.3208" gradientTransform="matrix(187.2442 114.1469 -114.1469 187.2442 837879.75 692432.9375)">
			<stop  offset="0" style="stop-color:#CBE0F4"/>
			<stop  offset="1" style="stop-color:#00ADEE"/>
		</linearGradient>
		<polygon clip-path="url(#SVGID_23_)" fill="url(#SVGID_24_)" points="89.748,30.11 113.641,44.676 102.832,62.407 78.938,47.841 
					"/>
	</g>
</g>
<g>
	<g>
		<defs>
			<path id="SVGID_25_" d="M60.336,88.176c-0.357,7.922,3.064,14.402,7.564,15.123c4.502,0.719,6.302-3.963,6.541-8.463
				c0.242-4.501-0.998-11.835-6.541-16.383c-0.59-0.484-1.221-0.715-1.856-0.715C63.381,77.738,60.629,81.781,60.336,88.176"/>
		</defs>
		<clipPath id="SVGID_26_">
			<use xlink:href="#SVGID_25_"  overflow="visible"/>
		</clipPath>
		
			<linearGradient id="SVGID_27_" gradientUnits="userSpaceOnUse" x1="-4905.7842" y1="-707.3242" x2="-4904.7842" y2="-707.3242" gradientTransform="matrix(187.2442 114.1469 -114.1469 187.2442 837851.875 692478.9375)">
			<stop  offset="0" style="stop-color:#CBE0F4"/>
			<stop  offset="1" style="stop-color:#00ADEE"/>
		</linearGradient>
		<polygon clip-path="url(#SVGID_26_)" fill="url(#SVGID_27_)" points="63.961,71.202 86.363,84.858 70.699,110.555 48.297,96.896 
					"/>
	</g>
</g>
<g>
	<g>
		<defs>
			<polygon id="SVGID_28_" points="105.709,80.734 124.975,91.775 130.195,67.831 110.57,58.289 			"/>
		</defs>
		<clipPath id="SVGID_29_">
			<use xlink:href="#SVGID_28_"  overflow="visible"/>
		</clipPath>
		
			<linearGradient id="SVGID_30_" gradientUnits="userSpaceOnUse" x1="-4905.7832" y1="-707.3208" x2="-4904.7832" y2="-707.3208" gradientTransform="matrix(187.2442 114.1469 -114.1469 187.2442 837872.875 692444.1875)">
			<stop  offset="0" style="stop-color:#CBE0F4"/>
			<stop  offset="1" style="stop-color:#00ADEE"/>
		</linearGradient>
		<polygon clip-path="url(#SVGID_29_)" fill="url(#SVGID_30_)" points="112.344,47.406 145.078,67.362 123.561,102.658 
			90.826,82.702 		"/>
	</g>
</g>
<g>
	<g>
		<defs>
			<polygon id="SVGID_31_" points="127.25,93.016 149.438,107.018 154.959,79.9 132.716,69.09 			"/>
		</defs>
		<clipPath id="SVGID_32_">
			<use xlink:href="#SVGID_31_"  overflow="visible"/>
		</clipPath>
		
			<linearGradient id="SVGID_33_" gradientUnits="userSpaceOnUse" x1="-4905.7832" y1="-707.3184" x2="-4904.7832" y2="-707.3184" gradientTransform="matrix(187.2442 114.1469 -114.1469 187.2442 837873.625 692442.9375)">
			<stop  offset="0" style="stop-color:#CBE0F4"/>
			<stop  offset="1" style="stop-color:#00ADEE"/>
		</linearGradient>
		<polygon clip-path="url(#SVGID_32_)" fill="url(#SVGID_33_)" points="134.758,56.774 171.816,79.366 147.451,119.333 
			110.393,96.742 		"/>
	</g>
</g>
<g>
	<g>
		<defs>
			<polygon id="SVGID_34_" points="151.305,107.863 177.313,123.316 184.389,94.657 157.217,81.514 			"/>
		</defs>
		<clipPath id="SVGID_35_">
			<use xlink:href="#SVGID_34_"  overflow="visible"/>
		</clipPath>
		
			<linearGradient id="SVGID_36_" gradientUnits="userSpaceOnUse" x1="-4905.7832" y1="-707.3188" x2="-4904.7832" y2="-707.3188" gradientTransform="matrix(187.2442 114.1469 -114.1469 187.2442 837874.375 692441.6875)">
			<stop  offset="0" style="stop-color:#CBE0F4"/>
			<stop  offset="1" style="stop-color:#00ADEE"/>
		</linearGradient>
		<polygon clip-path="url(#SVGID_35_)" fill="url(#SVGID_36_)" points="160.27,66.811 202.969,92.84 175.426,138.021 
			132.727,111.99 		"/>
	</g>
</g>
<g>
	<g>
		<defs>
			<polygon id="SVGID_37_" points="179.191,124.462 208.619,141.868 217.154,111.154 186.188,95.557 			"/>
		</defs>
		<clipPath id="SVGID_38_">
			<use xlink:href="#SVGID_37_"  overflow="visible"/>
		</clipPath>
		
			<linearGradient id="SVGID_39_" gradientUnits="userSpaceOnUse" x1="-4905.7832" y1="-707.3208" x2="-4904.7842" y2="-707.3208" gradientTransform="matrix(187.2442 114.1469 -114.1469 187.2442 837875.25 692440.4375)">
			<stop  offset="0" style="stop-color:#CBE0F4"/>
			<stop  offset="1" style="stop-color:#00ADEE"/>
		</linearGradient>
		<polygon clip-path="url(#SVGID_38_)" fill="url(#SVGID_39_)" points="189.477,78.685 237.736,108.104 206.867,158.74 
			158.609,129.32 		"/>
	</g>
</g>
<g>
	<g>
		<defs>
			<polygon id="SVGID_40_" points="211.215,143.268 245.783,163.973 256.225,131.206 219.049,112.338 			"/>
		</defs>
		<clipPath id="SVGID_41_">
			<use xlink:href="#SVGID_40_"  overflow="visible"/>
		</clipPath>
		
			<linearGradient id="SVGID_42_" gradientUnits="userSpaceOnUse" x1="-4905.7832" y1="-707.3203" x2="-4904.7832" y2="-707.3203" gradientTransform="matrix(187.2442 114.1469 -114.1469 187.2442 837876.25 692438.6875)">
			<stop  offset="0" style="stop-color:#CBE0F4"/>
			<stop  offset="1" style="stop-color:#00ADEE"/>
		</linearGradient>
		<polygon clip-path="url(#SVGID_41_)" fill="url(#SVGID_42_)" points="223.41,92.333 279.174,126.328 244.029,183.979 
			188.266,149.982 		"/>
	</g>
</g>
<g>
	<g>
		<defs>
			<path id="SVGID_43_" d="M70.241,77.013l2.28,3.12l10.797-1.919l-7.93-5.283C75.389,72.931,70.361,76.652,70.241,77.013"/>
		</defs>
		<clipPath id="SVGID_44_">
			<use xlink:href="#SVGID_43_"  overflow="visible"/>
		</clipPath>
		
			<linearGradient id="SVGID_45_" gradientUnits="userSpaceOnUse" x1="-4905.7827" y1="-707.3311" x2="-4904.7827" y2="-707.3311" gradientTransform="matrix(187.2442 114.1469 -114.1469 187.2442 837859.875 692465.4375)">
			<stop  offset="0" style="stop-color:#CBE0F4"/>
			<stop  offset="1" style="stop-color:#00ADEE"/>
		</linearGradient>
		<polygon clip-path="url(#SVGID_44_)" fill="url(#SVGID_45_)" points="73.783,67.119 86.518,74.882 79.773,85.945 67.04,78.182 		
			"/>
	</g>
</g>
<g>
	<g>
		<defs>
			<polygon id="SVGID_46_" points="12.109,28.477 22.68,34.336 23.85,12.057 13.953,6.951 			"/>
		</defs>
		<clipPath id="SVGID_47_">
			<use xlink:href="#SVGID_46_"  overflow="visible"/>
		</clipPath>
		
			<linearGradient id="SVGID_48_" gradientUnits="userSpaceOnUse" x1="-4905.7837" y1="-707.3228" x2="-4904.7813" y2="-707.3228" gradientTransform="matrix(187.2442 114.1469 -114.1469 187.2442 837869.875 692449.4375)">
			<stop  offset="0" style="stop-color:#CBE0F4"/>
			<stop  offset="1" style="stop-color:#00ADEE"/>
		</linearGradient>
		<polygon clip-path="url(#SVGID_47_)" fill="url(#SVGID_48_)" points="15.289,1.732 36.021,14.371 20.668,39.555 -0.063,26.916 		
			"/>
	</g>
</g>
<g>
	<g>
		<defs>
			<polygon id="SVGID_49_" points="24.389,35.149 35.184,41.014 36.255,18.534 25.553,12.948 			"/>
		</defs>
		<clipPath id="SVGID_50_">
			<use xlink:href="#SVGID_49_"  overflow="visible"/>
		</clipPath>
		
			<linearGradient id="SVGID_51_" gradientUnits="userSpaceOnUse" x1="-4905.7832" y1="-707.3223" x2="-4904.7852" y2="-707.3223" gradientTransform="matrix(187.2442 114.1469 -114.1469 187.2442 837870.25 692448.4375)">
			<stop  offset="0" style="stop-color:#CBE0F4"/>
			<stop  offset="1" style="stop-color:#00ADEE"/>
		</linearGradient>
		<polygon clip-path="url(#SVGID_50_)" fill="url(#SVGID_51_)" points="27.604,7.674 48.729,20.553 33.04,46.288 11.914,33.41 		"/>
	</g>
</g>
<g>
	<g>
		<defs>
			<polygon id="SVGID_52_" points="36.631,41.801 47.602,47.761 48.846,25.109 37.896,19.393 			"/>
		</defs>
		<clipPath id="SVGID_53_">
			<use xlink:href="#SVGID_52_"  overflow="visible"/>
		</clipPath>
		
			<linearGradient id="SVGID_54_" gradientUnits="userSpaceOnUse" x1="-4905.7832" y1="-707.3237" x2="-4904.7832" y2="-707.3237" gradientTransform="matrix(187.2442 114.1469 -114.1469 187.2442 837870.625 692447.9375)">
			<stop  offset="0" style="stop-color:#CBE0F4"/>
			<stop  offset="1" style="stop-color:#00ADEE"/>
		</linearGradient>
		<polygon clip-path="url(#SVGID_53_)" fill="url(#SVGID_54_)" points="39.939,13.964 61.453,27.079 45.535,53.19 24.021,40.075 		
			"/>
	</g>
</g>
<g>
	<g>
		<defs>
			<polygon id="SVGID_55_" points="49.439,48.761 61.309,55.209 63.408,32.713 51.152,26.314 			"/>
		</defs>
		<clipPath id="SVGID_56_">
			<use xlink:href="#SVGID_55_"  overflow="visible"/>
		</clipPath>
		
			<linearGradient id="SVGID_57_" gradientUnits="userSpaceOnUse" x1="-4905.7837" y1="-707.3237" x2="-4904.7817" y2="-707.3237" gradientTransform="matrix(187.2442 114.1469 -114.1469 187.2442 837871.125 692447.1875)">
			<stop  offset="0" style="stop-color:#CBE0F4"/>
			<stop  offset="1" style="stop-color:#00ADEE"/>
		</linearGradient>
		<polygon clip-path="url(#SVGID_56_)" fill="url(#SVGID_57_)" points="53.225,20.105 76.25,34.143 59.623,61.417 36.598,47.38 		
			"/>
	</g>
</g>
<g>
	<g>
		<defs>
			<polygon id="SVGID_58_" points="63.408,56.351 74.525,62.686 76.525,42.882 81.787,42.522 65.463,34.336 			"/>
		</defs>
		<clipPath id="SVGID_59_">
			<use xlink:href="#SVGID_58_"  overflow="visible"/>
		</clipPath>
		
			<linearGradient id="SVGID_60_" gradientUnits="userSpaceOnUse" x1="-4905.7832" y1="-707.3281" x2="-4904.7832" y2="-707.3281" gradientTransform="matrix(187.2442 114.1469 -114.1469 187.2442 837871.625 692446.4375)">
			<stop  offset="0" style="stop-color:#CBE0F4"/>
			<stop  offset="1" style="stop-color:#00ADEE"/>
		</linearGradient>
		<polygon clip-path="url(#SVGID_59_)" fill="url(#SVGID_60_)" points="68.388,26.168 94.387,42.018 76.808,70.854 50.809,55.005 		
			"/>
	</g>
</g>
</svg>
