<?xml version="1.0" encoding="utf-8"?>
<!-- Generator: Adobe Illustrator 16.0.3, SVG Export Plug-In . SVG Version: 6.00 Build 0)  -->
<!DOCTYPE svg PUBLIC "-//W3C//DTD SVG 1.1//EN" "http://www.w3.org/Graphics/SVG/1.1/DTD/svg11.dtd">
<svg version="1.1" id="Layer_2" xmlns="http://www.w3.org/2000/svg" xmlns:xlink="http://www.w3.org/1999/xlink" x="0px" y="0px"
	 width="94.943px" height="55.056px" viewBox="0 0 94.943 55.056" enable-background="new 0 0 94.943 55.056" xml:space="preserve">
<g>
	<defs>
		<path id="SVGID_1_" d="M73.999,27.573c0,4.419,3.582,8.001,7.999,8.001c4.418,0,8-3.582,8-8.001c0-4.419-3.582-8.001-8-8.001
			C77.581,19.572,73.999,23.154,73.999,27.573"/>
	</defs>
	<clipPath id="SVGID_2_">
		<use xlink:href="#SVGID_1_"  overflow="visible"/>
	</clipPath>
	
		<linearGradient id="SVGID_3_" gradientUnits="userSpaceOnUse" x1="-3827.498" y1="537.8931" x2="-3826.498" y2="537.8931" gradientTransform="matrix(16 0 0 -16 61313.9688 8633.8594)">
		<stop  offset="0" style="stop-color:#DCF2FD"/>
		<stop  offset="0.1184" style="stop-color:#CEEEFC"/>
		<stop  offset="0.3405" style="stop-color:#AAE2F8"/>
		<stop  offset="0.6427" style="stop-color:#70CEF1"/>
		<stop  offset="1" style="stop-color:#23B5E9"/>
	</linearGradient>
	<rect x="73.999" y="19.572" clip-path="url(#SVGID_2_)" fill="url(#SVGID_3_)" width="15.999" height="16.002"/>
</g>
<g>
	<defs>
		<path id="SVGID_4_" d="M35.835,29.165c-0.14-0.033-0.255-0.092-0.332-0.186c-0.005-0.002-0.013-0.002-0.021-0.004
			c-0.157-0.033-0.23-0.18-0.205-0.333c0.024-0.149,0.207-0.18,0.287-0.102c0.072,0.008,0.143,0.056,0.156,0.142
			c0.002,0,0.002,0,0.002,0c0.17,0.031,0.277,0.131,0.322,0.297c0.031,0.115-0.072,0.189-0.171,0.189
			C35.859,29.168,35.848,29.167,35.835,29.165 M33.65,26.941c0.234,0.154,0.511,0.216,0.736,0.387
			c0.105,0.082,0.193,0.197,0.272,0.302c0.182,0.248,0.397,0.533,0.409,0.852c0.004,0.084-0.09,0.16-0.17,0.15
			c-0.176-0.019-0.305-0.08-0.455-0.174c-0.043-0.01-0.09-0.031-0.135-0.067c-0.004-0.004-0.01-0.008-0.016-0.012
			c-0.126-0.051-0.247-0.053-0.402-0.046c-0.257,0.01-0.313-0.078-0.435-0.275c-0.121-0.199-0.47-0.149-0.649-0.295
			c-0.164-0.133-0.199-0.27-0.154-0.473c0.021-0.096,0.172-0.148,0.246-0.083c0.131,0.117,0.558,0.174,0.482-0.107
			c-0.031-0.123,0.069-0.191,0.167-0.186C33.581,26.91,33.617,26.918,33.65,26.941 M31.788,27.255
			c-0.129-0.027-0.231-0.104-0.293-0.224c-0.037-0.071-0.05-0.141-0.121-0.169c-0.194-0.074-0.09-0.381,0.104-0.307
			c0.123,0.048,0.211,0.13,0.268,0.249c0.044,0.093,0.044,0.123,0.145,0.145c0.088,0.019,0.129,0.13,0.103,0.206
			c-0.025,0.072-0.087,0.105-0.155,0.105C31.82,27.261,31.805,27.259,31.788,27.255 M29.878,24.204
			c-0.096-0.023-0.178-0.138-0.114-0.253c0.432-0.767,1.403,0.132,1.795,0.486c0.318,0.291,0.67,0.422,0.801,0.865
			c0.15,0.506,0.697,0.795,0.795,1.318c0.02,0.1-0.063,0.207-0.168,0.195c-0.451-0.052-1.189-0.325-1.27-0.841
			c-0.064-0.393-0.412-0.741-0.656-1.052c-0.021-0.026-0.043-0.054-0.065-0.082c-0.017-0.019-0.033-0.037-0.046-0.058
			c-0.236-0.285-0.537-0.586-0.926-0.527c-0.01,0.002-0.019,0.003-0.026,0.003C29.945,24.26,29.906,24.237,29.878,24.204
			 M10.359,27.573c0,11.046,8.955,20,20,20c7.707,0,14.392-4.361,17.729-10.748c0.033-0.178,0.065-0.357,0.083-0.535
			c0.096-0.975,0.588-1.801,0.799-2.748c0.114-0.514,0.094-0.98,0.283-1.49s0.396-1.008,0.605-1.51
			c0.142-0.336,0.293-0.688,0.406-1.041c0.062-0.634,0.094-1.279,0.094-1.927c0-4.06-1.213-7.834-3.289-10.987
			c-0.027-0.007-0.051-0.009-0.074-0.032c-0.033-0.035-0.063-0.07-0.094-0.105c-0.016-0.007-0.029-0.02-0.043-0.032
			c-0.063-0.075-0.125-0.151-0.184-0.229c-0.085-0.1-0.169-0.202-0.249-0.308c-0.03-0.043-0.04-0.087-0.032-0.129
			c-0.014-0.002-0.025-0.007-0.039-0.009c-0.131-0.031-0.127-0.163-0.056-0.245c-0.161-0.215-0.327-0.426-0.498-0.634
			c-0.017,0.011-0.03,0.031-0.052,0.034c-0.104,0.052-0.268,0.148-0.398,0.253c-0.011,0.145-0.082,0.284-0.187,0.392
			c0.022,0.24,0.067,0.472-0.085,0.688c-0.051,0.07-0.141,0.084-0.21,0.046c-0.067,0.044-0.158,0.038-0.218-0.025
			c-0.088-0.097-0.246-0.138-0.348-0.234c-0.15-0.139-0.277-0.296-0.412-0.447c-0.134-0.151-0.268-0.297-0.363-0.476
			c-0.111-0.207-0.18-0.439-0.301-0.641c-0.265-0.439-0.365-1.012-0.66-1.412c-0.317-0.435-0.563-0.938-0.905-1.35l-1.552-1.031
			c-0.086,0.066-0.062,0.163,0.111,0.383c0.074,0.094,0.176,0.182,0.285,0.261c0.055,0.03,0.105,0.06,0.154,0.088
			c0.135,0.075,0.27,0.159,0.4,0.247c0.443,0.272,0.861,0.613,1.129,1.067c0.191,0.329,0.358,1.011-0.131,1.201
			c-0.272,0.103-0.555,0.044-0.82-0.063c0.019,0.034,0.037,0.07,0.057,0.105c0.098,0.17-0.143,0.301-0.268,0.178
			c-0.032-0.034-0.065-0.067-0.098-0.101c-0.045,0.003-0.092-0.011-0.129-0.046c-0.568-0.566-0.947-1.17-1.572-1.613
			c-0.092-0.057-0.189-0.107-0.295-0.155c-0.022,0.097-0.119,0.237-0.237,0.182c-0.241-0.11-0.54-0.199-0.751-0.376
			c-0.111-0.057-0.215-0.124-0.299-0.211c-0.032-0.033-0.047-0.075-0.053-0.119c-0.17,0.002-0.338-0.009-0.505-0.018
			c-0.302-0.018-0.606-0.035-0.909,0.007c-0.117,0.018-0.367,0.025-0.271,0.244c0.027,0.07,0.061,0.139,0.093,0.208
			c0.113,0.238,0.353,0.299,0.526,0.485c0.384,0.401,0.716,0.787,0.746,1.357c0.008,0.151,0.016,0.302,0.058,0.45
			c0.001,0.011,0.007,0.025,0.013,0.038c0.012-0.019,0.021-0.046,0.029-0.084c0.032-0.176,0.09-0.283,0.256-0.354
			c0.092-0.041,0.184-0.019,0.268,0.004c0.144,0.036,0.266,0.071,0.342-0.178c0.06-0.196-0.051-0.401,0.105-0.569
			c0.221-0.236,0.245-0.724,0.651-0.687c0.079,0.007,0.176,0.073,0.278,0.159c0.216,0.073,0.524,0.463,0.69,0.595
			c0.3,0.236,0.603,0.445,0.655,0.854c0.006,0.036,0.012,0.064,0.021,0.092c0.112-0.01,0.25-0.063,0.377-0.077
			c0.082-0.011,0.179,0.033,0.189,0.127c0.002,0.007,0.006,0.016,0.006,0.024c0.012-0.001,0.021-0.003,0.033-0.005
			c0.082-0.011,0.176,0.033,0.189,0.126c0.066,0.494,0.414,0.991,0.648,1.425c0.242,0.446,0.717,0.705,0.953,1.159
			c0.105,0.205,0.223,0.456,0.193,0.694c-0.014,0.109-0.041,0.203-0.08,0.31c-0.077,0.216,0,0.317,0.158,0.446
			c0.359,0.297,0.426,0.682,0.438,1.134c0.002,0.064-0.063,0.142-0.128,0.148c-0.275,0.025-0.529-0.114-0.764-0.285
			c-0.24-0.134-0.463-0.337-0.67-0.486c-0.049-0.03-0.102-0.065-0.15-0.1c-0.262-0.16-0.596-0.349-0.467-0.709
			c0.053-0.144,0.143-0.262,0.236-0.385c0.012-0.017,0.043-0.048,0.069-0.082c-0.199-0.016-0.349-0.079-0.56-0.191
			c-0.319-0.171-0.652-0.307-0.998-0.419c-0.02-0.007-0.041-0.013-0.06-0.017c0.038,0.023,0.075,0.048,0.106,0.083
			c0.006,0.005,0.009,0.011,0.015,0.018c0.078,0.026,0.153,0.064,0.213,0.13c0.241,0.259-0.01,0.46,0.093,0.729
			c0.019,0.052,0.045,0.094,0.073,0.13c0.101,0.042,0.199,0.086,0.298,0.132c0.049,0.023,0.11,0.067,0.17,0.121
			c0.02,0.011,0.039,0.018,0.058,0.027c0.245,0.115,0.713,0.678,0.243,0.835c-0.252,0.084-0.582,0.054-0.842,0.038
			c-0.304-0.015-0.586-0.067-0.867-0.184c-0.043-0.02-0.082-0.058-0.102-0.102c-0.042-0.015-0.084-0.029-0.126-0.046
			c-0.071-0.031-0.14-0.123-0.1-0.205c0.004-0.01,0.01-0.019,0.013-0.029c-0.08,0.013-0.158,0.027-0.232,0.033
			c-0.149,0.016-0.301,0.013-0.451,0.04c-0.18,0.031-0.393,0.048-0.219,0.257c0.063,0.076,0.045,0.21-0.053,0.251
			c-0.224,0.094-0.431,0.023-0.66-0.008c-0.285-0.042-0.595,0.042-0.865,0.13c-0.189,0.061-0.361,0.163-0.512,0.293
			c-0.103,0.236-0.246,0.452-0.421,0.623c-0.034,0.095-0.067,0.188-0.11,0.276c-0.123,0.245-0.279,0.304-0.545,0.289
			c-0.355-0.02-0.672-0.04-1.023,0.026c-0.35,0.065-0.835,0.118-1.117,0.362c-0.253,0.22-0.311,0.553-0.341,0.871
			c-0.042,0.436-0.075,1.515-0.697,1.573c-0.134,0.013-0.224-0.048-0.286-0.148c-0.383-0.032-0.365-0.734-0.359-0.994
			c0.008-0.313,0.094-0.59,0.135-0.897c0.002-0.023,0.038-0.232,0.036-0.387c-0.04,0-0.081-0.007-0.125-0.027
			c-0.056-0.025-0.122-0.071-0.169-0.128c-0.018-0.004-0.037-0.01-0.057-0.019c-0.093-0.04-0.211-0.134-0.219-0.244
			c-0.015-0.227-0.15-0.316-0.328-0.428c-0.055-0.034-0.146-0.112-0.252-0.189c-0.146-0.076-0.281-0.096-0.343,0.05
			c-0.071,0.169-0.173,0.462-0.416,0.424c-0.132-0.021-0.224-0.083-0.297-0.165c-0.208-0.061-0.304-0.238-0.4-0.438
			c-0.055-0.115-0.106-0.217-0.182-0.3c-0.17-0.059-0.347-0.103-0.527-0.121c-0.35-0.038-0.726-0.051-1.067,0.064
			c-0.004,0.002-0.004,0.002-0.008,0.004c-0.004,0-0.006,0.002-0.011,0.002c-0.04,0.014-0.075,0.014-0.11,0.002
			c-0.256,0.012-0.252,0.309-0.396,0.479c-0.145,0.167-0.305,0.235-0.488,0.351c-0.697,0.431-1.02,2.159-0.347,2.777
			c0.005,0.004,0.013,0.008,0.021,0.01c0.287,0.117,0.684,0.314,1.006,0.235c0.066-0.038,0.138-0.074,0.209-0.105
			c0.014-0.011,0.029-0.021,0.039-0.034c0.252-0.249,0.402-0.299,0.756-0.213c0.195,0.048,0.554,0.111,0.728,0.291
			c0.16,0.069,0.298,0.171,0.324,0.33c0.065,0.398-0.319,0.59-0.587,0.798c-0.201,0.157-0.35,0.362-0.536,0.537
			c-0.176,0.164-0.394,0.264-0.573,0.417c0.077,0.025,0.154,0.05,0.229,0.079c0.186,0.069,0.365,0.168,0.533,0.274
			c0.035,0.024,0.071,0.049,0.106,0.073c0.042,0.023,0.081,0.049,0.121,0.073c0.342,0.222,0.612,0.49,0.731,0.89
			c0.006,0.019,0.008,0.033,0.008,0.052c0.059,0.19,0.008,0.369-0.166,0.499c-0.28,0.215-0.526,0.343-0.646,0.709
			c-0.107,0.332-0.083,0.782,0.09,1.092c0.016,0.031,0.034,0.055,0.051,0.076c0.172,0.047,0.371,0.018,0.563,0.098
			c0.092,0.037,0.163,0.088,0.225,0.146l0.002,0.002c0.433,0.178,0.449,0.615,0.703,0.949c0.002,0.002,0.004,0.004,0.004,0.006
			c0.318,0.037,0.652-0.529,0.996-0.543c0.131-0.006,0.262,0.008,0.392,0.023c0.175,0.02,0.349,0.039,0.528,0.008
			c0.213-0.033,0.459-0.09,0.674-0.031c0.104,0.029,0.187,0.084,0.248,0.156c0.209,0.064,0.336,0.242,0.324,0.447
			c0.103,0.025,0.182,0.08,0.252,0.154c0.209,0.064,0.313,0.246,0.461,0.469c0.224,0.328,0.453,0.443,0.721,0.719
			c0.047,0.049,0.087,0.104,0.129,0.15c0.013,0.002,0.029,0.006,0.047,0.006c0.077,0.006,0.148,0.002,0.213-0.002
			c0.107-0.006,0.204-0.012,0.313,0.016c0.052-0.016,0.111-0.004,0.154,0.057c0.006,0.006,0.01,0.014,0.016,0.021
			c0.016,0.016,0.029,0.031,0.035,0.049c0.004,0.008,0.008,0.014,0.012,0.02c0.004,0,0.008,0,0.011,0.002
			c0.052-0.016,0.11-0.006,0.154,0.053c0.006,0.008,0.009,0.016,0.015,0.023c0.018,0.014,0.029,0.033,0.036,0.051
			c0.326,0.467,0.542,0.996,0.858,1.469c0.217,0.324,0.223,0.697,0.396,1.031c0.049,0.09,0.111,0.164,0.186,0.227
			c0.303,0.156,0.683,0.23,0.951,0.406c0.031,0.023,0.061,0.047,0.088,0.07c0.047,0.023,0.096,0.049,0.14,0.078
			c0.297,0.195,0.276,0.461,0.373,0.777c0.062,0.203,0.129,0.396,0.146,0.611c0.023,0.283-0.027,0.572-0.013,0.859
			c0.011,0.234,0.019,0.471,0.196,0.629c0.096,0.051,0.193,0.107,0.275,0.172c0.119,0.068,0.238,0.139,0.315,0.234
			c0.112,0.143,0.155,0.393,0.271,0.527c0.182,0.066,0.385,0.068,0.553,0.188c0.035,0.023,0.064,0.049,0.092,0.078
			c0.048,0.018,0.094,0.037,0.136,0.068c0.371,0.26,0.347,0.756,0.731,0.996c0.084,0.053,0.089,0.139,0.051,0.205
			c0.005,0.027,0.007,0.057-0.002,0.09c-0.165,0.564-0.725,1.137-1.266,1.355c-0.856,0.34-1.588,0.965-2.346,1.479
			c-0.379,0.256-0.768,0.475-1.172,0.689c-0.305,0.162-0.605,0.348-0.938,0.449c-0.414,0.129-0.844,0.129-1.274,0.129
			c-0.412,0-0.824-0.002-1.224,0.109c-0.438,0.119-0.852,0.318-1.289,0.43c-0.397,0.1-0.799,0.176-1.197,0.271
			c-0.339,0.082-0.762,0.176-1.105,0.072c-0.246-0.072-0.5-0.229-0.761-0.119c-0.138,0.057-0.278,0.141-0.427,0.168
			c-0.371,0.076-0.751-0.008-1.111-0.102c-0.203-0.055-0.398-0.08-0.609-0.076c-0.147,0.004-0.328,0.041-0.461-0.047
			c-0.045-0.029-0.145,0.006-0.246,0.039c-0.086,0.027-0.174,0.055-0.226,0.045c-0.167-0.031-0.462-0.191-0.608-0.094
			c-0.287,0.191-0.573,0.094-0.879-0.016c-0.049-0.018-0.078-0.049-0.092-0.086c-0.234-0.043-0.463-0.146-0.683-0.236
			c-0.062-0.023-0.108-0.064-0.144-0.109c-0.026-0.014-0.056-0.025-0.082-0.035c-0.065-0.027-0.113-0.07-0.147-0.117
			c-0.021-0.01-0.044-0.02-0.065-0.029c-0.139-0.059-0.242-0.188-0.188-0.344c0.109-0.316,0.492-0.277,0.678-0.508
			c0.174-0.219,0.358-0.361,0.626-0.453c0.423-0.143,0.724-0.348,1.06-0.645c0.283-0.252,0.561-0.51,0.828-0.779
			c0.25-0.256,0.525-0.514,0.692-0.838c0.149-0.287,0.335-0.797,0.163-1.113c-0.189-0.344-0.537-0.596-0.761-0.924
			c-0.156-0.232-0.323-0.502-0.337-0.789c-0.016-0.322,0.068-0.637,0.062-0.961c-0.008-0.355-0.03-0.711-0.056-1.068
			c-0.124-0.34-0.211-0.695-0.26-1.049c-0.084-0.232-0.153-0.465-0.152-0.711c0.002-0.203,0.054-0.426,0.217-0.566
			c0.133-0.113,0.432-0.105,0.444-0.285c0.002-0.027,0.008-0.053,0.019-0.074c0.002-0.01,0-0.02,0.004-0.029
			c0.223-0.627,0.603-1.166,1.23-1.438c0.154-0.064,0.297-0.135,0.465-0.16c0.152-0.025,0.311-0.021,0.452-0.094
			c0.376-0.188,0.077-0.684,0.269-1.029c0.002-0.004-0.508-0.006-0.508-0.006v-0.016c0-0.166,0.604-0.645,0.494-0.879
			c-0.13,0.012,0.096,0.152-0.077,0.186c-0.212,0.041-0.235-0.029-0.325-0.143c-0.299-0.057-0.273-0.451-0.582-0.65
			c-0.252-0.162-0.375-0.336-0.398-0.643c-0.02-0.244-0.088-0.352-0.271-0.508c-0.072-0.061-0.137-0.176-0.148-0.271
			c-0.045-0.357-0.002-0.705-0.084-1.063c-0.071-0.299-0.149-0.592-0.191-0.895c-0.068-0.098-0.105-0.195-0.121-0.293
			c-0.203-0.248-0.464-0.448-0.628-0.726c-0.178-0.307-0.262-0.655-0.438-0.96c-0.032-0.06-0.072-0.109-0.113-0.155
			c-0.071-0.035-0.133-0.075-0.18-0.123c-0.014-0.005-0.024-0.013-0.039-0.019c-0.147-0.06-0.303-0.111-0.459-0.179
			c-0.098-0.044-0.188-0.102-0.269-0.169c-0.271-0.132-0.466-0.361-0.592-0.634c-0.151-0.325-0.304-0.626-0.49-0.93
			c-0.184-0.299-0.297-0.652-0.413-0.981c-0.096-0.266-0.169-0.57-0.098-0.852c0.093-0.378,0.333-0.707,0.425-1.09
			c0.106-0.439,0.05-0.888,0.086-1.333c0.015-0.196,0.033-0.396,0.056-0.594c-0.01,0.021-0.018,0.039-0.026,0.061
			c-0.202,0.389-0.188,0.77-0.304,1.176c-0.017,0.063-0.061,0.094-0.106,0.104c-0.002,0.007-0.012,0.011-0.015,0.017
			c-0.071,0.166-0.326,0.105-0.332-0.042c-0.107,0.009-0.207-0.079-0.153-0.203c0.142-0.332-0.562-0.53-0.502-0.853
			c0.028-0.162-0.703-0.307-0.203-0.444v-0.002c-0.5-0.08,0.32-0.17,0.356-0.278c0.012-0.031,0.184-0.07,0.195-0.103
			c-0.01-0.06,0.092-0.121,0.088-0.187c-0.026-0.326,0.311-0.313,0.436-0.535c0.188-0.328,0.216-0.754,0.373-1.104
			c0.077-0.169,0.189-0.362,0.311-0.502c0.041-0.046,0.151-0.132,0.213-0.221c-0.017-0.084-0.023-0.17-0.031-0.256
			c-0.105-0.153-0.098-0.348-0.047-0.529c0.154-0.542,0.535-1.094,0.93-1.492c0.496-0.5,1.123-0.912,1.781-1.159
			c0.338-0.126,0.717-0.245,0.992-0.485c0.275-0.242,0.383-0.599,0.633-0.862c0.373-0.397,0.804-0.634,1.277-0.879
			c0.045-0.023,0.495-0.257,0.459-0.316c0-0.002-0.002-0.004-0.004-0.006c-0.24-0.067-0.58-0.022-0.755,0
			c-0.108,0.013-0.176-0.069-0.187-0.153c-0.014,0.002-0.027,0.004-0.041,0.006c-0.197,0.022-0.264-0.267-0.088-0.313
			c0.031-0.036,0.074-0.061,0.129-0.055c0.818-0.017,1.634-0.077,2.449-0.125c0.691-0.04,1.506-0.147,2.158,0.149
			c0.109,0.052,0.203,0.122,0.309,0.181c0.179,0.095,0.373,0.092,0.56,0.148c0.146,0.044,0.255,0.109,0.353,0.193
			c0.197,0.09,0.33,0.231,0.459,0.41c-0.004-0.02-0.01-0.04-0.01-0.062c-0.007-0.18,0.07-0.359,0.238-0.454
			c0.439-0.247,1.408,0.188,1.859,0.285c0.39,0.085,0.771,0.177,1.147,0.282c-2.379-0.998-4.989-1.551-7.731-1.551
			C19.314,7.573,10.359,16.527,10.359,27.573"/>
	</defs>
	<clipPath id="SVGID_5_">
		<use xlink:href="#SVGID_4_"  overflow="visible"/>
	</clipPath>
	
		<linearGradient id="SVGID_6_" gradientUnits="userSpaceOnUse" x1="-3789.8779" y1="534.897" x2="-3788.8779" y2="534.897" gradientTransform="matrix(40 0 0 -40 151605.4844 21423.418)">
		<stop  offset="0" style="stop-color:#DCF2FD"/>
		<stop  offset="0.1184" style="stop-color:#CEEEFC"/>
		<stop  offset="0.3405" style="stop-color:#AAE2F8"/>
		<stop  offset="0.6427" style="stop-color:#70CEF1"/>
		<stop  offset="1" style="stop-color:#23B5E9"/>
	</linearGradient>
	<rect x="10.359" y="7.573" clip-path="url(#SVGID_5_)" fill="url(#SVGID_6_)" width="40" height="40"/>
</g>
</svg>
