<?xml version="1.0" encoding="utf-8"?>
<!-- Generator: Adobe Illustrator 16.0.3, SVG Export Plug-In . SVG Version: 6.00 Build 0)  -->
<!DOCTYPE svg PUBLIC "-//W3C//DTD SVG 1.1//EN" "http://www.w3.org/Graphics/SVG/1.1/DTD/svg11.dtd">
<svg version="1.1" id="Layer_2" xmlns="http://www.w3.org/2000/svg" xmlns:xlink="http://www.w3.org/1999/xlink" x="0px" y="0px"
	 width="94.943px" height="55.056px" viewBox="0 0 94.943 55.056" enable-background="new 0 0 94.943 55.056" xml:space="preserve">
<g>
	<defs>
		<path id="SVGID_1_" d="M79.49,28.183c0,2.347,1.904,4.25,4.25,4.25c2.348,0,4.25-1.902,4.25-4.25c0-2.346-1.902-4.25-4.25-4.25
			C81.395,23.933,79.49,25.837,79.49,28.183"/>
	</defs>
	<clipPath id="SVGID_2_">
		<use xlink:href="#SVGID_1_"  overflow="visible"/>
	</clipPath>
	
		<linearGradient id="SVGID_3_" gradientUnits="userSpaceOnUse" x1="-4063.1746" y1="540.1812" x2="-4062.1746" y2="540.1812" gradientTransform="matrix(8.5 0 0 -8.5 34616.4766 4619.7271)">
		<stop  offset="0" style="stop-color:#DCF2FD"/>
		<stop  offset="0.1184" style="stop-color:#CEEEFC"/>
		<stop  offset="0.3405" style="stop-color:#AAE2F8"/>
		<stop  offset="0.6427" style="stop-color:#70CEF1"/>
		<stop  offset="1" style="stop-color:#23B5E9"/>
	</linearGradient>
	<rect x="79.49" y="23.933" clip-path="url(#SVGID_2_)" fill="url(#SVGID_3_)" width="8.5" height="8.5"/>
</g>
<g>
	<defs>
		<path id="SVGID_4_" d="M37.577,29.776c-0.14-0.033-0.255-0.094-0.331-0.188c-0.006-0.002-0.014-0.002-0.021-0.004
			c-0.158-0.033-0.229-0.18-0.205-0.332c0.025-0.15,0.207-0.18,0.287-0.102c0.071,0.008,0.143,0.055,0.155,0.141h0.002
			c0.169,0.031,0.278,0.131,0.324,0.297c0.03,0.115-0.072,0.191-0.172,0.191C37.604,29.78,37.59,29.778,37.577,29.776
			 M35.395,27.551c0.232,0.155,0.508,0.217,0.732,0.387c0.107,0.082,0.193,0.197,0.271,0.304c0.185,0.247,0.401,0.532,0.412,0.849
			c0.004,0.084-0.09,0.162-0.17,0.152c-0.177-0.02-0.305-0.08-0.453-0.174c-0.045-0.01-0.09-0.031-0.137-0.068
			c-0.004-0.004-0.01-0.008-0.014-0.012c-0.128-0.051-0.247-0.053-0.406-0.045c-0.255,0.01-0.313-0.079-0.433-0.276
			c-0.12-0.199-0.47-0.15-0.649-0.295c-0.165-0.132-0.197-0.272-0.152-0.473c0.021-0.097,0.17-0.148,0.244-0.083
			c0.131,0.116,0.558,0.175,0.483-0.107c-0.033-0.122,0.067-0.193,0.167-0.186C35.323,27.521,35.359,27.526,35.395,27.551
			 M33.529,27.865c-0.129-0.027-0.231-0.105-0.293-0.225c-0.035-0.07-0.047-0.14-0.12-0.168c-0.195-0.074-0.091-0.382,0.106-0.307
			c0.121,0.048,0.209,0.13,0.266,0.249c0.041,0.092,0.044,0.123,0.145,0.144c0.088,0.02,0.129,0.131,0.102,0.205
			c-0.024,0.074-0.086,0.107-0.154,0.107C33.563,27.871,33.547,27.869,33.529,27.865 M31.621,24.814
			c-0.098-0.023-0.182-0.139-0.116-0.254c0.433-0.766,1.405,0.133,1.795,0.487c0.32,0.291,0.671,0.421,0.804,0.866
			c0.148,0.505,0.694,0.794,0.793,1.317c0.021,0.1-0.063,0.204-0.168,0.193c-0.451-0.05-1.188-0.324-1.27-0.839
			c-0.063-0.393-0.412-0.741-0.657-1.052c-0.021-0.027-0.044-0.053-0.065-0.082c-0.016-0.02-0.031-0.038-0.045-0.059
			c-0.235-0.284-0.537-0.586-0.926-0.527c-0.011,0.002-0.021,0.003-0.031,0.003C31.688,24.869,31.646,24.846,31.621,24.814
			 M12.104,28.183c0,11.046,8.953,20.001,20,20.001c7.705,0,14.39-4.361,17.729-10.75c0.031-0.178,0.064-0.355,0.082-0.533
			c0.096-0.977,0.588-1.801,0.799-2.748c0.115-0.516,0.094-0.982,0.284-1.492c0.188-0.508,0.396-1.006,0.604-1.508
			c0.142-0.338,0.293-0.689,0.406-1.045c0.061-0.635,0.094-1.275,0.094-1.925c0-4.058-1.213-7.834-3.289-10.985
			c-0.026-0.008-0.054-0.01-0.074-0.035c-0.032-0.034-0.063-0.069-0.094-0.104c-0.016-0.01-0.031-0.019-0.043-0.032
			c-0.063-0.075-0.123-0.151-0.184-0.229c-0.084-0.101-0.167-0.203-0.249-0.308c-0.032-0.042-0.04-0.086-0.032-0.128
			c-0.013-0.004-0.027-0.009-0.037-0.011c-0.134-0.03-0.127-0.162-0.057-0.244c-0.163-0.216-0.328-0.426-0.498-0.635
			c-0.02,0.012-0.031,0.032-0.052,0.034c-0.103,0.052-0.269,0.15-0.4,0.253c-0.01,0.146-0.081,0.286-0.186,0.394
			c0.022,0.238,0.069,0.471-0.084,0.687c-0.052,0.071-0.14,0.085-0.212,0.046c-0.066,0.044-0.156,0.037-0.215-0.024
			c-0.088-0.098-0.248-0.138-0.35-0.233c-0.15-0.14-0.277-0.297-0.414-0.45c-0.132-0.149-0.266-0.295-0.361-0.473
			c-0.111-0.207-0.181-0.441-0.301-0.643c-0.263-0.438-0.363-1.011-0.658-1.411c-0.318-0.436-0.563-0.937-0.906-1.351l-1.553-1.031
			c-0.086,0.067-0.061,0.163,0.111,0.385c0.075,0.093,0.178,0.181,0.286,0.26c0.054,0.031,0.104,0.059,0.153,0.088
			c0.136,0.075,0.27,0.157,0.4,0.247c0.445,0.27,0.861,0.613,1.131,1.067c0.19,0.33,0.356,1.011-0.134,1.2
			c-0.272,0.104-0.553,0.042-0.819-0.063c0.019,0.034,0.039,0.071,0.058,0.104c0.099,0.169-0.144,0.302-0.269,0.179
			c-0.033-0.034-0.064-0.069-0.098-0.102c-0.046,0.002-0.092-0.01-0.128-0.046c-0.569-0.564-0.948-1.169-1.573-1.613
			c-0.094-0.055-0.188-0.106-0.295-0.154c-0.025,0.096-0.117,0.236-0.236,0.182c-0.242-0.111-0.541-0.199-0.752-0.376
			c-0.11-0.057-0.213-0.124-0.299-0.21c-0.033-0.035-0.048-0.077-0.054-0.123c-0.17,0.002-0.34-0.007-0.509-0.017
			c-0.301-0.016-0.604-0.033-0.904,0.01c-0.117,0.017-0.365,0.024-0.271,0.243c0.029,0.07,0.061,0.14,0.094,0.209
			c0.113,0.236,0.352,0.298,0.525,0.481c0.385,0.404,0.715,0.789,0.746,1.36c0.008,0.151,0.016,0.301,0.056,0.45
			c0.004,0.012,0.01,0.024,0.015,0.039c0.012-0.021,0.021-0.046,0.029-0.085c0.031-0.177,0.092-0.283,0.257-0.354
			c0.092-0.04,0.185-0.017,0.269,0.004c0.142,0.036,0.264,0.073,0.34-0.176c0.06-0.198-0.051-0.403,0.105-0.573
			c0.221-0.235,0.245-0.72,0.65-0.684c0.08,0.008,0.178,0.073,0.279,0.159c0.217,0.072,0.526,0.462,0.69,0.594
			c0.299,0.237,0.604,0.444,0.655,0.854c0.007,0.036,0.012,0.065,0.021,0.093c0.113-0.011,0.249-0.063,0.377-0.077
			c0.084-0.011,0.178,0.033,0.192,0.127c0,0.007,0.004,0.015,0.004,0.024c0.009-0.002,0.021-0.004,0.03-0.006
			c0.084-0.01,0.179,0.034,0.191,0.126c0.069,0.495,0.413,0.993,0.649,1.426c0.241,0.446,0.716,0.704,0.952,1.158
			c0.105,0.205,0.222,0.456,0.193,0.695c-0.014,0.11-0.041,0.204-0.078,0.309c-0.08,0.217,0,0.318,0.154,0.446
			c0.362,0.297,0.43,0.682,0.441,1.134c0.002,0.065-0.064,0.143-0.131,0.148c-0.274,0.026-0.527-0.113-0.76-0.284
			c-0.242-0.134-0.463-0.337-0.67-0.486c-0.051-0.03-0.103-0.065-0.152-0.1c-0.26-0.163-0.596-0.349-0.465-0.709
			c0.052-0.143,0.142-0.262,0.234-0.385c0.012-0.018,0.041-0.048,0.069-0.082c-0.199-0.016-0.349-0.079-0.56-0.192
			c-0.32-0.17-0.652-0.306-0.998-0.419c-0.019-0.008-0.039-0.012-0.059-0.015c0.038,0.021,0.075,0.047,0.105,0.082
			c0.006,0.006,0.01,0.011,0.016,0.017c0.078,0.027,0.15,0.065,0.212,0.13c0.241,0.259-0.009,0.46,0.092,0.73
			c0.019,0.052,0.046,0.094,0.074,0.13c0.101,0.043,0.2,0.087,0.297,0.133c0.052,0.023,0.112,0.067,0.171,0.12
			c0.02,0.01,0.038,0.018,0.057,0.025c0.246,0.116,0.711,0.68,0.246,0.837c-0.252,0.084-0.584,0.054-0.845,0.039
			c-0.302-0.019-0.584-0.068-0.866-0.185c-0.041-0.02-0.082-0.058-0.101-0.104c-0.043-0.014-0.085-0.027-0.127-0.044
			c-0.071-0.031-0.14-0.122-0.099-0.207c0.002-0.01,0.009-0.018,0.013-0.027c-0.079,0.012-0.159,0.025-0.231,0.033
			c-0.152,0.015-0.303,0.013-0.453,0.04c-0.182,0.031-0.394,0.048-0.222,0.257c0.065,0.077,0.048,0.209-0.049,0.251
			c-0.226,0.094-0.433,0.023-0.662-0.01c-0.282-0.04-0.593,0.044-0.862,0.132c-0.19,0.06-0.363,0.163-0.515,0.293
			c-0.101,0.234-0.245,0.452-0.419,0.623c-0.035,0.094-0.066,0.188-0.109,0.275c-0.125,0.245-0.281,0.305-0.548,0.289
			c-0.354-0.019-0.671-0.039-1.022,0.027c-0.348,0.065-0.836,0.119-1.116,0.362c-0.253,0.218-0.31,0.553-0.343,0.871
			c-0.041,0.435-0.073,1.513-0.695,1.572c-0.135,0.014-0.227-0.048-0.288-0.147c-0.381-0.032-0.364-0.735-0.358-0.994
			c0.008-0.314,0.095-0.59,0.135-0.898c0.002-0.022,0.037-0.231,0.035-0.387c-0.039,0-0.08-0.008-0.123-0.026
			c-0.057-0.025-0.125-0.071-0.17-0.129c-0.019-0.004-0.037-0.01-0.057-0.017c-0.092-0.042-0.211-0.134-0.218-0.245
			c-0.017-0.226-0.151-0.316-0.328-0.428c-0.056-0.034-0.147-0.113-0.253-0.189c-0.146-0.076-0.283-0.096-0.343,0.051
			c-0.071,0.168-0.173,0.459-0.415,0.423c-0.133-0.021-0.225-0.082-0.297-0.165c-0.209-0.063-0.303-0.237-0.401-0.438
			c-0.056-0.115-0.106-0.219-0.183-0.299c-0.17-0.06-0.344-0.104-0.525-0.123c-0.352-0.038-0.727-0.05-1.066,0.065
			c-0.004,0-0.008,0.002-0.013,0.004c-0.002,0-0.004,0.002-0.007,0.002c-0.041,0.013-0.077,0.013-0.111,0.002
			c-0.255,0.011-0.25,0.308-0.396,0.479c-0.143,0.166-0.305,0.235-0.488,0.349c-0.697,0.433-1.021,2.161-0.347,2.779
			c0.008,0.004,0.013,0.008,0.019,0.01c0.289,0.116,0.684,0.313,1.008,0.235c0.068-0.039,0.139-0.074,0.209-0.105
			c0.014-0.011,0.026-0.021,0.041-0.034c0.25-0.249,0.401-0.301,0.754-0.213c0.195,0.048,0.554,0.111,0.728,0.291
			c0.161,0.068,0.297,0.171,0.323,0.33c0.063,0.397-0.317,0.59-0.586,0.799c-0.2,0.157-0.351,0.362-0.534,0.536
			c-0.179,0.165-0.394,0.264-0.574,0.417c0.076,0.024,0.153,0.05,0.228,0.079c0.187,0.068,0.367,0.169,0.533,0.273
			c0.035,0.025,0.072,0.05,0.107,0.075c0.042,0.023,0.08,0.047,0.117,0.072c0.346,0.223,0.615,0.491,0.734,0.889
			c0.006,0.02,0.008,0.035,0.008,0.052c0.06,0.191,0.008,0.369-0.166,0.5c-0.28,0.215-0.525,0.344-0.646,0.708
			c-0.107,0.332-0.082,0.781,0.09,1.092c0.016,0.029,0.035,0.055,0.053,0.076c0.17,0.047,0.369,0.018,0.561,0.1
			c0.092,0.035,0.163,0.088,0.225,0.145h0.002c0.432,0.178,0.447,0.619,0.7,0.951c0.004,0.002,0.007,0.004,0.009,0.006
			c0.317,0.037,0.65-0.527,0.993-0.543c0.132-0.004,0.265,0.008,0.394,0.023c0.174,0.018,0.348,0.037,0.527,0.008
			c0.213-0.033,0.461-0.09,0.676-0.029c0.103,0.027,0.187,0.082,0.246,0.152c0.209,0.068,0.338,0.244,0.321,0.451
			c0.106,0.023,0.185,0.08,0.255,0.152c0.209,0.064,0.313,0.246,0.463,0.471c0.221,0.326,0.451,0.441,0.719,0.719
			c0.047,0.049,0.084,0.102,0.127,0.15c0.017,0.002,0.033,0.006,0.05,0.006c0.077,0.006,0.146,0.002,0.213-0.002
			c0.104-0.006,0.203-0.014,0.312,0.014c0.053-0.014,0.111-0.004,0.153,0.057l0.017,0.021c0.019,0.014,0.027,0.031,0.035,0.051
			c0.004,0.006,0.008,0.012,0.012,0.018c0.004,0,0.008,0,0.012,0.002c0.051-0.018,0.109-0.006,0.152,0.053
			c0.006,0.008,0.011,0.016,0.017,0.023c0.017,0.016,0.028,0.033,0.036,0.051c0.324,0.469,0.542,0.998,0.857,1.471
			c0.217,0.324,0.223,0.697,0.397,1.031c0.047,0.09,0.11,0.164,0.185,0.227c0.303,0.156,0.68,0.23,0.95,0.406
			c0.034,0.021,0.062,0.045,0.089,0.07c0.047,0.023,0.096,0.049,0.139,0.076c0.298,0.197,0.279,0.463,0.375,0.779
			c0.061,0.203,0.127,0.396,0.145,0.611c0.021,0.283-0.025,0.572-0.011,0.857c0.009,0.234,0.017,0.469,0.194,0.627
			c0.097,0.055,0.195,0.109,0.274,0.176c0.121,0.066,0.24,0.137,0.315,0.232c0.113,0.143,0.156,0.395,0.269,0.527
			c0.185,0.066,0.39,0.068,0.558,0.188c0.033,0.025,0.063,0.051,0.09,0.076c0.049,0.02,0.095,0.041,0.137,0.072
			c0.371,0.258,0.346,0.756,0.73,0.996c0.084,0.051,0.088,0.137,0.049,0.205c0.01,0.025,0.01,0.057,0,0.09
			c-0.166,0.563-0.725,1.137-1.267,1.352c-0.856,0.34-1.588,0.969-2.344,1.48c-0.379,0.258-0.769,0.475-1.172,0.689
			c-0.306,0.162-0.606,0.35-0.937,0.449c-0.414,0.129-0.846,0.129-1.276,0.129c-0.412,0-0.823-0.002-1.224,0.109
			c-0.437,0.121-0.851,0.318-1.289,0.43c-0.396,0.102-0.801,0.176-1.197,0.271c-0.34,0.082-0.76,0.176-1.105,0.072
			c-0.244-0.072-0.5-0.227-0.76-0.117c-0.139,0.057-0.28,0.139-0.428,0.168c-0.371,0.074-0.752-0.01-1.111-0.104
			c-0.203-0.053-0.398-0.08-0.607-0.076c-0.148,0.004-0.328,0.041-0.461-0.047c-0.043-0.027-0.146,0.006-0.246,0.039
			c-0.086,0.029-0.176,0.055-0.228,0.045c-0.166-0.029-0.461-0.191-0.608-0.094c-0.287,0.193-0.574,0.094-0.877-0.014
			c-0.051-0.02-0.078-0.051-0.095-0.086c-0.233-0.043-0.461-0.146-0.683-0.236c-0.063-0.025-0.108-0.066-0.143-0.111
			c-0.027-0.012-0.055-0.025-0.084-0.035c-0.064-0.025-0.111-0.068-0.146-0.115c-0.021-0.012-0.044-0.021-0.065-0.029
			c-0.138-0.061-0.24-0.191-0.188-0.346c0.109-0.316,0.492-0.277,0.678-0.508c0.174-0.221,0.357-0.359,0.626-0.451
			c0.424-0.145,0.726-0.35,1.06-0.646c0.281-0.25,0.562-0.51,0.828-0.779c0.25-0.256,0.526-0.514,0.693-0.838
			c0.148-0.287,0.335-0.795,0.162-1.111c-0.189-0.346-0.536-0.598-0.76-0.926c-0.157-0.23-0.322-0.502-0.338-0.789
			c-0.016-0.322,0.069-0.637,0.062-0.959c-0.007-0.357-0.032-0.713-0.058-1.068c-0.123-0.342-0.209-0.695-0.256-1.051
			c-0.082-0.232-0.156-0.463-0.153-0.709c0.002-0.203,0.053-0.428,0.216-0.566c0.132-0.115,0.434-0.107,0.443-0.287
			c0.002-0.027,0.009-0.051,0.021-0.074c0.002-0.008,0-0.018,0.002-0.029c0.224-0.625,0.603-1.164,1.231-1.438
			c0.156-0.064,0.297-0.133,0.466-0.16c0.153-0.023,0.31-0.021,0.452-0.092c0.375-0.189,0.132-0.684,0.324-1.031
			c0-0.004-0.451-0.006-0.451-0.006v-0.014c0-0.168,0.546-0.646,0.437-0.879c-0.13,0.01,0.067,0.15-0.104,0.186
			c-0.213,0.039-0.25-0.031-0.338-0.145c-0.301-0.057-0.281-0.449-0.592-0.648c-0.253-0.164-0.378-0.336-0.4-0.645
			c-0.02-0.242-0.09-0.35-0.274-0.508c-0.069-0.061-0.137-0.176-0.149-0.27c-0.041-0.359,0-0.705-0.084-1.063
			c-0.07-0.299-0.148-0.592-0.191-0.895c-0.068-0.098-0.105-0.195-0.119-0.293c-0.204-0.247-0.465-0.448-0.629-0.728
			c-0.18-0.306-0.262-0.653-0.438-0.958c-0.037-0.06-0.074-0.109-0.117-0.155c-0.068-0.034-0.131-0.075-0.178-0.122
			c-0.014-0.006-0.024-0.014-0.037-0.021c-0.148-0.059-0.306-0.11-0.461-0.178c-0.098-0.044-0.188-0.101-0.269-0.168
			c-0.271-0.132-0.465-0.362-0.591-0.634c-0.152-0.326-0.305-0.627-0.491-0.931c-0.185-0.302-0.296-0.653-0.414-0.983
			c-0.093-0.264-0.168-0.569-0.097-0.85c0.094-0.379,0.333-0.709,0.427-1.091c0.104-0.438,0.048-0.887,0.084-1.333
			c0.017-0.194,0.033-0.395,0.056-0.594c-0.01,0.021-0.017,0.04-0.029,0.062c-0.198,0.389-0.186,0.77-0.299,1.176
			c-0.019,0.062-0.063,0.094-0.108,0.104c-0.002,0.007-0.011,0.012-0.013,0.018c-0.073,0.167-0.328,0.104-0.334-0.042
			c-0.107,0.01-0.209-0.079-0.153-0.203c0.142-0.331-0.505-0.531-0.446-0.853c0.031-0.163-0.648-0.309-0.148-0.444v-0.002
			c-0.5-0.08,0.266-0.17,0.302-0.277c0.012-0.033,0.155-0.071,0.167-0.104c-0.01-0.06,0.08-0.121,0.074-0.187
			c-0.025-0.327,0.305-0.313,0.43-0.536c0.186-0.327,0.212-0.753,0.369-1.103c0.076-0.169,0.186-0.362,0.309-0.502
			c0.04-0.046,0.149-0.132,0.213-0.221c-0.016-0.085-0.025-0.171-0.031-0.257c-0.107-0.152-0.098-0.347-0.047-0.528
			c0.152-0.542,0.531-1.094,0.928-1.492c0.496-0.5,1.121-0.911,1.781-1.158c0.338-0.127,0.717-0.246,0.992-0.487
			c0.276-0.24,0.383-0.598,0.633-0.861c0.375-0.396,0.805-0.635,1.277-0.879c0.046-0.023,0.496-0.258,0.459-0.316
			c0-0.002-0.002-0.004-0.004-0.006c-0.24-0.067-0.582-0.023-0.754-0.002c-0.109,0.014-0.176-0.067-0.188-0.151
			c-0.014,0.002-0.028,0.004-0.041,0.006c-0.196,0.023-0.264-0.267-0.088-0.313c0.03-0.036,0.075-0.062,0.131-0.056
			c0.815-0.017,1.631-0.076,2.447-0.125c0.692-0.04,1.506-0.146,2.159,0.15c0.108,0.052,0.205,0.122,0.308,0.18
			c0.178,0.095,0.375,0.093,0.56,0.149c0.146,0.044,0.257,0.108,0.353,0.194c0.197,0.09,0.329,0.23,0.461,0.409
			c-0.004-0.02-0.011-0.041-0.011-0.062c-0.006-0.18,0.069-0.36,0.238-0.454c0.44-0.247,1.405,0.186,1.86,0.286
			c0.388,0.084,0.769,0.176,1.146,0.281c-2.378-0.998-4.991-1.552-7.729-1.552C21.057,8.183,12.104,17.137,12.104,28.183"/>
	</defs>
	<clipPath id="SVGID_5_">
		<use xlink:href="#SVGID_4_"  overflow="visible"/>
	</clipPath>
	
		<linearGradient id="SVGID_6_" gradientUnits="userSpaceOnUse" x1="-3828.2026" y1="534.4468" x2="-3827.2031" y2="534.4468" gradientTransform="matrix(40 0 0 -40 153140.2344 21406.043)">
		<stop  offset="0" style="stop-color:#DCF2FD"/>
		<stop  offset="0.1184" style="stop-color:#CEEEFC"/>
		<stop  offset="0.3405" style="stop-color:#AAE2F8"/>
		<stop  offset="0.6427" style="stop-color:#70CEF1"/>
		<stop  offset="1" style="stop-color:#23B5E9"/>
	</linearGradient>
	<rect x="12.104" y="8.183" clip-path="url(#SVGID_5_)" fill="url(#SVGID_6_)" width="39.998" height="40.001"/>
</g>
</svg>
