<?xml version="1.0" encoding="utf-8"?>
<!-- Generator: Adobe Illustrator 16.0.3, SVG Export Plug-In . SVG Version: 6.00 Build 0)  -->
<!DOCTYPE svg PUBLIC "-//W3C//DTD SVG 1.1//EN" "http://www.w3.org/Graphics/SVG/1.1/DTD/svg11.dtd">
<svg version="1.1" id="Layer_2" xmlns="http://www.w3.org/2000/svg" xmlns:xlink="http://www.w3.org/1999/xlink" x="0px" y="0px"
	 width="264px" height="100px" viewBox="0 0 264 100" enable-background="new 0 0 264 100" xml:space="preserve">
<g>
	<defs>
		<path id="SVGID_1_" d="M3.188,51.379v-0.002C3.188,51.377,3.188,51.378,3.188,51.379 M3.188,51.379l6.963,33.033l127.159-26.866
			l-3.582-25.671C133.729,31.875,3.482,51.699,3.188,51.379"/>
	</defs>
	<clipPath id="SVGID_2_">
		<use xlink:href="#SVGID_1_"  overflow="visible"/>
	</clipPath>
	
		<linearGradient id="SVGID_3_" gradientUnits="userSpaceOnUse" x1="-4579.5303" y1="1080.3301" x2="-4578.5303" y2="1080.3301" gradientTransform="matrix(134.1241 0 0 -134.1241 614228.5625 144956.3125)">
		<stop  offset="0" style="stop-color:#CBE0F4"/>
		<stop  offset="1" style="stop-color:#00ADEE"/>
	</linearGradient>
	<rect x="3.187" y="31.875" clip-path="url(#SVGID_2_)" fill="url(#SVGID_3_)" width="134.124" height="52.537"/>
</g>
<g>
	<defs>
		<polygon id="SVGID_4_" points="137.311,42.819 137.311,46.601 142.683,44.809 142.683,41.626 		"/>
	</defs>
	<clipPath id="SVGID_5_">
		<use xlink:href="#SVGID_4_"  overflow="visible"/>
	</clipPath>
	
		<linearGradient id="SVGID_6_" gradientUnits="userSpaceOnUse" x1="-5359.0303" y1="1160.2168" x2="-5358.0303" y2="1160.2168" gradientTransform="matrix(5.3729 0 0 -5.3729 28930.8438 6277.8418)">
		<stop  offset="0" style="stop-color:#CBE0F4"/>
		<stop  offset="1" style="stop-color:#00ADEE"/>
	</linearGradient>
	<rect x="137.311" y="41.626" clip-path="url(#SVGID_5_)" fill="url(#SVGID_6_)" width="5.372" height="4.975"/>
</g>
<g>
	<defs>
		<polygon id="SVGID_7_" points="143.579,32.672 142.683,34.264 146.167,51.278 151.739,51.278 148.753,31.826 146.364,31.079 
			142.683,29.388 		"/>
	</defs>
	<clipPath id="SVGID_8_">
		<use xlink:href="#SVGID_7_"  overflow="visible"/>
	</clipPath>
	
		<linearGradient id="SVGID_9_" gradientUnits="userSpaceOnUse" x1="-5028.8833" y1="1126.3223" x2="-5027.8828" y2="1126.3223" gradientTransform="matrix(9.0544 0 0 -9.0544 45676.2031 10238.5039)">
		<stop  offset="0" style="stop-color:#CBE0F4"/>
		<stop  offset="1" style="stop-color:#00ADEE"/>
	</linearGradient>
	<rect x="142.683" y="29.388" clip-path="url(#SVGID_8_)" fill="url(#SVGID_9_)" width="9.057" height="21.891"/>
</g>
<g>
	<defs>
		<polygon id="SVGID_10_" points="169.35,37.447 164.174,38.342 165.27,40.332 170.642,39.538 172.435,42.124 170.743,34.363 		"/>
	</defs>
	<clipPath id="SVGID_11_">
		<use xlink:href="#SVGID_10_"  overflow="visible"/>
	</clipPath>
	
		<linearGradient id="SVGID_12_" gradientUnits="userSpaceOnUse" x1="-5075.3257" y1="1131.0879" x2="-5074.3257" y2="1131.0879" gradientTransform="matrix(8.2584 0 0 -8.2584 42078.2422 9379.2256)">
		<stop  offset="0" style="stop-color:#CBE0F4"/>
		<stop  offset="1" style="stop-color:#00ADEE"/>
	</linearGradient>
	<rect x="164.174" y="34.363" clip-path="url(#SVGID_11_)" fill="url(#SVGID_12_)" width="8.26" height="7.761"/>
</g>
<g>
	<defs>
		<polygon id="SVGID_13_" points="146.167,29.388 148.256,30.283 152.235,29.388 151.739,28.791 		"/>
	</defs>
	<clipPath id="SVGID_14_">
		<use xlink:href="#SVGID_13_"  overflow="visible"/>
	</clipPath>
	
		<linearGradient id="SVGID_15_" gradientUnits="userSpaceOnUse" x1="-5265.8516" y1="1150.6494" x2="-5264.8516" y2="1150.6494" gradientTransform="matrix(6.0694 0 0 -6.0694 32106.7207 7013.2886)">
		<stop  offset="0" style="stop-color:#CBE0F4"/>
		<stop  offset="1" style="stop-color:#00ADEE"/>
	</linearGradient>
	<rect x="146.167" y="28.791" clip-path="url(#SVGID_14_)" fill="url(#SVGID_15_)" width="6.068" height="1.492"/>
</g>
<g>
	<defs>
		<polygon id="SVGID_16_" points="170.743,24.922 175.319,49.587 257.505,33.069 254.72,11.38 		"/>
	</defs>
	<clipPath id="SVGID_17_">
		<use xlink:href="#SVGID_16_"  overflow="visible"/>
	</clipPath>
	
		<linearGradient id="SVGID_18_" gradientUnits="userSpaceOnUse" x1="-4597.2871" y1="1082.1504" x2="-4596.2871" y2="1082.1504" gradientTransform="matrix(86.7626 0 0 -86.7626 399043.2813 93920.7656)">
		<stop  offset="0" style="stop-color:#CBE0F4"/>
		<stop  offset="1" style="stop-color:#00ADEE"/>
	</linearGradient>
	<rect x="170.743" y="11.38" clip-path="url(#SVGID_17_)" fill="url(#SVGID_18_)" width="86.761" height="38.207"/>
</g>
<g>
	<defs>
		<path id="SVGID_19_" d="M155.354,25.507c-2.388,0.465-2.985,2.059-1.592,4.031c1.393,1.973,2.654,2.668,5.106,1.741
			c2.455-0.929,1.924-2.39,1.462-3.383c-0.404-0.864-1.331-2.516-3.752-2.515C156.206,25.382,155.8,25.42,155.354,25.507"/>
	</defs>
	<clipPath id="SVGID_20_">
		<use xlink:href="#SVGID_19_"  overflow="visible"/>
	</clipPath>
	
		<linearGradient id="SVGID_21_" gradientUnits="userSpaceOnUse" x1="-5113.543" y1="1134.9688" x2="-5112.543" y2="1134.9688" gradientTransform="matrix(7.7013 0 0 -7.7013 39533.9492 8769.5264)">
		<stop  offset="0" style="stop-color:#CBE0F4"/>
		<stop  offset="1" style="stop-color:#00ADEE"/>
	</linearGradient>
	<rect x="152.368" y="25.381" clip-path="url(#SVGID_20_)" fill="url(#SVGID_21_)" width="8.955" height="6.825"/>
</g>
<g>
	<defs>
		<path id="SVGID_22_" d="M149.849,31.685l3.173,21.482l12.681-2.852l-1.528-8.689l-1.523-2.985l-1.393-6.766
			c0,0-1.129,0.663-3.848,0.928c-2.718,0.267-3.781-2.32-3.781-2.32L149.849,31.685z"/>
	</defs>
	<clipPath id="SVGID_23_">
		<use xlink:href="#SVGID_22_"  overflow="visible"/>
	</clipPath>
	
		<linearGradient id="SVGID_24_" gradientUnits="userSpaceOnUse" x1="-4822.207" y1="1105.2012" x2="-4821.207" y2="1105.2012" gradientTransform="matrix(15.8534 0 0 -15.8534 76598.2188 17563.0234)">
		<stop  offset="0" style="stop-color:#CBE0F4"/>
		<stop  offset="1" style="stop-color:#00ADEE"/>
	</linearGradient>
	<rect x="149.849" y="30.482" clip-path="url(#SVGID_23_)" fill="url(#SVGID_24_)" width="15.852" height="22.685"/>
</g>
</svg>
