<?xml version="1.0" encoding="utf-8"?>
<!-- Generator: Adobe Illustrator 16.0.3, SVG Export Plug-In . SVG Version: 6.00 Build 0)  -->
<!DOCTYPE svg PUBLIC "-//W3C//DTD SVG 1.1//EN" "http://www.w3.org/Graphics/SVG/1.1/DTD/svg11.dtd">
<svg version="1.1" id="Layer_2" xmlns="http://www.w3.org/2000/svg" xmlns:xlink="http://www.w3.org/1999/xlink" x="0px" y="0px"
	 width="216px" height="123px" viewBox="0 0 216 123" enable-background="new 0 0 216 123" xml:space="preserve">
<g>
	<defs>
		<path id="SVGID_1_" d="M138.293,10.402c-0.014,0.029-0.031,0.071-0.045,0.103c-0.025,0.063-0.061,0.146-0.09,0.207
			c-0.026,0.063-0.061,0.146-0.09,0.206c-0.012,0.031-0.029,0.073-0.041,0.104c-0.027,0.061-0.064,0.143-0.09,0.203
			c-0.025,0.062-0.061,0.144-0.09,0.204c-0.012,0.031-0.031,0.071-0.041,0.102c-0.029,0.061-0.064,0.144-0.09,0.205
			c-0.025,0.058-0.063,0.141-0.087,0.201c-0.012,0.03-0.03,0.07-0.044,0.102c-0.027,0.059-0.061,0.141-0.088,0.199
			c-0.033,0.083-0.057,0.167-0.068,0.257c-0.012,0.091-0.01,0.183,0.006,0.281c0.016,0.097,0.043,0.197,0.084,0.301
			c0.043,0.105,0.099,0.211,0.168,0.322c0.1,0.154,0.225,0.31,0.367,0.458c0.146,0.149,0.313,0.296,0.494,0.435
			c0.186,0.14,0.387,0.274,0.6,0.401c0.218,0.127,0.447,0.247,0.688,0.356l0.957-2.064c-0.246-0.11-0.48-0.23-0.702-0.354
			c-0.22-0.127-0.427-0.261-0.614-0.402c-0.188-0.139-0.359-0.281-0.512-0.432c-0.146-0.147-0.273-0.301-0.377-0.456
			c-0.072-0.107-0.129-0.214-0.174-0.316c-0.045-0.104-0.073-0.202-0.089-0.299c-0.017-0.097-0.019-0.19-0.011-0.277
			c0.011-0.089,0.035-0.173,0.069-0.253C138.355,10.256,138.32,10.34,138.293,10.402"/>
	</defs>
	<clipPath id="SVGID_2_">
		<use xlink:href="#SVGID_1_"  overflow="visible"/>
	</clipPath>
	<path clip-path="url(#SVGID_2_)" fill="#407E92" d="M140.793,12.985l-0.957,2.064c-0.24-0.109-0.469-0.229-0.686-0.355
		c-0.215-0.127-0.416-0.261-0.602-0.401c-0.182-0.14-0.35-0.286-0.494-0.436s-0.268-0.303-0.367-0.458
		c-0.07-0.11-0.126-0.218-0.168-0.321c-0.041-0.104-0.068-0.205-0.084-0.302c-0.016-0.098-0.018-0.191-0.005-0.281
		c0.011-0.089,0.033-0.175,0.069-0.256l0.883-2.045c-0.035,0.08-0.057,0.165-0.066,0.253c-0.011,0.089-0.008,0.182,0.008,0.278
		c0.017,0.096,0.047,0.195,0.09,0.299c0.043,0.103,0.102,0.209,0.174,0.317c0.104,0.155,0.23,0.308,0.379,0.455
		c0.15,0.149,0.32,0.294,0.509,0.434s0.396,0.272,0.615,0.399C140.313,12.756,140.547,12.875,140.793,12.985"/>
</g>
<g>
	<defs>
		<path id="SVGID_3_" d="M145.951,13.26c-0.133,0.106-0.299,0.195-0.498,0.269c-0.196,0.072-0.424,0.127-0.68,0.159
			c-0.256,0.035-0.541,0.05-0.851,0.04c-0.209-0.005-0.421-0.021-0.634-0.047c-0.217-0.025-0.43-0.061-0.646-0.105
			c-0.213-0.042-0.428-0.097-0.641-0.155c-0.209-0.061-0.418-0.127-0.625-0.202l-0.968,2.065c0.202,0.075,0.405,0.141,0.612,0.202
			c0.207,0.059,0.418,0.109,0.627,0.152c0.211,0.044,0.424,0.079,0.635,0.104c0.209,0.025,0.418,0.042,0.625,0.047
			c0.303,0.007,0.583-0.007,0.836-0.042c0.252-0.038,0.477-0.094,0.672-0.167s0.361-0.165,0.496-0.273
			c0.131-0.104,0.234-0.228,0.303-0.36l1.04-2.042C146.188,13.035,146.086,13.155,145.951,13.26"/>
	</defs>
	<clipPath id="SVGID_4_">
		<use xlink:href="#SVGID_3_"  overflow="visible"/>
	</clipPath>
	<path clip-path="url(#SVGID_4_)" fill="#407E92" d="M146.256,12.903l-1.041,2.042c-0.068,0.134-0.17,0.255-0.305,0.361
		c-0.133,0.106-0.299,0.198-0.494,0.271c-0.194,0.074-0.42,0.131-0.672,0.166c-0.252,0.036-0.533,0.051-0.836,0.044
		c-0.207-0.006-0.416-0.021-0.627-0.047c-0.209-0.024-0.42-0.059-0.632-0.103c-0.21-0.043-0.42-0.096-0.628-0.154
		c-0.207-0.061-0.412-0.127-0.613-0.201l0.969-2.064c0.205,0.073,0.414,0.142,0.627,0.2c0.211,0.061,0.425,0.112,0.64,0.156
		s0.429,0.079,0.644,0.105c0.215,0.025,0.426,0.042,0.637,0.048c0.309,0.009,0.593-0.005,0.85-0.039
		c0.256-0.035,0.483-0.09,0.682-0.162c0.197-0.072,0.363-0.162,0.498-0.267C146.086,13.155,146.188,13.035,146.256,12.903"/>
</g>
<g>
	<defs>
		<path id="SVGID_5_" d="M94.875,7.78c-0.1,0.164-0.234,0.318-0.41,0.463c-0.172,0.141-0.381,0.27-0.622,0.383
			c-0.239,0.112-0.512,0.209-0.808,0.286l-0.11,2.218c0.291-0.078,0.56-0.176,0.794-0.292c0.234-0.115,0.442-0.246,0.613-0.39
			c0.17-0.146,0.305-0.304,0.4-0.47c0.096-0.169,0.151-0.346,0.164-0.53l0.143-2.192C95.027,7.439,94.971,7.613,94.875,7.78"/>
	</defs>
	<clipPath id="SVGID_6_">
		<use xlink:href="#SVGID_5_"  overflow="visible"/>
	</clipPath>
	<path clip-path="url(#SVGID_6_)" fill="#407E92" d="M95.04,7.256l-0.144,2.191c-0.013,0.186-0.068,0.363-0.164,0.53
		c-0.096,0.168-0.23,0.326-0.4,0.47c-0.172,0.146-0.377,0.276-0.613,0.392s-0.502,0.213-0.793,0.292l0.111-2.218
		c0.295-0.077,0.566-0.174,0.807-0.286c0.24-0.113,0.449-0.242,0.621-0.385c0.175-0.142,0.313-0.298,0.41-0.464
		C94.971,7.613,95.027,7.438,95.04,7.256"/>
</g>
<g>
	<defs>
		<path id="SVGID_7_" d="M86.723,8.957c0.004,0.305,0.123,0.599,0.34,0.874c0.215,0.275,0.527,0.528,0.91,0.747
			c0.389,0.218,0.848,0.398,1.356,0.531s1.065,0.213,1.646,0.231c0.123,0.002,0.244,0.005,0.364,0.002
			c0.12-0.002,0.238-0.007,0.354-0.016c0.115-0.007,0.23-0.017,0.342-0.03c0.111-0.015,0.223-0.029,0.331-0.047l0.098-2.223
			c-0.11,0.019-0.22,0.032-0.336,0.045c-0.114,0.014-0.229,0.022-0.347,0.029c-0.117,0.009-0.238,0.013-0.363,0.016
			c-0.119,0-0.243,0-0.369-0.005c-0.59-0.02-1.158-0.104-1.678-0.235c-0.518-0.134-0.987-0.314-1.379-0.533
			c-0.393-0.216-0.71-0.47-0.93-0.743c-0.22-0.271-0.342-0.565-0.347-0.865L86.723,8.957z"/>
	</defs>
	<clipPath id="SVGID_8_">
		<use xlink:href="#SVGID_7_"  overflow="visible"/>
	</clipPath>
	<path clip-path="url(#SVGID_8_)" fill="#407E92" d="M92.465,9.027l-0.1,2.222c-0.107,0.019-0.219,0.034-0.33,0.047
		c-0.112,0.014-0.227,0.024-0.342,0.032c-0.116,0.007-0.234,0.012-0.354,0.015s-0.242,0.002-0.365-0.003
		c-0.58-0.017-1.137-0.099-1.646-0.23c-0.508-0.132-0.967-0.314-1.354-0.532c-0.386-0.218-0.696-0.471-0.914-0.747
		c-0.215-0.273-0.334-0.568-0.338-0.873l-0.006-2.222c0.004,0.301,0.125,0.594,0.344,0.866c0.221,0.272,0.539,0.524,0.931,0.742
		c0.394,0.218,0.862,0.399,1.38,0.532c0.52,0.134,1.088,0.217,1.678,0.235c0.125,0.005,0.249,0.006,0.371,0.004
		c0.123-0.001,0.242-0.006,0.36-0.013s0.233-0.018,0.349-0.03C92.243,9.061,92.355,9.045,92.465,9.027"/>
</g>
<polygon fill="#3D7A8E" points="141.377,13.219 140.408,15.283 128.271,31.839 129.206,29.637 "/>
<polygon fill="#3D7A8E" points="108.594,27.251 108.113,29.521 92.365,11.249 92.465,9.027 "/>
<g>
	<defs>
		<path id="SVGID_9_" d="M101.109,37.66c-0.035,0.237-0.064,0.477-0.082,0.721c-0.02,0.244-0.027,0.493-0.031,0.745
			c0,0.251,0.006,0.507,0.025,0.765c0.018,0.26,0.045,0.522,0.082,0.787c0.026,0.188,0.06,0.376,0.095,0.564
			c0.034,0.188,0.077,0.376,0.122,0.563c0.047,0.19,0.098,0.378,0.152,0.564c0.057,0.189,0.115,0.378,0.182,0.563l0.385-2.27
			c-0.068-0.188-0.131-0.378-0.188-0.566c-0.059-0.189-0.11-0.378-0.158-0.567c-0.049-0.188-0.092-0.376-0.129-0.566
			c-0.037-0.188-0.07-0.379-0.1-0.566c-0.037-0.268-0.066-0.53-0.086-0.791c-0.02-0.26-0.027-0.516-0.027-0.769
			c0-0.252,0.008-0.501,0.027-0.747c0.02-0.242,0.047-0.483,0.085-0.721L101.109,37.66z"/>
	</defs>
	<clipPath id="SVGID_10_">
		<use xlink:href="#SVGID_9_"  overflow="visible"/>
	</clipPath>
	<path clip-path="url(#SVGID_10_)" fill="#407E92" d="M102.039,40.664l-0.385,2.271c-0.065-0.188-0.125-0.375-0.182-0.563
		c-0.055-0.188-0.105-0.376-0.152-0.564c-0.045-0.188-0.086-0.375-0.123-0.564c-0.035-0.188-0.066-0.376-0.094-0.564
		c-0.037-0.265-0.064-0.527-0.082-0.787c-0.018-0.259-0.025-0.514-0.025-0.767c0.002-0.251,0.012-0.499,0.031-0.743
		c0.019-0.243,0.047-0.483,0.082-0.721l0.354-2.291c-0.037,0.238-0.064,0.479-0.083,0.723c-0.019,0.245-0.028,0.493-0.03,0.745
		c0,0.253,0.01,0.51,0.029,0.77s0.049,0.523,0.088,0.791c0.027,0.188,0.061,0.378,0.098,0.565c0.039,0.189,0.08,0.379,0.129,0.567
		c0.047,0.19,0.1,0.379,0.156,0.568C101.908,40.287,101.972,40.477,102.039,40.664"/>
</g>
<g>
	<defs>
		<path id="SVGID_11_" d="M101.904,43.603c0.509,1.253,1.218,2.47,2.104,3.625c0.899,1.177,1.982,2.285,3.211,3.301
			c1.25,1.028,2.645,1.954,4.153,2.751c1.522,0.803,3.151,1.47,4.849,1.971l0.842-2.133c-1.746-0.512-3.426-1.189-4.996-2.004
			c-1.555-0.809-2.994-1.748-4.281-2.788c-1.268-1.027-2.385-2.147-3.314-3.336c-0.914-1.165-1.646-2.392-2.171-3.65L101.904,43.603
			z"/>
	</defs>
	<clipPath id="SVGID_12_">
		<use xlink:href="#SVGID_11_"  overflow="visible"/>
	</clipPath>
	<path clip-path="url(#SVGID_12_)" fill="#407E92" d="M117.063,53.115l-0.844,2.134c-1.695-0.5-3.324-1.167-4.848-1.971
		c-1.508-0.796-2.903-1.723-4.152-2.752c-1.229-1.014-2.311-2.123-3.212-3.3c-0.886-1.155-1.595-2.371-2.101-3.623l0.393-2.266
		c0.525,1.261,1.258,2.486,2.17,3.651c0.932,1.188,2.048,2.31,3.316,3.336c1.287,1.04,2.728,1.979,4.281,2.787
		C113.637,51.928,115.316,52.605,117.063,53.115"/>
</g>
<g>
	<defs>
		<path id="SVGID_13_" d="M178.836,63.337c-0.164,0.118-0.309,0.252-0.432,0.404c-0.125,0.15-0.228,0.319-0.311,0.501
			c-0.082,0.183-0.143,0.38-0.18,0.592c-0.039,0.211-0.057,0.434-0.051,0.672l2.658-1.858c-0.013-0.239,0-0.468,0.035-0.682
			c0.034-0.214,0.094-0.413,0.174-0.596c0.08-0.187,0.181-0.355,0.305-0.508c0.123-0.153,0.268-0.289,0.436-0.409L178.836,63.337z"
			/>
	</defs>
	<clipPath id="SVGID_14_">
		<use xlink:href="#SVGID_13_"  overflow="visible"/>
	</clipPath>
	<path clip-path="url(#SVGID_14_)" fill="#407E92" d="M180.521,63.647l-2.657,1.857c-0.007-0.236,0.011-0.461,0.049-0.673
		c0.038-0.21,0.099-0.406,0.181-0.59c0.082-0.182,0.186-0.35,0.311-0.501c0.123-0.151,0.268-0.287,0.434-0.405l2.633-1.883
		c-0.168,0.119-0.313,0.255-0.436,0.408c-0.124,0.153-0.227,0.323-0.307,0.507c-0.079,0.186-0.137,0.385-0.172,0.598
		C180.521,63.181,180.51,63.407,180.521,63.647"/>
</g>
<polygon fill="#3D7A8E" points="180.645,64.448 177.967,66.295 136.512,49.639 137.836,47.512 "/>
<g>
	<defs>
		<path id="SVGID_15_" d="M135.471,50.556c-0.783,0.693-1.693,1.307-2.725,1.823c-1.04,0.524-2.203,0.944-3.473,1.25
			c-1.279,0.307-2.664,0.493-4.139,0.542c-0.594,0.022-1.191,0.018-1.787-0.007c-0.596-0.026-1.193-0.072-1.789-0.141
			s-1.189-0.157-1.781-0.266c-0.59-0.107-1.178-0.234-1.758-0.381l-0.871,2.129c0.563,0.142,1.135,0.268,1.707,0.373
			c0.574,0.106,1.151,0.19,1.73,0.256c0.579,0.066,1.16,0.111,1.742,0.134c0.58,0.024,1.158,0.026,1.738,0.006
			c1.436-0.055,2.785-0.242,4.033-0.551c1.24-0.303,2.375-0.723,3.395-1.245c1.01-0.514,1.904-1.122,2.674-1.813
			c0.76-0.682,1.398-1.436,1.909-2.253l1.321-2.121C136.887,49.114,136.241,49.873,135.471,50.556"/>
	</defs>
	<clipPath id="SVGID_16_">
		<use xlink:href="#SVGID_15_"  overflow="visible"/>
	</clipPath>
	<path clip-path="url(#SVGID_16_)" fill="#407E92" d="M137.398,48.292l-1.322,2.122c-0.51,0.816-1.146,1.571-1.908,2.251
		c-0.77,0.69-1.664,1.3-2.673,1.815c-1.021,0.52-2.155,0.94-3.396,1.245c-1.248,0.307-2.598,0.494-4.035,0.548
		c-0.578,0.021-1.157,0.02-1.737-0.003c-0.581-0.024-1.162-0.069-1.741-0.135c-0.578-0.065-1.156-0.151-1.73-0.258
		c-0.573-0.105-1.143-0.23-1.707-0.374l0.871-2.127c0.582,0.146,1.168,0.273,1.758,0.382s1.186,0.197,1.781,0.265
		c0.594,0.067,1.193,0.114,1.789,0.14c0.597,0.025,1.192,0.029,1.787,0.009c1.476-0.05,2.86-0.236,4.14-0.543
		c1.27-0.305,2.431-0.727,3.473-1.249c1.03-0.517,1.94-1.13,2.724-1.824C136.242,49.873,136.887,49.113,137.398,48.292"/>
</g>
<g>
	<defs>
		<path id="SVGID_17_" d="M25.857,40.938c0.074,0.209,0.121,0.43,0.139,0.659c0.02,0.23,0.004,0.473-0.037,0.722
			c-0.043,0.251-0.118,0.512-0.227,0.779l1.771,2.479c0.1-0.266,0.166-0.524,0.206-0.773c0.038-0.249,0.047-0.487,0.026-0.716
			c-0.02-0.228-0.068-0.446-0.144-0.653s-0.175-0.398-0.3-0.583l-1.736-2.501C25.684,40.535,25.783,40.73,25.857,40.938"/>
	</defs>
	<clipPath id="SVGID_18_">
		<use xlink:href="#SVGID_17_"  overflow="visible"/>
	</clipPath>
	<path clip-path="url(#SVGID_18_)" fill="#407E92" d="M25.556,40.351l1.735,2.501c0.127,0.182,0.227,0.377,0.303,0.583
		c0.074,0.206,0.123,0.424,0.143,0.651c0.02,0.229,0.012,0.469-0.025,0.718c-0.039,0.249-0.107,0.507-0.207,0.772l-1.771-2.479
		c0.106-0.268,0.181-0.528,0.226-0.779c0.043-0.25,0.055-0.491,0.037-0.722s-0.063-0.45-0.138-0.658
		C25.783,40.73,25.682,40.534,25.556,40.351"/>
</g>
<polygon fill="#3D7A8E" points="102.299,41.338 101.905,43.604 27.127,46.349 25.332,43.877 "/>
<g>
	<defs>
		<path id="SVGID_19_" d="M194.244,73.19c0.014-0.008,0.027-0.015,0.043-0.022L194.244,73.19z M177.968,66.295
			c0.042,0.209,0.101,0.423,0.177,0.644c0.074,0.221,0.164,0.448,0.27,0.679c0.105,0.232,0.225,0.47,0.361,0.71
			c0.139,0.242,0.291,0.488,0.463,0.737c0.596,0.871,1.332,1.702,2.156,2.46c0.832,0.763,1.752,1.443,2.701,2.013
			c0.956,0.568,1.938,1.019,2.887,1.313c0.949,0.294,1.861,0.429,2.674,0.369c0.137-0.012,0.268-0.025,0.395-0.047
			c0.127-0.021,0.249-0.045,0.365-0.075c0.117-0.032,0.227-0.067,0.334-0.107c0.104-0.04,0.206-0.085,0.299-0.134l3.195-1.665
			c-0.083,0.043-0.171,0.079-0.264,0.113c-0.107,0.043-0.221,0.078-0.338,0.108c-0.119,0.031-0.244,0.057-0.373,0.078
			c-0.129,0.021-0.264,0.038-0.404,0.047c-0.834,0.059-1.773-0.08-2.758-0.381c-0.982-0.3-2.002-0.762-2.998-1.343
			c-0.988-0.578-1.951-1.273-2.826-2.052c-0.863-0.768-1.639-1.613-2.27-2.502c-0.182-0.253-0.346-0.502-0.492-0.749
			c-0.145-0.244-0.274-0.483-0.389-0.721c-0.113-0.235-0.21-0.465-0.293-0.688c-0.078-0.224-0.145-0.441-0.197-0.653L177.968,66.295
			z"/>
	</defs>
	<clipPath id="SVGID_20_">
		<use xlink:href="#SVGID_19_"  overflow="visible"/>
	</clipPath>
	<path clip-path="url(#SVGID_20_)" fill="#407E92" d="M194.287,73.169l-3.236,1.685c-0.096,0.05-0.197,0.096-0.303,0.136
		c-0.105,0.041-0.217,0.075-0.332,0.106c-0.117,0.03-0.238,0.056-0.365,0.077c-0.125,0.02-0.258,0.035-0.395,0.045
		c-0.813,0.06-1.723-0.075-2.674-0.369c-0.948-0.293-1.93-0.743-2.887-1.313c-0.949-0.566-1.869-1.249-2.702-2.013
		c-0.825-0.755-1.562-1.587-2.157-2.459c-0.17-0.249-0.322-0.495-0.46-0.736c-0.136-0.241-0.259-0.479-0.364-0.71
		c-0.104-0.231-0.193-0.458-0.269-0.68c-0.075-0.22-0.134-0.435-0.177-0.644l2.678-1.847c0.05,0.212,0.115,0.43,0.197,0.652
		c0.08,0.226,0.178,0.455,0.291,0.69c0.113,0.234,0.244,0.476,0.39,0.721c0.147,0.245,0.31,0.495,0.491,0.748
		c0.63,0.888,1.406,1.734,2.271,2.503c0.873,0.777,1.834,1.473,2.824,2.051c0.996,0.582,2.018,1.042,2.998,1.343
		c0.984,0.301,1.924,0.438,2.758,0.381c0.141-0.011,0.275-0.026,0.404-0.046c0.129-0.021,0.254-0.048,0.373-0.078
		c0.117-0.031,0.23-0.067,0.339-0.107C194.088,73.265,194.19,73.219,194.287,73.169"/>
</g>
<g>
	<defs>
		<path id="SVGID_21_" d="M23.568,45.875c-0.741,0.631-1.617,1.209-2.573,1.703c-0.966,0.498-2.015,0.909-3.082,1.202
			c-1.079,0.296-2.179,0.47-3.237,0.496c-0.508,0.009-0.982-0.015-1.424-0.068c-0.439-0.057-0.846-0.143-1.212-0.259
			c-0.37-0.115-0.698-0.26-0.987-0.43c-0.287-0.17-0.537-0.364-0.742-0.58l2.342,2.472c0.203,0.213,0.447,0.406,0.729,0.573
			c0.282,0.166,0.602,0.307,0.961,0.423c0.357,0.111,0.749,0.196,1.178,0.251c0.426,0.052,0.885,0.075,1.377,0.061
			c1.021-0.025,2.082-0.202,3.121-0.496c1.031-0.293,2.037-0.704,2.965-1.197c0.916-0.491,1.754-1.064,2.465-1.691
			c0.701-0.62,1.277-1.29,1.678-1.985l-1.794-2.471C24.908,44.576,24.301,45.252,23.568,45.875"/>
	</defs>
	<clipPath id="SVGID_22_">
		<use xlink:href="#SVGID_21_"  overflow="visible"/>
	</clipPath>
	<path clip-path="url(#SVGID_22_)" fill="#407E92" d="M25.332,43.877l1.795,2.473c-0.403,0.694-0.979,1.365-1.68,1.984
		c-0.709,0.627-1.549,1.2-2.467,1.69c-0.928,0.495-1.932,0.905-2.963,1.198c-1.037,0.295-2.098,0.471-3.123,0.497
		c-0.488,0.013-0.949-0.009-1.377-0.062c-0.426-0.055-0.818-0.14-1.177-0.253c-0.356-0.113-0.679-0.255-0.961-0.422
		s-0.524-0.358-0.728-0.572l-2.342-2.473c0.205,0.216,0.453,0.411,0.742,0.581s0.617,0.314,0.986,0.431
		c0.367,0.115,0.773,0.202,1.213,0.258c0.441,0.055,0.916,0.079,1.423,0.066c1.06-0.022,2.159-0.198,3.237-0.494
		c1.07-0.294,2.117-0.705,3.082-1.203c0.957-0.493,1.832-1.07,2.574-1.701C24.303,45.252,24.906,44.577,25.332,43.877"/>
</g>
<polygon fill="#3F7D91" points="108.06,89.123 107.287,90.589 116.219,55.249 117.063,53.116 "/>
<g>
	<defs>
		<path id="SVGID_23_" d="M97.361,96.525c-0.105,0.325-0.193,0.661-0.27,1.008c-0.074,0.345-0.133,0.7-0.176,1.061
			c-0.045,0.362-0.073,0.733-0.082,1.109c-0.012,0.376-0.005,0.759,0.021,1.148c0.096,1.462,0.44,2.85,0.988,4.106
			c0.555,1.275,1.315,2.41,2.227,3.343c0.922,0.942,1.992,1.674,3.152,2.132c1.166,0.464,2.416,0.646,3.687,0.498
			c0.37-0.042,0.735-0.114,1.088-0.211c0.353-0.096,0.694-0.218,1.024-0.363c0.33-0.146,0.646-0.315,0.953-0.506
			c0.305-0.189,0.596-0.401,0.877-0.632c0.338-0.282,0.676-0.563,1.016-0.846c-0.288,0.24-0.592,0.458-0.906,0.656
			c-0.316,0.196-0.648,0.371-0.99,0.523c-0.344,0.15-0.701,0.277-1.068,0.375c-0.368,0.102-0.746,0.174-1.133,0.22
			c-1.324,0.154-2.627-0.038-3.845-0.52c-1.214-0.477-2.332-1.238-3.295-2.215c-0.954-0.971-1.749-2.147-2.331-3.468
			c-0.572-1.304-0.938-2.741-1.04-4.251c-0.028-0.402-0.034-0.8-0.026-1.189c0.01-0.39,0.039-0.77,0.082-1.146
			c0.045-0.371,0.105-0.738,0.186-1.096c0.074-0.354,0.165-0.702,0.273-1.041L97.361,96.525z"/>
	</defs>
	<clipPath id="SVGID_24_">
		<use xlink:href="#SVGID_23_"  overflow="visible"/>
	</clipPath>
	<path clip-path="url(#SVGID_24_)" fill="#407E92" d="M111.867,108.372l-1.018,0.847c-0.278,0.231-0.57,0.442-0.874,0.633
		c-0.306,0.189-0.624,0.358-0.954,0.505c-0.33,0.145-0.672,0.267-1.025,0.364c-0.353,0.097-0.716,0.168-1.088,0.211
		c-1.27,0.148-2.52-0.036-3.685-0.497c-1.162-0.46-2.231-1.191-3.152-2.133c-0.911-0.934-1.673-2.068-2.228-3.343
		c-0.547-1.258-0.893-2.646-0.988-4.107c-0.025-0.388-0.032-0.772-0.021-1.15c0.01-0.375,0.037-0.745,0.08-1.107
		c0.045-0.361,0.104-0.715,0.18-1.062c0.074-0.344,0.164-0.681,0.268-1.008l0.412-1.301c-0.107,0.338-0.199,0.685-0.275,1.04
		c-0.078,0.357-0.139,0.723-0.184,1.096c-0.045,0.375-0.072,0.756-0.082,1.146s-0.002,0.785,0.025,1.188
		c0.104,1.512,0.468,2.95,1.041,4.252c0.582,1.322,1.377,2.499,2.332,3.468c0.963,0.979,2.08,1.738,3.293,2.217
		c1.218,0.479,2.521,0.673,3.846,0.52c0.388-0.046,0.766-0.119,1.133-0.219c0.367-0.101,0.723-0.228,1.066-0.378
		c0.344-0.151,0.675-0.326,0.992-0.523C111.276,108.831,111.58,108.612,111.867,108.372"/>
</g>
<g>
	<defs>
		<path id="SVGID_25_" d="M89.184,4.886c-0.482,0.087-0.916,0.222-1.281,0.393c-0.368,0.176-0.664,0.39-0.871,0.634
			c-0.207,0.247-0.32,0.527-0.315,0.823c0.005,0.3,0.127,0.594,0.347,0.865c0.22,0.273,0.537,0.527,0.93,0.743
			c0.392,0.219,0.861,0.399,1.379,0.533c0.52,0.132,1.088,0.216,1.678,0.235c0.126,0.005,0.25,0.005,0.369,0.005
			c0.125-0.003,0.246-0.007,0.363-0.016c0.117-0.007,0.232-0.016,0.347-0.029c0.116-0.013,0.226-0.026,0.336-0.045l16.129,18.224
			c-1.184,0.472-2.255,1.067-3.188,1.771c-0.947,0.715-1.756,1.546-2.397,2.474c-0.653,0.947-1.132,1.999-1.403,3.138
			c-0.273,1.168-0.332,2.429-0.139,3.764c0.029,0.188,0.063,0.379,0.1,0.566c0.037,0.19,0.08,0.378,0.129,0.566
			c0.048,0.189,0.1,0.378,0.158,0.567c0.057,0.188,0.119,0.378,0.188,0.566l-76.307,2.434c0.261-0.647,0.33-1.252,0.227-1.792
			c-0.102-0.533-0.373-1.006-0.786-1.397c-0.413-0.389-0.97-0.695-1.655-0.907c-0.686-0.209-1.498-0.319-2.427-0.31
			c-0.993,0.007-2.028,0.149-3.047,0.403c-1.026,0.254-2.046,0.623-3.001,1.076c-0.966,0.46-1.871,1.01-2.658,1.628
			c-0.796,0.622-1.472,1.313-1.967,2.046c-0.5,0.742-0.766,1.456-0.813,2.109c-0.045,0.66,0.129,1.255,0.51,1.755
			c0.382,0.503,0.969,0.907,1.738,1.179c0.771,0.273,1.721,0.411,2.822,0.389c1.059-0.026,2.158-0.2,3.237-0.496
			c1.067-0.293,2.116-0.704,3.082-1.202c0.956-0.494,1.832-1.072,2.573-1.703c0.732-0.623,1.34-1.299,1.763-1.997l76.969-2.539
			c0.524,1.259,1.257,2.485,2.171,3.65c0.93,1.188,2.047,2.309,3.314,3.336c1.287,1.04,2.727,1.979,4.281,2.788
			c1.57,0.814,3.25,1.492,4.996,2.004l-9.002,36.006c-0.235-0.071-0.475-0.129-0.713-0.179c-0.24-0.05-0.48-0.089-0.726-0.115
			c-0.244-0.028-0.491-0.044-0.741-0.047c-0.248-0.004-0.497,0.005-0.748,0.025c-1.17,0.097-2.26,0.456-3.232,1.022
			c-0.982,0.573-1.852,1.362-2.564,2.316c-0.723,0.968-1.288,2.106-1.652,3.37c-0.369,1.283-0.525,2.694-0.425,4.175
			c0.103,1.513,0.468,2.95,1.04,4.254c0.582,1.32,1.377,2.497,2.331,3.468c0.963,0.977,2.081,1.738,3.295,2.215
			c1.218,0.481,2.521,0.674,3.845,0.52c1.319-0.153,2.524-0.635,3.566-1.37c1.033-0.726,1.906-1.698,2.575-2.837
			c0.659-1.125,1.12-2.408,1.349-3.782c0.223-1.354,0.221-2.789-0.037-4.245c-0.175-0.984-0.457-1.914-0.826-2.777
			c-0.363-0.852-0.813-1.639-1.334-2.349c-0.517-0.702-1.099-1.329-1.732-1.865c-0.631-0.535-1.313-0.981-2.032-1.327l8.722-36.218
			c0.58,0.146,1.168,0.273,1.758,0.381c0.592,0.108,1.186,0.197,1.781,0.266s1.193,0.114,1.789,0.141
			c0.596,0.024,1.193,0.029,1.787,0.007c1.592-0.054,3.075-0.265,4.438-0.617c1.348-0.348,2.57-0.83,3.652-1.426
			c1.068-0.588,1.996-1.283,2.771-2.067c0.767-0.772,1.382-1.628,1.841-2.549l42.807,16.937c0.053,0.212,0.119,0.43,0.197,0.653
			c0.083,0.224,0.18,0.453,0.293,0.688c0.114,0.237,0.244,0.477,0.389,0.721c0.146,0.247,0.311,0.496,0.492,0.749
			c0.631,0.889,1.406,1.734,2.27,2.502c0.875,0.778,1.838,1.474,2.826,2.052c0.996,0.581,2.016,1.043,2.998,1.343
			c0.984,0.301,1.924,0.439,2.758,0.381c0.828-0.06,1.471-0.309,1.917-0.707c0.442-0.396,0.69-0.936,0.745-1.579
			c0.054-0.639-0.084-1.376-0.409-2.173c-0.322-0.789-0.831-1.632-1.525-2.499c-0.683-0.854-1.487-1.649-2.346-2.356
			c-0.854-0.699-1.771-1.317-2.695-1.822c-0.919-0.503-1.849-0.897-2.739-1.156c-0.89-0.26-1.742-0.385-2.513-0.347
			c-0.47,0.022-0.882,0.104-1.237,0.241s-0.648,0.324-0.883,0.562c-0.236,0.236-0.41,0.523-0.52,0.848
			c-0.111,0.329-0.158,0.695-0.139,1.1l-42.416-16.719c0.283-0.676,0.482-1.379,0.601-2.106c0.114-0.716,0.149-1.454,0.101-2.206
			c-0.05-0.742-0.179-1.501-0.393-2.267c-0.209-0.754-0.5-1.518-0.873-2.285c-0.428-0.874-0.945-1.716-1.535-2.515
			c-0.582-0.789-1.24-1.541-1.957-2.248c-0.706-0.7-1.474-1.359-2.29-1.975c-0.806-0.609-1.659-1.172-2.553-1.691l12.171-16.418
			c0.207,0.075,0.416,0.142,0.625,0.202c0.213,0.059,0.428,0.113,0.641,0.155c0.217,0.045,0.43,0.08,0.646,0.105
			c0.213,0.026,0.425,0.042,0.634,0.047c0.524,0.017,0.974-0.034,1.341-0.139c0.364-0.103,0.646-0.261,0.829-0.458
			c0.183-0.195,0.273-0.43,0.259-0.695c-0.016-0.261-0.135-0.55-0.363-0.853s-0.547-0.592-0.924-0.855
			c-0.377-0.263-0.813-0.5-1.282-0.704c-0.468-0.202-0.968-0.368-1.476-0.491c-0.508-0.122-1.024-0.197-1.521-0.213
			c-0.498-0.02-0.936,0.022-1.295,0.111c-0.362,0.093-0.651,0.233-0.85,0.414c-0.203,0.182-0.315,0.404-0.33,0.655
			c-0.014,0.254,0.076,0.538,0.277,0.841c0.104,0.155,0.23,0.309,0.377,0.456c0.152,0.15,0.323,0.293,0.512,0.432
			c0.188,0.142,0.395,0.275,0.614,0.402c0.222,0.124,0.456,0.244,0.702,0.354l-12.252,16.276c-0.943-0.512-1.928-0.972-2.938-1.374
			c-1.004-0.399-2.041-0.745-3.09-1.026c-1.051-0.279-2.119-0.5-3.199-0.65c-1.082-0.153-2.174-0.238-3.271-0.249
			c-0.632-0.005-1.247,0.014-1.849,0.056s-1.188,0.11-1.76,0.2c-0.572,0.089-1.127,0.202-1.664,0.336
			c-0.541,0.134-1.063,0.291-1.565,0.47L93.035,8.912c0.326-0.084,0.619-0.192,0.877-0.319s0.477-0.272,0.65-0.435
			s0.305-0.338,0.385-0.526c0.08-0.186,0.111-0.385,0.087-0.592c-0.037-0.296-0.185-0.578-0.423-0.839
			c-0.234-0.26-0.56-0.495-0.946-0.697c-0.386-0.202-0.834-0.369-1.329-0.494c-0.488-0.122-1.025-0.199-1.582-0.223
			c-0.105-0.004-0.211-0.006-0.314-0.006C89.996,4.781,89.573,4.817,89.184,4.886"/>
	</defs>
	<clipPath id="SVGID_26_">
		<use xlink:href="#SVGID_25_"  overflow="visible"/>
	</clipPath>
	
		<radialGradient id="SVGID_27_" cx="-4505.5923" cy="1053.9404" r="0.9998" gradientTransform="matrix(-28.1041 -4.2582 -4.2582 28.1041 -122017.8203 -48765.1758)" gradientUnits="userSpaceOnUse">
		<stop  offset="0" style="stop-color:#CAE0F3"/>
		<stop  offset="0.7191" style="stop-color:#29AAE1"/>
		<stop  offset="1" style="stop-color:#29AAE1"/>
	</radialGradient>
	<polygon clip-path="url(#SVGID_26_)" fill="url(#SVGID_27_)" points="191.406,137.854 -6.07,107.934 13.734,-22.771 211.211,7.149 
			"/>
</g>
</svg>
